<?xml version="1.0" encoding="utf-8"?>
<!-- Generator: Adobe Illustrator 15.1.0, SVG Export Plug-In . SVG Version: 6.00 Build 0)  -->
<!DOCTYPE svg PUBLIC "-//W3C//DTD SVG 1.1//EN" "http://www.w3.org/Graphics/SVG/1.1/DTD/svg11.dtd">
<svg version="1.1" id="Ebene_1" xmlns="http://www.w3.org/2000/svg" xmlns:xlink="http://www.w3.org/1999/xlink" x="0px" y="0px"
	 width="283.46px" height="283.46px" viewBox="0 0 283.46 283.46" enable-background="new 0 0 283.46 283.46" xml:space="preserve">
<g>
	<path fill="#718027" d="M165.754,104.997c-18.848-1.263-34.508,13.225-35.806,30.322c-0.146,1.933,0.502,4.191,0,6.128
		c-0.75,2.899-4.194,4.922-5.16,8.387c-2.816-1.043-8.761-3.877-12.257-0.969c-2.455,2.044-2.267,6.334-4.193,9.355
		c-1.009,1.583-2.93,3.513-5.161,4.192c-4.771,1.457-9.495,0.512-12.901,2.903c-3.774,2.65-4.182,8.036-4.838,13.224
		c1.897-2.782,1.905-8.781,5.483-11.288c3.106-2.179,9.279-0.884,13.546-2.259c2.209-0.712,4.805-3.541,6.128-5.482
		c1.756-2.573,2.399-6.514,4.84-7.42c3.228-1.195,9.362,5.424,13.225,1.291c1.377,1.312,3.156,2.221,5.162,2.902
		c6.942,13.172,25.925,21.014,42.254,14.839c11.527-4.359,21.546-16.249,21.935-31.289
		C198.506,120.473,184.45,106.252,165.754,104.997z M135.755,154.349c-5.742-1.996-4.54-10.164,2.258-11.611
		c3.83-0.816,12.244,0.529,12.257,4.516C150.286,151.035,140.566,156.023,135.755,154.349z M152.85,144.674
		c-0.974-4.368-7.265-6.535-12.901-6.775c0.185-11.814,8.67-20.817,19.354-21.611c12.475-0.929,24.838,8.837,24.838,23.225
		c0,19.245-22.16,29.353-37.416,16.451C149.564,152.759,154.116,150.328,152.85,144.674z M167.043,169.51
		c-7.78,0.76-13.631-1.209-18.708-4.193c-3.328-1.958-7.187-4.096-8.387-8.064c5.352-1.182,6.961,3.218,10.001,4.839
		c2.452,1.309,5.858,2.605,9.676,2.902c14.274,1.114,23.554-8.38,26.449-17.74c4.822-15.582-5.407-29.418-17.74-32.902
		c-14.085-3.977-27.788,6.149-30.967,16.774c-0.879,2.938,0.231,7.71-4.515,9.03c0.398-18.543,11.563-31.237,29.998-31.932
		c17.585-0.664,30.022,13.238,31.287,27.739C195.719,154.098,181.5,168.099,167.043,169.51z"/>
	<path fill="#DBE4B4" d="M162.851,108.225c-18.435,0.694-29.6,13.389-29.998,31.932c4.746-1.32,3.636-6.093,4.515-9.03
		c3.179-10.625,16.882-20.751,30.967-16.774c12.333,3.483,22.562,17.32,17.74,32.902c-2.896,9.36-12.175,18.854-26.449,17.74
		c-3.817-0.297-7.224-1.594-9.676-2.902c-3.04-1.621-4.649-6.021-10.001-4.839c1.2,3.969,5.059,6.106,8.387,8.064
		c5.077,2.984,10.928,4.953,18.708,4.193c14.456-1.411,28.676-15.412,27.095-33.546
		C192.874,121.463,180.436,107.561,162.851,108.225z"/>
	<path fill="#DBE4B4" d="M146.724,155.963c15.256,12.902,37.416,2.794,37.416-16.451c0-14.388-12.363-24.153-24.838-23.225
		c-10.684,0.794-19.169,9.797-19.354,21.611c5.637,0.24,11.928,2.407,12.901,6.775C154.116,150.328,149.564,152.759,146.724,155.963
		z M158.98,152.091c-0.213-1.325,0.179-2.026,1.614-2.58c1.911-0.737,2.619,0.211,2.903,0.646
		C165.25,152.859,159.662,156.333,158.98,152.091z M176.722,149.189c-1.213,1.146-1.837,2.579-3.227,2.902
		c-7.993,1.867-9.164-11.339,0.323-9.675C175.713,143.745,177.032,145.653,176.722,149.189z M168.658,122.093
		c3.615,2.336,6.487,4.274,6.772,8.71c0.48,7.421-8.053,12.923-14.516,8.387C153.987,134.326,157.1,120.104,168.658,122.093z"/>
	<path fill="#718027" d="M160.915,139.189c6.463,4.537,14.996-0.966,14.516-8.387c-0.285-4.436-3.157-6.374-6.772-8.71
		C157.1,120.104,153.987,134.326,160.915,139.189z"/>
	<path fill="#DBE4B4" d="M150.27,147.253c-0.013-3.986-8.427-5.332-12.257-4.516c-6.798,1.447-8,9.615-2.258,11.611
		C140.566,156.023,150.286,151.035,150.27,147.253z"/>
	<path fill="#718027" d="M173.819,142.417c-9.487-1.665-8.316,11.542-0.323,9.675c1.39-0.323,2.014-1.756,3.227-2.902
		C177.032,145.653,175.713,143.745,173.819,142.417z"/>
	<path fill="#718027" d="M160.594,149.511c-1.436,0.554-1.827,1.255-1.614,2.58c0.682,4.242,6.271,0.768,4.518-1.935
		C163.213,149.722,162.505,148.774,160.594,149.511z"/>
</g>
</svg>
