<?xml version="1.0" encoding="utf-8"?>
<!-- Generator: Adobe Illustrator 15.1.0, SVG Export Plug-In . SVG Version: 6.00 Build 0)  -->
<!DOCTYPE svg PUBLIC "-//W3C//DTD SVG 1.1//EN" "http://www.w3.org/Graphics/SVG/1.1/DTD/svg11.dtd">
<svg version="1.1" id="Ebene_1" xmlns="http://www.w3.org/2000/svg" xmlns:xlink="http://www.w3.org/1999/xlink" x="0px" y="0px"
	 width="283.46px" height="283.46px" viewBox="0 0 283.46 283.46" enable-background="new 0 0 283.46 283.46" xml:space="preserve">
<g>
	<path fill="#FFFFFF" d="M141.73,89.401c-28.855,0-52.33,23.475-52.33,52.328c0,28.854,23.474,52.33,52.33,52.33
		c28.854,0,52.33-23.476,52.33-52.33C194.06,112.875,170.584,89.401,141.73,89.401z M180.035,120.036
		c-2.5,2.998-4.785,6.936-7.094,10.639c-2.195,3.521-4.527,7.18-6.924,10.807c-2.268,3.436-4.91,7.084-6.754,10.977
		c-3.402,7.178-6.158,15.236-16.887,13.342c-1.783,1.482-2.568,3.961-3.885,5.91c-0.549,0.197-1.838,0.316-2.365,0
		c-1.436,2.461-5.061,6.73-9.625,5.912c-1.818-0.328-3.16-2.111-5.234-1.689c-1.617,0.328-2.77,2.363-4.053,3.039
		c-1.916,1.01-5.086,1.502-7.262,0.508c-4.141-1.898-3.162-7.158-7.6-8.951c2.885-1.789,4.941,2.41,7.43,2.533
		c2.873,0.141,5.033-4.934,6.586-6.248c2.553-2.158,6.861-1.621,9.627,0.168c0.402,0.26,2.68,3.389,4.053,2.027
		c0.461-0.457-0.963-1.867-1.014-2.533c-0.178-2.338,2.764-5.062,2.195-7.262c-0.301-1.162-2.654-2.041-3.209-3.377
		c-0.961-2.324,0.33-6.604,1.352-8.951c4.676-10.746,11.512-20.5,17.225-30.396c2.393-4.146,4.986-8.51,6.08-13.004
		c0.361-1.484,0.131-3.799,1.182-4.223c2.494-0.764,5.896,2.16,8.443,3.547c2.449,1.336,4.564,2.609,7.262,4.223
		c2.484,1.486,3.973,2.902,6.756,4.729c1.775,1.168,6.189,3.656,6.248,5.234C182.605,118.006,180.705,119.231,180.035,120.036z"/>
	<path fill="#FFFFFF" d="M154.365,104.331c-0.012,0.293,0.039,0.525,0.17,0.676c7.129,4.916,14.963,9.129,22.629,13.508
		c-6.859-5.355-13.533-10.896-22.461-14.184C154.589,104.331,154.478,104.331,154.365,104.331z"/>
	<path fill="#A3BC4B" d="M141.73,83.401c-32.163,0-58.33,26.166-58.33,58.328c0,32.163,26.167,58.33,58.33,58.33
		c32.162,0,58.33-26.167,58.33-58.33C200.06,109.567,173.892,83.401,141.73,83.401z M141.73,194.059
		c-28.855,0-52.33-23.476-52.33-52.33c0-28.854,23.474-52.328,52.33-52.328c28.854,0,52.33,23.475,52.33,52.328
		C194.06,170.583,170.584,194.059,141.73,194.059z"/>
	<path fill="#6394A3" d="M176.32,111.76c-2.783-1.826-4.271-3.242-6.756-4.729c-2.697-1.613-4.812-2.887-7.262-4.223
		c-2.547-1.387-5.949-4.311-8.443-3.547c-1.051,0.424-0.82,2.738-1.182,4.223c-1.094,4.494-3.688,8.857-6.08,13.004
		c-5.713,9.896-12.549,19.65-17.225,30.396c-1.021,2.348-2.312,6.627-1.352,8.951c0.555,1.336,2.908,2.215,3.209,3.377
		c0.568,2.199-2.373,4.924-2.195,7.262c0.051,0.666,1.475,2.076,1.014,2.533c-1.373,1.361-3.65-1.768-4.053-2.027
		c-2.766-1.789-7.074-2.326-9.627-0.168c-1.553,1.314-3.713,6.389-6.586,6.248c-2.488-0.123-4.545-4.322-7.43-2.533
		c4.438,1.793,3.459,7.053,7.6,8.951c2.176,0.994,5.346,0.502,7.262-0.508c1.283-0.676,2.436-2.711,4.053-3.039
		c2.074-0.422,3.416,1.361,5.234,1.689c4.564,0.818,8.189-3.451,9.625-5.912c0.527,0.316,1.816,0.197,2.365,0
		c1.316-1.949,2.102-4.428,3.885-5.91c10.729,1.895,13.484-6.164,16.887-13.342c1.844-3.893,4.486-7.541,6.754-10.977
		c2.396-3.627,4.729-7.285,6.924-10.807c2.309-3.703,4.594-7.641,7.094-10.639c0.67-0.805,2.57-2.029,2.533-3.041
		C182.509,115.417,178.095,112.928,176.32,111.76z M129.71,175.424c-3.615,0.814-6.086-2.568-9.287-2.025
		c-3.174,0.539-4.465,5.16-9.119,4.053c-1.105-0.264-2.279-1.803-2.703-2.701c6.781,1.57,6.752-7.531,13.51-6.248
		c1.814,0.344,3.164,2.053,4.898,2.363c2.883,0.518,4.805-1.57,5.74-4.561c1.312,0.377,2.512,0.867,3.041,2.027
		C134.472,170.438,132.955,174.694,129.71,175.424z M130.892,164.28c3.01-2.559,7.381,1.506,8.105,4.053
		C136.199,167.079,134.992,164.233,130.892,164.28z M146.429,160.057c-4.232-3.346-9.807-6.625-16.549-7.768
		c0.027-0.195-0.037-0.301-0.17-0.338c0.074-0.15,0.148-0.303,0.338-0.338c7.314,0.283,12.727,3.236,17.055,6.756
		c1.342,1.088,3.369,2.369,3.209,4.389C148.519,162.926,147.617,160.997,146.429,160.057z M154.535,105.006
		c-0.131-0.15-0.182-0.383-0.17-0.676c0.113,0,0.225,0,0.338,0c8.928,3.287,15.602,8.828,22.461,14.184
		C169.498,114.135,161.664,109.922,154.535,105.006z"/>
	<path fill="#FFFFFF" d="M147.103,158.37c-4.328-3.52-9.74-6.473-17.055-6.756c-0.189,0.035-0.264,0.188-0.338,0.338
		c0.133,0.037,0.197,0.143,0.17,0.338c6.742,1.143,12.316,4.422,16.549,7.768c1.188,0.939,2.09,2.869,3.883,2.701
		C150.472,160.739,148.445,159.458,147.103,158.37z"/>
	<path fill="#FFFFFF" d="M130.892,164.28c4.1-0.047,5.307,2.799,8.105,4.053C138.273,165.786,133.902,161.721,130.892,164.28z"/>
	<path fill="#B3DEEC" d="M132.75,166.305c-0.936,2.99-2.857,5.078-5.74,4.561c-1.734-0.311-3.084-2.02-4.898-2.363
		c-6.758-1.283-6.729,7.818-13.51,6.248c0.424,0.898,1.598,2.438,2.703,2.701c4.654,1.107,5.945-3.514,9.119-4.053
		c3.201-0.543,5.672,2.84,9.287,2.025c3.244-0.73,4.762-4.986,6.08-7.092C135.261,167.172,134.062,166.682,132.75,166.305z"/>
</g>
</svg>
