<?xml version="1.0" encoding="utf-8"?>
<!-- Generator: Adobe Illustrator 15.1.0, SVG Export Plug-In . SVG Version: 6.00 Build 0)  -->
<!DOCTYPE svg PUBLIC "-//W3C//DTD SVG 1.1//EN" "http://www.w3.org/Graphics/SVG/1.1/DTD/svg11.dtd">
<svg version="1.1" id="Ebene_1" xmlns="http://www.w3.org/2000/svg" xmlns:xlink="http://www.w3.org/1999/xlink" x="0px" y="0px"
	 width="283.46px" height="283.46px" viewBox="0 0 283.46 283.46" enable-background="new 0 0 283.46 283.46" xml:space="preserve">
<g>
	<path fill="#FFFFFF" d="M180.458,110.659c-5.179-5.523-11.132-9.549-18.201-12.239l15.682-15.041l-18.432,5.979l5.96-8.121
		l-8.646,3.652l3.396-8.588l-9.646,6.551l2.007-4.455l-18.936,14.554c-2.825,2.171-6.449,3.78-10.286,5.482
		c-1.133,0.503-2.278,1.011-3.419,1.542l-6.073,3.217c-0.604,0.377-1.198,0.771-1.779,1.186
		c-14.781,10.547-23.162,26.58-24.236,46.367c-0.776,14.351,4.77,29.277,14.836,39.929c9.597,10.151,22.404,15.995,36.064,16.454
		c0.621,0.021,1.236,0.031,1.852,0.031c28.94-0.002,53.075-23.63,54.946-53.791C196.593,136.569,191.657,122.598,180.458,110.659z
		 M188.988,153.12c-0.746,12.018-5.625,23.391-13.41,32.067c-3.552,4.42-7.954,7.988-13.175,10.45
		c-7.051,3.818-15.187,5.914-24.025,5.618c-13.366-0.449-24.373-6.612-31.905-14.579c-7.341-7.769-14.014-20.521-13.203-35.483
		c1.062-19.571,9.721-33.237,21.73-41.807c6.319-4.512,15.275-6.595,21.727-11.554c-0.626,1.392-2.01,2.022-3.023,3.025
		c5.295-1.946,8.89-5.598,13.201-8.527c-1.455,3.681-5.196,5.073-7.701,7.704c3.156-1.062,5.011-3.422,7.978-4.677
		c-1.707,2.326-4.338,3.731-6.603,5.5c4.91-0.866,9.392-2.161,13.754-3.575c-2.153,2.063-5.587,2.852-9.076,3.575
		c13.517,1.513,22.933,6.22,30.253,14.029C183.595,123.505,190.095,135.325,188.988,153.12z"/>
	<path fill="#FFFFFF" d="M135.904,144.042c-3.48-1.34-1.017-8.258,2.952-6.354c0.024,0.012,0.047,0.016,0.072,0.027
		c-0.011-0.115-0.026-0.228-0.038-0.344c-0.541-5.382-1.569-10.277-4.087-13.682c-2.303,4.062-6.36,6.377-9.82,9.285
		c-0.026,0.021-0.055,0.043-0.081,0.065c-0.005,0.016-0.008,0.03-0.013,0.046C122.103,141.715,129.701,150.391,135.904,144.042z"/>
	<path fill="#FFFFFF" d="M158.608,136.274c-0.795-0.523-1.522-1.117-2.214-1.744c-2.83-2.572-4.907-5.896-7.014-9.192
		c-1.52,3.801-3.498,7.138-3.575,12.378c0.415,0.267,1.425-0.583,2.475,0c1.632,1.468,1.97,5.592-0.55,6.326
		c4.637,8.344,13.795,2.007,12.928-6.603C159.929,137.096,159.253,136.7,158.608,136.274z"/>
	<path fill="#F4E2D9" d="M162.403,195.637c5.221-2.462,9.623-6.03,13.175-10.45C171.819,189.377,167.384,192.94,162.403,195.637z"/>
	<path fill="#F4E2D9" d="M142.227,103.057c-7.02,0.439-12.764,2.52-18.15,5.228c-14.521,7.302-26.129,21.162-26.955,41.807
		c-0.596,14.854,4.653,25.895,12.103,33.835c7.47,7.968,17.415,13.799,31.904,13.477c12.776-0.286,23.772-6.215,31.358-14.303
		c7.479-7.977,13.18-17.863,13.752-32.184c0.6-15.07-4.795-25.621-12.104-33.831C167.515,109.647,155.91,102.205,142.227,103.057z
		 M151.855,110.762c3.486,0.555,7.471,7.206,5.503,11.276c-1.916-1.594-2.277-4.301-3.851-6.054c-1.42-1.575-3.662-1.937-4.676-3.85
		C148.982,110.386,150.949,110.616,151.855,110.762z M146.079,153.393c-1.856-0.421-1.747-2.565-3.575-3.026
		c-2.824-0.706-4.564,1.382-6.599,2.477C135.363,146.663,147.365,146.333,146.079,153.393z M137.553,112.41
		c0.156,1.351-0.994,1.389-1.925,1.651c-2.907,1.596-6.69,3.744-8.803,5.228C128.342,115.363,132.544,109.3,137.553,112.41z
		 M128.477,127.813c2.842-2.768,5.344-5.765,6.603-10.176c0.095-0.362,0.481-0.434,0.549-0.826c0.319-0.045,0.488,0.062,0.55,0.274
		c0.69,1.43-0.111,3.485-0.55,4.676c6.093,6.02,8.177,24.674-2.749,26.407c-7.806,1.238-10.614-4.816-9.629-12.928
		c-0.709-0.606-1.535,2.181-2.475,1.373c0.473-1.084,1.317-1.799,1.926-2.748c-1.523,0.219-2.039,1.443-3.853,1.375
		C121.721,132.267,125.533,130.681,128.477,127.813z M128.477,150.091c-1.369,1.851-4.631,0.147-5.775-1.1
		c-1.081-1.175-1.477-3.187-1.375-4.95c1.282,0.558,0.981,1.835,1.647,2.752C124.287,148.596,126.258,149.116,128.477,150.091z
		 M119.951,172.922c1.398,0.798,1.574,2.827,2.2,4.401C120.35,177.06,118.793,174.405,119.951,172.922z M143.605,185.577
		c-2.036-1.682-2.814-7.289-6.602-6.328c-1.298,0.331-1.239,2.053-2.2,2.2c-2.511-2.719,1.099-5.472,4.677-4.674
		C142.893,177.533,143.845,182.802,143.605,185.577z M137.003,170.172c-5.736-0.009-10.298,2.612-14.579,3.85
		c5.504-10.708,29.05-7.545,32.734,2.753c-2.287-0.467-3.836-2.661-6.326-3.853C145.756,171.453,141.6,170.179,137.003,170.172z
		 M154.055,180.35c1.081-1.308,2.934-1.835,4.679-2.477C159.794,180.055,155.767,181.858,154.055,180.35z M152.408,152.02
		c4.371,0.337,6.979-2.555,9.352-3.302C160.625,151.481,155.234,155.268,152.408,152.02z M164.509,141.84
		c-1.399-0.252-1.596-1.706-2.477-2.474c-0.365,5.68-2.724,10.635-7.7,11c-11.989,0.878-13.915-21.374-5.777-27.503
		c-0.205-1.935-1.495-3.84-0.825-5.778c0.445-0.076,0.477,0.261,0.825,0.274c2.294,6.429,4.997,12.503,9.624,16.506
		c2.641,2.278,5.953,3.307,8.254,6.05c-1.385-0.084-2.172-0.761-3.299-1.1C163.322,140.094,164.205,140.677,164.509,141.84z"/>
	<path fill="#96AA41" d="M145.256,100.858c3.489-0.724,6.923-1.512,9.076-3.575c-4.362,1.414-8.845,2.709-13.754,3.575
		c2.265-1.769,4.896-3.174,6.603-5.5c-2.967,1.255-4.822,3.614-7.978,4.677c2.505-2.631,6.246-4.023,7.701-7.704
		c-4.311,2.93-7.906,6.581-13.201,8.527c1.014-1.003,2.397-1.634,3.023-3.025c-6.451,4.959-15.407,7.042-21.727,11.554
		c-12.01,8.569-20.668,22.235-21.73,41.807c-0.811,14.963,5.862,27.715,13.203,35.483c7.532,7.967,18.539,14.13,31.905,14.579
		c8.838,0.296,16.974-1.8,24.025-5.618c4.981-2.697,9.416-6.26,13.175-10.45c7.785-8.677,12.664-20.05,13.41-32.067
		c1.107-17.795-5.393-29.614-13.479-38.232C168.189,107.078,158.773,102.371,145.256,100.858z M186.238,150.917
		c-0.572,14.32-6.273,24.207-13.752,32.184c-7.586,8.088-18.582,14.017-31.358,14.303c-14.489,0.322-24.435-5.509-31.904-13.477
		c-7.449-7.94-12.698-18.98-12.103-33.835c0.826-20.645,12.434-34.505,26.955-41.807c5.387-2.708,11.131-4.788,18.15-5.228
		c13.683-0.853,25.289,6.59,31.908,14.028C181.443,125.295,186.837,135.846,186.238,150.917z"/>
	<path fill="#96AA41" d="M153.507,115.985c1.573,1.753,1.935,4.46,3.851,6.054c1.968-4.07-2.017-10.722-5.503-11.276
		c-0.906-0.146-2.873-0.376-3.023,1.373C149.845,114.048,152.087,114.41,153.507,115.985z"/>
	<path fill="#96AA41" d="M137.553,112.41c-5.009-3.109-9.211,2.953-10.728,6.879c2.112-1.483,5.896-3.632,8.803-5.228
		C136.559,113.798,137.709,113.76,137.553,112.41z"/>
	<path fill="#96AA41" d="M120.775,136.614c0.939,0.808,1.766-1.979,2.475-1.373c-0.985,8.111,1.823,14.166,9.629,12.928
		c10.926-1.733,8.842-20.388,2.749-26.407c0.438-1.19,1.24-3.246,0.55-4.676c-0.062-0.213-0.23-0.319-0.55-0.274
		c-0.067,0.393-0.454,0.464-0.549,0.826c-1.259,4.411-3.761,7.408-6.603,10.176c-2.943,2.868-6.756,4.454-9.628,7.428
		c1.813,0.068,2.329-1.156,3.853-1.375C122.093,134.815,121.248,135.53,120.775,136.614z M124.888,133.086
		c0.005-0.016,0.008-0.03,0.013-0.046c0.026-0.022,0.055-0.044,0.081-0.065c3.46-2.908,7.518-5.224,9.82-9.285
		c2.518,3.404,3.547,8.3,4.087,13.682c0.012,0.116,0.026,0.229,0.038,0.344c-0.024-0.012-0.047-0.016-0.072-0.027
		c-3.969-1.904-6.432,5.014-2.952,6.354C129.701,150.391,122.103,141.715,124.888,133.086z"/>
	<path fill="#96AA41" d="M158.179,133.866c-4.627-4.003-7.33-10.077-9.624-16.506c-0.349-0.014-0.38-0.351-0.825-0.274
		c-0.67,1.938,0.62,3.844,0.825,5.778c-8.137,6.129-6.212,28.381,5.777,27.503c4.977-0.365,7.335-5.32,7.7-11
		c0.881,0.768,1.077,2.222,2.477,2.474c-0.305-1.163-1.188-1.746-1.375-3.024c1.127,0.339,1.914,1.016,3.299,1.1
		C164.132,137.172,160.82,136.144,158.179,133.866z M147.73,144.042c2.52-0.734,2.182-4.858,0.55-6.326
		c-1.05-0.583-2.06,0.267-2.475,0c0.077-5.24,2.056-8.577,3.575-12.378c2.106,3.296,4.184,6.62,7.014,9.192
		c0.691,0.627,1.419,1.221,2.214,1.744c0.646,0.426,1.321,0.822,2.05,1.165C161.525,146.048,152.367,152.385,147.73,144.042z"/>
	<path fill="#96AA41" d="M122.974,146.793c-0.666-0.917-0.365-2.194-1.647-2.752c-0.102,1.764,0.294,3.775,1.375,4.95
		c1.145,1.247,4.406,2.95,5.775,1.1C126.258,149.116,124.287,148.596,122.974,146.793z"/>
	<path fill="#96AA41" d="M135.904,152.843c2.035-1.095,3.775-3.183,6.599-2.477c1.828,0.461,1.719,2.605,3.575,3.026
		C147.365,146.333,135.363,146.663,135.904,152.843z"/>
	<path fill="#96AA41" d="M152.408,152.02c2.826,3.248,8.217-0.539,9.352-3.302C159.386,149.465,156.779,152.357,152.408,152.02z"/>
	<path fill="#96AA41" d="M122.424,174.022c4.281-1.237,8.843-3.858,14.579-3.85c4.597,0.007,8.753,1.28,11.829,2.75
		c2.49,1.191,4.039,3.386,6.326,3.853C151.474,166.477,127.928,163.314,122.424,174.022z"/>
	<path fill="#96AA41" d="M119.951,172.922c-1.158,1.482,0.398,4.138,2.2,4.401C121.525,175.75,121.35,173.72,119.951,172.922z"/>
	<path fill="#96AA41" d="M139.479,176.775c-3.578-0.798-7.188,1.955-4.677,4.674c0.961-0.147,0.902-1.869,2.2-2.2
		c3.788-0.961,4.566,4.646,6.602,6.328C143.845,182.802,142.893,177.533,139.479,176.775z"/>
	<path fill="#96AA41" d="M154.055,180.35c1.712,1.508,5.739-0.295,4.679-2.477C156.989,178.515,155.136,179.042,154.055,180.35z"/>
</g>
</svg>
