<?xml version="1.0" encoding="utf-8"?>
<!-- Generator: Adobe Illustrator 15.1.0, SVG Export Plug-In . SVG Version: 6.00 Build 0)  -->
<!DOCTYPE svg PUBLIC "-//W3C//DTD SVG 1.1//EN" "http://www.w3.org/Graphics/SVG/1.1/DTD/svg11.dtd">
<svg version="1.1" id="Ebene_1" xmlns="http://www.w3.org/2000/svg" xmlns:xlink="http://www.w3.org/1999/xlink" x="0px" y="0px"
	 width="283.46px" height="283.46px" viewBox="0 0 283.46 283.46" enable-background="new 0 0 283.46 283.46" xml:space="preserve">
<g>
	<path fill="#FFFFFF" d="M173.001,121.15c-7.886-8.412-19.497-15.287-35.845-13.646c-17.692,1.776-32.467,13.207-33.808,30.347
		c0.829-2.183,2.979-6.854,5.296-5.296c-2.662,2.725-6.243,6.631-5.094,11.812c0.871-3.065,1.25-6.625,4.279-7.535
		c-0.718,4.35-5.006,8.632-2.852,13.236c0.57-3.771,0.588-8.099,3.461-9.568c0.045,0.158,0.17,0.236,0.407,0.201
		c-0.058,4.361-4.677,11.33-1.017,15.072c0.184-4.023-0.422-8.844,2.238-10.387c0.873,3.342-2.645,10.887,0.408,13.848
		c-0.117-3.07-0.892-7.92,2.037-8.555c-0.567,3.627-1.66,12.318,1.63,11.814c-0.243-1.928-1.149-5.766,0.612-6.721
		c1.559,2.719,0.149,9.484,3.458,9.777c-0.45-1.771-1.269-5.293,0.409-6.316c0.73,2.598,0.723,5.93,1.834,8.146
		c0.98,0.174,1.462,0.846,2.443,1.02c-0.213-1.461-1.366-4.385,0-5.5c1.193,2.203,0.432,6.359,3.259,6.924
		c-0.354-1.51-1.163-4.393-0.204-5.906c0.886,1.9,1.041,4.527,1.832,6.518c1.309,0.119,2.156,0.699,3.463,0.814
		c-0.248-1.316-1.193-3.01-0.611-4.48c1.245,1.471,0.418,5.014,3.259,4.889c0.027-1.34-1.327-3.16-0.202-4.277
		c0.316,1.857,0.904,3.439,1.834,4.686c1.443-0.154,2.325,0.252,3.664,0.203c-0.049-1.172-0.78-1.662-0.611-3.053
		c1.031,0.664,1.131,2.26,2.038,3.053c0.677,0,1.356,0,2.034,0c0.441-0.172,0.173-1.049,0.613-1.223
		c0.641,0.037,0.259,1.096,1.019,1.02c17.968-2.494,32.581-12.545,33.605-30.549c0.259-4.581-0.657-8.296-1.834-11.405
		C174.899,127.057,172.301,124.586,173.001,121.15z M140.058,145.623c-3.662-0.279-11.134-0.484-10.998-3.055
		c0.096-1.841,5.46-2.332,7.738-2.445c3.905-0.195,7.03-0.055,10.185-0.205c3.468-0.164,7.129-0.711,7.331,2.851
		C154.624,148.205,145.78,146.058,140.058,145.623z M157.32,165.751c9.718-6.305,18.653-16.416,15.886-33.197
		c-0.057-0.328,0.193-0.351,0.205-0.611c0.329-0.057,0.35,0.194,0.609,0.204C180.49,148.185,169.184,161.882,157.32,165.751z"/>
	<path fill="#FFFFFF" d="M141.73,89.401c-28.854,0-52.329,23.474-52.329,52.33c0,28.853,23.475,52.33,52.329,52.33
		s52.329-23.477,52.329-52.33C194.059,112.875,170.584,89.401,141.73,89.401z M170.561,167.789
		c-7.295,5.846-16.381,9.842-28.721,9.777c-11.367-0.062-20.873-3.66-28.717-9.777c-7.199-5.617-13.126-13.848-13.847-24.439
		c-0.798-11.684,4.386-20.813,10.995-27.087c6.329-6.007,15.045-10.765,27.292-11.609c17.492-1.206,28.712,6.323,36.66,15.275
		c4.793,0.789,6.656,6.134,8.147,10.388C188.085,146.632,179.233,160.837,170.561,167.789z"/>
	<path fill="#A3BC4B" d="M141.73,83.401c-32.163,0-58.329,26.167-58.329,58.33c0,32.162,26.166,58.33,58.329,58.33
		s58.329-26.168,58.329-58.33C200.059,109.567,173.893,83.401,141.73,83.401z M141.73,194.06c-28.854,0-52.329-23.477-52.329-52.33
		c0-28.855,23.475-52.33,52.329-52.33s52.329,23.474,52.329,52.33C194.059,170.583,170.584,194.06,141.73,194.06z"/>
	<path fill="#ABDCEF" d="M182.372,130.315c-1.491-4.254-3.354-9.599-8.147-10.388c-7.948-8.952-19.168-16.481-36.66-15.275
		c-12.247,0.845-20.963,5.603-27.292,11.609c-6.609,6.274-11.793,15.403-10.995,27.087c0.721,10.592,6.647,18.822,13.847,24.439
		c7.844,6.117,17.35,9.715,28.717,9.777c12.34,0.064,21.426-3.932,28.721-9.777C179.233,160.837,188.085,146.632,182.372,130.315z
		 M177.892,141.517c-1.024,18.004-15.638,28.055-33.605,30.549c-0.76,0.076-0.378-0.982-1.019-1.02
		c-0.44,0.174-0.172,1.051-0.613,1.223c-0.678,0-1.357,0-2.034,0c-0.907-0.793-1.007-2.389-2.038-3.053
		c-0.169,1.391,0.562,1.881,0.611,3.053c-1.339,0.049-2.221-0.357-3.664-0.203c-0.93-1.246-1.518-2.828-1.834-4.686
		c-1.125,1.117,0.229,2.938,0.202,4.277c-2.841,0.125-2.014-3.418-3.259-4.889c-0.582,1.471,0.363,3.164,0.611,4.48
		c-1.307-0.115-2.154-0.695-3.463-0.814c-0.791-1.99-0.946-4.617-1.832-6.518c-0.959,1.514-0.15,4.396,0.204,5.906
		c-2.827-0.564-2.065-4.721-3.259-6.924c-1.366,1.115-0.213,4.039,0,5.5c-0.981-0.174-1.463-0.846-2.443-1.02
		c-1.111-2.217-1.104-5.549-1.834-8.146c-1.678,1.023-0.859,4.545-0.409,6.316c-3.309-0.293-1.899-7.059-3.458-9.777
		c-1.762,0.955-0.855,4.793-0.612,6.721c-3.29,0.504-2.197-8.188-1.63-11.814c-2.929,0.635-2.154,5.484-2.037,8.555
		c-3.053-2.961,0.465-10.506-0.408-13.848c-2.66,1.543-2.055,6.363-2.238,10.387c-3.66-3.742,0.959-10.711,1.017-15.072
		c-0.237,0.035-0.362-0.043-0.407-0.201c-2.873,1.469-2.891,5.796-3.461,9.568c-2.154-4.604,2.134-8.886,2.852-13.236
		c-3.029,0.91-3.408,4.47-4.279,7.535c-1.149-5.181,2.432-9.087,5.094-11.812c-2.316-1.559-4.467,3.113-5.296,5.296
		c1.341-17.14,16.115-28.57,33.808-30.347c16.348-1.641,27.959,5.234,35.845,13.646c-0.7,3.436,1.897,5.906,3.057,8.961
		C177.235,133.221,178.151,136.936,177.892,141.517z"/>
	<path fill="#ABDCEF" d="M173.411,131.943c-0.012,0.261-0.262,0.283-0.205,0.611c2.768,16.781-6.168,26.892-15.886,33.197
		c11.864-3.869,23.17-17.566,16.7-33.604C173.76,132.138,173.74,131.887,173.411,131.943z"/>
	<path fill="#ABDCEF" d="M146.983,139.918c-3.154,0.15-6.279,0.01-10.185,0.205c-2.278,0.113-7.643,0.604-7.738,2.445
		c-0.136,2.57,7.336,2.775,10.998,3.055c5.722,0.436,14.565,2.582,14.256-2.854C154.112,139.207,150.451,139.754,146.983,139.918z"
		/>
</g>
</svg>
