<?xml version="1.0" encoding="utf-8"?>
<!-- Generator: Adobe Illustrator 15.1.0, SVG Export Plug-In . SVG Version: 6.00 Build 0)  -->
<!DOCTYPE svg PUBLIC "-//W3C//DTD SVG 1.1//EN" "http://www.w3.org/Graphics/SVG/1.1/DTD/svg11.dtd">
<svg version="1.1" id="Ebene_1" xmlns="http://www.w3.org/2000/svg" xmlns:xlink="http://www.w3.org/1999/xlink" x="0px" y="0px"
	 width="283.46px" height="283.46px" viewBox="0 0 283.46 283.46" enable-background="new 0 0 283.46 283.46" xml:space="preserve">
<g>
	<path fill="#FFFFFF" d="M181.056,110.075c-5.251-5.598-11.422-9.737-18.653-12.484l15.766-15.115l-18.649,6.051l6.054-8.25
		l-8.688,3.68l3.423-8.653l-12.052,8.19l1.369-3.889l-16.099,12.477c-2.898,2.246-6.524,3.84-10.363,5.526
		c-1.208,0.531-2.43,1.068-3.65,1.635l-6.127,3.257c-0.604,0.38-1.203,0.778-1.792,1.198c-15.189,10.842-24.167,28.082-24.631,47.3
		c-0.369,15.207,4.726,29.354,14.346,39.833c9.541,10.393,22.875,16.524,37.548,17.265c0.859,0.043,1.711,0.064,2.55,0.064
		c0.001,0,0.001,0,0.002,0c13.896,0,27.09-5.967,38.156-17.258c10.271-10.48,15.931-23.072,16.82-37.424
		C197.431,136.643,192.274,122.042,181.056,110.075z M189.807,153.276c-0.904,14.618-7.301,25.622-15.115,33.597
		c-8.306,8.473-20.29,16.199-36.122,15.4c-26.859-1.357-46.888-22.537-46.198-50.96c0.475-19.658,10.312-34.134,22.119-42.561
		c6.665-4.756,15.485-6.614,22.121-11.758c-0.534,1.52-2.115,1.994-3.082,3.081c5.393-1.983,9.049-5.698,13.439-8.683
		c-1.48,3.743-5.289,5.164-7.84,7.84c3.213-1.078,5.103-3.481,8.12-4.76c-1.737,2.369-4.415,3.797-6.72,5.603
		c4.998-0.884,9.561-2.202,14.002-3.644c-2.193,2.104-5.686,2.906-9.242,3.644c13.404,1.419,23.344,6.324,30.803,14.276
		C184.418,123.235,190.915,135.479,189.807,153.276z"/>
	<path fill="#FFFFFF" d="M151.621,103.029c1.796,0.416,3.552,0.904,5.268,1.46C155.182,103.89,153.42,103.402,151.621,103.029z"/>
	<path fill="#F0B9D6" d="M151.731,177.074c-0.994,1.293-0.623,3.324-2.522,3.918c-1.106-0.104-0.565-1.859-1.118-2.518
		c-2.557,1.736-6.702,1.883-10.36,2.518c10.162,5.793,19.628-3.375,20.999-10.361C157.233,173.488,153.602,174.64,151.731,177.074z"
		/>
	<path fill="#FFFFFF" d="M137.253,135.146c0.012-0.07,0.03-0.137,0.042-0.209c0.066-0.405,0.119-0.825,0.155-1.261
		c-7.967-2.543-15.096,2.49-17.639,8.117c0.226,0.242,0.472,0.465,0.726,0.679c0.069,0.059,0.14,0.116,0.21,0.173
		c0.219,0.176,0.444,0.345,0.677,0.506c0.044,0.031,0.086,0.063,0.13,0.094c0.253,0.173,0.513,0.337,0.775,0.499
		c1.581,0.978,3.279,1.839,4.514,3.162c0.271,0.072,0.614,0.17,1.143,0.165C131.951,143.97,136.189,141.142,137.253,135.146z
		 M136.05,133.954c1.037,2.719-0.711,5.353-2.799,5.041C129.66,138.459,131.69,131.129,136.05,133.954z"/>
	<path fill="#F4E2D9" d="M156.888,104.489c-1.716-0.556-3.472-1.044-5.268-1.46c-3.051-0.631-6.211-0.916-9.41-0.716
		c-7.215,0.45-12.933,2.596-18.479,5.32c-14.797,7.262-26.605,21.678-27.439,42.562c-0.605,15.131,4.732,26.348,12.319,34.438
		c7.62,8.125,17.704,14.027,32.479,13.723c13-0.273,24.209-6.34,31.92-14.561c7.611-8.121,13.418-18.188,13.998-32.763
		c0.598-14.925-4.711-26.485-12.039-34.719C170.908,111.749,164.43,107.132,156.888,104.489z M161.532,120.513
		c-2.755-0.191-4.596-2.452-7.561-2.8c-3.394-0.394-6.152,1.624-9.241,1.4C146.102,111.012,161.994,113.199,161.532,120.513z
		 M130.45,114.077c2.266,0.23,5.809,1.189,5.04,4.195c-2.569,0.113-5.309-1.115-7.839-0.84c-5.057,0.553-7.23,5.199-10.361,7.561
		C117.641,119.607,123.461,113.358,130.45,114.077z M112.81,147.677c-4.04,0.667-5.613,4.683-7.839,6.998
		c0.511-2.581,1.365-5.077,3.358-6.998c3.733-3.606,14.087-3.865,13.721,2.796C119.008,148.932,116.86,147.004,112.81,147.677z
		 M144.168,188.833c5.883-0.092,10.724-1.229,13.441-4.48c0.251,0.123,0.5,0.248,0.561,0.561
		C157.436,189.103,146.725,194.984,144.168,188.833z M160.971,172.314c-4.005,8.922-13.23,18.338-25.201,10.922
		c-1.808-1.125-3.484-3.152-5.32-4.762c-1.883-1.65-4.166-2.9-5.6-4.48c-2.793-3.082-5.952-8.742-7.279-13.16
		c-0.939-3.13-1.631-7.405-1.121-10.079c3.07,11.499,8.229,25.444,21.841,26.319c4.782,0.307,9.29-1.713,12.599-3.922
		c5.01-3.34,10.684-9.539,13.162-15.681c0.886-2.195,0.471-4.924,2.799-6.439C166.002,158.424,164.088,165.369,160.971,172.314z
		 M145.01,151.313c-1.856,0.645-3.231-1.115-4.759-1.678c-2.257,0.076-2.704,1.963-5.042,1.959
		C133.989,145.936,145.273,145.065,145.01,151.313z M171.331,147.956c-4.924-1.925-7.684,2.684-10.92,3.639
		c1.168-9.057,16.426-7.183,16.238,1.682C173.926,152.045,173.84,148.932,171.331,147.956z M170.772,141.793
		c-8.609,0.328-14.089,6.305-19.322,10.642c-0.186-1.962,0.934-2.612,1.4-3.921c-6.931-1.191-10.609-5.634-12.599-11.761
		c-0.128,0.308-0.263,0.614-0.402,0.921c-0.052,0.116-0.108,0.23-0.163,0.346c-0.087,0.188-0.175,0.375-0.267,0.561
		c-0.074,0.149-0.151,0.297-0.228,0.444c-0.077,0.148-0.153,0.296-0.232,0.442c-0.091,0.168-0.185,0.334-0.279,0.5
		c-0.069,0.12-0.137,0.239-0.208,0.358c-0.108,0.183-0.22,0.362-0.333,0.542c-0.06,0.095-0.121,0.188-0.182,0.281
		c-0.128,0.195-0.259,0.387-0.393,0.577c-0.047,0.066-0.095,0.131-0.144,0.196c-0.153,0.21-0.308,0.417-0.469,0.618
		c-0.022,0.028-0.046,0.056-0.068,0.083c-1.575,1.946-3.55,3.474-6.048,4.131c-0.006,0.002-0.012,0.004-0.019,0.005
		c-0.896,0.234-1.851,0.368-2.887,0.355c0.019-0.015,0.038-0.029,0.057-0.044c-0.529,0.005-0.872-0.093-1.143-0.165
		c0.794,0.852,1.4,1.891,1.648,3.289c-4.475-1.599-8.143-6.54-14.001-7.28c-4.369-0.553-7.2,0.916-10.64,2.519
		c2.028-3.821,7.822-5.683,13.438-4.198c-0.768-11.752,15.733-25.762,22.962-13.161c2.321-3.177,5.195-6.393,10.358-5.321
		c6.032,1.257,11.319,11.211,10.922,18.482c2.669-1.316,10.543-2.932,13.721,0C174.12,142.708,172.618,141.725,170.772,141.793z"/>
	<path fill="#F4E2D9" d="M157.889,134.794c-0.375-7.401-12.89-14.571-15.398-4.479C149.357,129.03,154.432,131.757,157.889,134.794z
		"/>
	<path fill="#F4E2D9" d="M120.372,138.157c2.973-5.437,9.129-8.518,17.078-8.123C132.657,120.675,120.532,131.933,120.372,138.157z"
		/>
	<path fill="#FFFFFF" d="M142.77,132.555c-1.542,5.358,6.266,14.775,12.041,13.438c1.754-0.402,2.666-2.534,4.479-3.641
		C157.91,136.454,149.516,131.487,142.77,132.555z M145.01,134.235c0.554-0.627,1.949,0.271,2.801,0.278
		C152.112,142.025,139.271,138.837,145.01,134.235z"/>
	<path fill="#96AA41" d="M145.29,100.076c3.557-0.737,7.049-1.54,9.242-3.644c-4.441,1.441-9.004,2.76-14.002,3.644
		c2.305-1.806,4.982-3.233,6.72-5.603c-3.018,1.278-4.907,3.682-8.12,4.76c2.551-2.676,6.359-4.097,7.84-7.84
		c-4.391,2.984-8.047,6.699-13.439,8.683c0.967-1.087,2.548-1.562,3.082-3.081c-6.636,5.144-15.456,7.002-22.121,11.758
		c-11.807,8.427-21.645,22.902-22.119,42.561c-0.689,28.423,19.339,49.603,46.198,50.96c15.832,0.799,27.816-6.928,36.122-15.4
		c7.814-7.975,14.211-18.979,15.115-33.597c1.107-17.797-5.389-30.041-13.715-38.924C168.633,106.4,158.694,101.495,145.29,100.076z
		 M187.008,151.032c-0.58,14.575-6.387,24.642-13.998,32.763c-7.711,8.221-18.92,14.287-31.92,14.561
		c-14.775,0.305-24.859-5.598-32.479-13.723c-7.587-8.09-12.925-19.307-12.319-34.438c0.834-20.884,12.643-35.3,27.439-42.562
		c5.547-2.725,11.265-4.87,18.479-5.32c3.199-0.2,6.359,0.085,9.41,0.716c1.8,0.373,3.562,0.861,5.268,1.46
		c7.542,2.644,14.02,7.26,18.081,11.824C182.297,124.546,187.606,136.107,187.008,151.032z"/>
	<path fill="#96AA41" d="M153.971,117.713c2.965,0.348,4.806,2.608,7.561,2.8c0.462-7.314-15.43-9.501-16.802-1.399
		C147.819,119.337,150.578,117.32,153.971,117.713z"/>
	<path fill="#96AA41" d="M127.651,117.432c2.53-0.275,5.27,0.953,7.839,0.84c0.769-3.006-2.774-3.965-5.04-4.195
		c-6.988-0.719-12.809,5.53-13.16,10.916C120.42,122.631,122.594,117.985,127.651,117.432z"/>
	<path fill="#96AA41" d="M161.532,141.235c0.397-7.271-4.89-17.226-10.922-18.482c-5.163-1.071-8.037,2.145-10.358,5.321
		c-7.229-12.601-23.729,1.409-22.962,13.161c-5.616-1.484-11.41,0.377-13.438,4.198c3.439-1.603,6.271-3.071,10.64-2.519
		c5.858,0.74,9.526,5.682,14.001,7.28c-0.248-1.398-0.854-2.438-1.648-3.289c-1.235-1.323-2.933-2.185-4.514-3.162
		c-0.262-0.162-0.522-0.326-0.775-0.499c-0.044-0.03-0.086-0.062-0.13-0.094c-0.232-0.161-0.458-0.33-0.677-0.506
		c-0.071-0.057-0.141-0.114-0.21-0.173c-0.254-0.214-0.5-0.437-0.726-0.679c2.543-5.627,9.672-10.66,17.639-8.117
		c-0.036,0.436-0.088,0.855-0.155,1.261c-0.011,0.072-0.029,0.139-0.042,0.209c-1.064,5.996-5.302,8.824-9.267,11.925
		c-0.019,0.015-0.038,0.029-0.057,0.044c1.036,0.013,1.991-0.121,2.887-0.355c0.006-0.001,0.012-0.003,0.019-0.005
		c2.499-0.657,4.474-2.185,6.048-4.131c0.022-0.027,0.046-0.055,0.068-0.083c0.161-0.201,0.316-0.408,0.469-0.618
		c0.048-0.065,0.096-0.13,0.144-0.196c0.134-0.19,0.265-0.382,0.393-0.577c0.062-0.094,0.122-0.187,0.182-0.281
		c0.113-0.18,0.225-0.359,0.333-0.542c0.071-0.119,0.139-0.238,0.208-0.358c0.094-0.166,0.188-0.332,0.279-0.5
		c0.079-0.146,0.155-0.294,0.232-0.442c0.076-0.147,0.154-0.295,0.228-0.444c0.092-0.186,0.179-0.373,0.267-0.561
		c0.054-0.115,0.11-0.229,0.163-0.346c0.139-0.307,0.273-0.613,0.402-0.921c1.989,6.127,5.668,10.569,12.599,11.761
		c-0.467,1.309-1.586,1.959-1.4,3.921c5.233-4.337,10.713-10.313,19.322-10.642c1.846-0.068,3.348,0.914,4.48-0.559
		C172.075,138.303,164.201,139.918,161.532,141.235z M120.372,138.157c0.16-6.224,12.285-17.481,17.078-8.123
		C129.5,129.639,123.344,132.72,120.372,138.157z M157.889,134.794c-3.457-3.037-8.532-5.765-15.398-4.479
		C145,120.223,157.514,127.393,157.889,134.794z M154.811,145.993c-5.775,1.338-13.583-8.079-12.041-13.438
		c6.746-1.068,15.14,3.898,16.52,9.797C157.477,143.458,156.565,145.59,154.811,145.993z"/>
	<path fill="#96AA41" d="M136.05,133.954c-4.36-2.824-6.391,4.506-2.799,5.041C135.339,139.306,137.087,136.672,136.05,133.954z"/>
	<path fill="#96AA41" d="M145.01,134.235c-5.739,4.603,7.102,7.79,2.801,0.278C146.959,134.506,145.564,133.608,145.01,134.235z"/>
	<path fill="#96AA41" d="M108.33,147.677c-1.993,1.921-2.848,4.417-3.358,6.998c2.226-2.315,3.799-6.331,7.839-6.998
		c4.05-0.673,6.198,1.255,9.24,2.796C122.417,143.812,112.063,144.071,108.33,147.677z"/>
	<path fill="#96AA41" d="M160.411,151.594c3.236-0.955,5.996-5.563,10.92-3.639c2.51,0.977,2.596,4.09,5.318,5.32
		C176.836,144.412,161.579,142.538,160.411,151.594z"/>
	<path fill="#96AA41" d="M145.01,151.313c0.263-6.248-11.021-5.377-9.801,0.281c2.338,0.004,2.785-1.883,5.042-1.959
		C141.779,150.198,143.154,151.958,145.01,151.313z"/>
	<path fill="#96AA41" d="M164.051,157.471c-2.479,6.142-8.152,12.341-13.162,15.681c-3.309,2.209-7.816,4.229-12.599,3.922
		c-13.611-0.875-18.771-14.82-21.841-26.319c-0.51,2.674,0.182,6.949,1.121,10.079c1.327,4.418,4.486,10.078,7.279,13.16
		c1.434,1.58,3.717,2.83,5.6,4.48c1.836,1.609,3.513,3.637,5.32,4.762c11.971,7.416,21.196-2,25.201-10.922
		c3.117-6.945,5.031-13.89,5.879-21.282C164.522,152.547,164.937,155.276,164.051,157.471z M137.73,180.992
		c3.658-0.635,7.804-0.781,10.36-2.518c0.553,0.658,0.012,2.414,1.118,2.518c1.899-0.594,1.528-2.625,2.522-3.918
		c1.871-2.434,5.502-3.586,6.998-6.443C157.358,177.617,147.892,186.785,137.73,180.992z"/>
	<path fill="#96AA41" d="M157.61,184.353c-2.718,3.252-7.559,4.389-13.441,4.48c2.557,6.15,13.268,0.27,14.002-3.92
		C158.11,184.601,157.861,184.476,157.61,184.353z"/>
</g>
</svg>
