<?xml version="1.0" encoding="utf-8"?>
<!-- Generator: Adobe Illustrator 15.1.0, SVG Export Plug-In . SVG Version: 6.00 Build 0)  -->
<!DOCTYPE svg PUBLIC "-//W3C//DTD SVG 1.1//EN" "http://www.w3.org/Graphics/SVG/1.1/DTD/svg11.dtd">
<svg version="1.1" id="Ebene_1" xmlns="http://www.w3.org/2000/svg" xmlns:xlink="http://www.w3.org/1999/xlink" x="0px" y="0px"
	 width="283.46px" height="283.46px" viewBox="0 0 283.46 283.46" enable-background="new 0 0 283.46 283.46" xml:space="preserve">
<g>
	<path fill="#FFFFFF" d="M135.753,142.029c1.081-0.025,2.063-0.147,2.605-0.711c-3.278-3.583-1.934-11.041,2.844-11.852
		C134.446,128.647,131.137,137.961,135.753,142.029z"/>
	<path fill="#FFFFFF" d="M138.125,135.629c-0.228,2.694,2.137,4.13,2.368,6.4c0.22,2.146-0.933,4.812-1.421,6.636
		c-0.585,2.186-1.317,4.062-1.896,6.398c4.479,0.003,7.551,0.441,11.613,0.475c-0.223-1.971-0.916-3.922-1.421-6.163
		c-0.436-1.927-1.616-4.911-1.187-6.636c0.344-1.379,2.393-2.178,2.844-3.555C151.947,130.323,138.742,128.244,138.125,135.629z"/>
	<path fill="#FFFFFF" d="M143.1,156.724c-2.356-0.107-5.124,0.043-6.636-0.238c-0.643,0.672-3.073,1.916-2.371,2.371
		c5.281-0.297,10.484,0.725,15.406,0C149.414,156.504,145.675,156.841,143.1,156.724z"/>
	<path fill="#FFFFFF" d="M148.552,120.697c4.076-1.708,9.494-4.59,14.693-2.844c11.71,3.932,8.519,20.948,5.216,31.049
		c-2.72,8.321-7.364,15.591-12.327,21.332c-2.797,3.239-6.27,5.702-7.82,8.533c9.182-6.072,18.73-16.205,25.361-25.836
		c2.865-4.164,5.653-9.197,6.164-14.458c0.775-8.032-1.396-15.519-5.451-19.909C167.712,111.343,154.398,115.283,148.552,120.697z"
		/>
	<path fill="#FFFFFF" d="M141.73,89.401c-28.854,0-52.329,23.475-52.329,52.329s23.475,52.33,52.329,52.33
		c28.855,0,52.33-23.476,52.33-52.33S170.585,89.401,141.73,89.401z M172.728,166.679c-8.818,10.553-20.654,15.836-31.286,22.516
		c-10.545-7.088-22.371-11.918-31.05-22.516c-7.127-8.705-15.535-22.07-14.222-39.109c0.962-12.473,10.197-21.479,23.702-20.62
		c8.621,0.548,15.54,4.195,21.569,8.296c6.573-3.962,12.859-7.884,22.28-8.533c14.255-0.983,22.773,8.586,23.701,20.621
		C188.755,144.626,180.41,157.484,172.728,166.679z"/>
	<path fill="#FFFFFF" d="M138.834,143.925c0.027-0.285-0.112-0.566-0.476-0.475c-0.039,0.275-0.373,0.258-0.71,0.236
		c-1.686,4.241-3.606,9.508-4.503,13.748c0.896-0.605,1.603-1.399,2.607-1.896C136.005,151.546,138.519,147.252,138.834,143.925z"/>
	<path fill="#A3BC4B" d="M141.73,83.401c-32.162,0-58.329,26.167-58.329,58.329c0,32.162,26.167,58.33,58.329,58.33
		c32.163,0,58.33-26.168,58.33-58.33C200.06,109.567,173.893,83.401,141.73,83.401z M141.73,194.06
		c-28.854,0-52.329-23.476-52.329-52.33s23.475-52.329,52.329-52.329c28.855,0,52.33,23.475,52.33,52.329
		S170.585,194.06,141.73,194.06z"/>
	<path fill="#DB6CA6" d="M187.423,127.333c-0.928-12.035-9.446-21.604-23.701-20.621c-9.421,0.649-15.707,4.571-22.28,8.533
		c-6.029-4.101-12.948-7.748-21.569-8.296c-13.505-0.859-22.74,8.147-23.702,20.62c-1.313,17.039,7.095,30.404,14.222,39.109
		c8.679,10.598,20.505,15.428,31.05,22.516c10.632-6.68,22.468-11.963,31.286-22.516
		C180.41,157.484,188.755,144.626,187.423,127.333z M149.025,139.185c-0.451,1.376-2.5,2.176-2.844,3.555
		c-0.43,1.725,0.751,4.709,1.187,6.636c0.505,2.241,1.198,4.192,1.421,6.163c-4.062-0.033-7.134-0.472-11.613-0.475
		c0.579-2.336,1.312-4.213,1.896-6.398c0.488-1.824,1.641-4.49,1.421-6.636c-0.231-2.27-2.596-3.706-2.368-6.4
		C138.742,128.244,151.947,130.323,149.025,139.185z M141.203,129.466c-4.777,0.811-6.122,8.269-2.844,11.852
		c-0.542,0.564-1.524,0.687-2.605,0.711C131.137,137.961,134.446,128.647,141.203,129.466z M137.649,143.687
		c0.337,0.021,0.671,0.039,0.71-0.236c0.363-0.092,0.503,0.189,0.476,0.475c-0.315,3.327-2.829,7.621-3.081,11.613
		c-1.005,0.497-1.711,1.291-2.607,1.896C134.042,153.195,135.963,147.928,137.649,143.687z M134.093,158.857
		c-0.702-0.455,1.729-1.699,2.371-2.371c1.512,0.281,4.279,0.131,6.636,0.238c2.575,0.117,6.313-0.22,6.399,2.133
		C144.578,159.582,139.375,158.56,134.093,158.857z M179.839,138.474c-0.511,5.26-3.299,10.293-6.164,14.458
		c-6.631,9.631-16.18,19.764-25.361,25.836c1.551-2.831,5.023-5.294,7.82-8.533c4.963-5.741,9.607-13.011,12.327-21.332
		c3.303-10.101,6.494-27.117-5.216-31.049c-5.199-1.746-10.617,1.136-14.693,2.844c5.846-5.415,19.16-9.354,25.836-2.132
		C178.443,122.955,180.615,130.441,179.839,138.474z"/>
</g>
</svg>
