<?xml version="1.0" encoding="utf-8"?>
<!-- Generator: Adobe Illustrator 15.1.0, SVG Export Plug-In . SVG Version: 6.00 Build 0)  -->
<!DOCTYPE svg PUBLIC "-//W3C//DTD SVG 1.1//EN" "http://www.w3.org/Graphics/SVG/1.1/DTD/svg11.dtd">
<svg version="1.1" id="Ebene_1" xmlns="http://www.w3.org/2000/svg" xmlns:xlink="http://www.w3.org/1999/xlink" x="0px" y="0px"
	 width="283.46px" height="283.46px" viewBox="0 0 283.46 283.46" enable-background="new 0 0 283.46 283.46" xml:space="preserve">
<g>
	<path fill="#FFFFFF" d="M127.164,138.309c-0.015-0.814,1.122-2.059,0.646-2.268c-9.54,2.223-19.658,3.869-29.788,5.506
		c0.019,0.791-0.088,1.705,0.161,2.266C107.841,141.975,117.27,139.911,127.164,138.309z"/>
	<path fill="#FFFFFF" d="M176.218,151.424c-1.583,0.252-3.721-0.137-5.667,0.646c-0.644,0.26-1.666,1.553-2.267,2.104
		c-1.884,1.732-4.891,5.949-7.608,5.828c-2.693-0.119-4.087-3.018-6.314-4.045c-1.658,1.709-3.669,3.51-6.638,3.074
		c-2.376-0.348-4.146-2.648-6.477-4.209c-2.938-1.969-5.334-4.031-8.42-5.02c0,0.162,0,0.322,0,0.486
		c-0.083,2.854,0.122,6.52,1.458,8.418c1.24,1.764,4.071,2.4,6.638,3.236c1.823,0.598,3.823,1.188,5.667,1.621
		c8.354,1.971,17.775,1.533,25.096-1.133c3.011-1.098,8.028-3.326,9.067-5.342c0.893-1.736,0.37-4.762,0.646-6.801
		C179.299,150.698,177.924,151.151,176.218,151.424z"/>
	<path fill="#FFFFFF" d="M117.286,133.936c2.95-0.004,9.543-1.156,9.229-4.209c-0.304-2.969-6.11,1.088-7.934-1.457
		c2.288-0.064,6.131,0.154,5.991-1.619c-0.085-1.102-1.811-1.021-2.914-1.455c0.786-4.996-7.371-1.049-7.446-5.182
		c-1.438,0.605-0.707,2.404-0.162,3.074c1.036,1.277,3.588,1.713,5.342,1.943c-2.69,0.641-7.337-1.188-7.771,1.619
		c-0.168,1.082,0.955,2.145,1.78,2.59c2.409,1.303,7.039,1.465,9.715,0.973c-3.556,1.938-10.421,1.4-12.305-1.621
		c-0.258,0.393-0.759,0.539-0.972,0.973C110.296,132.862,113.355,133.944,117.286,133.936z"/>
	<path fill="#FFFFFF" d="M158.249,137.336c8.39,0.381,16.353-0.975,23.151-2.59c-0.042-5.361-3.056-9.139-6.151-11.98
		c-0.617-0.113-0.78,0.658-1.296,0.16c-0.459-0.389,0.222-0.979-0.163-1.295c-3.002-1.854-6.187-3.527-10.2-4.371
		c0.223,2.564-3.102,1.156-2.265-0.484c-2.133-0.27-4.304-0.115-6.476,0c0.251,2.244-2.229,1.391-2.593,0.322
		c-2.277,0.314-4.43,0.748-6.314,1.459c1.876,1.332-1.873,4.084-1.94,0.809c-2.917,0.969-5.426,2.35-6.964,4.697
		c3.083,0.768-0.064,4.828-1.782,2.264c-1.317,2.404-2.977,4.469-3.072,8.096c2.572,1.531,6.049,1.465,9.389,1.619
		C146.891,136.29,152.601,137.081,158.249,137.336z M167.96,130.7c-0.239,0.084-0.407,0.238-0.646,0.324
		c-1.566-0.125-0.358-2.33,0.646-1.133C167.96,130.159,167.96,130.428,167.96,130.7z M178.323,132.965
		C175.951,130.026,182.161,131.819,178.323,132.965L178.323,132.965z M176.38,129.403c0.422,1.029-0.094,2.195-1.456,1.945
		C173.93,130.469,174.851,128.569,176.38,129.403z M175.249,126.491c-0.33,0.047-0.318,0.438-0.649,0.486
		C171.299,126.352,174.958,122.417,175.249,126.491z M171.039,126.813c0.097,1.283-0.265,2.109-1.621,1.941
		C168.322,127.692,169.803,125.543,171.039,126.813z M169.743,122.118C167.113,121.569,170.528,119.469,169.743,122.118
		L169.743,122.118z M167.96,122.28c0.502,0.352,0.753,1.793,0.164,2.266C166.199,125.096,165.833,121.78,167.96,122.28z
		 M164.724,121.795c-0.931-0.045-1.608-0.334-1.619-1.297C163.869,119.196,165.871,120.706,164.724,121.795z M163.105,127.946
		c-0.909-0.115-1.251-0.801-1.135-1.941C163.251,124.469,164.869,127.334,163.105,127.946z M161.486,125.842
		c-0.232,0.09-0.396,0.25-0.486,0.484c-1.222,0.088-1.728-0.539-1.619-1.781C160.213,123.565,161.723,124.35,161.486,125.842z
		 M160.03,120.661c-1.06,0.465-2.286-0.275-2.268-0.971C157.794,118.424,160.186,118.887,160.03,120.661z M157.923,130.213
		c-0.885,0.49-1.665-0.141-1.781-0.648C155.692,127.602,158.842,128.118,157.923,130.213z M155.333,121.956
		c0.851-0.467,1.683,0.324,1.619,1.297C156.111,124.282,154.172,122.915,155.333,121.956z M146.59,128.754
		C143.12,130.415,145.697,124.905,146.59,128.754L146.59,128.754z M151.61,129.891c-0.716,0.715-2.103-0.133-1.62-0.975
		c0.011-0.693,1.026-0.484,1.458-0.324C151.544,128.981,151.682,129.333,151.61,129.891z M152.256,121.307
		c-0.456,0.59-1.757,0.312-2.104-0.16C149.347,118.991,152.63,119.225,152.256,121.307z M151.448,125.356
		c-0.157,0.004-0.125,0.199-0.163,0.324C147.926,126.422,150.997,122.229,151.448,125.356z M147.401,124.709
		c-0.79,0.59-2.433,0.08-2.59-0.646C144.414,122.211,147.721,122.422,147.401,124.709z M137.362,132.319
		c-0.338,0.498-1.4,0.359-1.78,0C134.797,130.514,137.575,130.54,137.362,132.319z M142.056,124.709
		c-0.506,1.146-2.098,0.625-2.264-0.164C139.458,122.981,142.025,122.733,142.056,124.709z M139.304,127.299
		c0.627,0.045,1.15,0.592,1.135,1.617C138.673,130.276,137.037,127.137,139.304,127.299z M142.219,130.538
		c0.627,0.465,0.966,1.92,0,2.266C140.754,133.124,140.205,130.034,142.219,130.538z"/>
	<path fill="#FFFFFF" d="M166.02,153.85c0.548-0.48,1.583-0.775,1.294-1.457c-2.861,0-5.721,0-8.579,0
		c-1.04,0.852-2.259,1.52-3.077,2.592c2.018,0.842,3.283,2.434,5.181,3.4C162.793,157.415,164.462,155.211,166.02,153.85z"/>
	<path fill="#FFFFFF" d="M148.373,156.928c3.144,0.344,4.684-3.244,7.121-4.535c-2.729-0.109-6.373,0.145-9.552,0
		c-2.129-0.096-4.38-0.701-5.341-0.484c0.051-0.012,0.11,0.008,0.164,0c1.246,0.926,2.538,1.373,3.882,2.428
		C145.8,155.239,146.895,156.764,148.373,156.928z"/>
	<path fill="#FFFFFF" d="M127.325,140.25c-4.233,0.525-9.263,1.977-14.409,2.916c-5.105,0.934-10.254,1.814-14.733,2.59
		c0,0.863,0,1.727,0,2.588c10.077-2.443,20.884-4.154,31.571-5.988C129.512,141.276,128.134,140.151,127.325,140.25z"/>
	<path fill="#FFFFFF" d="M182.371,136.202c-0.843-0.09-2.451,0.779-4.048,1.135c-7.685,1.715-16.632,1.764-25.418,1.781
		c-7.513,0.014-14.872,0.188-19.59-1.781c-0.981-0.41-1.465-0.992-2.268-1.295c-0.81-0.305-2.235,1.193-2.103,2.268
		c0.133,1.098,1.289,1.191,1.941,1.941c0.63,0.723,0.714,1.715,1.62,1.943c1.105,0.279,2.434-0.51,3.722-0.486
		c1.714,0.035,2.571,0.719,3.888,1.459c1.771-1.73,5.133-1.736,6.799,0.324c1.182,1.455,0.87,3.055,2.591,3.236
		c2.272,0.24,3.798-3.266,6.477-3.076c1.467,0.105,1.947,1.205,3.398,2.105c2.796-3.477,4.59,1.406,6.963,1.295
		c2.967-0.135,2.137-6,5.99-5.828c1.644,0.072,3.14,2.398,4.856,2.268c1.464-0.113,1.452-2.365,3.076-2.754
		c1.299-0.311,1.67,0.371,3.075,0.486C185.563,140.42,184.781,136.465,182.371,136.202z M156.304,142.356
		c-2.782,0.135-4.733,4.303-7.608,2.428c-0.396-0.258-0.711-0.805-0.81-1.781c0.81-0.334,1.35,0.516,2.428,0.164
		c2.452-0.803,3.061-4.01,6.477-2.916c1.474,0.473,1.542,1.838,4.048,2.105C159.506,143.715,157.912,142.276,156.304,142.356z"/>
	<path fill="#FFFFFF" d="M127.972,145.108c-9.504,1.775-19.236,3.322-29.629,4.211c0,1.133,0,2.266,0,3.398
		c10.497-1.539,20.413-3.654,30.602-5.506C128.521,146.608,128.885,145.221,127.972,145.108z"/>
	<path fill="#FFFFFF" d="M141.73,89.401c-28.854,0-52.329,23.475-52.329,52.33s23.475,52.328,52.329,52.328
		s52.33-23.474,52.33-52.328S170.584,89.401,141.73,89.401z M182.695,158.061c-0.813,1.227-3.059,2.494-4.855,3.561
		c-6.052,3.586-14.199,6.332-24.125,5.668c-3.236-0.217-6.905-1.053-10.04-2.107c-4.323-1.451-8.906-2.34-11.007-5.18
		c-1.772-2.395-2.184-6.729-1.942-10.684c-11.553,1.725-22.706,3.844-34.325,5.504c-0.125-2.271-0.16-4.594-0.16-6.961
		c0-2.25-0.531-5.027,0-6.963c0.428-1.555,4.557-4.627,5.827-5.666c2.281-1.865,4.275-3.619,6.313-5.02
		c-0.431-1.629,0.869-1.957,1.458-2.914c0.97-1.582,1.062-3.193,3.562-3.236c-1.591-2.234-0.57-5.855,2.269-5.994
		c-2.161,5.355,6.858,1.133,6.8,5.342c0.642-0.492-0.393-1.533,0-1.779c3.064-0.092,5.568,1.768,8.095,2.754
		c-1.095-1.051-2.313-2.049-3.887-2.754c-1.542-0.689-3.512-0.705-4.856-1.781c5.187-0.76,9.812,1.553,12.304,4.535
		c4.03-6.053,14.322-9.188,23.477-9.553c12.487-0.498,22.874,6.713,25.581,17.162c0.168,0.648,0.279,1.639,0,2.592
		c2.757,0.428,4.883,4.711,2.428,6.961c2.848,2.529,1.16,7.533-2.428,8.094C183.929,151.846,183.932,156.19,182.695,158.061z"/>
	<path fill="#A3BC4B" d="M141.73,83.401c-32.163,0-58.329,26.167-58.329,58.33s26.166,58.328,58.329,58.328
		s58.33-26.166,58.33-58.328S173.893,83.401,141.73,83.401z M141.73,194.059c-28.854,0-52.329-23.474-52.329-52.328
		s23.475-52.33,52.329-52.33s52.33,23.475,52.33,52.33S170.584,194.059,141.73,194.059z"/>
	<path fill="#E84E1B" d="M160.03,120.661c0.156-1.773-2.235-2.236-2.268-0.971C157.744,120.385,158.97,121.125,160.03,120.661z"/>
	<path fill="#E84E1B" d="M152.256,121.307c0.374-2.082-2.909-2.316-2.104-0.16C150.5,121.62,151.8,121.897,152.256,121.307z"/>
	<path fill="#E84E1B" d="M164.724,121.795c1.146-1.09-0.855-2.6-1.619-1.297C163.116,121.461,163.793,121.75,164.724,121.795z"/>
	<path fill="#E84E1B" d="M169.743,122.118C170.528,119.469,167.113,121.569,169.743,122.118L169.743,122.118z"/>
	<path fill="#E84E1B" d="M156.953,123.252c0.063-0.973-0.769-1.764-1.619-1.297C154.172,122.915,156.111,124.282,156.953,123.252z"
		/>
	<path fill="#E84E1B" d="M168.125,124.545c0.589-0.473,0.338-1.914-0.164-2.266C165.833,121.78,166.199,125.096,168.125,124.545z"/>
	<path fill="#E84E1B" d="M147.401,124.709c0.32-2.287-2.987-2.498-2.59-0.646C144.968,124.79,146.611,125.299,147.401,124.709z"/>
	<path fill="#E84E1B" d="M142.056,124.709c-0.031-1.977-2.599-1.729-2.264-0.164C139.958,125.334,141.55,125.856,142.056,124.709z"
		/>
	<path fill="#E84E1B" d="M161,126.327c0.091-0.234,0.254-0.395,0.486-0.484c0.237-1.492-1.272-2.277-2.105-1.297
		C159.272,125.788,159.778,126.415,161,126.327z"/>
	<path fill="#E84E1B" d="M151.285,125.68c0.038-0.125,0.006-0.32,0.163-0.324C150.997,122.229,147.926,126.422,151.285,125.68z"/>
	<path fill="#E84E1B" d="M174.599,126.977c0.331-0.049,0.319-0.439,0.649-0.486C174.958,122.417,171.299,126.352,174.599,126.977z"
		/>
	<path fill="#E84E1B" d="M163.105,127.946c1.764-0.611,0.146-3.477-1.135-1.941C161.854,127.145,162.196,127.831,163.105,127.946z"
		/>
	<path fill="#E84E1B" d="M169.417,128.754c1.356,0.168,1.718-0.658,1.621-1.941C169.803,125.543,168.322,127.692,169.417,128.754z"
		/>
	<path fill="#E84E1B" d="M139.304,127.299c-2.268-0.162-0.631,2.977,1.135,1.617C140.455,127.891,139.931,127.344,139.304,127.299z"
		/>
	<path fill="#E84E1B" d="M146.59,128.754C145.697,124.905,143.12,130.415,146.59,128.754L146.59,128.754z"/>
	<path fill="#E84E1B" d="M156.142,129.565c0.116,0.508,0.896,1.139,1.781,0.648C158.842,128.118,155.692,127.602,156.142,129.565z"
		/>
	<path fill="#E84E1B" d="M149.99,128.917c-0.482,0.842,0.904,1.689,1.62,0.975c0.072-0.559-0.065-0.91-0.162-1.299
		C151.016,128.432,150,128.223,149.99,128.917z"/>
	<path fill="#E84E1B" d="M174.924,131.348c1.362,0.25,1.878-0.916,1.456-1.945C174.851,128.569,173.93,130.469,174.924,131.348z"/>
	<path fill="#E84E1B" d="M167.314,131.024c0.239-0.086,0.407-0.24,0.646-0.324c0-0.271,0-0.541,0-0.809
		C166.956,128.694,165.748,130.899,167.314,131.024z"/>
	<path fill="#E84E1B" d="M142.219,132.803c0.966-0.346,0.627-1.801,0-2.266C140.205,130.034,140.754,133.124,142.219,132.803z"/>
	<path fill="#E84E1B" d="M135.582,132.319c0.38,0.359,1.442,0.498,1.78,0C137.575,130.54,134.797,130.514,135.582,132.319z"/>
	<path fill="#E84E1B" d="M178.323,132.965C182.161,131.819,175.951,130.026,178.323,132.965L178.323,132.965z"/>
	<path fill="#E84E1B" d="M150.314,143.167c-1.078,0.352-1.618-0.498-2.428-0.164c0.099,0.977,0.414,1.523,0.81,1.781
		c2.875,1.875,4.826-2.293,7.608-2.428c1.607-0.08,3.202,1.359,4.534,0c-2.506-0.268-2.574-1.633-4.048-2.105
		C153.375,139.157,152.766,142.364,150.314,143.167z"/>
	<path fill="#E84E1B" d="M185.609,141.547c2.455-2.25,0.329-6.533-2.428-6.961c0.279-0.953,0.168-1.943,0-2.592
		c-2.707-10.449-13.094-17.66-25.581-17.162c-9.154,0.365-19.446,3.5-23.477,9.553c-2.491-2.982-7.117-5.295-12.304-4.535
		c1.345,1.076,3.314,1.092,4.856,1.781c1.573,0.705,2.792,1.703,3.887,2.754c-2.526-0.986-5.03-2.846-8.095-2.754
		c-0.393,0.246,0.642,1.287,0,1.779c0.059-4.209-8.961,0.014-6.8-5.342c-2.839,0.139-3.859,3.76-2.269,5.994
		c-2.5,0.043-2.592,1.654-3.562,3.236c-0.589,0.957-1.889,1.285-1.458,2.914c-2.038,1.4-4.032,3.154-6.313,5.02
		c-1.271,1.039-5.399,4.111-5.827,5.666c-0.531,1.936,0,4.713,0,6.963c0,2.367,0.035,4.689,0.16,6.961
		c11.619-1.66,22.772-3.779,34.325-5.504c-0.241,3.955,0.17,8.289,1.942,10.684c2.101,2.84,6.684,3.729,11.007,5.18
		c3.135,1.055,6.804,1.891,10.04,2.107c9.926,0.664,18.073-2.082,24.125-5.668c1.797-1.066,4.042-2.334,4.855-3.561
		c1.237-1.871,1.234-6.215,0.486-8.42C186.769,149.081,188.457,144.077,185.609,141.547z M135.255,126.327
		c1.718,2.564,4.865-1.496,1.782-2.264c1.538-2.348,4.047-3.729,6.964-4.697c0.067,3.275,3.816,0.523,1.94-0.809
		c1.885-0.711,4.037-1.145,6.314-1.459c0.363,1.068,2.844,1.922,2.593-0.322c2.172-0.115,4.343-0.27,6.476,0
		c-0.837,1.641,2.487,3.049,2.265,0.484c4.014,0.844,7.198,2.518,10.2,4.371c0.385,0.316-0.296,0.906,0.163,1.295
		c0.516,0.498,0.679-0.273,1.296-0.16c3.096,2.842,6.109,6.619,6.151,11.98c-6.799,1.615-14.762,2.971-23.151,2.59
		c-5.647-0.256-11.357-1.047-16.677-1.295c-3.34-0.154-6.816-0.088-9.389-1.619C132.279,130.795,133.938,128.731,135.255,126.327z
		 M110.81,128.592c1.884,3.021,8.749,3.559,12.305,1.621c-2.676,0.492-7.306,0.33-9.715-0.973c-0.825-0.445-1.948-1.508-1.78-2.59
		c0.435-2.807,5.081-0.979,7.771-1.619c-1.754-0.23-4.306-0.666-5.342-1.943c-0.545-0.67-1.275-2.469,0.162-3.074
		c0.075,4.133,8.232,0.186,7.446,5.182c1.104,0.434,2.829,0.354,2.914,1.455c0.14,1.773-3.703,1.555-5.991,1.619
		c1.823,2.545,7.63-1.512,7.934,1.457c0.314,3.053-6.278,4.205-9.229,4.209c-3.931,0.008-6.989-1.074-7.447-4.371
		C110.051,129.131,110.552,128.985,110.81,128.592z M98.021,141.547c10.13-1.637,20.248-3.283,29.788-5.506
		c0.477,0.209-0.66,1.453-0.646,2.268c-9.894,1.602-19.322,3.666-28.981,5.504C97.933,143.252,98.04,142.338,98.021,141.547z
		 M98.343,152.717c0-1.133,0-2.266,0-3.398c10.393-0.889,20.125-2.436,29.629-4.211c0.913,0.113,0.549,1.5,0.973,2.104
		C118.756,149.063,108.84,151.178,98.343,152.717z M98.182,148.344c0-0.861,0-1.725,0-2.588c4.479-0.775,9.628-1.656,14.733-2.59
		c5.146-0.939,10.176-2.391,14.409-2.916c0.81-0.1,2.188,1.025,2.429,2.105C119.066,144.19,108.259,145.901,98.182,148.344z
		 M180.753,157.09c-1.039,2.016-6.057,4.244-9.067,5.342c-7.32,2.666-16.741,3.104-25.096,1.133
		c-1.844-0.434-3.844-1.023-5.667-1.621c-2.566-0.836-5.397-1.473-6.638-3.236c-1.336-1.898-1.541-5.564-1.458-8.418
		c0-0.164,0-0.324,0-0.486c3.086,0.988,5.481,3.051,8.42,5.02c2.331,1.561,4.101,3.861,6.477,4.209
		c2.969,0.436,4.979-1.365,6.638-3.074c2.228,1.027,3.621,3.926,6.314,4.045c2.718,0.121,5.725-4.096,7.608-5.828
		c0.601-0.551,1.623-1.844,2.267-2.104c1.946-0.783,4.084-0.395,5.667-0.646c1.706-0.273,3.081-0.727,5.182-1.135
		C181.124,152.329,181.646,155.354,180.753,157.09z M140.601,151.909c0.961-0.217,3.212,0.389,5.341,0.484
		c3.179,0.145,6.823-0.109,9.552,0c-2.438,1.291-3.978,4.879-7.121,4.535c-1.478-0.164-2.572-1.689-3.726-2.592
		c-1.344-1.055-2.636-1.502-3.882-2.428C140.711,151.917,140.652,151.897,140.601,151.909z M155.658,154.985
		c0.818-1.072,2.037-1.74,3.077-2.592c2.858,0,5.718,0,8.579,0c0.289,0.682-0.746,0.977-1.294,1.457
		c-1.558,1.361-3.227,3.564-5.182,4.535C158.941,157.418,157.675,155.827,155.658,154.985z M183.341,141.223
		c-1.405-0.115-1.776-0.797-3.075-0.486c-1.624,0.389-1.612,2.641-3.076,2.754c-1.717,0.131-3.213-2.195-4.856-2.268
		c-3.854-0.172-3.023,5.693-5.99,5.828c-2.373,0.111-4.167-4.771-6.963-1.295c-1.451-0.9-1.932-2-3.398-2.105
		c-2.679-0.189-4.204,3.316-6.477,3.076c-1.721-0.182-1.409-1.781-2.591-3.236c-1.666-2.061-5.027-2.055-6.799-0.324
		c-1.316-0.74-2.174-1.424-3.888-1.459c-1.288-0.023-2.616,0.766-3.722,0.486c-0.906-0.229-0.99-1.221-1.62-1.943
		c-0.652-0.75-1.809-0.844-1.941-1.941c-0.133-1.074,1.293-2.572,2.103-2.268c0.803,0.303,1.286,0.885,2.268,1.295
		c4.718,1.969,12.077,1.795,19.59,1.781c8.786-0.018,17.733-0.066,25.418-1.781c1.597-0.355,3.205-1.225,4.048-1.135
		C184.781,136.465,185.563,140.42,183.341,141.223z"/>
</g>
</svg>
