<?xml version="1.0" encoding="utf-8"?>
<!-- Generator: Adobe Illustrator 15.1.0, SVG Export Plug-In . SVG Version: 6.00 Build 0)  -->
<!DOCTYPE svg PUBLIC "-//W3C//DTD SVG 1.1//EN" "http://www.w3.org/Graphics/SVG/1.1/DTD/svg11.dtd">
<svg version="1.1" id="Ebene_1" xmlns="http://www.w3.org/2000/svg" xmlns:xlink="http://www.w3.org/1999/xlink" x="0px" y="0px"
	 width="283.46px" height="283.46px" viewBox="0 0 283.46 283.46" enable-background="new 0 0 283.46 283.46" xml:space="preserve">
<g>
	<path fill="#718027" d="M186.657,165.22c-4.434-8.727-6.67-24.561-6.452-37.095c0.087-4.956,2.731-9.377,2.903-14.192
		c0.139-3.868-0.404-8.453-3.227-10.322c-1.721-1.14-6.461-1.032-8.387-0.966c-0.887-10.079-10.279-7.729-9.998,0.966
		c-2.242-0.66-5.632-0.173-8.387-0.321c0.285-10.89-10.926-8.849-10.645,0c-2.031-0.679-6.236-0.094-7.741-0.323
		c0.957-9.971-10.728-8.428-10.321,0c-2.935-0.246-4.872,0.504-7.74,0.323c-0.216-4.443-2.193-8.33-5.807-7.742
		c-3.084,0.503-3.207,4.777-4.838,7.419c-3.219,0.435-8.724,0.015-10.645,2.259c-2.066,2.407-1.656,9.798-0.646,13.547
		c0.855,3.177,1.137,4.53,0.968,8.386c-0.508,11.543-0.023,26.918-0.645,39.031c-0.359,7.011-2.137,13.056,2.581,16.127
		c1.83,0.748,5.05,0.11,7.418,0.323c1.576,5.629,9.709,5.6,17.418,5.16c16.594-0.943,38.471-4.302,53.223-9.677
		c4.538-1.652,13.629-4.622,13.87-7.418C189.702,169.042,187.05,165.998,186.657,165.22z M167.303,98.449
		c2.76,1.667,1.957,7.82,1.611,11.612C165.153,109.091,163.956,100.869,167.303,98.449z M148.917,98.449
		c2.604,2.017,1.544,8.518,0.968,11.937C146.631,108.845,145.784,100.815,148.917,98.449z M130.854,99.096
		c2.519,2.17,1.467,8.082,0.321,10.966C128.462,108.097,128.838,101.536,130.854,99.096z M112.145,98.772
		c2.753,1.414,2.188,8.197,1.291,11.289C109.184,109.01,110.475,101.66,112.145,98.772z M112.145,180.702
		c-7.15-16.395-13.264-33.829-11.934-58.705c25.213-2.555,52.804,1.24,78.381-0.645c-4.436,15.314-0.3,34.435,4.516,46.448
		C162.456,174.978,140.294,183.045,112.145,180.702z"/>
	<path fill="#DBE4B4" d="M149.885,110.386c0.576-3.419,1.637-9.92-0.968-11.937C145.784,100.815,146.631,108.845,149.885,110.386z"
		/>
	<path fill="#DBE4B4" d="M168.915,110.062c0.346-3.792,1.148-9.945-1.611-11.612C163.956,100.869,165.153,109.091,168.915,110.062z"
		/>
	<path fill="#DBE4B4" d="M113.436,110.062c0.896-3.092,1.462-9.875-1.291-11.289C110.475,101.66,109.184,109.01,113.436,110.062z"/>
	<path fill="#DBE4B4" d="M131.175,110.062c1.146-2.884,2.197-8.796-0.321-10.966C128.838,101.536,128.462,108.097,131.175,110.062z"
		/>
	<path fill="#DBE4B4" d="M178.592,121.353c-25.577,1.885-53.168-1.91-78.381,0.645c-1.33,24.875,4.783,42.31,11.934,58.705
		c28.149,2.344,50.311-5.724,70.963-12.901C178.292,155.788,174.157,136.667,178.592,121.353z M163.754,148.447
		c-4.13,8.769-17.342,15.555-22.9,20.967c-10.135-7.99-24.883-8.755-28.387-23.868c-3.701-15.974,17.133-24.802,27.418-14.195
		C150.469,119.683,171.022,133.016,163.754,148.447z"/>
	<path fill="#718027" d="M139.885,131.351c-10.285-10.607-31.119-1.779-27.418,14.195c3.504,15.113,18.252,15.878,28.387,23.868
		c5.559-5.412,18.771-12.198,22.9-20.967C171.022,133.016,150.469,119.683,139.885,131.351z"/>
</g>
</svg>
