<?xml version="1.0" encoding="utf-8"?>
<!-- Generator: Adobe Illustrator 15.1.0, SVG Export Plug-In . SVG Version: 6.00 Build 0)  -->
<!DOCTYPE svg PUBLIC "-//W3C//DTD SVG 1.1//EN" "http://www.w3.org/Graphics/SVG/1.1/DTD/svg11.dtd">
<svg version="1.1" id="Ebene_1" xmlns="http://www.w3.org/2000/svg" xmlns:xlink="http://www.w3.org/1999/xlink" x="0px" y="0px"
	 width="283.46px" height="283.46px" viewBox="0 0 283.46 283.46" enable-background="new 0 0 283.46 283.46" xml:space="preserve">
<g>
	<path fill="#718027" d="M187.46,134.247c0-3.707,0.776-8.582-0.48-12.24c-2.421-7.047-11.349-6.245-21.12-6
		c-0.899-3.834-2.384-7.066-6.479-9.119c-3.738-1.875-9.111-1.44-14.641-1.44c-5.861,0-11.835-0.511-16.079,0
		c-7.043,0.847-9.917,5.213-11.521,10.56c-6.392,0.688-11.218-1.127-15.601,0.48c-6.236,2.287-5.76,9.132-5.76,17.52
		c0,8.928,0,16.908,0,25.92c0,8.585-0.584,14.392,5.041,17.04c4.02,1.894,13.576,0.96,19.68,0.96c15.5,0,26.204,0,41.279,0
		c6.505,0,15.624,1.062,20.16-0.72c5.92-2.326,5.521-9.38,5.521-17.52C187.46,150.257,187.46,143.449,187.46,134.247z
		 M133.94,169.287c-9.313-3.154-16.449-12.728-15.84-23.76c0.238-4.313,2.174-9.095,3.359-11.04
		c2.87-4.709,9.023-9.85,17.281-10.801c14.793-1.703,26.096,8.656,26.399,22.561C165.517,163.473,149.345,174.504,133.94,169.287z
		 M179.06,130.647c-3.738,0.265-9.61,0.674-12.96-0.24c-1.139-1.087-0.917-5.043-0.24-6.48c3.45-0.785,9.99-0.785,13.44,0
		C180.395,125.453,180.262,129.36,179.06,130.647z"/>
	<path fill="#DBE4B4" d="M138.741,123.686c-8.258,0.951-14.411,6.092-17.281,10.801c-1.186,1.945-3.121,6.727-3.359,11.04
		c-0.609,11.032,6.526,20.605,15.84,23.76c15.405,5.218,31.577-5.813,31.2-23.04C164.836,132.342,153.534,121.983,138.741,123.686z
		 M156.98,149.607c-2.169,15.709-26.409,17.43-30.479,1.199c-2.342-9.335,4.045-17.888,12.72-19.2
		C149.986,129.979,158.518,138.471,156.98,149.607z"/>
	<path fill="#DBE4B4" d="M165.86,123.926c-0.677,1.438-0.898,5.394,0.24,6.48c3.35,0.914,9.222,0.505,12.96,0.24
		c1.202-1.287,1.335-5.194,0.24-6.721C175.85,123.141,169.31,123.141,165.86,123.926z"/>
	<path fill="#718027" d="M139.22,131.606c-8.675,1.312-15.062,9.865-12.72,19.2c4.07,16.23,28.311,14.51,30.479-1.199
		C158.518,138.471,149.986,129.979,139.22,131.606z"/>
</g>
</svg>
