<?xml version="1.0" encoding="utf-8"?>
<!-- Generator: Adobe Illustrator 15.1.0, SVG Export Plug-In . SVG Version: 6.00 Build 0)  -->
<!DOCTYPE svg PUBLIC "-//W3C//DTD SVG 1.1//EN" "http://www.w3.org/Graphics/SVG/1.1/DTD/svg11.dtd">
<svg version="1.1" id="Ebene_1" xmlns="http://www.w3.org/2000/svg" xmlns:xlink="http://www.w3.org/1999/xlink" x="0px" y="0px"
	 width="283.46px" height="283.46px" viewBox="0 0 283.46 283.46" enable-background="new 0 0 283.46 283.46" xml:space="preserve">
<g>
	<path fill="#FFFFFF" d="M141.729,89.401c-28.854,0-52.329,23.475-52.329,52.329s23.475,52.329,52.329,52.329
		c28.856,0,52.331-23.475,52.331-52.329S170.585,89.401,141.729,89.401z"/>
	<path fill="#A3BC4B" d="M141.729,83.401c-32.162,0-58.329,26.166-58.329,58.329s26.167,58.329,58.329,58.329
		c32.165,0,58.331-26.166,58.331-58.329S173.894,83.401,141.729,83.401z M141.729,194.059c-28.854,0-52.329-23.475-52.329-52.329
		s23.475-52.329,52.329-52.329c28.856,0,52.331,23.475,52.331,52.329S170.585,194.059,141.729,194.059z"/>
</g>
</svg>
