<?xml version="1.0" encoding="utf-8"?>
<!-- Generator: Adobe Illustrator 15.1.0, SVG Export Plug-In . SVG Version: 6.00 Build 0)  -->
<!DOCTYPE svg PUBLIC "-//W3C//DTD SVG 1.1//EN" "http://www.w3.org/Graphics/SVG/1.1/DTD/svg11.dtd">
<svg version="1.1" id="Ebene_1" xmlns="http://www.w3.org/2000/svg" xmlns:xlink="http://www.w3.org/1999/xlink" x="0px" y="0px"
	 width="283.46px" height="283.46px" viewBox="0 0 283.46 283.46" enable-background="new 0 0 283.46 283.46" xml:space="preserve">
<g>
	<path fill="#FFFFFF" d="M141.729,89.401c-28.854,0-52.329,23.475-52.329,52.329s23.475,52.329,52.329,52.329
		c28.855,0,52.331-23.475,52.331-52.329S170.584,89.401,141.729,89.401z M174.352,112.843c-1.629-0.13-3.997,0.488-4.391-0.877
		c1.349-3.186,4.522-4.546,6.583-7.022c0.385,2.007-2.988,4.021-3.949,6.144c1.471,0.066,3.016,0.058,3.73,0.879
		c-0.301,4.162-3.709,5.214-5.488,7.901c0.473,0.48,1.564,0.341,1.539,1.317c-0.467,1.433-1.426,2.688-2.625,4.063
		c-0.736,0.844-1.562,1.731-2.424,2.736c-1.209,1.413-4.373,6.104-5.926,5.928c-0.505-0.057-0.734-0.487-1.098-0.659
		c1.23-4.742,5.402-6.542,8.121-9.792c0.312-0.374,0.611-0.762,0.878-1.179C166.302,118.313,172.709,115.677,174.352,112.843z
		 M163.596,119.868c0.151-0.371,0.315-0.631,0.489-0.801c1.219-1.195,2.916,2.038,3.899,2.996c-0.075,0.193-0.204,0.336-0.345,0.47
		c-0.272,0.258-0.6,0.463-0.75,0.846C165.759,122.24,164.915,120.818,163.596,119.868z M161.84,112.624
		c0.196-2.509,2.706-2.706,3.731-4.388c0.393,1.2-1.56,1.946-1.538,3.51c0.763,0.252,3.706-0.536,3.951,0.878
		c-0.847,2.648-2.868,4.126-4.646,5.843c-0.716,0.689-1.392,1.417-1.937,2.277c0.401,0.103,2.326-0.183,2.855,0.441
		c0.684,3.685-2.238,5.906-4.172,8.336c-1.476,1.862-2.529,4.276-4.609,4.831c-0.006-0.214-0.271-0.17-0.439-0.22
		c-0.518-2.682,1.768-4.325,3.074-5.927c1.447-1.776,2.9-3.479,3.947-5.484c-1.33,0.068-2.896,0.935-3.947,0
		c0.199-2.417,1.709-4.064,3.418-5.578c1.42-1.259,2.979-2.426,4.043-3.862C164.354,113.591,162.222,113.785,161.84,112.624z
		 M138.796,120.306c-1.266,3.896-9,6.597-12.728,7.899c2.094-2.466,5.73-2.782,7.681-5.265c1.451-1.854,1.646-4.332,3.732-5.709
		C138.938,117.47,139.32,118.702,138.796,120.306z M140.993,156.078c-1.217-1.187-1.881-2.769-3.952-2.633
		c-1.376,0.092-1.866,1.439-3.072,1.317C132.807,149.292,143.84,150.956,140.993,156.078z M135.725,149.713
		c-3.875-1.283-6.746-5.147-12.729-3.73c-1.007,0.237-1.695,1.063-3.072,1.098C122.201,141.717,136.591,143.804,135.725,149.713z
		 M135.287,167.929c3.186-3.774,18.357-10.168,17.556,1.536c-0.723,2.025-3.309,3.274-5.707,3.291
		c-3.963,0.029-8.429-3.567-11.849-3.511c-1.436,0.023-2.158,1.206-3.515,0.878C132.442,168.891,133.604,168.149,135.287,167.929z
		 M142.75,152.345c-0.121-6.837,14.849-6.144,14.922,0.661c-1.724-0.341-2.417-2.279-4.17-2.854
		C149.344,148.792,145.603,151.059,142.75,152.345z M144.943,119.208c0.185-0.629,0.719-1.608,1.977-1.318
		c1.524,4.098,2.168,8.821,5.047,11.631C148.946,128.762,143.724,123.312,144.943,119.208z M176.982,150.153
		c-0.646,11.681-5.729,20.309-11.848,26.556c-6.361,6.491-15.466,12.663-28.093,12.069c-20.757-0.972-36.841-17.314-36.432-39.721
		c0.284-15.536,8.091-26.98,17.337-33.577c4.928-3.52,12.207-5.283,17.34-9.22c-0.416,1.122-1.637,1.437-2.195,2.413
		c3.997-1.708,6.955-4.455,10.316-6.803c-1.164,2.936-4.146,4.047-6.147,6.146c2.303-0.919,4.072-2.365,5.927-3.732
		c0.205,1.344-3.452,3.139-4.83,4.389c3.919-0.69,7.492-1.725,10.975-2.854c-1.718,1.65-4.458,2.277-7.242,2.854
		c5.947,0.571,11.422,2.312,15.802,4.829c1.289,0.742,3.363,1.156,3.51,2.853c-0.197,0.151-0.387,0.253-0.57,0.322
		c-1.454,0.547-2.507-1.235-3.602-1.858c-0.947-0.542-1.998-1.083-3.131-1.594c-3.051-1.378-6.709-2.538-10.668-2.896
		c-0.874-0.079-1.761-0.125-2.659-0.118c-9.948,0.056-19.294,5.396-25.019,10.753c-6.992,6.536-12.75,17.278-12.071,30.945
		c0.479,9.623,4.57,18.692,11.381,25.027c2.131,1.984,4.528,3.696,7.167,5.075c5.399,2.823,11.798,4.252,18.98,3.692
		c9.367-0.729,17.84-5.772,23.264-11.851c7.955-8.912,13.341-24.869,8.121-39.722c-0.48-1.364-1.089-2.814-1.758-4.171
		c-0.562-1.146-1.291-2.356-0.271-3.469c0.081-0.088,0.167-0.175,0.271-0.26C175.075,132.46,177.561,139.753,176.982,150.153z"/>
	<path fill="#A3BC4B" d="M141.729,83.401c-32.163,0-58.329,26.166-58.329,58.329s26.167,58.329,58.329,58.329
		s58.331-26.166,58.331-58.329S173.892,83.401,141.729,83.401z M141.729,194.059c-28.854,0-52.329-23.475-52.329-52.329
		s23.475-52.329,52.329-52.329c28.855,0,52.331,23.475,52.331,52.329S170.584,194.059,141.729,194.059z"/>
	<path fill="#FFFFFF" d="M147.796,167.492c0,1.022,0,2.047,0,3.074c1.74-0.311,3.104-0.997,2.852-3.295
		C149.574,167.219,148.988,167.658,147.796,167.492z"/>
	<path fill="#FFFFFF" d="M138.796,168.37c0.834,0.335,1.707,0.634,2.638,0.876c0-0.364,0-0.731,0-1.097
		C140.618,168.289,139.243,167.864,138.796,168.37z"/>
	<path fill="#FFFFFF" d="M150.21,165.954c-0.274-1.118-1.33-1.449-2.635-1.535c0.001,0.583-0.084,1.253,0.221,1.535
		C148.601,165.954,149.405,165.954,150.21,165.954z"/>
	<path fill="#FFFFFF" d="M141.434,165.954c-1.182,0.065-2.042,0.446-2.857,0.879C139.434,166.443,141.334,167.103,141.434,165.954z"
		/>
	<path fill="#FFFFFF" d="M142.969,167.929c-0.331,0.353,0.188,1.101,0,1.974c1.018,0.149,1.837,0.502,2.851,0.663
		c0.057-0.971,0.352-1.7,0.221-2.857C144.783,167.553,144.081,167.944,142.969,167.929z"/>
	<path fill="#FFFFFF" d="M146.041,165.954c0-0.512,0-1.024,0-1.535c-1.217,0.388-2.985,0.235-3.513,1.316
		c0.013,0.28,0.278,0.305,0.222,0.656C143.574,165.973,145.214,166.373,146.041,165.954z"/>
	<path fill="#E84E1B" d="M167.64,122.533c0.141-0.134,0.27-0.276,0.345-0.47c-0.983-0.958-2.681-4.191-3.899-2.996
		c-0.174,0.17-0.338,0.43-0.489,0.801c1.318,0.95,2.163,2.372,3.294,3.511C167.041,122.996,167.368,122.791,167.64,122.533z"/>
	<path fill="#E84E1B" d="M170.567,126.493c-1.021,1.112-0.292,2.322,0.271,3.469c0.669,1.356,1.277,2.807,1.758,4.171
		c5.22,14.853-0.166,30.81-8.121,39.722c-5.424,6.078-13.896,11.122-23.264,11.851c-7.182,0.56-13.581-0.869-18.98-3.692
		c-2.639-1.379-5.036-3.091-7.167-5.075c-6.812-6.335-10.902-15.404-11.381-25.027c-0.679-13.667,5.08-24.409,12.071-30.945
		c5.725-5.356,15.071-10.697,25.019-10.753c0.898-0.007,1.785,0.039,2.659,0.118c3.959,0.357,7.617,1.518,10.668,2.896
		c1.133,0.511,2.184,1.052,3.131,1.594c1.095,0.623,2.147,2.405,3.602,1.858c0.184-0.069,0.373-0.171,0.57-0.322
		c-0.146-1.696-2.221-2.11-3.51-2.853c-4.38-2.518-9.855-4.258-15.802-4.829c2.784-0.577,5.524-1.204,7.242-2.854
		c-3.482,1.13-7.056,2.164-10.975,2.854c1.378-1.25,5.035-3.045,4.83-4.389c-1.854,1.367-3.624,2.813-5.927,3.732
		c2.001-2.1,4.983-3.211,6.147-6.146c-3.361,2.348-6.319,5.095-10.316,6.803c0.559-0.977,1.779-1.291,2.195-2.413
		c-5.133,3.937-12.413,5.7-17.34,9.22c-9.247,6.597-17.054,18.041-17.337,33.577c-0.41,22.406,15.675,38.749,36.432,39.721
		c12.627,0.594,21.732-5.578,28.093-12.069c6.119-6.247,11.201-14.875,11.848-26.556c0.579-10.399-1.907-17.692-6.145-23.92
		C170.734,126.318,170.648,126.405,170.567,126.493z"/>
	<path fill="#E84E1B" d="M160.304,133.253c0.363,0.172,0.593,0.603,1.098,0.659c1.553,0.177,4.717-4.515,5.926-5.928
		c0.862-1.005,1.688-1.893,2.424-2.736c1.199-1.376,2.158-2.631,2.625-4.063c0.025-0.977-1.066-0.837-1.539-1.317
		c1.779-2.688,5.188-3.739,5.488-7.901c-0.715-0.821-2.26-0.812-3.73-0.879c0.961-2.123,4.334-4.137,3.949-6.144
		c-2.061,2.477-5.234,3.837-6.583,7.022c0.394,1.365,2.762,0.747,4.391,0.877c-1.643,2.834-8.05,5.47-5.049,9.439
		c-0.267,0.417-0.565,0.805-0.878,1.179C165.707,126.711,161.535,128.511,160.304,133.253z"/>
	<path fill="#E84E1B" d="M161.529,117.143c-1.709,1.514-3.219,3.161-3.418,5.578c1.051,0.935,2.617,0.068,3.947,0
		c-1.047,2.005-2.5,3.708-3.947,5.484c-1.307,1.602-3.592,3.245-3.074,5.927c0.168,0.05,0.434,0.006,0.439,0.22
		c2.08-0.555,3.134-2.969,4.609-4.831c1.934-2.43,4.855-4.651,4.172-8.336c-0.529-0.624-2.454-0.339-2.855-0.441
		c0.545-0.86,1.221-1.588,1.937-2.277c1.778-1.717,3.8-3.194,4.646-5.843c-0.245-1.414-3.188-0.626-3.951-0.878
		c-0.021-1.563,1.931-2.31,1.538-3.51c-1.025,1.682-3.535,1.879-3.731,4.388c0.382,1.161,2.514,0.968,3.731,0.657
		C164.507,114.717,162.949,115.884,161.529,117.143z"/>
	<path fill="#E84E1B" d="M137.481,117.232c-2.086,1.377-2.281,3.855-3.732,5.709c-1.951,2.482-5.586,2.799-7.681,5.265
		c3.728-1.303,11.462-4.003,12.728-7.899C139.32,118.702,138.938,117.47,137.481,117.232z"/>
	<path fill="#E84E1B" d="M146.919,117.89c-1.258-0.29-1.792,0.689-1.977,1.318c-1.219,4.104,4.003,9.554,7.023,10.312
		C149.087,126.711,148.444,121.988,146.919,117.89z"/>
	<path fill="#E84E1B" d="M119.923,147.081c1.377-0.034,2.065-0.86,3.072-1.098c5.984-1.417,8.855,2.447,12.729,3.73
		C136.591,143.804,122.201,141.717,119.923,147.081z"/>
	<path fill="#E84E1B" d="M157.671,153.006c-0.073-6.805-15.043-7.498-14.922-0.661c2.854-1.286,6.595-3.553,10.752-2.192
		C155.254,150.727,155.948,152.666,157.671,153.006z"/>
	<path fill="#E84E1B" d="M133.969,154.762c1.207,0.122,1.696-1.226,3.072-1.317c2.07-0.136,2.734,1.446,3.952,2.633
		C143.84,150.956,132.807,149.292,133.969,154.762z"/>
	<path fill="#E84E1B" d="M135.287,169.246c3.42-0.057,7.886,3.54,11.849,3.511c2.398-0.017,4.984-1.266,5.707-3.291
		c0.801-11.704-14.37-5.311-17.556-1.536c-1.683,0.22-2.845,0.962-3.515,2.194C133.129,170.452,133.852,169.269,135.287,169.246z
		 M147.796,170.566c0-1.027,0-2.052,0-3.074c1.191,0.166,1.777-0.272,2.852-0.221C150.9,169.569,149.537,170.255,147.796,170.566z
		 M147.576,164.418c1.305,0.086,2.36,0.417,2.635,1.535c-0.806,0-1.609,0-2.414,0C147.492,165.671,147.577,165.001,147.576,164.418z
		 M141.434,169.246c-0.931-0.242-1.803-0.541-2.638-0.876c0.447-0.506,1.822-0.081,2.638-0.221
		C141.434,168.514,141.434,168.881,141.434,169.246z M145.82,170.566c-1.014-0.161-1.833-0.514-2.851-0.663
		c0.188-0.873-0.331-1.621,0-1.974c1.111,0.015,1.813-0.376,3.071-0.221C146.171,168.866,145.876,169.595,145.82,170.566z
		 M146.041,164.418c0,0.511,0,1.023,0,1.535c-0.826,0.419-2.467,0.02-3.291,0.438c0.057-0.352-0.209-0.376-0.222-0.656
		C143.055,164.654,144.824,164.806,146.041,164.418z M141.434,165.954c-0.1,1.149-2,0.489-2.857,0.879
		C139.392,166.4,140.251,166.019,141.434,165.954z"/>
</g>
</svg>
