<?xml version="1.0" encoding="utf-8"?>
<!-- Generator: Adobe Illustrator 15.1.0, SVG Export Plug-In . SVG Version: 6.00 Build 0)  -->
<!DOCTYPE svg PUBLIC "-//W3C//DTD SVG 1.1//EN" "http://www.w3.org/Graphics/SVG/1.1/DTD/svg11.dtd">
<svg version="1.1" id="Ebene_1" xmlns="http://www.w3.org/2000/svg" xmlns:xlink="http://www.w3.org/1999/xlink" x="0px" y="0px"
	 width="283.46px" height="283.46px" viewBox="0 0 283.46 283.46" enable-background="new 0 0 283.46 283.46" xml:space="preserve">
<g>
	<path fill="#FFFFFF" d="M141.729,89.401c-28.854,0-52.328,23.475-52.328,52.329s23.475,52.329,52.328,52.329
		c28.855,0,52.33-23.475,52.33-52.329S170.584,89.401,141.729,89.401z M175.842,131.703c-1.808,1.448-6.515,0.185-6.824-2.271
		c-0.314-2.524,2.39-2.867,3.64-4.55c-1.456-1.122-4.419-0.736-4.775-2.956c1.89-1.025,9.315-0.163,9.552,2.501
		c0.193,2.196-2.551,2.922-4.095,4.095C173.698,130.059,175.551,130.102,175.842,131.703z M167.882,117.83
		c2.28-0.535,4.215,1.246,4.775,3.186C169.922,121.1,169.192,119.171,167.882,117.83z M170.383,108.279
		c0.621,2.381-2.078,3.106-2.957,4.776c1.979,0.901,5.219,0.543,5.004,3.64c-2.783,0.582-8.822,0.521-9.326-2.048
		c-0.444-2.282,2.49-3.673,3.412-5.459c-0.48-0.805-1.976-0.602-2.273-1.592C164.282,105.003,170.069,107.075,170.383,108.279z
		 M142.408,158.086c2.354-0.451,4.523,0.036,5.688,1.138c4.507,4.264-0.874,11.223-6.37,9.326
		C137.438,167.069,136.551,159.209,142.408,158.086z M133.767,146.49c-2.408-4.854,5.716-5.549,5.912-1.141
		C136.819,143.534,135.823,144.687,133.767,146.49z M144.455,134.435c2.37,0.124,3.872,2.336,6.598,2.73
		c5.886,0.846,10.165-2.216,12.509-5.688c0.264-0.038,0.404,0.048,0.454,0.225C163.653,140.152,146.401,144.497,144.455,134.435z
		 M145.821,121.468c1.406-3.616,9.604-3.742,12.508-1.362C153.623,119.119,149.917,121.888,145.821,121.468z M179.253,146.714
		c-0.726,11.684-5.887,20.767-12.28,27.293c-7.129,7.272-16.232,12.955-29.568,12.51c-21.654-0.726-37.708-18.583-37.297-41.168
		c0.295-16.136,8.381-27.956,17.964-34.795c5.53-3.946,12.342-5.221,17.97-9.554c-0.519,1.149-1.662,1.676-2.502,2.503
		c4.379-1.611,7.349-4.629,10.915-7.051c-1.205,3.04-4.295,4.192-6.365,6.367c2.382-0.95,4.22-2.448,6.138-3.863
		c0.215,1.392-3.572,3.246-5,4.547c4.058-0.716,7.762-1.786,11.371-2.957c-1.781,1.707-4.619,2.359-7.507,2.957
		c6.837,0.901,11.999,2.266,17.061,5.23c1.571,0.925,3.938,1.952,2.728,3.185c-0.812,0.825-0.887,0.107-1.82-0.453
		c-4.906-2.949-11.841-6.355-19.105-6.371c-10.465-0.023-20.18,5.559-26.155,11.144c-7.433,6.957-13.214,17.867-12.506,32.068
		c0.972,19.517,16.595,36.891,38.89,35.025c10.238-0.857,18.006-5.916,23.879-12.283c7.693-8.329,13.412-21.658,9.781-37.522
		c-0.129-1.039,0.857-0.965,0.682-2.048c-0.785-1.902-3.115-2.437-0.454-3.867C178.36,132.853,179.735,138.944,179.253,146.714z
		 M115.798,143.53c2.678,0.074,5.394-0.939,7.052-2.048c1.938-1.292,2.211-3.55,4.775-3.866c1.134,4.986-6.91,8.891-12.281,8.416
		c-3.859-0.342-5.93-3.435-6.824-6.82C110.655,141.251,112.409,143.436,115.798,143.53z M113.753,125.336
		c3.196-1.416,11.383-2.626,13.418,0.684C122.814,127.483,118.717,124.775,113.753,125.336z M174.706,116.695
		c-0.533-2.641,2.194-3.771,3.637-5.459c-1.13-1.142-3.17-1.378-3.867-2.957c0.749-2.004,7.055,0.613,7.28,2.503
		c0.269,2.238-1.882,2.86-2.958,4.548c1.586,1.145,4.148,1.312,3.865,4.322C180.288,120.867,175.194,119.127,174.706,116.695z"/>
	<path fill="#A3BC4B" d="M141.729,83.401c-32.162,0-58.328,26.166-58.328,58.329s26.166,58.329,58.328,58.329
		c32.164,0,58.33-26.166,58.33-58.329S173.893,83.401,141.729,83.401z M141.729,194.059c-28.854,0-52.328-23.475-52.328-52.329
		s23.475-52.329,52.328-52.329c28.855,0,52.33,23.475,52.33,52.329S170.584,194.059,141.729,194.059z"/>
	<path fill="#E84E1B" d="M176.524,131.478c0.176,1.083-0.811,1.009-0.682,2.048c3.631,15.864-2.088,29.193-9.781,37.522
		c-5.873,6.367-13.641,11.426-23.879,12.283c-22.295,1.865-37.918-15.509-38.89-35.025c-0.708-14.201,5.073-25.111,12.506-32.068
		c5.976-5.585,15.69-11.167,26.155-11.144c7.265,0.016,14.199,3.422,19.105,6.371c0.934,0.561,1.009,1.278,1.82,0.453
		c1.211-1.232-1.156-2.26-2.728-3.185c-5.062-2.965-10.224-4.329-17.061-5.23c2.888-0.598,5.726-1.25,7.507-2.957
		c-3.609,1.171-7.313,2.241-11.371,2.957c1.428-1.301,5.215-3.155,5-4.547c-1.918,1.415-3.756,2.913-6.138,3.863
		c2.07-2.175,5.16-3.327,6.365-6.367c-3.566,2.422-6.536,5.439-10.915,7.051c0.84-0.827,1.983-1.354,2.502-2.503
		c-5.628,4.333-12.439,5.607-17.97,9.554c-9.583,6.839-17.669,18.659-17.964,34.795c-0.411,22.585,15.643,40.442,37.297,41.168
		c13.336,0.445,22.439-5.237,29.568-12.51c6.394-6.526,11.555-15.609,12.28-27.293c0.481-7.771-0.894-13.861-3.184-19.104
		C173.409,129.042,175.739,129.576,176.524,131.478z"/>
	<path fill="#E84E1B" d="M166.516,109.188c-0.922,1.786-3.856,3.177-3.412,5.459c0.504,2.568,6.543,2.63,9.326,2.048
		c0.215-3.097-3.024-2.738-5.004-3.64c0.879-1.67,3.578-2.396,2.957-4.776c-0.314-1.204-6.102-3.275-6.141-0.683
		C164.541,108.586,166.036,108.383,166.516,109.188z"/>
	<path fill="#E84E1B" d="M178.797,115.33c1.076-1.688,3.227-2.31,2.958-4.548c-0.226-1.89-6.531-4.507-7.28-2.503
		c0.697,1.579,2.737,1.815,3.867,2.957c-1.442,1.688-4.17,2.818-3.637,5.459c0.488,2.433,5.582,4.172,7.957,2.957
		C182.946,116.641,180.383,116.474,178.797,115.33z"/>
	<path fill="#E84E1B" d="M167.882,117.83c1.31,1.342,2.04,3.271,4.775,3.186C172.097,119.076,170.163,117.294,167.882,117.83z"/>
	<path fill="#E84E1B" d="M158.329,120.106c-2.904-2.38-11.102-2.254-12.508,1.362C149.917,121.888,153.623,119.119,158.329,120.106z
		"/>
	<path fill="#E84E1B" d="M177.434,124.427c-0.236-2.664-7.662-3.526-9.552-2.501c0.356,2.22,3.319,1.834,4.775,2.956
		c-1.25,1.683-3.954,2.025-3.64,4.55c0.31,2.455,5.017,3.719,6.824,2.271c-0.291-1.601-2.145-1.644-2.503-3.181
		C174.883,127.349,177.627,126.624,177.434,124.427z"/>
	<path fill="#E84E1B" d="M127.171,126.02c-2.035-3.31-10.222-2.1-13.418-0.684C118.717,124.775,122.814,127.483,127.171,126.02z"/>
	<path fill="#E84E1B" d="M164.015,131.703c-0.05-0.177-0.19-0.263-0.454-0.225c-2.344,3.472-6.623,6.533-12.509,5.688
		c-2.726-0.395-4.228-2.606-6.598-2.73C146.401,144.497,163.653,140.152,164.015,131.703z"/>
	<path fill="#E84E1B" d="M115.344,146.032c5.371,0.475,13.415-3.43,12.281-8.416c-2.564,0.316-2.838,2.574-4.775,3.866
		c-1.658,1.108-4.374,2.122-7.052,2.048c-3.39-0.094-5.144-2.278-7.278-4.318C109.415,142.597,111.485,145.69,115.344,146.032z"/>
	<path fill="#E84E1B" d="M133.767,146.49c2.056-1.803,3.052-2.956,5.912-1.141C139.483,140.941,131.359,141.635,133.767,146.49z"/>
	<path fill="#E84E1B" d="M141.726,168.55c5.496,1.896,10.877-5.062,6.37-9.326c-1.165-1.102-3.335-1.589-5.688-1.138
		C136.551,159.209,137.438,167.069,141.726,168.55z"/>
</g>
</svg>
