<?xml version="1.0" encoding="utf-8"?>
<!-- Generator: Adobe Illustrator 15.1.0, SVG Export Plug-In . SVG Version: 6.00 Build 0)  -->
<!DOCTYPE svg PUBLIC "-//W3C//DTD SVG 1.1//EN" "http://www.w3.org/Graphics/SVG/1.1/DTD/svg11.dtd">
<svg version="1.1" id="Ebene_1" xmlns="http://www.w3.org/2000/svg" xmlns:xlink="http://www.w3.org/1999/xlink" x="0px" y="0px"
	 width="283.46px" height="283.46px" viewBox="0 0 283.46 283.46" enable-background="new 0 0 283.46 283.46" xml:space="preserve">
<g>
	<path fill="#FFFFFF" d="M158.739,127.653c-0.147-1.514,0.182-2.554,0.242-3.866c-2.99-0.316-5.408-2.483-7.25-3.14
		C153.686,123.36,155.646,126.075,158.739,127.653z"/>
	<path fill="#FFFFFF" d="M148.346,118.471c-3.477,5.169-4.751,16.184,1.212,19.333c5.431,2.873,8.506-3.237,8.699-8.457
		C153.883,126.789,150.935,122.806,148.346,118.471z M151.731,134.905c-2.306,0.096-2.122-4.746-0.242-5.316
		C154.175,128.77,153.788,134.818,151.731,134.905z"/>
	<path fill="#FFFFFF" d="M137.954,134.178c3.225-4.831-0.238-13.597-2.417-17.155c-0.94,1.429-2.362,3.327-4.106,4.832
		c-1.511,1.299-4.143,2.229-4.593,3.623c-1.424,4.407,0.721,9.479,2.417,10.635C132.01,137.992,136.5,136.36,137.954,134.178z
		 M134.088,133.697c-2.874-0.049-1.838-6.604,1.448-5.558C136.533,130.083,136.185,133.732,134.088,133.697z"/>
	<path fill="#FFFFFF" d="M127.081,123.303c1.925-1.536,3.658-3.268,5.317-5.075c0.054-0.302,0.378-0.493-0.242-0.483
		c-1.402,1.014-3.209,1.623-5.075,2.175C127.344,121.16,126.662,122.715,127.081,123.303z"/>
	<path fill="#FFFFFF" d="M110.647,147.471c0.283,0.202,0.646,0.318,1.207,0.242c0.333-0.31,0.333-1.142,0-1.451
		C110.995,146.21,110.59,146.608,110.647,147.471z"/>
	<path fill="#FFFFFF" d="M158.498,149.405c-0.346,0.32-0.346,1.367,0,1.69c0.901,0.099,1.419-0.192,1.45-0.966
		C159.743,149.61,159.353,149.275,158.498,149.405z"/>
	<path fill="#FFFFFF" d="M152.213,179.614c0.623-0.181,0.839-0.771,0.726-1.693C151.213,176.771,150.324,179.475,152.213,179.614z"
		/>
	<path fill="#FFFFFF" d="M170.579,158.105c0.884,0.154,1.291-0.162,1.693-0.484c0.117-0.761-0.346-0.941-0.482-1.449
		C170.214,155.912,169.841,157.349,170.579,158.105z"/>
	<path fill="#FFFFFF" d="M148.346,159.073c-3.445-0.288-4.071,3.476-6.282,3.623c-0.376-1.196,1.749-2.144,0.725-2.415
		c-3.147-0.492-3.729,1.588-4.35,3.625c4.024-0.229,8.355,0.49,11.602,0.238C149.595,162.335,149.902,159.771,148.346,159.073z"/>
	<path fill="#FFFFFF" d="M143.997,159.554c0.648-1.476,3.104-1.507,4.35-1.692c-3.672-5.75-14.888-3.012-12.81,6.044
		c1.834,0.492,1.858-1.712,2.417-2.66C139.145,159.225,141.4,157.864,143.997,159.554z"/>
	<path fill="#FFFFFF" d="M143.997,101.793c-6.51,0.41-12.308,2.423-16.916,4.834c-4.928,2.58-8.7,6.039-11.842,9.67
		c-5.902,6.819-11.828,17.943-10.875,31.898c1.227,17.999,12.28,29.541,24.891,34.318c16.457,6.232,32.901-0.695,42.535-11.844
		c8.794-10.178,14.808-28.209,7.731-45.192C174.565,113.579,161.476,100.705,143.997,101.793z M112.821,135.629
		c-0.61,0.979-2.001,0.737-2.417-0.242C110.361,133.573,113.163,133.508,112.821,135.629z M108.473,142.156
		C105.056,135.875,115.34,140.891,108.473,142.156L108.473,142.156z M112.094,149.648c-5.167,1.438-3.409-8.026,1.211-4.593
		C114.33,146.814,113.454,149.266,112.094,149.648z M143.032,144.329c-3.043-1.931-4.102-0.702-6.286,1.209
		C134.025,140.505,142.945,139.842,143.032,144.329z M124.906,127.896c-0.622-0.863-1.043,1.317-1.692,0.485
		c0.343-0.868,1.046-1.373,1.448-2.177c-0.777-0.367-1.708,1.185-3.139,0.965c0.501-1.511,2.234-1.79,3.383-2.658
		c0.009-1.516,0.23-2.829,0.483-4.106c-1.658,0.242-4.186,1.205-5.561,0.242c4.355-1.994,9.345-2.431,12.81-5.315
		c1.329-1.11,2.449-2.379,3.625-3.629c0.242,0,0.482,0,0.726,0c0.097,1.549-0.312,2.591-0.726,3.629
		c5.29,4.978,7.148,21.681-2.417,23.196C127.647,139.512,124.079,134.977,124.906,127.896z M133.846,165.115
		c-0.834-3.583-0.035-8.216,1.935-10.152c6.446-6.343,18.663,0.847,15.708,11.119C146.538,166.65,139.132,165.791,133.846,165.115z
		 M153.904,179.856c-1.57,2.847-6.279-1.389-2.898-2.901C153.251,175.949,154.854,178.134,153.904,179.856z M154.63,175.747
		c-0.883,0.156-1.287-0.162-1.691-0.482c-0.41-1.678,1.079-1.994,2.175-1.448C155.231,174.735,155.045,175.355,154.63,175.747z
		 M157.289,148.918c1-0.746,2.654-1.316,3.625-0.239C162.668,152.71,155.701,152.948,157.289,148.918z M160.431,124.272
		c0.356,1.255,0.223,2.998,0.24,4.592c0.393,1.3,2.658,0.725,2.658,2.416c-1.213-0.075-1.909-0.67-2.898-0.969
		c0.164,1.125,0.94,1.638,1.207,2.659c-0.933-0.032-0.954-0.979-1.69-1.207c-1.399,3.925-2.818,8.377-7.253,8.702
		c-10.563,0.773-12.206-18.802-5.073-24.168c-0.162-1.731-1.531-3.415-0.727-5.318c0.393-0.067,0.418,0.229,0.727,0.243
		c2.241,7.505,9.301,10.194,16.434,12.808C163.774,125.563,161.442,124.263,160.431,124.272z M168.165,133.212
		c2.756-1.088,2.908,2.927,1.208,3.384C167.44,137.116,165.846,134.127,168.165,133.212z M168.888,149.648
		c3.78-1.512,2.027,5.651-0.724,2.9C167.232,151.614,167.817,150.076,168.888,149.648z M171.063,159.795
		c-2.721-0.021-3.243-4.077-0.484-4.833C174.657,153.851,174.106,159.823,171.063,159.795z"/>
	<path fill="#FFFFFF" d="M141.73,89.401c-28.854,0-52.33,23.475-52.33,52.329s23.476,52.329,52.33,52.329s52.33-23.475,52.33-52.329
		S170.584,89.401,141.73,89.401z M172.03,174.78c-7.298,7.446-17.609,13.979-31.174,13.293
		c-23.025-1.162-40.479-19.033-39.878-43.985c0.411-16.961,8.902-29.462,19.093-36.733c5.728-4.087,13.441-5.754,19.094-10.151
		c-0.459,1.236-1.802,1.584-2.419,2.661c4.404-1.884,7.661-4.91,11.357-7.492c-1.277,3.229-4.564,4.455-6.763,6.767
		c2.77-0.934,4.401-3.008,7.006-4.108c-1.499,2.042-3.811,3.277-5.801,4.834c4.326-0.752,8.261-1.891,12.085-3.143
		c-1.894,1.812-4.904,2.504-7.975,3.143c21.292,2.361,36.904,16.858,38.426,39.148C186.179,155.106,179.844,166.807,172.03,174.78z"
		/>
	<path fill="#A3BC4B" d="M141.73,83.401c-32.163,0-58.33,26.167-58.33,58.329s26.167,58.329,58.33,58.329s58.33-26.167,58.33-58.329
		S173.893,83.401,141.73,83.401z M141.73,194.059c-28.854,0-52.33-23.475-52.33-52.329s23.476-52.329,52.33-52.329
		s52.33,23.475,52.33,52.329S170.584,194.059,141.73,194.059z"/>
	<path fill="#E84E1B" d="M185.082,139.012c-1.521-22.29-17.134-36.787-38.426-39.148c3.07-0.639,6.081-1.331,7.975-3.143
		c-3.824,1.252-7.759,2.391-12.085,3.143c1.99-1.557,4.302-2.792,5.801-4.834c-2.604,1.101-4.236,3.175-7.006,4.108
		c2.198-2.312,5.485-3.538,6.763-6.767c-3.696,2.582-6.953,5.608-11.357,7.492c0.617-1.077,1.96-1.425,2.419-2.661
		c-5.652,4.397-13.366,6.064-19.094,10.151c-10.19,7.271-18.682,19.772-19.093,36.733c-0.602,24.952,16.853,42.823,39.878,43.985
		c13.564,0.686,23.876-5.847,31.174-13.293C179.844,166.807,186.179,155.106,185.082,139.012z M171.79,170.67
		c-9.634,11.148-26.078,18.076-42.535,11.844c-12.61-4.777-23.664-16.319-24.891-34.318c-0.953-13.955,4.973-25.079,10.875-31.898
		c3.142-3.631,6.914-7.09,11.842-9.67c4.608-2.411,10.406-4.424,16.916-4.834c17.479-1.089,30.568,11.785,35.524,23.685
		C186.597,142.461,180.583,160.493,171.79,170.67z"/>
	<path fill="#E84E1B" d="M147.622,111.222c-0.309-0.014-0.334-0.311-0.727-0.243c-0.805,1.903,0.564,3.587,0.727,5.318
		c-7.133,5.366-5.49,24.941,5.073,24.168c4.435-0.325,5.854-4.777,7.253-8.702c0.736,0.229,0.758,1.175,1.69,1.207
		c-0.267-1.021-1.043-1.534-1.207-2.659c0.989,0.299,1.686,0.894,2.898,0.969c0-1.691-2.266-1.116-2.658-2.416
		c-0.018-1.594,0.116-3.337-0.24-4.592c1.011-0.009,3.343,1.291,3.624-0.242C156.922,121.417,149.863,118.727,147.622,111.222z
		 M149.558,137.804c-5.963-3.149-4.688-14.164-1.212-19.333c2.589,4.335,5.537,8.317,9.911,10.876
		C158.064,134.567,154.989,140.677,149.558,137.804z M158.981,123.787c-0.061,1.312-0.39,2.353-0.242,3.866
		c-3.093-1.578-5.053-4.293-7.008-7.006C153.573,121.303,155.991,123.47,158.981,123.787z"/>
	<path fill="#E84E1B" d="M136.263,115.332c0.413-1.038,0.822-2.08,0.726-3.629c-0.243,0-0.483,0-0.726,0
		c-1.176,1.25-2.296,2.519-3.625,3.629c-3.465,2.885-8.454,3.321-12.81,5.315c1.375,0.963,3.902,0,5.561-0.242
		c-0.253,1.277-0.475,2.591-0.483,4.106c-1.148,0.868-2.882,1.147-3.383,2.658c1.431,0.22,2.361-1.332,3.139-0.965
		c-0.402,0.804-1.105,1.309-1.448,2.177c0.649,0.832,1.07-1.349,1.692-0.485c-0.827,7.081,2.741,11.616,8.94,10.632
		C143.412,137.012,141.553,120.309,136.263,115.332z M127.081,119.919c1.866-0.552,3.673-1.161,5.075-2.175
		c0.62-0.01,0.296,0.182,0.242,0.483c-1.659,1.808-3.393,3.539-5.317,5.075C126.662,122.715,127.344,121.16,127.081,119.919z
		 M129.254,136.113c-1.696-1.156-3.841-6.228-2.417-10.635c0.45-1.394,3.082-2.324,4.593-3.623c1.744-1.505,3.166-3.403,4.106-4.832
		c2.179,3.559,5.642,12.324,2.417,17.155C136.5,136.36,132.01,137.992,129.254,136.113z"/>
	<path fill="#E84E1B" d="M134.088,133.697c2.097,0.035,2.444-3.614,1.448-5.558C132.25,127.092,131.214,133.648,134.088,133.697z"/>
	<path fill="#E84E1B" d="M151.489,129.588c-1.88,0.57-2.063,5.412,0.242,5.316C153.788,134.818,154.175,128.77,151.489,129.588z"/>
	<path fill="#E84E1B" d="M169.373,136.596c1.7-0.457,1.548-4.472-1.208-3.384C165.846,134.127,167.44,137.116,169.373,136.596z"/>
	<path fill="#E84E1B" d="M112.821,135.629c0.342-2.121-2.46-2.057-2.417-0.242C110.82,136.367,112.21,136.608,112.821,135.629z"/>
	<path fill="#E84E1B" d="M108.473,142.156C115.34,140.891,105.056,135.875,108.473,142.156L108.473,142.156z"/>
	<path fill="#E84E1B" d="M136.746,145.538c2.185-1.911,3.243-3.14,6.286-1.209C142.945,139.842,134.025,140.505,136.746,145.538z"/>
	<path fill="#E84E1B" d="M112.094,149.648c1.359-0.382,2.235-2.834,1.211-4.593C108.685,141.622,106.927,151.086,112.094,149.648z
		 M111.854,147.713c-0.562,0.076-0.924-0.04-1.207-0.242c-0.057-0.863,0.348-1.261,1.207-1.209
		C112.187,146.572,112.187,147.404,111.854,147.713z"/>
	<path fill="#E84E1B" d="M157.289,148.918c-1.588,4.029,5.38,3.792,3.625-0.239C159.943,147.602,158.289,148.172,157.289,148.918z
		 M158.498,151.095c-0.346-0.323-0.346-1.37,0-1.69c0.855-0.13,1.245,0.205,1.45,0.725
		C159.917,150.903,159.399,151.194,158.498,151.095z"/>
	<path fill="#E84E1B" d="M168.888,149.648c-1.071,0.428-1.656,1.966-0.724,2.9C170.916,155.299,172.668,148.136,168.888,149.648z"/>
	<path fill="#E84E1B" d="M135.781,154.962c-1.97,1.937-2.769,6.569-1.935,10.152c5.286,0.676,12.691,1.535,17.643,0.967
		C154.444,155.809,142.227,148.62,135.781,154.962z M135.537,163.906c-2.078-9.056,9.138-11.794,12.81-6.044
		c-1.245,0.186-3.701,0.217-4.35,1.692c-2.597-1.69-4.852-0.329-6.043,1.691C137.395,162.194,137.371,164.398,135.537,163.906z
		 M138.439,163.906c0.62-2.037,1.202-4.117,4.35-3.625c1.024,0.271-1.101,1.219-0.725,2.415c2.211-0.147,2.837-3.911,6.282-3.623
		c1.556,0.698,1.249,3.263,1.694,5.071C146.794,164.396,142.463,163.677,138.439,163.906z"/>
	<path fill="#E84E1B" d="M170.579,154.962c-2.759,0.756-2.236,4.812,0.484,4.833C174.106,159.823,174.657,153.851,170.579,154.962z
		 M170.579,158.105c-0.737-0.756-0.364-2.193,1.211-1.934c0.137,0.508,0.6,0.688,0.482,1.449
		C171.87,157.943,171.462,158.259,170.579,158.105z"/>
	<path fill="#E84E1B" d="M152.939,175.264c0.404,0.32,0.809,0.639,1.691,0.482c0.415-0.392,0.601-1.012,0.483-1.931
		C154.018,173.27,152.529,173.586,152.939,175.264z"/>
	<path fill="#E84E1B" d="M151.005,176.955c-3.381,1.513,1.328,5.748,2.898,2.901C154.854,178.134,153.251,175.949,151.005,176.955z
		 M152.213,179.614c-1.89-0.139-1-2.843,0.726-1.693C153.052,178.843,152.836,179.433,152.213,179.614z"/>
</g>
</svg>
