<?xml version="1.0" encoding="utf-8"?>
<!-- Generator: Adobe Illustrator 15.1.0, SVG Export Plug-In . SVG Version: 6.00 Build 0)  -->
<!DOCTYPE svg PUBLIC "-//W3C//DTD SVG 1.1//EN" "http://www.w3.org/Graphics/SVG/1.1/DTD/svg11.dtd">
<svg version="1.1" id="Ebene_1" xmlns="http://www.w3.org/2000/svg" xmlns:xlink="http://www.w3.org/1999/xlink" x="0px" y="0px"
	 width="283.46px" height="283.46px" viewBox="0 0 283.46 283.46" enable-background="new 0 0 283.46 283.46" xml:space="preserve">
<g>
	<path fill="#FFFFFF" d="M178.543,104.582c-0.021,0.017-0.046,0.024-0.062,0.053c0.253,0.088,0.104,0.406,0.153,0.631
		c-1.085,3.969-12.104,13.154-12.087,13.18c0,0-0.726,0.062-0.463,0.371c-0.098-0.223-0.382-0.126-0.591,0.061
		c-0.014,0.326-0.277,0.403-0.425,0.616c0.002-0.021-0.005-0.042-0.024-0.063c-0.275,0.051-0.252,0.456-0.38,0.685l-0.358,0.01
		c-0.164,0.185-0.379,0.416-0.371,0.642c-0.825,0.7-1.862,1.584-2.256,2.41c-0.421-0.166-0.833,0.479-1.091,0.712l-0.16-0.129
		l-0.012,0.36c-0.068-0.133-0.32,0.055-0.5,0.062l0.105,0.176c-0.144-0.221-0.113,0.455-0.41,0.061
		c-0.217,0.625-0.384,0.912-0.688,1.448c-0.005-0.064-0.042-0.126-0.041-0.192c-0.135,0.645-0.658-0.152-0.715,0.604
		c-0.477,0.781-1.306,1.312-1.942,1.697c-0.103,0.094-0.122,0.231-0.188,0.368l0.477-0.199l-0.547,0.384l0.013-0.092
		c-0.51,0.426-0.868,1.076-1.2,1.541c-1.163,0.637-2.011,1.943-3.148,2.45l0.214,0.396c-0.128-0.039-0.239-0.214-0.469-0.157
		c-0.115,0.186,0.034,0.403,0.111,0.49l-0.358,0.018c0.154,0.203-0.112,0.291-0.313,0.424c0.022,0.022,0.047,0.051,0.069,0.073
		c4.705-0.079,9.607-0.337,14.11-0.55c3.694-0.176,7.533,0.188,11.503,0c6.896-0.326,12.755,0.172,12.997,7.021
		c0.086,2.422-0.218,5.156-0.299,8.516c-0.122,5.063,0.561,11.025-4.332,11.204c-0.03,1.961-0.058,3.927-0.747,5.229
		c-2.187,0.622-5.802,0.274-8.067,0c-0.73-1.316-0.947-3.146-1.345-4.796c-0.025-0.007-0.038-0.005-0.072-0.019
		c0.028-0.003,0.044-0.008,0.064-0.013c-0.045-0.187-0.091-0.372-0.142-0.552c-4.926-1.342-7.951,1.467-13.595,0.896
		c-2.146-0.217-4.315-1.202-6.573-1.195c-2.647,0.008-5.808,1.017-8.665,0.896c-0.882-0.037-2.056-0.426-2.838-0.299
		c-0.747,0.121-1.39,0.977-2.242,1.195c-1.724,0.443-4.192,0.438-6.125,0.448c-2.306,0.013-4.719-0.089-6.572-0.897
		c-0.4-0.719-0.554-1.686-0.635-2.726c-0.353,0.241-0.654,0.503-0.665,0.95l0.255,0.152c-0.443,0.006-0.386,0.453-0.862,0.328
		l0.033,0.132l-0.262-0.061l0.154,0.345l-0.167-0.16l-0.045,0.225c-0.025-0.045-0.111-0.055-0.138-0.112
		c-0.034,0.55-0.403,0.097-0.48,0.604c0.004-0.046,0.01-0.137-0.035-0.133c-0.122,0.516-0.464,0.33-0.713,0.771l-0.077-0.174
		c-0.184,0.115-0.192,0.252-0.29,0.399l0.175,0.024l-0.357,0.043l-0.014,0.23l-0.082-0.081c-0.212,0.525-0.188,0.161-0.396,0.688
		c0.006-0.091-0.076-0.218-0.213-0.154c-0.008,0.138-0.329,0.36-0.431,0.603c0.049-0.098-0.084-0.08-0.13-0.074
		c-0.094,0.104-0.062,0.326,0.069,0.354l0.142-0.155c-0.021,0.366-0.31-0.004-0.459,0.287c0.171,0.115,0.171,0.115,0.027,0.315
		l0.054-0.189c-0.215-0.108-0.383,0.55-0.402,0.099c-0.226,0.076-0.15,0.293-0.247,0.441l0.224-0.029l-0.564,0.621
		c-0.084-0.08-0.079-0.172-0.166-0.205l-0.054,0.189l0.005-0.092c-0.578,0.081-0.214,0.759-0.835,0.799l0.17,0.113l-0.085-0.034
		c0.027,0.192-0.232,0.188-0.136,0.338c-0.174-0.126-0.327,0.329-0.567,0.442c0.08,0.17,0.079,0.216-0.064,0.418
		c-0.317,0.182-0.403,0.148-0.708,0.057c-0.019,0.412-0.389,0.784-0.532,1.08c0.042,0.039-0.175-0.066-0.078-0.262
		c-0.404,0.15-0.209,0.76-0.791,0.936l0.172,0.111c-0.231,0.262-0.296-0.32-0.447,0.111l0.174,0.065
		c-0.171,0.288-0.17,0.294-0.294,0.429c-0.084-0.191-0.259,0.19-0.249-0.073l-0.095,0.198l-0.043-0.039
		c-0.095,0.15-0.144,0.295-0.012,0.32l-0.221,0.035l0.169,0.202c-0.183,0.165-0.175-0.065-0.442,0.022l-0.01,0.275l-0.043-0.039
		l-0.055,0.281c0.052-0.236-0.116-0.484-0.339-0.404c-0.096,0.198,0.116,0.439-0.153,0.572c0.192-0.44-0.451,0.252-0.389-0.258
		c-0.241,0.537-0.42,0.613-0.522,1.132c-0.386-0.44-0.367,0.472-0.546,0.592c0.134-0.114,0.177-0.075,0.129,0.07l-0.262-0.14
		l-0.323,0.51c0.097-0.291-0.22-0.057-0.305-0.18l-0.014,0.505c-0.041-0.13-0.126-0.255-0.165-0.431
		c-0.106-0.037-0.136,0.062-0.152,0.18c-0.007-0.006-0.014-0.01-0.03-0.012l-0.229,0.312c-0.133-0.024,0.056-0.421-0.17-0.293
		c-0.046,0.101-0.138,0.206-0.096,0.337c0-0.046-0.043-0.084-0.042-0.131c-0.098,0.385,0.2,0.93-0.377,1.072
		c0.185-0.352-0.038-0.268-0.121-0.529c-0.095,0.292-0.177-0.015-0.311,0.053l0.303,0.316c-0.271,0.229-0.306-0.177-0.482-0.193
		c-0.003,0.13-0.273,0.305-0.088,0.365c-0.078,0.016-0.233,0.186-0.228-0.08c-0.314,0.19-0.053,0.375-0.011,0.506
		c-0.67,0.205-0.271,0.275-0.941,0.528c-0.041-0.177-0.029-0.729,0.368-0.66c-0.084-0.215-0.525-0.275-0.533,0.047
		c0.004-0.138,0.097-0.338,0.186-0.354c0.132,0.069,0.304,0.315,0.532-0.046c0.054-0.422-0.613-0.307-0.114-0.807l0.088-0.016
		c-0.045,0.1-0.136,0.162-0.095,0.293c0.215,0.283,0.14-0.299,0.311-0.009c0.358-0.198,0.103-0.659,0.287-0.921
		c0.442-0.029-0.012,0.46,0.299,0.454l0.138-0.253c-0.188,0.445,0.352,0.078,0.392,0.254c-0.258-0.323,0.228-0.313-0.209-0.469
		c0.278-0.459,0.525-1.277,1.098-1.188c-0.037-0.271-0.225,0.082-0.126-0.256c0.223-0.037,0.456-0.395,0.637-0.562
		c0.083,0.17,0.172,0.155,0.266,0.002c-0.041-0.084-0.172-0.154,0.013-0.414c0.086,0.078,0.178,0.018,0.264,0.049
		c0.072-0.082,0.049-0.16-0.012-0.203l0.198-0.008l0.012-0.367l0.044,0.039c0.234-0.357-0.171-0.203-0.35-0.174l0.141-0.16
		c-0.355,0.011-0.028-0.453,0.066-0.605c-0.095,0.198,0.166,0.294,0.247,0.512c0.085,0.077,0.184-0.166,0.272-0.181
		c0.098-0.243-0.174-0.064-0.259-0.188l0.271-0.134l-0.003,0.092c0.132-0.021,0.353-0.011,0.447-0.161
		c0.008-0.186-0.31,0.002-0.306-0.137c0.128,0.164,0.539-0.174,0.524,0.194c0.13,0.07,0.271-0.134,0.23-0.218
		c-0.354,0.008,0.335-0.694-0.239-0.696c0.174,0.063,0.105-0.429,0.152-0.481c-0.099-0.055-0.149-0.064-0.229-0.016
		c-0.002-0.023-0.012-0.053-0.032-0.083l-0.312,0.049c0.271-0.181,0.407-0.199,0.62-0.003c0.191-0.303-0.035-0.178,0.112-0.52
		c0.014,0.201,0.067,0.184,0.138,0.117c-0.026,0.14,0.039,0.345-0.08,0.559c0.282-0.362,0.614,0.184,0.519,0.334
		c0.138-0.111,0.356-0.054,0.454-0.25l-0.162-0.341l0.304,0.138c0.137-0.066,0.19-0.304,0.061-0.375
		c-0.362,0.189-0.415-0.623-0.549-0.604c0.142,0.017,0.247,0.179,0.338,0.072c-0.001,0.077,0.055,0.145,0.141,0.13
		c0.057-0.313,0.375-0.293,0.103-0.527l0.103-0.097c-0.179,0.026-0.081-0.171-0.12-0.256l0.176,0.02l-0.093-0.408
		c0.267-0.142,0.585-0.484,0.8-0.472l-0.034-0.177c0.132,0.026,0.385,0.265,0.528,0.062c-0.209-0.245,0.291-0.498,0.041-0.781
		c0.477,0.205,0.291-0.5,0.669-0.096c0.148-0.295,0.431-0.608,0.136-0.887l0.211,0.199c-0.14-0.133,0.102-0.199,0.172-0.291
		c0.18,0.159,0.341-0.491,0.697-0.191c0.148-0.249-0.159-0.299-0.291-0.326c0.268-0.037,0.447-0.06,0.559-0.439
		c0.005-0.093,0.2-0.394,0.119-0.519l-0.22-0.017l0.529,0.021c-0.199-0.286,0.341-0.192,0.466-0.501
		c-0.001,0.059,0.011,0.119,0.045,0.114l0.194-0.3c-0.119-0.213-0.44-0.033-0.522-0.16c0.297-0.449,0.966-0.487,1.126-0.234
		c-0.027-0.271-0.028-0.225,0.081-0.557l-0.137,0.062c0.421-0.326-0.039-0.771,0.355-1.367c-0.166-0.163-0.369,0.229-0.44-0.036
		c0.105-0.241,0.396-0.598,0.659-0.586c0.107,0.396,0.403-0.051,0.516,0.256c0.192-0.205-0.111-0.306-0.095-0.535
		c-0.006,0.092,0.332,0.324,0.461,0.4l0.336-0.359c-0.038-0.088-0.216-0.064-0.162-0.209c0.132,0.055,0.33-0.088,0.338-0.209
		c0.093,0.049,0.293-0.15,0.402-0.199c0.051-0.098-0.102-0.443,0.156-0.338c-0.093,0.057-0.01,0.139-0.058,0.189l0.32-0.13
		c-0.355-0.003,0.178-0.613-0.143-0.483c-0.075-0.173,0.068-0.328,0.207-0.389c-0.146,0.153,0.075,0.172,0.113,0.259
		c0.191-0.206,0.286-0.261,0.391-0.454c0.065-0.28-0.076-0.174-0.248-0.244l0.34-0.357c0.063-0.236-0.318,0.08-0.158-0.256
		c0.021,0.186,0.479,0.225,0.6,0.03c0.03,0.103,0.14,0.157-0.083,0.183c0.037,0.088,0.123,0.123,0.258,0.107
		c0.025-0.326-0.105-0.611-0.026-0.932c-4.673,0.157-10.96,0.251-15.931-0.021c-0.764,3.868,0.161,9.424-0.747,13.146
		c-2.625,0.004-7.02,0.018-9.263,0c-0.542-13.386-0.299-29.122-0.299-43.772c0-1.844-0.302-5.486,0.448-5.977
		c2.527-0.555,6.872-0.42,9.113,0.299c0.614,2.562,0.257,6.592,0.149,9.412c6.188-6.579,21.073-3.092,23.156,6.125
		c2.434-0.021,5.803-0.266,8.197,0.288c0.178-0.173-0.34-0.366-0.146-0.468c-0.51-0.602-1.13-0.691-1.72-1.172
		c0.122-0.162,0.07-0.34,0.195-0.504l-0.222-0.018l0.043-0.038c-0.1-0.269-0.403-0.205-0.35,0.015
		c0.093,0.094,0.262-0.022,0.186,0.23c-0.011-0.261-0.534-0.215-0.463-0.555c0.044,0.003,0.042-0.041,0.083-0.08l-0.181-0.145
		l-0.166,0.205c-0.6-0.653-1.372-1.277-1.915-1.711c-0.19-0.318-0.601-0.697-0.521-0.907c-0.279-0.369-0.814-0.629-1.084-0.78
		c-0.012-0.26-0.764-0.451-0.469-0.73l-0.352-0.027l0.084-0.08c-0.265-0.066-0.048-0.135-0.23-0.279l-0.168,0.16
		c-0.098-0.225-0.585-0.395-0.818-0.717l0.042-0.039c-0.135-0.098-0.263-0.023-0.313-0.198l0.125-0.164
		c-1.15-0.312-1.461-1.461-2.447-2.062c-0.118-0.788-1.024-0.474-0.976-1.421c-0.096-0.225-0.48,0.002-0.254,0.194
		c-1.492-1.248-2.829-2.96-4.364-4.211c-0.92-1.157-2.367-2.355-2.711-3.291c-0.085,0.036-0.036,0.17-0.033,0.258
		c-0.269-0.152,0.033-0.258,0.074-0.34c-0.178-0.059-0.358-0.202-0.576-0.177l0.008,0.173c-0.604-0.87-1.631-1.384-1.936-2.401
		l-0.126,0.119c-0.498-0.43-0.226-1.185-0.981-1.504c0.173-0.029,0.315,0.197,0.348-0.06c-0.941-0.549-0.771-1.66-1.47-2.621
		c0.094,0.138,0.263,0.021,0.349-0.016l-0.36-0.245c-0.013-0.259,0.179,0.102,0.259-0.066c-0.193-0.403-0.386,0.187-0.581-0.26
		c0.21-0.201-0.193-0.403-0.154-0.53c-0.047-0.048-0.259,0.066-0.269-0.107c-0.088-0.051,0.135,0.054,0.131-0.033l-0.501-0.428
		c0.128-0.075-0.058-0.306,0.21-0.2c0.154-0.42-0.534-0.169-0.288-0.539l-0.399-0.117c0.033-0.214,0.046,0.047,0.171-0.074
		l-0.228-0.189c0.084-0.081,0.253-0.196,0.118-0.293c-0.227-0.146-0.03,0.299-0.221-0.018c-0.136-0.095,0.3-0.106,0.355,0.114
		l-0.058-0.308l0.046,0.047c-0.004-0.087,0.253-0.197,0.024-0.388l0.09,0.052c-0.12-0.41-0.534-0.104-0.745-0.1
		c0.044-0.132,0.03-0.25-0.052-0.401l-0.293,0.237c0.21-0.157-0.227-0.146-0.1-0.223l0.181,0.1
		c-0.063-0.395,0.505-0.395,0.359-0.709c0.169-0.116,0.01,0.217,0.234,0.32c0.074-0.254,0.387-0.143,0.602-0.215
		c3.921,0.593,13.099,10.485,13.09,10.485c0,0,0.07,0.699,0.365,0.421c-0.213,0.111-0.115,0.379,0.067,0.566
		c0.316-0.012,0.394,0.238,0.603,0.364c-0.021,0-0.041,0.009-0.062,0.028c0.053,0.264,0.444,0.21,0.667,0.315l0.015,0.347
		c0.181,0.145,0.406,0.336,0.624,0.312c0.686,0.748,1.553,1.686,2.353,2.01c-0.157,0.42,0.469,0.774,0.695,1.008l-0.124,0.164
		l0.35-0.015c-0.128,0.076,0.055,0.307,0.062,0.479l0.17-0.114c-0.212,0.155,0.441,0.079,0.061,0.394
		c0.604,0.168,0.883,0.311,1.402,0.569c-0.062,0.009-0.122,0.049-0.186,0.053c0.622,0.088-0.146,0.647,0.586,0.652
		c0.757,0.408,1.269,1.18,1.641,1.771c0.092,0.094,0.225,0.104,0.356,0.158l-0.192-0.449l0.371,0.506l-0.088-0.007
		c0.411,0.466,1.037,0.774,1.487,1.067c0.611,1.088,1.869,1.832,2.353,2.904l0.385-0.229c-0.039,0.126-0.208,0.243-0.155,0.464
		c0.179,0.1,0.391-0.058,0.475-0.137l0.016,0.346c0.337-0.276,0.337,0.673,0.806,0.406c-0.081,0.166,0.154,0.529,0.371,0.502
		c0.049,0.091-0.297,0.193-0.027,0.344c0.205-0.287,0.216-0.072,0.479-0.052c0.181,0.144,0.021,0.478,0.244,0.581l-0.131-0.01
		c0.005,0.129,0.321,0.324,0.541,0.34c0.129-0.033-0.013-0.258,0.162-0.247c-0.036,0.17,0.019,0.39-0.244,0.372
		c0.053,0.175,0.363,0.283,0.486,0.121l-0.052-0.178l0.368,0.396c0.31-0.421,0.49-0.876,0.874-1.317
		c0.16,0.126,0.348,0.07,0.509,0.199l0.032-0.23l0.037,0.045c0.284-0.105,0.238-0.422,0.007-0.363
		c-0.103,0.096,0.007,0.271-0.25,0.194c0.271-0.014,0.257-0.557,0.604-0.485c-0.006,0.046,0.039,0.043,0.078,0.086l0.16-0.189
		l-0.2-0.171c0.714-0.628,1.412-1.433,1.898-1.999c0.343-0.199,0.762-0.627,0.974-0.546c0.4-0.292,0.708-0.848,0.884-1.128
		c0.271-0.012,0.521-0.793,0.788-0.488l0.055-0.365l0.077,0.088c0.087-0.275,0.143-0.051,0.305-0.24l-0.153-0.174
		c0.239-0.102,0.45-0.608,0.802-0.85l0.037,0.043c0.111-0.139,0.043-0.271,0.229-0.325l0.16,0.13
		c0.408-1.193,1.62-1.516,2.321-2.536c0.824-0.119,0.571-1.062,1.548-1.005c0.24-0.098,0.036-0.498-0.182-0.265
		c1.414-1.541,3.299-2.91,4.73-4.484c1.28-0.937,2.655-2.417,3.659-2.752c-0.03-0.089-0.173-0.041-0.264-0.04
		c0.183-0.274,0.264,0.04,0.344,0.084c0.078-0.183,0.244-0.366,0.238-0.593l-0.18,0.004c0.957-0.609,1.595-1.657,2.678-1.947
		l-0.11-0.134c0.493-0.506,1.249-0.199,1.657-0.973c0.012,0.18-0.237,0.32,0.024,0.361c0.668-0.958,1.796-0.748,2.866-1.434
		c-0.152,0.091-0.05,0.27-0.021,0.36l0.292-0.364c0.27-0.003-0.124,0.182,0.04,0.271c0.438-0.185-0.15-0.405,0.332-0.591
		c0.185,0.225,0.438-0.186,0.564-0.14c0.054-0.047-0.04-0.271,0.14-0.273c0.062-0.09-0.07,0.137,0.021,0.136l0.496-0.501
		c0.063,0.135,0.323-0.047,0.184,0.225c0.417,0.177,0.235-0.543,0.59-0.274l0.166-0.407c0.217,0.043-0.054,0.046,0.057,0.18
		l0.222-0.227c0.073,0.09,0.174,0.269,0.289,0.134c0.177-0.228-0.306-0.044,0.043-0.227c0.113-0.136,0.075,0.314-0.158,0.361
		l0.324-0.046l-0.054,0.046c0.09-0.001,0.175,0.27,0.396,0.042l-0.062,0.09c0.436-0.105,0.166-0.546,0.186-0.765
		c0.116,0.045,0.23,0.035,0.367-0.02c-9.431-9.176-22.292-14.843-36.458-14.843c-28.854,0-52.33,23.475-52.33,52.329
		c0,28.855,23.476,52.33,52.33,52.33c28.854,0,52.328-23.475,52.328-52.33C194.059,127.218,188.118,114.07,178.543,104.582z
		 M128.609,111.024h-0.039l-0.004-0.004L128.609,111.024z M128.322,110.395l-0.152-0.076
		C128.218,110.312,128.269,110.325,128.322,110.395z"/>
	<path fill="#FFFFFF" d="M140.092,136.23c0.27-0.363,0.535-0.719,0.789-1.027c0.096-0.135,0.201-0.173,0.299-0.188
		c-0.292-0.199-0.663-0.338-1.133-0.401C140.083,135.142,140.092,135.683,140.092,136.23z"/>
	<path fill="#FFFFFF" d="M133.174,134.166c0.271,0.996-0.176,2.089-0.746,2.689c-1.11,0.334-2.828,0.061-4.184,0.149
		c-0.499,4.657-0.292,9.059,0.084,13.506c0.121,0.011,0.234-0.012,0.314-0.021c0.16-0.336,0.377-0.267,0.57-0.424
		c0.024-0.274-0.237,0.16-0.115-0.215c0.312-0.486,0.778,0.737,0.638-0.157l-0.212-0.114c0.144-0.104,0.435-0.361,0.267-0.482
		c0.195,0.299,0.299-0.348,0.306,0.061l-0.041-0.041c-0.093,0.057-0.013,0.138,0.024,0.225c0.34,0.193,0.466-0.228,0.743-0.348
		c-0.044,0.006-0.053,0.098-0.059,0.143c0.332-0.215,0.018-0.184,0.187-0.564c-0.077-0.129,0.153,0.258,0.268-0.027
		c0.071-0.278-0.203-0.161-0.321-0.33c0.055-0.062,0.127-0.114,0.194-0.203l-0.198-0.253c0.076,0.13,0.185-0.062,0.248-0.25
		c-0.077,0.324,0.125,0.532,0.27,0.882c-0.179,0.018-0.151,0.197-0.07,0.279c0.465-0.229,0.035-0.82,0.479-0.818
		c-0.158-0.114-0.161-0.199-0.396-0.11c0.055-0.044,0.026-0.177,0.039-0.312c0.275-0.277,0.678-0.379,0.662-0.746
		c0.025,0.035,0.069,0.061,0.066,0.088c0.337-0.26,0.152-0.197,0.28-0.572l0.016,0.271c0.261,0.066,0.162-0.287,0.306-0.393
		c-0.067-0.222-0.26-0.066-0.345-0.104c0.093-0.055-0.133-0.442,0.216-0.385c-0.094,0.055-0.194,0.154-0.113,0.237
		c0.248-0.251,0.342-0.304,0.455-0.542l0.018,0.271c0.325-0.166,0.083-0.322,0.272-0.52c0.064,0.071,0.079,0.139,0.273-0.029
		l-0.116-0.172c0.284-0.162,0.086,0.039,0.44,0.053c0.203-0.246,0.062-0.598,0.081-0.78c0.354,0.014,0.532-0.411,0.896-0.489
		c0.104-0.145,0.039-0.367,0.27-0.432c-0.206-0.165,0.119-0.283-0.121-0.535c-0.359,0.031,0.08,0.493-0.3,0.297
		c-0.041-0.041,0.16-0.239,0.181-0.422l-0.01,0.092c0.725-0.516,0.016-1.363,0.871-1.846c0.125,0.08-0.021,0.184,0.109,0.218
		c0.285-0.161-0.054-0.313,0.146-0.513l0.865-0.934c-0.157,0.604,0.36-0.028,0.485,0.053l-0.103-0.264
		c0.273-0.067-0.022,0.183,0.158,0.169l0.127-0.329l0.328,0.248c0.216-0.334,0.475-0.628,0.431-1.034
		c0.021-0.019,0.041-0.046,0.062-0.065c-0.055-1.326-0.096-2.62-0.114-3.857C136.343,134.583,134.938,134.195,133.174,134.166z"/>
	<path fill="#FFFFFF" d="M141.691,132.896c0.081-0.125-0.094-0.137-0.187-0.23c-0.215,0.037-0.188,0.24-0.24,0.342
		c0.1,0.026,0.203,0.049,0.3,0.077C141.602,133.037,141.611,132.916,141.691,132.896z"/>
	<path fill="#FFFFFF" d="M119.431,131.477c3.746-0.308,5.964,0.743,8.217,1.644c-1.072-1.78-3.393-3.646-6.275-3.885
		c-3.133-0.26-6.809,1.177-7.47,3.287C115.547,133.041,117.332,131.65,119.431,131.477z"/>
	<path fill="#FFFFFF" d="M105.686,136.855c-1.153-3.924,2.109-6.622,2.54-9.711c0.359-2.575-0.62-5.257-0.448-8.366
		c-1.843,0-3.686,0-5.527,0c-0.567,14.847-0.098,30.716-0.149,45.417c2.103,0.012,3.926-0.258,6.125-0.15
		c0.042-8.922,0.205-17.722,0.448-26.442C107.408,137.623,106.091,137.695,105.686,136.855z"/>
	<path fill="#FFFFFF" d="M140.794,158.816c1.028-4.264,0.177-9.66,0.448-14.939c0.008-0.16,0.024-0.326,0.04-0.49
		c-0.119,0.088-0.237,0.176-0.327,0.281l0.164,0.121c-0.364,0.073-0.085,0.367-0.419,0.168c-0.27,0.426-0.479,0.761-0.708,1.23
		c-0.16-0.168-0.323,0.115-0.506,0.176c0.095,0.338-0.04,0.366-0.185,0.426c-0.15,1.51-0.272,3.021-0.301,4.512
		c-0.062-1.254-0.135-2.543-0.209-3.845l-0.078-0.083c-0.333,0.209-0.217,0.381-0.413,0.578c-0.233,0.11-0.157-0.214-0.406,0.08
		c0.075,0.127,0.002,0.406-0.016,0.589c0.264,0.022-0.487-0.003-0.479,0.357l-0.031-0.134l-0.234,0.266
		c0.005-0.016,0.005-0.033-0.008-0.064c-0.17,0.377-0.372,0.168-0.6,0.686l0.008-0.092c-0.304,0.389-0.657,0.873-0.948,1.126
		l-0.08-0.083l-0.191,0.605l-0.071-0.176l-0.244,0.25c0.048-0.049,0.008-0.09-0.038-0.087c-0.009,0.589-0.791,0.388-1.099,0.872
		l0.008-0.092c-0.215-0.068-0.327,0.214-0.556,0.281c0.122,0.123,0.188,0.389,0.082,0.58l-0.064-0.266l-0.151,0.196l0.005-0.046
		c-0.162-0.164-0.147,0.15-0.321,0.123c-0.204,0.291,0.264,0.018,0.068,0.219c-0.157-0.211-0.268,0.523-0.608,0.376l-0.372,0.717
		l-0.077-0.128c-0.016,0.184,0.009,0.406-0.172,0.471c-0.05,0.05,0.1-0.146,0.062-0.232c-0.363,0.127-0.286,0.799-0.628,0.653
		c-0.146,0.15-0.024,0.274,0.062,0.312c-0.212-0.115-0.383,0.355-0.573,0.512l-0.071-0.221c0.017,0.145-0.141,0.213-0.227,0.289
		c0.036-0.074,0.074-0.144,0-0.219c-0.198,0.246-0.526,0.462-0.635,0.747c0.021-0.003,0.039,0.038,0.058,0.063
		c-0.297,0.146-0.617,0.709-0.812,1.107c0.01-0.137,0.206-0.386-0.065-0.311c-0.007,0.012-0.005,0.016-0.012,0.027
		c0.097,1.025,0.191,2.06,0.276,3.107C132.808,160.042,137.608,159.621,140.794,158.816z"/>
	<path fill="#FFFFFF" d="M126.154,139.693c-5.209-0.418-10.9-0.354-15.836-1.045c0.1,3.984-0.255,7.514-0.149,11.504
		c5.507,0.02,11.176-0.121,16.283,0.299C125.912,147.301,126.203,142.878,126.154,139.693z"/>
	<path fill="#A3BC4B" d="M141.731,83.401c-32.163,0-58.33,26.166-58.33,58.329s26.167,58.33,58.33,58.33
		c32.162,0,58.328-26.167,58.328-58.33S173.893,83.401,141.731,83.401z M141.731,194.06c-28.854,0-52.33-23.475-52.33-52.33
		c0-28.854,23.476-52.329,52.33-52.329c14.166,0,27.027,5.667,36.458,14.843c0.019-0.007,0.033-0.006,0.053-0.016l-0.21-0.313
		c0.137,0.225,0.176-0.228,0.24-0.094l-0.124,0.183c0.414-0.047,0.349,0.54,0.689,0.403c0.088,0.157-0.145,0.054-0.294,0.175
		c9.574,9.488,15.516,22.637,15.516,37.148C194.059,170.585,170.584,194.06,141.731,194.06z"/>
	<path fill="#7E4E24" d="M174.75,160.138c0.134,0.019,0.332-0.055,0.534,0.051c-0.342-0.258,0.188-0.606,0.33-0.521
		c-0.104-0.129-0.045-0.345-0.231-0.431l-0.33,0.174l0.138-0.303c-0.061-0.129-0.288-0.172-0.359-0.041
		c0.177,0.344-0.605,0.433-0.59,0.562c0.019-0.139,0.176-0.25,0.076-0.332c0.074-0.004,0.14-0.062,0.128-0.145
		c-0.301-0.041-0.274-0.352-0.505-0.076l-0.091-0.096c0.022,0.174-0.166,0.088-0.248,0.13l0.022-0.173l-0.394,0.109
		c-0.131-0.254-0.456-0.547-0.438-0.757l-0.171,0.042c0.028-0.131,0.262-0.388,0.069-0.519c-0.239,0.216-0.473-0.261-0.749-0.004
		c0.135-0.312-0.107-0.328-0.182-0.411c-0.214-0.026-0.43-0.055-0.639-0.078c0.078-0.111,0.139-0.249,0.209-0.373
		c-0.107-0.01-0.214,0.01-0.316,0.122l0.195-0.214c-0.131,0.143-0.189-0.091-0.278-0.154c0.157-0.182-0.464-0.309-0.17-0.67
		c-0.235-0.133-0.29,0.169-0.318,0.299c-0.03-0.26-0.048-0.434-0.411-0.525c-0.047,0-0.149-0.048-0.253-0.082
		c-1.648,1.981-4.099,3.224-7.919,3.092c-4.646-0.16-6.993-2.847-7.769-7.32c-0.056,1.849,0.316,4.563,1.195,5.976
		c-4.019,0.315-7.826,1.466-12.251,0.896c0.65-3.798,0-8.797,0-12.997c0-1.26,0.169-2.467,0.357-3.674
		c-0.168,0.148-0.333,0.293-0.489,0.424l0.059,0.267l-0.164-0.124c-0.375,0.501-1.03,0.765-1.515,1.123
		c-0.016,0.164-0.032,0.33-0.04,0.49c-0.271,5.279,0.58,10.676-0.448,14.939c-3.187,0.805-7.986,1.227-11.653,0.598
		c-0.085-1.048-0.18-2.082-0.276-3.107c-0.213,0.354,0.069,0.34-0.088,0.71c-0.131-0.03,0.065-0.28-0.202-0.25l-0.035,0.456
		l-0.165-0.162c-0.198,0.453-0.664,0.699-1.062,0.972c0.081,1.04,0.234,2.007,0.635,2.726c1.854,0.809,4.267,0.91,6.572,0.897
		c1.933-0.011,4.401-0.005,6.125-0.448c0.853-0.219,1.495-1.074,2.242-1.195c0.782-0.127,1.956,0.262,2.838,0.299
		c2.857,0.12,6.018-0.889,8.665-0.896c2.258-0.007,4.427,0.979,6.573,1.195c5.644,0.57,8.669-2.238,13.595-0.896
		c0.051,0.18,0.097,0.365,0.142,0.552C174.814,160.238,174.802,160.193,174.75,160.138z"/>
	<path fill="#7E4E24" d="M171.208,153.457c0.079,0.068,0.162,0.135,0.251,0.168c-0.093-0.043-0.078,0.086-0.074,0.13
		c0.099,0.087,0.312,0.045,0.342-0.083l-0.146-0.131c0.351,0.002-0.011,0.301,0.266,0.434c0.114-0.172,0.114-0.172,0.304-0.041
		l-0.181-0.044c-0.081,0.159,0.248,0.274,0.24,0.339c0.301-1.652,0.384-3.496,0.404-4.973
		C172.268,150.746,171.822,152.173,171.208,153.457z M172.147,152.466c0.05,0.006,0.101,0.01,0.138,0.021
		C172.244,152.535,172.191,152.495,172.147,152.466z"/>
	<path fill="#7E4E24" d="M172.057,154.277c0.024,0.08,0.072,0.113,0.125,0.135c0.012-0.059,0.018-0.122,0.028-0.182
		C172.206,154.251,172.165,154.267,172.057,154.277z"/>
	<path fill="#7E4E24" d="M139.302,145.789c-0.102,0.041-0.208,0.098-0.246,0.286l0.01-0.091c-0.154,0.193-0.167,0.329-0.271,0.473
		l-0.002-0.001c0.074,1.302,0.146,2.591,0.209,3.845C139.03,148.81,139.152,147.298,139.302,145.789z"/>
	<path fill="#7E4E24" d="M152.338,134.886l-0.121,0.166c0.21,0.149,0.368,0.362,0.516,0.586c9.432-0.008,19.731-1.064,28.547-0.576
		c3.795,0.21,6.064,1.23,6.125,5.229c0.026,1.691-0.538,3.648-0.597,5.678c-0.109,3.717,0.283,7.771-0.448,10.906
		c-2.599,1.758-6.364,1.605-10.034,1.149c0.113,0.065,0.213,0.161,0.266,0.345l0.108-0.173c0.247,0.214-0.312,0.304,0.1,0.431
		l0.065-0.173c0.273,0.151,0.278,0.151,0.406,0.267c-0.186,0.09,0.178,0.242-0.075,0.246l0.188,0.083l-0.038,0.044
		c0.144,0.084,0.281,0.125,0.308-0.004l0.029,0.213l0.197-0.174c0.154,0.17-0.065,0.173,0.013,0.431l0.265-0.004l-0.039,0.044
		l0.27,0.039c-0.226-0.039-0.466,0.137-0.394,0.351c0.188,0.084,0.422-0.135,0.546,0.122c-0.419-0.167,0.233,0.429-0.255,0.391
		c0.511,0.211,0.581,0.381,1.077,0.457c-0.324,0.299,0.096,0.338,0.368,0.411c0.051,0.003,0.103,0.007,0.153,0.011
		c-0.013-0.049,0.012-0.074,0.105-0.048l-0.028,0.054c0.942,0.066,1.896,0.158,2.812,0.119c-0.102,0.545-0.208,1.086-0.149,1.793
		c-0.438,0.059-0.901,0.094-1.377,0.117c-0.034,0.032-0.077,0.064-0.144,0.09c0.278,0.078-0.017,0.172,0.046,0.301l0.308-0.311
		c0.215,0.252-0.174,0.307-0.192,0.479c0.124-0.002,0.287,0.254,0.348,0.068c0.015,0.076,0.175,0.22-0.08,0.227
		c0.179,0.297,0.358,0.033,0.484-0.014c0.188,0.644,0.261,0.252,0.493,0.893c-0.17,0.049-0.698,0.064-0.627-0.326
		c-0.207,0.092-0.271,0.525,0.037,0.518c-0.133,0.003-0.322-0.078-0.336-0.164c0.068-0.132,0.307-0.312-0.037-0.518
		c-0.402-0.032-0.303,0.614-0.774,0.15l-0.013-0.086c0.095,0.041,0.152,0.127,0.278,0.079c0.275-0.224-0.284-0.122-0.003-0.302
		c-0.185-0.34-0.631-0.069-0.879-0.236c-0.021-0.431,0.441-0.011,0.44-0.313l-0.241-0.122c0.422,0.16,0.083-0.344,0.249-0.395
		h-0.001c-0.312,0.265-0.295-0.207-0.451,0.227c-0.122-0.07-0.271-0.137-0.422-0.209c-0.823,0.004-1.662-0.008-2.484-0.004
		c-0.056-0.595-0.179-1.122-0.344-1.607c-0.138-0.025-0.319-0.144-0.403-0.193c0.121,0.053,0.205-0.033,0.304-0.126
		c-0.002-0.005-0.003-0.011-0.005-0.015c0.009-0.002,0.018-0.003,0.026-0.006c0.05-0.045,0.104-0.09,0.17-0.117
		c0.076-0.088-0.156-0.172-0.168-0.258c-0.232-0.084-0.064,0.172-0.186,0.261l-0.123-0.259l0.088-0.001
		c-0.019-0.128-0.005-0.344-0.147-0.429c-0.177,0.001-0.003,0.301-0.136,0.305c0.159-0.133-0.158-0.518,0.195-0.521
		c0.069-0.129-0.124-0.257-0.206-0.213c0.003,0.344-0.659-0.295-0.671,0.264c0.063-0.172-0.411-0.082-0.46-0.125
		c-0.055,0.099-0.064,0.148-0.019,0.225c-0.023,0.003-0.051,0.014-0.081,0.035l0.042,0.301c-0.169-0.256-0.185-0.387,0.007-0.604
		c-0.257-0.154-0.205-0.01-0.424-0.067c0.397,1.649,0.614,3.479,1.345,4.796c2.266,0.274,5.881,0.622,8.067,0
		c0.689-1.303,0.717-3.269,0.747-5.229c4.893-0.179,4.21-6.141,4.332-11.204c0.081-3.359,0.385-6.094,0.299-8.516
		c-0.242-6.85-6.102-7.348-12.997-7.021c-3.97,0.188-7.809-0.176-11.503,0c-4.503,0.213-9.405,0.471-14.11,0.55
		c0.393,0.396,0.836,0.872,1.195,1.286L152.338,134.886z"/>
	<path fill="#7E4E24" d="M126.833,152.52l0.031,0.027l0.256-0.391c0.12,0.168-0.244,0.253-0.075,0.371
		c0.333-0.265,0.211-0.388,0.529-0.466c-0.103,0.146-0.294,0.305-0.081,0.416c0.334-0.262,0.223-0.523,0.434-0.909
		c-0.024-0.056-0.086-0.085-0.151-0.087c0.207-0.095,0.364-0.471,0.574-0.688l-0.111-0.26c-0.543,0.103-0.171,0.428-0.582,0.562
		c-0.11-0.262,0.351-0.448,0.415-0.682c0.085,0.064,0.173,0.087,0.257,0.095c-0.376-4.447-0.583-8.849-0.084-13.506
		c1.355-0.089,3.073,0.185,4.184-0.149c0.57-0.601,1.017-1.693,0.746-2.689c1.764,0.029,3.169,0.418,5.08,0.299
		c0.019,1.237,0.06,2.531,0.114,3.857c0.592-0.566,1.172-1.348,1.724-2.092c0-0.547-0.01-1.088-0.045-1.616
		c0.47,0.063,0.841,0.202,1.133,0.401c0.179-0.027,0.331,0.029,0.339-0.266c-0.005,0.047,0.079,0.086,0.118,0.128
		c0.245-0.235,0.528-0.528,0.803-0.718c-0.233-0.291-0.393-0.659-0.815-0.837c0.044,0.005,0.132,0.011,0.13-0.032l-0.252-0.19
		c0.028,0.013,0.047,0.003,0.062-0.016c-0.097-0.028-0.2-0.051-0.3-0.077c-0.033,0.063-0.097,0.088-0.268,0.008
		c0.038-0.018,0.059-0.037,0.077-0.056c-2.395-0.554-5.764-0.31-8.197-0.288c-2.083-9.217-16.968-12.704-23.156-6.125
		c0.107-2.82,0.465-6.851-0.149-9.412c-2.241-0.719-6.586-0.854-9.113-0.299c-0.75,0.49-0.448,4.133-0.448,5.977
		c0,14.65-0.243,30.387,0.299,43.772c2.243,0.018,6.638,0.004,9.263,0c0.908-3.723-0.017-9.278,0.747-13.146
		c4.971,0.271,11.258,0.178,15.931,0.021c0.032-0.129,0.095-0.264,0.223-0.41C126.58,152.767,127.047,152.794,126.833,152.52z
		 M108.226,164.044c-2.199-0.107-4.022,0.162-6.125,0.15c0.052-14.701-0.418-30.57,0.149-45.417c1.842,0,3.685,0,5.527,0
		c-0.172,3.109,0.808,5.791,0.448,8.366c-0.431,3.089-3.693,5.787-2.54,9.711c0.405,0.84,1.722,0.768,2.988,0.747
		C108.431,146.323,108.268,155.123,108.226,164.044z M108.375,135.361c-0.077-6.293,3.686-9.896,9.113-10.457
		c7.546-0.779,12.84,4.322,13.894,10.457C123.767,134.976,116.171,135.474,108.375,135.361z M110.168,150.152
		c-0.105-3.99,0.249-7.52,0.149-11.504c4.936,0.691,10.627,0.627,15.836,1.045c0.049,3.186-0.242,7.608,0.298,10.758
		C121.344,150.031,115.675,150.171,110.168,150.152z"/>
	<path fill="#98D0DC" d="M131.382,135.361c-1.054-6.135-6.348-11.236-13.894-10.457c-5.428,0.561-9.19,4.164-9.113,10.457
		C116.171,135.474,123.767,134.976,131.382,135.361z M121.373,129.236c2.883,0.238,5.203,2.104,6.275,3.885
		c-2.253-0.9-4.471-1.951-8.217-1.644c-2.1,0.173-3.884,1.563-5.528,1.046C114.564,130.413,118.24,128.976,121.373,129.236z"/>
	<path fill="#98D0DC" d="M171.759,157.4c-0.038-0.043-0.033-0.104,0.103-0.236c-0.175-0.082-0.354-0.2-0.532-0.215
		c-0.07,0.124-0.131,0.262-0.209,0.373C171.33,157.345,171.545,157.374,171.759,157.4z"/>
	<path fill="#98D0DC" d="M186.36,156.875c0.731-3.135,0.339-7.189,0.448-10.906c0.059-2.029,0.623-3.986,0.597-5.678
		c-0.061-3.998-2.33-5.019-6.125-5.229c-8.815-0.488-19.115,0.568-28.547,0.576c0.267,0.406,0.481,0.861,0.809,1.131l0.12-0.164
		c0.064,0.349,0.353,0.064,0.155,0.397c0.408,0.239,0.726,0.429,1.175,0.627c-0.165,0.163,0.105,0.308,0.161,0.483
		c0.556-0.184,0.237,0.314,0.679,0.383l-0.088-0.004c0.184,0.139,0.314,0.146,0.451,0.24l-0.082,0.082
		c0.196,0.311,0.362,0.191,0.55,0.373c0.102,0.221-0.209,0.161,0.069,0.391c0.125-0.08,0.392-0.022,0.567-0.014
		c0.026-0.258-0.012,0.473,0.336,0.448l-0.129,0.036l0.25,0.215c-0.014-0.004-0.031-0.004-0.061,0.011
		c0.359,0.147,0.154,0.354,0.649,0.55l-0.088-0.004c0.368,0.275,0.828,0.598,1.065,0.868l-0.08,0.082l0.579,0.157l-0.171,0.078
		l0.236,0.226c-0.047-0.045-0.087-0.005-0.085,0.04c0.566-0.018,0.359,0.75,0.819,1.027l-0.089-0.004
		c-0.07,0.211,0.2,0.309,0.26,0.527c0.12-0.125,0.378-0.2,0.561-0.107l-0.258,0.076l0.187,0.137l-0.044-0.002
		c-0.161,0.165,0.142,0.137,0.111,0.307c0.276,0.185,0.023-0.258,0.213-0.077c-0.206,0.163,0.498,0.235,0.35,0.575l0.683,0.327
		l-0.125,0.081c0.177,0.006,0.392-0.027,0.45,0.146c0.047,0.046-0.14-0.091-0.223-0.051c0.115,0.349,0.764,0.242,0.616,0.581
		c0.142,0.135,0.263,0.011,0.3-0.075c-0.114,0.212,0.336,0.356,0.481,0.534l-0.214,0.08c0.14-0.023,0.202,0.126,0.273,0.205
		c-0.07-0.031-0.137-0.064-0.211,0.012c0.233,0.182,0.436,0.488,0.707,0.582c-0.002-0.02,0.037-0.04,0.062-0.06
		c0.134,0.282,0.669,0.567,1.048,0.739c-0.132-0.004-0.366-0.184-0.3,0.077c0.37,0.227,0.344-0.076,0.707,0.063
		c-0.033,0.129-0.268-0.051-0.245,0.208l0.438,0.015l-0.16,0.166c0.816,0.324,0.896,1.615,1.813,1.594l0.15-0.256
		c-0.003,0.432,0.428,0.355,0.299,0.825l0.127-0.039l-0.063,0.257l0.335-0.166l-0.158,0.17l0.216,0.033
		c-0.044,0.027-0.055,0.111-0.11,0.139c0.526,0.009,0.083,0.389,0.57,0.441c-0.044-0.002-0.132-0.004-0.128,0.04
		c0.493,0.095,0.308,0.437,0.726,0.658l-0.168,0.083c0.106,0.174,0.237,0.176,0.378,0.265l0.026-0.172l0.035,0.347l0.22,0.002
		l-0.079,0.084c0.502,0.18,0.151,0.176,0.653,0.353c-0.088-0.001-0.211,0.085-0.152,0.214c0.08,0.001,0.192,0.115,0.318,0.225
		c0.613-1.283,1.06-2.711,1.406-4.201c-0.021,1.477-0.104,3.32-0.404,4.973c0,0.001,0,0.002,0,0.002
		c-0.011,0.06-0.017,0.123-0.028,0.182c0.091,0.037,0.204,0.029,0.293,0.085l-0.023-0.216l0.587,0.52
		c-0.079,0.086-0.167,0.086-0.201,0.172l0.182,0.043h-0.089c0.066,0.559,0.724,0.174,0.751,0.777l0.111-0.172l-0.034,0.084
		c0.186-0.035,0.176,0.218,0.321,0.117c-0.124,0.175,0.31,0.304,0.413,0.533c0.165-0.087,0.209-0.088,0.401,0.042
		c0.168,0.3,0.134,0.386,0.04,0.688c0.396-0.002,0.745,0.342,1.026,0.469c0.039-0.044-0.067,0.173-0.253,0.087
		c0.093,0.261,0.386,0.251,0.618,0.384C179.996,158.48,183.761,158.632,186.36,156.875z M155.835,136.519
		c0.044,0.019,0.091,0.037,0.141,0.022C155.917,136.585,155.875,136.562,155.835,136.519z M156.394,137.052
		c-0.01-0.022-0.024-0.045-0.03-0.068C156.434,137.009,156.421,137.031,156.394,137.052z M168.953,148.679
		c0.009-0.004,0.013-0.01,0.023-0.014l0.205,0.214L168.953,148.679z"/>
	<path fill="#98D0DC" d="M143.035,158.368c4.425,0.569,8.232-0.581,12.251-0.896c-0.879-1.412-1.251-4.127-1.195-5.976
		c0.775,4.474,3.123,7.16,7.769,7.32c3.82,0.132,6.271-1.11,7.919-3.092c-0.092-0.029-0.186-0.049-0.242-0.01l-0.021,0.215
		l0.03-0.517c-0.278,0.207-0.178-0.323-0.473-0.431c0.057-0.002,0.115-0.016,0.11-0.049l-0.284-0.176
		c-0.207,0.126-0.04,0.43-0.164,0.515c-0.427-0.267-0.449-0.917-0.203-1.085c-0.261,0.039-0.216,0.039-0.533-0.053l0.057,0.131
		c-0.306-0.396-0.741,0.072-1.307-0.286c-0.159,0.169,0.214,0.35-0.043,0.431c-0.23-0.092-0.567-0.359-0.551-0.615
		c0.385-0.123-0.041-0.39,0.256-0.512c-0.193-0.178-0.296,0.121-0.517,0.115c0.088,0.002,0.318-0.336,0.394-0.466l-0.338-0.312
		c-0.085,0.041-0.066,0.215-0.203,0.168c0.054-0.131-0.079-0.317-0.195-0.318c0.049-0.094-0.138-0.279-0.183-0.383
		c-0.093-0.045-0.429,0.118-0.321-0.138c0.052,0.088,0.132,0.003,0.18,0.048l-0.118-0.306c-0.01,0.346-0.586-0.146-0.467,0.159
		c-0.168,0.082-0.315-0.051-0.37-0.184c0.145,0.135,0.167-0.08,0.251-0.121c-0.193-0.178-0.246-0.266-0.43-0.358
		c-0.268-0.052-0.168,0.082-0.239,0.251l-0.337-0.313c-0.226-0.051,0.071,0.306-0.249,0.165c0.179-0.029,0.226-0.475,0.041-0.584
		c0.099-0.034,0.155-0.143,0.175,0.072c0.085-0.04,0.12-0.125,0.108-0.256c-0.44-0.014-0.811,0.275-1.287-0.131
		c-0.268-0.092-0.231-0.548-0.5-0.328l0.026-0.031l-0.371-0.23c0.164-0.123,0.239,0.227,0.355,0.057
		c-0.248-0.311-0.368-0.188-0.438-0.493c0.14,0.093,0.286,0.271,0.399,0.06c-0.246-0.312-0.5-0.192-0.867-0.38
		c-0.054,0.026-0.083,0.087-0.086,0.15c-0.087-0.196-0.445-0.333-0.65-0.526l-0.252,0.12c0.088,0.522,0.408,0.147,0.529,0.54
		c-0.253,0.119-0.424-0.32-0.647-0.373c0.158-0.209,0.095-0.428,0.084-0.559c-0.32-0.141-0.25-0.354-0.397-0.533
		c-0.264-0.012,0.149,0.223-0.209,0.121c-0.463-0.28,0.725-0.789-0.139-0.611l-0.114,0.211c-0.098-0.135-0.339-0.405-0.458-0.237
		c0.291-0.202-0.329-0.274,0.063-0.3l-0.041,0.042c0.053,0.088,0.133,0.006,0.218-0.034c0.192-0.338-0.21-0.441-0.32-0.705
		c0.004,0.043,0.093,0.046,0.137,0.05c-0.201-0.312-0.178-0.009-0.54-0.155c-0.125,0.08,0.25-0.16-0.021-0.259
		c-0.267-0.057-0.16,0.205-0.324,0.327c-0.059-0.051-0.107-0.118-0.191-0.18l-0.248,0.205c0.126-0.08-0.057-0.176-0.236-0.229
		c0.311,0.061,0.515-0.146,0.854-0.304c0.013,0.173,0.187,0.138,0.267,0.056c-0.21-0.441-0.79,0.006-0.778-0.427
		c-0.113,0.159-0.194,0.166-0.113,0.39c-0.041-0.051-0.17-0.018-0.3-0.023c-0.261-0.254-0.351-0.64-0.705-0.607
		c0.034-0.026,0.06-0.07,0.085-0.068c-0.242-0.315-0.186-0.14-0.544-0.246l0.261-0.028c0.069-0.255-0.273-0.144-0.372-0.278
		c-0.214,0.076-0.069,0.256-0.105,0.34c-0.052-0.088-0.429,0.15-0.367-0.191c0.051,0.088,0.146,0.182,0.227,0.1
		c-0.235-0.23-0.285-0.318-0.514-0.416l0.263-0.03c-0.155-0.308-0.31-0.065-0.495-0.239c0.069-0.066,0.134-0.084-0.023-0.264
		l-0.168,0.12c-0.15-0.269,0.039-0.085,0.059-0.43c-0.232-0.186-0.573-0.032-0.75-0.042c0.021-0.344-0.386-0.496-0.453-0.846
		c-0.139-0.094-0.353-0.02-0.412-0.239c-0.163,0.208-0.271-0.103-0.518,0.144c0.024,0.346,0.477-0.103,0.281,0.275
		c-0.041,0.041-0.229-0.143-0.403-0.154l0.087,0.006c-0.483-0.678-1.312,0.051-1.762-0.756c0.08-0.125,0.177,0.012,0.213-0.116
		c-0.15-0.269-0.304,0.067-0.491-0.116l-0.885-0.791c0.578,0.123-0.021-0.348,0.058-0.473l-0.255,0.111
		c-0.061-0.262,0.176,0.014,0.165-0.162l-0.314-0.105l0.244-0.33c-0.318-0.193-0.597-0.429-0.988-0.366
		c-0.486-0.509-1.164-0.995-1.829-1.46c-0.029,0.043-0.045,0.096-0.029,0.17c0.011-0.092-0.077-0.086-0.112-0.176
		c-0.536,0.396-0.912,0.918-1.24,1.435l0.004-0.046c-0.291,0.2-0.34,0.609-0.41,0.842c-0.345,0.364-0.884,0.871-1.403,1.33
		c-0.188,1.207-0.357,2.414-0.357,3.674C143.035,149.571,143.685,154.57,143.035,158.368z"/>
	<path fill="#B17F49" d="M179.92,161.462c-0.034-0.041-0.03-0.059-0.036-0.082c-0.051-0.004-0.103-0.008-0.153-0.011
		C179.82,161.394,179.893,161.42,179.92,161.462z"/>
	<path fill="#B17F49" d="M179.731,163.451c-0.383-0.184-0.768-0.401-0.699-0.806c-0.26,0.049,0.075,0.216-0.247,0.135
		c-0.031-0.216-0.371-0.427-0.529-0.595c0.165-0.088,0.152-0.175,0.007-0.259c-0.082,0.044-0.151,0.175-0.397,0.007
		c0.077-0.088,0.021-0.174,0.052-0.259c-0.078-0.066-0.153-0.04-0.195,0.021l-0.004-0.191l-0.353,0.004l0.038-0.043
		c-0.062-0.039-0.094-0.041-0.127-0.044c-0.021,0.003-0.041,0.007-0.062,0.011c-0.061,0.062-0.001,0.264,0.017,0.381l-0.151-0.129
		c0.002,0.145-0.076,0.174-0.177,0.156c0.165,0.485,0.288,1.013,0.344,1.607C178.069,163.443,178.908,163.455,179.731,163.451z"/>
	<path fill="#B17F49" d="M176.803,161.52c0.007-0.007,0.015-0.013,0.021-0.021c-0.009,0.003-0.018,0.004-0.026,0.006
		C176.8,161.509,176.801,161.515,176.803,161.52z"/>
	<path fill="#B17F49" d="M182.774,161.505c-0.916,0.039-1.87-0.053-2.812-0.119l-0.11,0.208l0.483,0.291
		c-0.277-0.08-0.058,0.217-0.176,0.306l0.483-0.011c-0.126,0.046-0.246,0.136-0.415,0.183c-0.038,0.105,0.058,0.129,0.168,0.139
		c-0.005,0.008-0.008,0.015-0.011,0.03l0.295,0.21c-0.025,0.13-0.402-0.034-0.283,0.18c0.095,0.04,0.195,0.124,0.322,0.076
		c-0.045,0.003-0.082,0.047-0.127,0.048c0.366,0.076,0.894-0.24,1.021,0.315c-0.245-0.119-0.27-0.035-0.365,0.055
		c0.476-0.023,0.938-0.059,1.377-0.117C182.566,162.591,182.672,162.05,182.774,161.505z"/>
	<path fill="#BD1622" d="M168.953,148.679l0.229,0.2l-0.205-0.214C168.965,148.669,168.961,148.675,168.953,148.679z"/>
	<path fill="#BD1622" d="M155.976,136.542c-0.05,0.015-0.097-0.004-0.141-0.022C155.875,136.562,155.917,136.585,155.976,136.542z"
		/>
	<path fill="#BD1622" d="M172.147,152.466c0.044,0.028,0.097,0.068,0.138,0.021C172.248,152.476,172.197,152.472,172.147,152.466z"
		/>
	<polygon fill="#BD1622" points="128.609,111.024 128.566,111.02 128.57,111.024 	"/>
	<path fill="#BD1622" d="M128.169,110.319l0.152,0.076C128.269,110.325,128.218,110.312,128.169,110.319z"/>
	<path fill="#BD1622" d="M156.394,137.052c0.027-0.021,0.04-0.043-0.03-0.068C156.37,137.007,156.384,137.03,156.394,137.052z"/>
	<path fill="#E84E1B" d="M177.822,104.263c-0.02,0.219,0.25,0.659-0.186,0.765l0.062-0.09c-0.222,0.228-0.307-0.043-0.396-0.042
		l0.054-0.046l-0.324,0.046c0.233-0.047,0.271-0.497,0.158-0.361c-0.349,0.183,0.134-0.001-0.043,0.227
		c-0.115,0.135-0.216-0.044-0.289-0.134l-0.222,0.227c-0.11-0.134,0.16-0.137-0.057-0.18l-0.166,0.407
		c-0.354-0.269-0.173,0.451-0.59,0.274c0.14-0.271-0.12-0.09-0.184-0.225l-0.496,0.501c-0.091,0.001,0.042-0.226-0.021-0.136
		c-0.18,0.003-0.086,0.227-0.14,0.273c-0.127-0.046-0.38,0.364-0.564,0.14c-0.482,0.186,0.106,0.406-0.332,0.591
		c-0.164-0.089,0.229-0.273-0.04-0.271l-0.292,0.364c-0.028-0.091-0.131-0.27,0.021-0.36c-1.07,0.686-2.198,0.476-2.866,1.434
		c-0.262-0.041-0.013-0.182-0.024-0.361c-0.408,0.773-1.164,0.467-1.657,0.973l0.11,0.134c-1.083,0.29-1.721,1.338-2.678,1.947
		l0.18-0.004c0.006,0.227-0.16,0.41-0.238,0.593c-0.08-0.044-0.161-0.358-0.344-0.084c0.091-0.001,0.233-0.049,0.264,0.04
		c-1.004,0.335-2.379,1.815-3.659,2.752c-1.432,1.574-3.316,2.943-4.73,4.484c0.218-0.233,0.422,0.167,0.182,0.265
		c-0.977-0.057-0.724,0.886-1.548,1.005c-0.701,1.021-1.913,1.343-2.321,2.536l-0.16-0.13c-0.187,0.054-0.118,0.187-0.229,0.325
		l-0.037-0.043c-0.352,0.241-0.562,0.748-0.802,0.85l0.153,0.174c-0.162,0.189-0.218-0.035-0.305,0.24l-0.077-0.088l-0.055,0.365
		c-0.267-0.305-0.518,0.477-0.788,0.488c-0.176,0.28-0.483,0.836-0.884,1.128c-0.212-0.081-0.631,0.347-0.974,0.546
		c-0.486,0.566-1.185,1.371-1.898,1.999l0.2,0.171l-0.16,0.189c-0.039-0.043-0.084-0.04-0.078-0.086
		c-0.347-0.071-0.333,0.472-0.604,0.485c0.257,0.076,0.147-0.099,0.25-0.194c0.231-0.059,0.277,0.258-0.007,0.363l-0.037-0.045
		l-0.032,0.23c-0.161-0.129-0.349-0.073-0.509-0.199c-0.384,0.441-0.564,0.896-0.874,1.317l-0.368-0.396l0.052,0.178
		c-0.123,0.162-0.434,0.054-0.486-0.121c0.263,0.018,0.208-0.202,0.244-0.372c-0.175-0.011-0.033,0.214-0.162,0.247
		c-0.22-0.016-0.536-0.211-0.541-0.34l0.131,0.01c-0.224-0.104-0.063-0.438-0.244-0.581c-0.264-0.021-0.274-0.235-0.479,0.052
		c-0.27-0.15,0.076-0.253,0.027-0.344c-0.217,0.027-0.452-0.336-0.371-0.502c-0.469,0.267-0.469-0.683-0.806-0.406l-0.016-0.346
		c-0.084,0.079-0.296,0.236-0.475,0.137c-0.053-0.221,0.116-0.338,0.155-0.464l-0.385,0.229c-0.483-1.072-1.741-1.816-2.353-2.904
		c-0.45-0.293-1.076-0.602-1.487-1.067l0.088,0.007l-0.371-0.506l0.192,0.449c-0.132-0.055-0.265-0.064-0.356-0.158
		c-0.372-0.592-0.884-1.363-1.641-1.771c-0.731-0.005,0.036-0.564-0.586-0.652c0.063-0.004,0.123-0.044,0.186-0.053
		c-0.52-0.259-0.798-0.401-1.402-0.569c0.381-0.314-0.272-0.238-0.061-0.394l-0.17,0.114c-0.008-0.173-0.19-0.403-0.062-0.479
		l-0.35,0.015l0.124-0.164c-0.227-0.233-0.853-0.588-0.695-1.008c-0.8-0.324-1.667-1.262-2.353-2.01
		c-0.218,0.024-0.443-0.167-0.624-0.312l-0.015-0.347c-0.223-0.105-0.614-0.052-0.667-0.315c0.021-0.02,0.04-0.028,0.062-0.028
		c-0.209-0.126-0.286-0.376-0.603-0.364c-0.183-0.188-0.28-0.455-0.067-0.566c-0.295,0.278-0.365-0.421-0.365-0.421
		c0.009,0-9.169-9.893-13.09-10.485c-0.215,0.072-0.527-0.039-0.602,0.215c-0.225-0.104-0.065-0.437-0.234-0.32
		c0.146,0.314-0.423,0.314-0.359,0.709l-0.181-0.1c-0.127,0.076,0.31,0.065,0.1,0.223l0.293-0.237
		c0.082,0.151,0.096,0.27,0.052,0.401c0.211-0.004,0.625-0.311,0.745,0.1l-0.09-0.052c0.229,0.19-0.028,0.301-0.024,0.388
		l-0.046-0.047l0.058,0.308c-0.056-0.221-0.491-0.209-0.355-0.114c0.19,0.316-0.006-0.129,0.221,0.018
		c0.135,0.097-0.034,0.212-0.118,0.293l0.228,0.189c-0.125,0.121-0.138-0.14-0.171,0.074l0.399,0.117
		c-0.246,0.37,0.442,0.119,0.288,0.539c-0.268-0.105-0.082,0.125-0.21,0.2l0.501,0.428c0.004,0.087-0.219-0.018-0.131,0.033
		c0.01,0.174,0.222,0.06,0.269,0.107c-0.039,0.127,0.364,0.329,0.154,0.53c0.195,0.446,0.388-0.144,0.581,0.26
		c-0.08,0.168-0.271-0.192-0.259,0.066l0.36,0.245c-0.086,0.036-0.255,0.153-0.349,0.016c0.699,0.961,0.528,2.072,1.47,2.621
		c-0.032,0.257-0.175,0.03-0.348,0.06c0.756,0.319,0.483,1.074,0.981,1.504l0.126-0.119c0.305,1.018,1.331,1.531,1.936,2.401
		l-0.008-0.173c0.218-0.025,0.398,0.118,0.576,0.177c-0.041,0.082-0.343,0.188-0.074,0.34c-0.003-0.088-0.052-0.222,0.033-0.258
		c0.344,0.936,1.791,2.134,2.711,3.291c1.535,1.251,2.872,2.963,4.364,4.211c-0.227-0.192,0.158-0.419,0.254-0.194
		c-0.049,0.947,0.857,0.633,0.976,1.421c0.986,0.602,1.297,1.751,2.447,2.062l-0.125,0.164c0.051,0.175,0.179,0.101,0.313,0.198
		l-0.042,0.039c0.233,0.322,0.721,0.492,0.818,0.717l0.168-0.16c0.183,0.145-0.034,0.213,0.23,0.279l-0.084,0.08l0.352,0.027
		c-0.295,0.279,0.457,0.471,0.469,0.73c0.27,0.151,0.805,0.411,1.084,0.78c-0.079,0.21,0.331,0.589,0.521,0.907
		c0.543,0.434,1.315,1.058,1.915,1.711l0.166-0.205l0.181,0.145c-0.041,0.039-0.039,0.083-0.083,0.08
		c-0.071,0.34,0.452,0.294,0.463,0.555c0.076-0.253-0.093-0.137-0.186-0.23c-0.054-0.22,0.25-0.283,0.35-0.015l-0.043,0.038
		l0.222,0.018c-0.125,0.164-0.073,0.342-0.195,0.504c0.59,0.48,1.21,0.57,1.72,1.172c-0.193,0.102,0.324,0.295,0.146,0.468
		c-0.019,0.019-0.039,0.038-0.077,0.056c0.171,0.08,0.234,0.056,0.268-0.008c0.053-0.102,0.025-0.305,0.24-0.342
		c0.093,0.094,0.268,0.105,0.187,0.23c-0.08,0.02-0.089,0.141-0.127,0.188c-0.015,0.019-0.033,0.028-0.062,0.016l0.252,0.19
		c0.002,0.043-0.086,0.037-0.13,0.032c0.423,0.178,0.582,0.546,0.815,0.837c-0.274,0.189-0.558,0.482-0.803,0.718
		c-0.039-0.042-0.123-0.081-0.118-0.128c-0.008,0.295-0.16,0.238-0.339,0.266c-0.098,0.015-0.203,0.053-0.299,0.188
		c-0.254,0.309-0.52,0.664-0.789,1.027c-0.552,0.744-1.132,1.525-1.724,2.092c-0.021,0.02-0.041,0.047-0.062,0.065
		c0.044,0.406-0.215,0.7-0.431,1.034l-0.328-0.248l-0.127,0.329c-0.181,0.014,0.115-0.236-0.158-0.169l0.103,0.264
		c-0.125-0.081-0.643,0.551-0.485-0.053l-0.865,0.934c-0.199,0.199,0.14,0.352-0.146,0.513c-0.131-0.034,0.016-0.138-0.109-0.218
		c-0.855,0.482-0.146,1.33-0.871,1.846l0.01-0.092c-0.021,0.183-0.222,0.381-0.181,0.422c0.38,0.196-0.06-0.266,0.3-0.297
		c0.24,0.252-0.085,0.37,0.121,0.535c-0.23,0.064-0.165,0.287-0.27,0.432c-0.363,0.078-0.541,0.503-0.896,0.489
		c-0.019,0.183,0.122,0.534-0.081,0.78c-0.354-0.014-0.156-0.215-0.44-0.053l0.116,0.172c-0.194,0.168-0.209,0.101-0.273,0.029
		c-0.189,0.197,0.053,0.354-0.272,0.52l-0.018-0.271c-0.113,0.238-0.207,0.291-0.455,0.542c-0.081-0.083,0.02-0.183,0.113-0.237
		c-0.349-0.058-0.123,0.33-0.216,0.385c0.085,0.037,0.277-0.118,0.345,0.104c-0.144,0.105-0.045,0.459-0.306,0.393l-0.016-0.271
		c-0.128,0.375,0.057,0.312-0.28,0.572c0.003-0.027-0.041-0.053-0.066-0.088c0.016,0.367-0.387,0.469-0.662,0.746
		c-0.013,0.135,0.016,0.268-0.039,0.312c0.235-0.089,0.238-0.004,0.396,0.11c-0.444-0.002-0.015,0.59-0.479,0.818
		c-0.081-0.082-0.108-0.262,0.07-0.279c-0.145-0.35-0.347-0.558-0.27-0.882c-0.063,0.188-0.172,0.38-0.248,0.25l0.198,0.253
		c-0.067,0.089-0.14,0.141-0.194,0.203c0.118,0.169,0.393,0.052,0.321,0.33c-0.114,0.285-0.345-0.102-0.268,0.027
		c-0.169,0.381,0.146,0.35-0.187,0.564c0.006-0.045,0.015-0.137,0.059-0.143c-0.277,0.12-0.403,0.541-0.743,0.348
		c-0.037-0.087-0.117-0.168-0.024-0.225l0.041,0.041c-0.007-0.408-0.11,0.238-0.306-0.061c0.168,0.121-0.123,0.378-0.267,0.482
		l0.212,0.114c0.141,0.895-0.326-0.329-0.638,0.157c-0.122,0.375,0.14-0.06,0.115,0.215c-0.193,0.157-0.41,0.088-0.57,0.424
		c-0.08,0.009-0.193,0.031-0.314,0.021c-0.084-0.008-0.172-0.03-0.257-0.095c-0.064,0.233-0.525,0.42-0.415,0.682
		c0.411-0.135,0.039-0.46,0.582-0.562l0.111,0.26c-0.21,0.217-0.367,0.593-0.574,0.688c0.065,0.002,0.127,0.031,0.151,0.087
		c-0.211,0.386-0.1,0.647-0.434,0.909c-0.213-0.111-0.021-0.27,0.081-0.416c-0.318,0.078-0.196,0.201-0.529,0.466
		c-0.169-0.118,0.195-0.203,0.075-0.371l-0.256,0.391l-0.031-0.027c0.214,0.274-0.254,0.247-0.362,0.528
		c-0.128,0.146-0.19,0.281-0.223,0.41c-0.079,0.32,0.052,0.605,0.026,0.932c-0.135,0.016-0.221-0.02-0.258-0.107
		c0.223-0.025,0.113-0.08,0.083-0.183c-0.121,0.194-0.578,0.155-0.6-0.03c-0.16,0.336,0.222,0.02,0.158,0.256l-0.34,0.357
		c0.172,0.07,0.313-0.036,0.248,0.244c-0.104,0.193-0.199,0.248-0.391,0.454c-0.038-0.087-0.259-0.105-0.113-0.259
		c-0.139,0.061-0.282,0.216-0.207,0.389c0.32-0.13-0.213,0.48,0.143,0.483l-0.32,0.13c0.048-0.051-0.035-0.133,0.058-0.189
		c-0.258-0.105-0.105,0.24-0.156,0.338c-0.109,0.049-0.31,0.248-0.402,0.199c-0.008,0.121-0.206,0.264-0.338,0.209
		c-0.054,0.145,0.124,0.121,0.162,0.209l-0.336,0.359c-0.129-0.076-0.467-0.309-0.461-0.4c-0.017,0.229,0.287,0.33,0.095,0.535
		c-0.112-0.307-0.408,0.141-0.516-0.256c-0.263-0.012-0.554,0.345-0.659,0.586c0.071,0.266,0.274-0.127,0.44,0.036
		c-0.395,0.597,0.065,1.041-0.355,1.367l0.137-0.062c-0.109,0.332-0.108,0.285-0.081,0.557c-0.16-0.253-0.829-0.215-1.126,0.234
		c0.082,0.127,0.403-0.053,0.522,0.16l-0.194,0.3c-0.034,0.005-0.046-0.056-0.045-0.114c-0.125,0.309-0.665,0.215-0.466,0.501
		l-0.529-0.021l0.22,0.017c0.081,0.125-0.114,0.426-0.119,0.519c-0.111,0.38-0.291,0.402-0.559,0.439
		c0.132,0.027,0.439,0.077,0.291,0.326c-0.356-0.3-0.518,0.351-0.697,0.191c-0.07,0.092-0.312,0.158-0.172,0.291l-0.211-0.199
		c0.295,0.278,0.013,0.592-0.136,0.887c-0.378-0.404-0.192,0.301-0.669,0.096c0.25,0.283-0.25,0.536-0.041,0.781
		c-0.144,0.203-0.396-0.035-0.528-0.062l0.034,0.177c-0.215-0.013-0.533,0.33-0.8,0.472l0.093,0.408l-0.176-0.02
		c0.039,0.085-0.059,0.282,0.12,0.256l-0.103,0.097c0.272,0.234-0.046,0.214-0.103,0.527c-0.086,0.015-0.142-0.053-0.141-0.13
		c-0.091,0.106-0.196-0.056-0.338-0.072c0.134-0.019,0.187,0.794,0.549,0.604c0.13,0.071,0.076,0.309-0.061,0.375l-0.304-0.138
		l0.162,0.341c-0.098,0.196-0.316,0.139-0.454,0.25c0.096-0.15-0.236-0.696-0.519-0.334c0.119-0.214,0.054-0.419,0.08-0.559
		c-0.07,0.066-0.124,0.084-0.138-0.117c-0.147,0.342,0.079,0.217-0.112,0.52c-0.213-0.196-0.349-0.178-0.62,0.003l0.312-0.049
		c0.021,0.03,0.03,0.06,0.032,0.083c0.08-0.049,0.131-0.039,0.229,0.016c-0.047,0.053,0.021,0.545-0.152,0.481
		c0.574,0.002-0.115,0.704,0.239,0.696c0.04,0.084-0.101,0.288-0.23,0.218c0.015-0.368-0.396-0.03-0.524-0.194
		c-0.004,0.139,0.313-0.049,0.306,0.137c-0.095,0.15-0.315,0.141-0.447,0.161l0.003-0.092l-0.271,0.134
		c0.085,0.124,0.356-0.055,0.259,0.188c-0.089,0.015-0.188,0.258-0.272,0.181c-0.081-0.218-0.342-0.313-0.247-0.512
		c-0.095,0.152-0.422,0.616-0.066,0.605l-0.141,0.16c0.179-0.029,0.584-0.184,0.35,0.174l-0.044-0.039l-0.012,0.367l-0.198,0.008
		c0.061,0.043,0.084,0.121,0.012,0.203c-0.086-0.031-0.178,0.029-0.264-0.049c-0.185,0.26-0.054,0.33-0.013,0.414
		c-0.094,0.153-0.183,0.168-0.266-0.002c-0.181,0.168-0.414,0.525-0.637,0.562c-0.099,0.338,0.089-0.016,0.126,0.256
		c-0.572-0.09-0.819,0.729-1.098,1.188c0.437,0.155-0.049,0.146,0.209,0.469c-0.04-0.176-0.579,0.191-0.392-0.254l-0.138,0.253
		c-0.311,0.006,0.144-0.483-0.299-0.454c-0.185,0.262,0.071,0.723-0.287,0.921c-0.171-0.29-0.096,0.292-0.311,0.009
		c-0.041-0.131,0.05-0.193,0.095-0.293l-0.088,0.016c-0.499,0.5,0.168,0.385,0.114,0.807c-0.229,0.361-0.4,0.115-0.532,0.046
		c-0.089,0.016-0.182,0.216-0.186,0.354c0.008-0.322,0.449-0.262,0.533-0.047c-0.397-0.068-0.409,0.483-0.368,0.66
		c0.67-0.253,0.271-0.323,0.941-0.528c-0.042-0.131-0.304-0.315,0.011-0.506c-0.006,0.266,0.149,0.096,0.228,0.08
		c-0.186-0.061,0.085-0.235,0.088-0.365c0.177,0.017,0.211,0.422,0.482,0.193l-0.303-0.316c0.134-0.067,0.216,0.239,0.311-0.053
		c0.083,0.262,0.306,0.178,0.121,0.529c0.577-0.143,0.279-0.688,0.377-1.072c-0.001,0.047,0.042,0.085,0.042,0.131
		c-0.042-0.131,0.05-0.236,0.096-0.337c0.226-0.128,0.037,0.269,0.17,0.293l0.229-0.312c0.017,0.002,0.023,0.006,0.03,0.012
		c0.017-0.117,0.046-0.217,0.152-0.18c0.039,0.176,0.124,0.301,0.165,0.431l0.014-0.505c0.085,0.123,0.401-0.111,0.305,0.18
		l0.323-0.51l0.262,0.14c0.048-0.146,0.005-0.185-0.129-0.07c0.179-0.12,0.16-1.032,0.546-0.592
		c0.103-0.519,0.281-0.595,0.522-1.132c-0.062,0.51,0.581-0.183,0.389,0.258c0.27-0.133,0.058-0.374,0.153-0.572
		c0.223-0.08,0.391,0.168,0.339,0.404l0.055-0.281l0.043,0.039l0.01-0.275c0.268-0.088,0.26,0.143,0.442-0.022l-0.169-0.202
		l0.221-0.035c-0.132-0.025-0.083-0.17,0.012-0.32l0.043,0.039l0.095-0.198c-0.01,0.264,0.165-0.118,0.249,0.073
		c0.124-0.135,0.123-0.141,0.294-0.429l-0.174-0.065c0.151-0.432,0.216,0.15,0.447-0.111l-0.172-0.111
		c0.582-0.176,0.387-0.785,0.791-0.936c-0.097,0.195,0.12,0.301,0.078,0.262c0.144-0.296,0.514-0.668,0.532-1.08
		c0.305,0.092,0.391,0.125,0.708-0.057c0.144-0.202,0.145-0.248,0.064-0.418c0.24-0.113,0.394-0.568,0.567-0.442
		c-0.097-0.15,0.163-0.146,0.136-0.338l0.085,0.034l-0.17-0.113c0.621-0.04,0.257-0.718,0.835-0.799l-0.005,0.092l0.054-0.189
		c0.087,0.033,0.082,0.125,0.166,0.205l0.564-0.621l-0.224,0.029c0.097-0.148,0.021-0.365,0.247-0.441
		c0.02,0.451,0.188-0.207,0.402-0.099l-0.054,0.189c0.144-0.2,0.144-0.2-0.027-0.315c0.149-0.291,0.438,0.079,0.459-0.287
		l-0.142,0.155c-0.131-0.028-0.163-0.251-0.069-0.354c0.046-0.006,0.179-0.023,0.13,0.074c0.102-0.242,0.423-0.465,0.431-0.603
		c0.137-0.063,0.219,0.063,0.213,0.154c0.207-0.526,0.184-0.162,0.396-0.688l0.082,0.081l0.014-0.23l0.357-0.043l-0.175-0.024
		c0.098-0.147,0.106-0.284,0.29-0.399l0.077,0.174c0.249-0.441,0.591-0.256,0.713-0.771c0.045-0.004,0.039,0.087,0.035,0.133
		c0.077-0.508,0.446-0.055,0.48-0.604c0.026,0.058,0.112,0.067,0.138,0.112l0.045-0.225l0.167,0.16l-0.154-0.345l0.262,0.061
		l-0.033-0.132c0.477,0.125,0.419-0.322,0.862-0.328l-0.255-0.152c0.011-0.447,0.312-0.709,0.665-0.95
		c0.398-0.272,0.864-0.519,1.062-0.972l0.165,0.162l0.035-0.456c0.268-0.03,0.071,0.22,0.202,0.25
		c0.157-0.37-0.125-0.355,0.088-0.71c0.007-0.012,0.005-0.016,0.012-0.027c0.271-0.075,0.075,0.174,0.065,0.311
		c0.194-0.398,0.515-0.962,0.812-1.107c-0.019-0.025-0.037-0.066-0.058-0.063c0.108-0.285,0.437-0.501,0.635-0.747
		c0.074,0.075,0.036,0.145,0,0.219c0.086-0.076,0.243-0.145,0.227-0.289l0.071,0.221c0.19-0.156,0.361-0.627,0.573-0.512
		c-0.087-0.037-0.209-0.161-0.062-0.312c0.342,0.146,0.265-0.526,0.628-0.653c0.037,0.086-0.112,0.282-0.062,0.232
		c0.181-0.064,0.156-0.287,0.172-0.471l0.077,0.128l0.372-0.717c0.341,0.147,0.451-0.587,0.608-0.376
		c0.195-0.201-0.272,0.072-0.068-0.219c0.174,0.027,0.159-0.287,0.321-0.123l-0.005,0.046l0.151-0.196l0.064,0.266
		c0.105-0.191,0.04-0.457-0.082-0.58c0.229-0.067,0.341-0.35,0.556-0.281l-0.008,0.092c0.308-0.484,1.09-0.283,1.099-0.872
		c0.046-0.003,0.086,0.038,0.038,0.087l0.244-0.25l0.071,0.176l0.191-0.605l0.08,0.083c0.291-0.253,0.645-0.737,0.948-1.126
		l-0.008,0.092c0.228-0.518,0.43-0.309,0.6-0.686c0.013,0.031,0.013,0.049,0.008,0.064l0.234-0.266l0.031,0.134
		c-0.009-0.36,0.742-0.335,0.479-0.357c0.018-0.183,0.091-0.462,0.016-0.589c0.249-0.294,0.173,0.03,0.406-0.08
		c0.196-0.197,0.08-0.369,0.413-0.578l0.078,0.083l0.002,0.001c0.104-0.144,0.117-0.279,0.271-0.473l-0.01,0.091
		c0.038-0.188,0.145-0.245,0.246-0.286c0.145-0.06,0.279-0.088,0.185-0.426c0.183-0.061,0.346-0.344,0.506-0.176
		c0.229-0.47,0.438-0.805,0.708-1.23c0.334,0.199,0.055-0.095,0.419-0.168l-0.164-0.121c0.09-0.105,0.208-0.193,0.327-0.281
		c0.484-0.358,1.14-0.622,1.515-1.123l0.164,0.124l-0.059-0.267c0.156-0.131,0.321-0.275,0.489-0.424
		c0.52-0.459,1.059-0.966,1.403-1.33c0.07-0.232,0.119-0.642,0.41-0.842l-0.004,0.046c0.328-0.517,0.704-1.038,1.24-1.435
		c0.035,0.09,0.123,0.084,0.112,0.176c-0.016-0.074,0-0.127,0.029-0.17c0.665,0.465,1.343,0.951,1.829,1.46
		c0.392-0.062,0.67,0.173,0.988,0.366l-0.244,0.33l0.314,0.105c0.011,0.176-0.226-0.1-0.165,0.162l0.255-0.111
		c-0.079,0.125,0.521,0.596-0.058,0.473l0.885,0.791c0.188,0.184,0.341-0.152,0.491,0.116c-0.036,0.128-0.133-0.009-0.213,0.116
		c0.45,0.807,1.278,0.078,1.762,0.756l-0.087-0.006c0.175,0.012,0.362,0.195,0.403,0.154c0.195-0.378-0.257,0.07-0.281-0.275
		c0.246-0.246,0.354,0.064,0.518-0.144c0.06,0.22,0.273,0.146,0.412,0.239c0.067,0.35,0.474,0.502,0.453,0.846
		c0.177,0.01,0.518-0.144,0.75,0.042c-0.02,0.345-0.209,0.161-0.059,0.43l0.168-0.12c0.157,0.18,0.093,0.197,0.023,0.264
		c0.186,0.174,0.34-0.068,0.495,0.239l-0.263,0.03c0.229,0.098,0.278,0.186,0.514,0.416c-0.081,0.082-0.176-0.012-0.227-0.1
		c-0.062,0.342,0.315,0.104,0.367,0.191c0.036-0.084-0.108-0.264,0.105-0.34c0.099,0.135,0.441,0.023,0.372,0.278l-0.261,0.028
		c0.358,0.106,0.302-0.069,0.544,0.246c-0.025-0.002-0.051,0.042-0.085,0.068c0.354-0.032,0.444,0.354,0.705,0.607
		c0.13,0.006,0.259-0.027,0.3,0.023c-0.081-0.224,0-0.23,0.113-0.39c-0.012,0.433,0.568-0.015,0.778,0.427
		c-0.08,0.082-0.254,0.117-0.267-0.056c-0.34,0.157-0.544,0.364-0.854,0.304c0.18,0.053,0.362,0.148,0.236,0.229l0.248-0.205
		c0.084,0.062,0.133,0.129,0.191,0.18c0.164-0.122,0.058-0.384,0.324-0.327c0.271,0.099-0.104,0.339,0.021,0.259
		c0.362,0.146,0.339-0.157,0.54,0.155c-0.044-0.004-0.133-0.007-0.137-0.05c0.11,0.264,0.513,0.367,0.32,0.705
		c-0.085,0.04-0.165,0.122-0.218,0.034l0.041-0.042c-0.393,0.025,0.228,0.098-0.063,0.3c0.119-0.168,0.36,0.103,0.458,0.237
		l0.114-0.211c0.863-0.178-0.324,0.331,0.139,0.611c0.358,0.102-0.055-0.133,0.209-0.121c0.147,0.18,0.077,0.393,0.397,0.533
		c0.011,0.131,0.074,0.35-0.084,0.559c0.224,0.053,0.395,0.492,0.647,0.373c-0.121-0.393-0.441-0.018-0.529-0.54l0.252-0.12
		c0.205,0.193,0.563,0.33,0.65,0.526c0.003-0.063,0.032-0.124,0.086-0.15c0.367,0.188,0.621,0.067,0.867,0.38
		c-0.113,0.212-0.26,0.033-0.399-0.06c0.069,0.306,0.189,0.183,0.438,0.493c-0.116,0.17-0.191-0.18-0.355-0.057l0.371,0.23
		l-0.026,0.031c0.269-0.22,0.232,0.236,0.5,0.328c0.477,0.406,0.847,0.117,1.287,0.131c0.012,0.131-0.023,0.216-0.108,0.256
		c-0.02-0.215-0.076-0.106-0.175-0.072c0.185,0.109,0.138,0.555-0.041,0.584c0.32,0.141,0.023-0.216,0.249-0.165l0.337,0.313
		c0.071-0.169-0.028-0.303,0.239-0.251c0.184,0.093,0.236,0.181,0.43,0.358c-0.084,0.041-0.106,0.256-0.251,0.121
		c0.055,0.133,0.202,0.266,0.37,0.184c-0.119-0.305,0.457,0.187,0.467-0.159l0.118,0.306c-0.048-0.045-0.128,0.04-0.18-0.048
		c-0.107,0.256,0.229,0.093,0.321,0.138c0.045,0.104,0.231,0.289,0.183,0.383c0.116,0.001,0.249,0.188,0.195,0.318
		c0.137,0.047,0.118-0.127,0.203-0.168l0.338,0.312c-0.075,0.13-0.306,0.468-0.394,0.466c0.221,0.006,0.323-0.293,0.517-0.115
		c-0.297,0.122,0.129,0.389-0.256,0.512c-0.017,0.256,0.32,0.523,0.551,0.615c0.257-0.081-0.116-0.262,0.043-0.431
		c0.565,0.358,1.001-0.109,1.307,0.286l-0.057-0.131c0.317,0.092,0.272,0.092,0.533,0.053c-0.246,0.168-0.224,0.818,0.203,1.085
		c0.124-0.085-0.043-0.389,0.164-0.515l0.284,0.176c0.005,0.033-0.054,0.047-0.11,0.049c0.295,0.107,0.194,0.638,0.473,0.431
		l-0.03,0.517l0.021-0.215c0.057-0.039,0.15-0.02,0.242,0.01c0.104,0.034,0.206,0.082,0.253,0.082
		c0.363,0.092,0.381,0.266,0.411,0.525c0.028-0.13,0.083-0.432,0.318-0.299c-0.294,0.361,0.327,0.488,0.17,0.67
		c0.089,0.063,0.147,0.297,0.278,0.154l-0.195,0.214c0.103-0.112,0.209-0.132,0.316-0.122c0.178,0.015,0.357,0.133,0.532,0.215
		c-0.136,0.133-0.141,0.193-0.103,0.236c0.074,0.083,0.316,0.1,0.182,0.411c0.276-0.257,0.51,0.22,0.749,0.004
		c0.192,0.131-0.041,0.388-0.069,0.519l0.171-0.042c-0.018,0.21,0.308,0.503,0.438,0.757l0.394-0.109l-0.022,0.173
		c0.082-0.042,0.271,0.044,0.248-0.13l0.091,0.096c0.23-0.275,0.204,0.035,0.505,0.076c0.012,0.083-0.054,0.141-0.128,0.145
		c0.1,0.082-0.058,0.193-0.076,0.332c-0.016-0.13,0.767-0.219,0.59-0.562c0.071-0.131,0.299-0.088,0.359,0.041l-0.138,0.303
		l0.33-0.174c0.187,0.086,0.127,0.302,0.231,0.431c-0.143-0.086-0.672,0.263-0.33,0.521c-0.202-0.105-0.4-0.032-0.534-0.051
		c0.053,0.055,0.064,0.1-0.051,0.126c-0.021,0.005-0.036,0.01-0.064,0.013c0.034,0.014,0.047,0.012,0.072,0.019
		c0.219,0.058,0.167-0.087,0.424,0.067c-0.191,0.217-0.176,0.348-0.007,0.604l-0.042-0.301c0.03-0.021,0.058-0.032,0.081-0.035
		c-0.046-0.076-0.036-0.126,0.019-0.225c0.049,0.043,0.523-0.047,0.46,0.125c0.012-0.559,0.674,0.08,0.671-0.264
		c0.082-0.044,0.275,0.084,0.206,0.213c-0.354,0.004-0.036,0.389-0.195,0.521c0.133-0.004-0.041-0.304,0.136-0.305
		c0.143,0.085,0.129,0.301,0.147,0.429l-0.088,0.001l0.123,0.259c0.121-0.089-0.047-0.345,0.186-0.261
		c0.012,0.086,0.244,0.17,0.168,0.258c-0.066,0.027-0.12,0.072-0.17,0.117c-0.007,0.008-0.015,0.014-0.021,0.021
		c-0.099,0.093-0.183,0.179-0.304,0.126c0.084,0.05,0.266,0.168,0.403,0.193c0.101,0.018,0.179-0.012,0.177-0.156l0.151,0.129
		c-0.018-0.117-0.077-0.319-0.017-0.381c0.021-0.004,0.041-0.008,0.062-0.011c0.033,0.003,0.064,0.005,0.127,0.044l-0.038,0.043
		l0.353-0.004l0.004,0.191c0.042-0.061,0.117-0.087,0.195-0.021c-0.031,0.085,0.025,0.171-0.052,0.259
		c0.246,0.168,0.315,0.037,0.397-0.007c0.146,0.084,0.158,0.171-0.007,0.259c0.158,0.168,0.498,0.379,0.529,0.595
		c0.322,0.081-0.013-0.086,0.247-0.135c-0.068,0.404,0.316,0.622,0.699,0.806c0.15,0.072,0.3,0.139,0.422,0.209
		c0.156-0.434,0.139,0.038,0.451-0.227h0.001c-0.166,0.051,0.173,0.555-0.249,0.395l0.241,0.122c0.001,0.303-0.462-0.117-0.44,0.313
		c0.248,0.167,0.694-0.104,0.879,0.236c-0.281,0.18,0.278,0.078,0.003,0.302c-0.126,0.048-0.184-0.038-0.278-0.079l0.013,0.086
		c0.472,0.464,0.372-0.183,0.774-0.15c0.344,0.205,0.105,0.386,0.037,0.518c0.014,0.086,0.203,0.167,0.336,0.164
		c-0.309,0.008-0.244-0.426-0.037-0.518c-0.071,0.391,0.457,0.375,0.627,0.326c-0.232-0.641-0.306-0.249-0.493-0.893
		c-0.126,0.047-0.306,0.311-0.484,0.014c0.255-0.007,0.095-0.15,0.08-0.227c-0.061,0.186-0.224-0.07-0.348-0.068
		c0.019-0.172,0.407-0.227,0.192-0.479l-0.308,0.311c-0.062-0.129,0.232-0.223-0.046-0.301c0.066-0.025,0.109-0.058,0.144-0.09
		c0.096-0.09,0.12-0.174,0.365-0.055c-0.128-0.556-0.655-0.239-1.021-0.315c0.045-0.001,0.082-0.045,0.127-0.048
		c-0.127,0.048-0.228-0.036-0.322-0.076c-0.119-0.214,0.258-0.05,0.283-0.18l-0.295-0.21c0.003-0.016,0.006-0.022,0.011-0.03
		c-0.11-0.01-0.206-0.033-0.168-0.139c0.169-0.047,0.289-0.137,0.415-0.183l-0.483,0.011c0.118-0.089-0.102-0.386,0.176-0.306
		l-0.483-0.291l0.11-0.208l0.028-0.054c-0.094-0.026-0.118-0.001-0.105,0.048c0.006,0.023,0.002,0.041,0.036,0.082
		c-0.027-0.042-0.101-0.068-0.189-0.093c-0.272-0.073-0.692-0.112-0.368-0.411c-0.496-0.076-0.566-0.246-1.077-0.457
		c0.488,0.038-0.164-0.558,0.255-0.391c-0.124-0.257-0.357-0.038-0.546-0.122c-0.072-0.214,0.168-0.39,0.394-0.351l-0.27-0.039
		l0.039-0.044l-0.265,0.004c-0.078-0.258,0.142-0.261-0.013-0.431l-0.197,0.174l-0.029-0.213c-0.026,0.129-0.164,0.088-0.308,0.004
		l0.038-0.044l-0.188-0.083c0.253-0.004-0.11-0.156,0.075-0.246c-0.128-0.115-0.133-0.115-0.406-0.267l-0.065,0.173
		c-0.412-0.127,0.147-0.217-0.1-0.431l-0.108,0.173c-0.053-0.184-0.152-0.279-0.266-0.345c-0.232-0.133-0.525-0.123-0.618-0.384
		c0.186,0.086,0.292-0.131,0.253-0.087c-0.281-0.127-0.631-0.471-1.026-0.469c0.094-0.302,0.128-0.388-0.04-0.688
		c-0.192-0.13-0.236-0.129-0.401-0.042c-0.104-0.229-0.537-0.358-0.413-0.533c-0.146,0.101-0.136-0.152-0.321-0.117l0.034-0.084
		l-0.111,0.172c-0.027-0.604-0.685-0.219-0.751-0.777h0.089l-0.182-0.043c0.034-0.086,0.122-0.086,0.201-0.172l-0.587-0.52
		l0.023,0.216c-0.089-0.056-0.202-0.048-0.293-0.085c-0.053-0.021-0.101-0.055-0.125-0.135c0.107-0.01,0.148-0.025,0.153-0.047
		c0,0,0-0.001,0-0.002c0.008-0.064-0.321-0.18-0.24-0.339l0.181,0.044c-0.189-0.131-0.189-0.131-0.304,0.041
		c-0.276-0.133,0.085-0.432-0.266-0.434l0.146,0.131c-0.029,0.128-0.243,0.17-0.342,0.083c-0.004-0.044-0.019-0.173,0.074-0.13
		c-0.089-0.033-0.172-0.1-0.251-0.168c-0.126-0.109-0.238-0.224-0.318-0.225c-0.059-0.129,0.064-0.215,0.152-0.214
		c-0.502-0.177-0.151-0.173-0.653-0.353l0.079-0.084l-0.22-0.002l-0.035-0.347l-0.026,0.172c-0.141-0.089-0.271-0.091-0.378-0.265
		l0.168-0.083c-0.418-0.222-0.232-0.563-0.726-0.658c-0.004-0.044,0.084-0.042,0.128-0.04c-0.487-0.053-0.044-0.433-0.57-0.441
		c0.056-0.027,0.066-0.111,0.11-0.139l-0.216-0.033l0.158-0.17l-0.335,0.166l0.063-0.257l-0.127,0.039
		c0.129-0.47-0.302-0.394-0.299-0.825l-0.15,0.256c-0.917,0.021-0.997-1.27-1.813-1.594l0.16-0.166l-0.438-0.015
		c-0.022-0.259,0.212-0.079,0.245-0.208c-0.363-0.14-0.337,0.163-0.707-0.063c-0.066-0.261,0.168-0.081,0.3-0.077
		c-0.379-0.172-0.914-0.457-1.048-0.739c-0.025,0.02-0.064,0.04-0.062,0.06c-0.271-0.094-0.474-0.4-0.707-0.582
		c0.074-0.076,0.141-0.043,0.211-0.012c-0.071-0.079-0.134-0.229-0.273-0.205l0.214-0.08c-0.146-0.178-0.596-0.322-0.481-0.534
		c-0.037,0.086-0.158,0.21-0.3,0.075c0.147-0.339-0.501-0.232-0.616-0.581c0.083-0.04,0.27,0.097,0.223,0.051
		c-0.059-0.173-0.273-0.14-0.45-0.146l0.125-0.081l-0.683-0.327c0.148-0.34-0.556-0.412-0.35-0.575
		c-0.189-0.181,0.063,0.262-0.213,0.077c0.03-0.17-0.272-0.142-0.111-0.307l0.044,0.002l-0.187-0.137l0.258-0.076
		c-0.183-0.093-0.44-0.018-0.561,0.107c-0.06-0.219-0.33-0.316-0.26-0.527l0.089,0.004c-0.46-0.277-0.253-1.045-0.819-1.027
		c-0.002-0.045,0.038-0.085,0.085-0.04l-0.236-0.226l0.171-0.078l-0.579-0.157l0.08-0.082c-0.237-0.271-0.697-0.593-1.065-0.868
		l0.088,0.004c-0.495-0.195-0.29-0.402-0.649-0.55c0.029-0.015,0.047-0.015,0.061-0.011l-0.25-0.215l0.129-0.036
		c-0.348,0.024-0.31-0.706-0.336-0.448c-0.176-0.009-0.442-0.066-0.567,0.014c-0.278-0.229,0.032-0.17-0.069-0.391
		c-0.188-0.182-0.354-0.062-0.55-0.373l0.082-0.082c-0.137-0.095-0.268-0.102-0.451-0.24l0.088,0.004
		c-0.441-0.068-0.123-0.566-0.679-0.383c-0.056-0.176-0.326-0.32-0.161-0.483c-0.449-0.198-0.767-0.388-1.175-0.627
		c0.197-0.333-0.091-0.049-0.155-0.397l-0.12,0.164c-0.327-0.27-0.542-0.725-0.809-1.131c-0.147-0.224-0.306-0.437-0.516-0.586
		l0.121-0.166l-0.257,0.07c-0.359-0.414-0.803-0.891-1.195-1.286c-0.022-0.022-0.047-0.051-0.069-0.073
		c0.201-0.133,0.468-0.221,0.313-0.424l0.358-0.018c-0.077-0.087-0.227-0.305-0.111-0.49c0.229-0.057,0.341,0.118,0.469,0.157
		l-0.214-0.396c1.138-0.507,1.985-1.813,3.148-2.45c0.332-0.465,0.69-1.115,1.2-1.541l-0.013,0.092l0.547-0.384l-0.477,0.199
		c0.065-0.137,0.085-0.274,0.188-0.368c0.637-0.385,1.466-0.916,1.942-1.697c0.057-0.756,0.58,0.041,0.715-0.604
		c-0.001,0.066,0.036,0.128,0.041,0.192c0.304-0.536,0.471-0.823,0.688-1.448c0.297,0.395,0.267-0.281,0.41-0.061l-0.105-0.176
		c0.18-0.008,0.432-0.195,0.5-0.062l0.012-0.36l0.16,0.129c0.258-0.233,0.67-0.878,1.091-0.712c0.394-0.826,1.431-1.71,2.256-2.41
		c-0.008-0.226,0.207-0.457,0.371-0.642l0.358-0.01c0.128-0.229,0.104-0.634,0.38-0.685c0.02,0.021,0.026,0.042,0.024,0.063
		c0.147-0.213,0.411-0.29,0.425-0.616c0.209-0.187,0.493-0.283,0.591-0.061c-0.263-0.31,0.463-0.371,0.463-0.371
		c-0.017-0.025,11.002-9.211,12.087-13.18c-0.05-0.225,0.1-0.543-0.153-0.631c0.017-0.028,0.041-0.036,0.062-0.053
		c0.149-0.121,0.382-0.018,0.294-0.175c-0.341,0.137-0.275-0.45-0.689-0.403l0.124-0.183c-0.064-0.134-0.104,0.318-0.24,0.094
		l0.21,0.313c-0.02,0.01-0.034,0.009-0.053,0.016C178.052,104.298,177.938,104.308,177.822,104.263z M146.33,134.261
		c0.008-0.084,0.043-0.129,0.076-0.162C146.414,134.187,146.46,134.31,146.33,134.261z M148.592,135.76
		c0.029,0.009,0.057,0.001,0.086,0.003c0.001,0,0.001,0.001,0.002,0.002L148.592,135.76z M166.935,150.607
		c-0.011,0.014-0.021,0.031-0.033,0.061l-0.058-0.078C166.878,150.583,166.908,150.591,166.935,150.607z M166.431,150.097
		c-0.069-0.008-0.119-0.049-0.145-0.15C166.317,149.999,166.386,150.052,166.431,150.097z M165.622,149.039l0.113,0.121
		l-0.145-0.088L165.622,149.039z M164.912,149.008l0.012,0.021h-0.089L164.912,149.008z M162.612,146.664
		c-0.028,0.033-0.079,0.068-0.169,0.106C162.516,146.64,162.568,146.631,162.612,146.664z M160.738,144.935
		c0.007,0.002,0.011,0.006,0.017,0.006C160.664,144.949,160.575,144.931,160.738,144.935z M154.991,140.666
		c-0.04,0.014-0.086,0.017-0.142-0.022C154.909,140.629,154.953,140.644,154.991,140.666z M153.476,140.037l0.099,0.13l-0.269-0.054
		C153.399,140.117,153.443,140.077,153.476,140.037z"/>
	<path fill="#BD1622" d="M148.592,135.76l0.088,0.005c-0.001-0.001-0.001-0.002-0.002-0.002
		C148.649,135.761,148.622,135.769,148.592,135.76z"/>
	<path fill="#BD1622" d="M153.476,140.037c-0.033,0.04-0.077,0.08-0.17,0.076l0.269,0.054L153.476,140.037z"/>
	<path fill="#BD1622" d="M146.33,134.261c0.131,0.049,0.084-0.074,0.076-0.162C146.373,134.132,146.337,134.177,146.33,134.261z"/>
	<path fill="#BD1622" d="M154.991,140.666c-0.038-0.021-0.082-0.036-0.142-0.022C154.905,140.682,154.951,140.679,154.991,140.666z"
		/>
	<polygon fill="#BD1622" points="165.622,149.039 165.59,149.072 165.735,149.16 	"/>
	<path fill="#BD1622" d="M166.431,150.097c-0.045-0.045-0.114-0.099-0.145-0.15C166.312,150.048,166.362,150.089,166.431,150.097z"
		/>
	<path fill="#BD1622" d="M160.754,144.941c-0.006,0-0.01-0.004-0.017-0.006C160.575,144.931,160.664,144.949,160.754,144.941z"/>
	<polygon fill="#BD1622" points="164.912,149.008 164.834,149.029 164.923,149.029 	"/>
	<path fill="#BD1622" d="M166.935,150.607c-0.027-0.016-0.057-0.024-0.091-0.018l0.058,0.078
		C166.914,150.638,166.924,150.621,166.935,150.607z"/>
	<path fill="#BD1622" d="M162.443,146.77c0.09-0.038,0.141-0.073,0.169-0.106C162.568,146.631,162.516,146.64,162.443,146.77z"/>
</g>
</svg>
