<?xml version="1.0" encoding="utf-8"?>
<!-- Generator: Adobe Illustrator 15.1.0, SVG Export Plug-In . SVG Version: 6.00 Build 0)  -->
<!DOCTYPE svg PUBLIC "-//W3C//DTD SVG 1.1//EN" "http://www.w3.org/Graphics/SVG/1.1/DTD/svg11.dtd">
<svg version="1.1" id="Ebene_1" xmlns="http://www.w3.org/2000/svg" xmlns:xlink="http://www.w3.org/1999/xlink" x="0px" y="0px"
	 width="283.46px" height="283.46px" viewBox="0 0 283.46 283.46" enable-background="new 0 0 283.46 283.46" xml:space="preserve">
<g>
	<path fill="#FFFFFF" d="M141.729,89.401c-28.854,0-52.328,23.475-52.328,52.329s23.475,52.33,52.328,52.33
		c28.855,0,52.33-23.476,52.33-52.33S170.584,89.401,141.729,89.401z M172.006,136.995c2.734-1.484,5.377,3.872,2.645,5.357
		C171.917,143.837,169.273,138.481,172.006,136.995z M141.88,102.103c4.294,1.191,8.548,2.572,12.537,5.271
		c2.964,2.006,0.608,6.678-2.325,4.693c-0.75-0.508-1.525-0.956-2.313-1.358c-0.13,0.059-0.263,0.115-0.415,0.148
		c-1.232,0.28-2.787,1.34-4.449,0.941c-2.467-0.587-3.967-3.157-5.082-5.651C139.004,104.297,139.862,101.542,141.88,102.103z
		 M132.245,94.316c0.414-0.099,0.831-0.167,1.248-0.247c1.081,1.87,1.934,3.88,3.098,5.681c0.875,1.356,1.154,3.014,0.146,4.099
		c-0.833,0.896-2.653,0.905-3.53-0.454c-0.249-0.386-0.482-0.784-0.709-1.188c-0.528-0.103-1.063-0.407-1.538-1.038
		c-1.233-1.639-1.806-3.857-2.081-5.872C129.986,94.925,131.106,94.587,132.245,94.316z M129.079,103.192
		c3.241,5.718,8.4,7.96,13.016,11.634c1.607,1.281,3.003,2.661,4.211,4.188c0.226-0.558,0.539-1.091,0.926-1.627
		c0.643-0.894,2.105-0.804,3-0.069c0.986,0.809,1.89,1.836,2.369,3.129c0.229,0.615,0.407,1.171,0.547,1.8
		c0.041,0.185,0.08,0.375,0.135,0.559c0.559,1.438,0.276,3.012-0.869,3.636c-0.677,0.367-1.551,0.264-2.284-0.201
		c0.04,0.125,0.087,0.236,0.126,0.361c1.016,3.272-2.668,4.241-4.291,1.832c-0.85,0.869-2.198,0.972-3.258-0.564
		c-1.989-2.884-3.82-5.538-7.02-5.152c-1.139,0.138-2.152-0.537-2.831-1.736c-2.853-5.057-5.438-10.268-8.015-15.485
		C123.118,102.006,127.206,99.886,129.079,103.192z M151.711,140.955c0.744,0.991,0.89,2.673,0.246,3.547
		c-1.669,2.263-3.254,1.475-5.64,1.717c-1.888,0.192-2.987-1.849-2.882-3.57c-0.656,0.263-1.458,0.096-2.24-0.77
		c-2.627-2.905-4.783-5.075-5.465-9.25c-0.487-2.981,2.578-4.021,4.301-1.745c0.85,1.122,1.699,2.244,2.549,3.366
		c0.071-0.063,0.131-0.136,0.213-0.189c0.803-0.542,1.871-0.698,2.857-0.149C147.969,135.198,150.045,138.738,151.711,140.955z
		 M131.309,128.087c-2.734,1.485-5.378-3.872-2.645-5.356C131.399,121.246,134.042,126.601,131.309,128.087z M119.549,115.687
		c0.164-1.953,1.326-2.89,3.061-2.351c1.976,0.615,3.459,2.349,4.919,4.021c1.042,1.195,1.036,3.141,0.146,4.101
		c-0.525,0.565-1.229,0.72-1.928,0.555c-0.01,0.01-0.016,0.024-0.024,0.033c-0.926,0.996-2.525,0.781-3.53-0.453
		c-0.07-0.092-0.145-0.177-0.221-0.261c-0.108-0.097-0.218-0.19-0.322-0.292c-0.611-0.589-0.918-0.934-1.383-1.67
		C119.583,118.284,119.45,116.866,119.549,115.687z M111.184,139.141c-2.875,1.169-5.127-4.373-2.252-5.543
		C111.809,132.431,114.06,137.973,111.184,139.141z M126.247,146.25c-0.976,0.463-2.213,0.749-3.021,1.52
		c-1.521,1.458-4.287,0.011-4.334-2.635c-0.19-10.407-8.891-15.37-12.491-24.565c-0.474-1.21-0.288-2.701,0.38-3.533
		c-1.484-0.643-2.962-1.293-4.407-2.012c2.155-2.886,4.545-5.541,7.203-7.979c1.702,2.383,3.329,4.833,4.7,7.46
		c0.031,0.061,0.047,0.118,0.076,0.179c2.297,1.912,1.156,6.436-1.694,5.025c1.276,1.5,2.308,3.249,3.445,5.194
		c0.118-0.313,0.251-0.629,0.401-0.948c0.928-1.974,3.211-1.238,4.33,0.58c1.695,2.756,3.1,5.638,4.319,8.649
		c0.562-0.457,1.212-0.794,1.97-0.953c4.771-1.007,6.446,5.324,6.746,9.614c0.099,1.438-1.118,2.915-2.426,2.535
		c-1.297-0.379-2.715-0.913-4.153-1.58c0.015,0.127,0.009,0.243,0.029,0.372C127.516,144.445,127.286,145.755,126.247,146.25z
		 M140.92,172.555c-4.243-1.628-8.432-3.436-12.248-6.509c-2.837-2.286-0.094-6.626,2.714-4.364c0.718,0.579,1.466,1.102,2.229,1.58
		c0.137-0.042,0.273-0.084,0.431-0.102c1.267-0.143,2.919-1.017,4.565-0.452c2.445,0.84,3.76,3.523,4.691,6.09
		C143.995,170.706,142.915,173.319,140.92,172.555z M149.207,182.241c-1.202-2.201-1.935-4.628-3.128-6.812
		c-0.779-1.425-0.932-3.082,0.172-4.04c0.911-0.793,2.749-0.608,3.529,0.819c0.223,0.407,0.425,0.823,0.621,1.243
		c0.527,0.154,1.044,0.512,1.474,1.183c1.235,1.923,1.603,4.46,1.677,6.612C153.633,183.635,150.419,184.46,149.207,182.241z
		 M153.929,172.845c-2.825-5.962-7.859-8.712-12.233-12.81c-1.523-1.429-2.824-2.934-3.925-4.562
		c-0.271,0.523-0.63,1.017-1.062,1.501c-0.719,0.81-2.188,0.565-3.035-0.252c-0.934-0.899-1.765-2.003-2.148-3.322
		c-0.182-0.629-0.32-1.194-0.411-1.827c-0.027-0.187-0.052-0.377-0.093-0.562c-0.451-1.472-0.044-2.989,1.16-3.479
		c0.712-0.289,1.588-0.096,2.291,0.438c-0.031-0.125-0.07-0.242-0.1-0.368c-0.77-3.321,3.025-3.883,4.478-1.344
		c0.925-0.762,2.294-0.721,3.244,0.9c1.783,3.045,3.426,5.846,6.685,5.806c1.162-0.012,2.133,0.757,2.724,2.009
		c2.487,5.269,4.69,10.66,6.886,16.06C159.856,174.641,155.563,176.292,153.929,172.845z M156.599,159.095
		c-0.958-1.284-0.802-3.195,0.173-4.042c0.576-0.499,1.297-0.576,1.99-0.341c0.01-0.009,0.017-0.021,0.027-0.028
		c1.012-0.882,2.61-0.501,3.529,0.819c0.063,0.096,0.133,0.188,0.202,0.279c0.101,0.105,0.206,0.21,0.304,0.32
		c0.57,0.643,0.854,1.016,1.264,1.787c0.607,1.14,0.63,2.547,0.438,3.693c-0.318,1.902-1.564,2.698-3.273,1.982
		C159.305,162.754,157.944,160.893,156.599,159.095z M164.065,185.002c-2.877,1.167-5.128-4.374-2.252-5.544
		C164.688,178.292,166.94,183.833,164.065,185.002z M169.221,181.792c-1.516-1.456-2.939-3.39-4.139-4.757
		c-0.809-0.921-1.083-2.605-0.52-3.556c1.463-2.46,3.082-1.834,5.405-2.332c1.841-0.394,3.079,1.55,3.11,3.301
		c0.623-0.336,1.424-0.253,2.26,0.538c0.077,0.073,0.149,0.142,0.227,0.214C173.647,177.604,171.524,179.829,169.221,181.792z
		 M176.063,174.568c-2.289-3.624-4.584-7.287-6.305-11.263c-0.027-0.062-0.039-0.12-0.062-0.183
		c-2.17-2.124-0.666-6.442,2.103-4.756c-1.172-1.609-2.077-3.436-3.073-5.467c-0.145,0.294-0.304,0.59-0.479,0.887
		c-1.092,1.84-3.339,0.875-4.328-1.031c-1.497-2.884-2.688-5.865-3.687-8.951c-0.603,0.389-1.285,0.648-2.062,0.726
		c-4.896,0.481-6.094-5.911-6.062-10.158c0.011-1.425,1.354-2.745,2.646-2.233c1.279,0.51,2.67,1.183,4.069,1.991
		c-0.004-0.123,0.01-0.238,0-0.366c-0.099-1.271,0.236-2.535,1.324-2.909c1.02-0.351,2.293-0.499,3.168-1.172
		c1.65-1.27,4.33,0.444,4.172,3.05c-0.619,10.242,7.778,16.04,10.696,25.454c0.384,1.236,0.081,2.684-0.658,3.431
		c1.628,0.886,3.246,1.779,4.812,2.765C180.625,167.934,178.519,171.393,176.063,174.568z"/>
	<path fill="#A3BC4B" d="M141.729,83.401c-32.162,0-58.328,26.166-58.328,58.329s26.166,58.33,58.328,58.33
		c32.164,0,58.33-26.167,58.33-58.33S173.893,83.401,141.729,83.401z M141.729,194.06c-28.854,0-52.328-23.476-52.328-52.33
		s23.475-52.329,52.328-52.329c28.855,0,52.33,23.475,52.33,52.329S170.584,194.06,141.729,194.06z"/>
	<path fill="#BE4F3C" d="M151.503,154.974c-0.591-1.252-1.562-2.021-2.724-2.009c-3.259,0.04-4.901-2.761-6.685-5.806
		c-0.95-1.621-2.319-1.662-3.244-0.9c-1.452-2.539-5.247-1.978-4.478,1.344c0.029,0.126,0.068,0.243,0.1,0.368
		c-0.703-0.534-1.579-0.728-2.291-0.438c-1.204,0.489-1.611,2.007-1.16,3.479c0.041,0.186,0.065,0.376,0.093,0.562
		c0.091,0.633,0.229,1.198,0.411,1.827c0.384,1.319,1.215,2.423,2.148,3.322c0.847,0.817,2.316,1.062,3.035,0.252
		c0.432-0.484,0.79-0.978,1.062-1.501c1.101,1.628,2.401,3.133,3.925,4.562c4.374,4.098,9.408,6.848,12.233,12.81
		c1.634,3.446,5.927,1.796,4.46-1.812C156.194,165.634,153.991,160.243,151.503,154.974z"/>
	<path fill="#BE4F3C" d="M145.651,133.911c-0.986-0.549-2.055-0.393-2.857,0.149c-0.082,0.054-0.142,0.126-0.213,0.189
		c-0.85-1.122-1.699-2.244-2.549-3.366c-1.723-2.276-4.788-1.236-4.301,1.745c0.682,4.175,2.838,6.345,5.465,9.25
		c0.782,0.865,1.584,1.032,2.24,0.77c-0.105,1.722,0.994,3.763,2.882,3.57c2.386-0.242,3.971,0.546,5.64-1.717
		c0.644-0.874,0.498-2.556-0.246-3.547C150.045,138.738,147.969,135.198,145.651,133.911z"/>
	<path fill="#993017" d="M164.526,161.583c0.192-1.146,0.17-2.554-0.438-3.693c-0.41-0.771-0.693-1.145-1.264-1.787
		c-0.098-0.11-0.203-0.215-0.304-0.32c-0.069-0.091-0.139-0.184-0.202-0.279c-0.919-1.32-2.518-1.701-3.529-0.819
		c-0.011,0.007-0.018,0.02-0.027,0.028c-0.693-0.235-1.414-0.158-1.99,0.341c-0.975,0.847-1.131,2.758-0.173,4.042
		c1.345,1.798,2.706,3.659,4.653,4.471C162.961,164.282,164.208,163.486,164.526,161.583z"/>
	<path fill="#993017" d="M150.401,173.451c-0.196-0.42-0.398-0.836-0.621-1.243c-0.78-1.428-2.618-1.612-3.529-0.819
		c-1.104,0.958-0.951,2.615-0.172,4.04c1.193,2.185,1.926,4.611,3.128,6.812c1.213,2.22,4.427,1.395,4.345-0.995
		c-0.074-2.152-0.441-4.689-1.677-6.612C151.445,173.962,150.928,173.605,150.401,173.451z"/>
	<path fill="#993017" d="M138.612,162.708c-1.646-0.564-3.299,0.31-4.565,0.452c-0.157,0.018-0.294,0.06-0.431,0.102
		c-0.764-0.479-1.512-1.001-2.229-1.58c-2.808-2.262-5.551,2.078-2.714,4.364c3.816,3.073,8.005,4.881,12.248,6.509
		c1.994,0.764,3.074-1.85,2.383-3.757C142.372,166.232,141.057,163.548,138.612,162.708z"/>
	<path fill="#BE4F3C" d="M177.525,161.617c0.739-0.747,1.042-2.194,0.658-3.431c-2.918-9.414-11.315-15.212-10.696-25.454
		c0.158-2.605-2.521-4.319-4.172-3.05c-0.875,0.673-2.148,0.821-3.168,1.172c-1.088,0.374-1.423,1.639-1.324,2.909
		c0.01,0.128-0.004,0.243,0,0.366c-1.399-0.809-2.79-1.481-4.069-1.991c-1.292-0.512-2.636,0.809-2.646,2.233
		c-0.032,4.247,1.165,10.64,6.062,10.158c0.777-0.077,1.46-0.337,2.062-0.726c0.998,3.086,2.189,6.067,3.687,8.951
		c0.989,1.906,3.236,2.871,4.328,1.031c0.176-0.297,0.335-0.593,0.479-0.887c0.996,2.031,1.901,3.857,3.073,5.467
		c-2.769-1.687-4.272,2.632-2.103,4.756c0.023,0.062,0.035,0.12,0.062,0.183c1.721,3.976,4.016,7.639,6.305,11.263
		c2.456-3.175,4.562-6.634,6.273-10.187C180.771,163.396,179.153,162.502,177.525,161.617z"/>
	<path fill="#BE4F3C" d="M161.813,179.458c-2.876,1.17-0.625,6.711,2.252,5.544C166.94,183.833,164.688,178.292,161.813,179.458z"/>
	<path fill="#993017" d="M108.932,133.598c-2.875,1.17-0.623,6.712,2.252,5.543C114.06,137.973,111.809,132.431,108.932,133.598z"/>
	<path fill="#993017" d="M132.855,120.98c0.679,1.199,1.692,1.874,2.831,1.736c3.199-0.386,5.03,2.269,7.02,5.152
		c1.06,1.536,2.408,1.434,3.258,0.564c1.623,2.409,5.307,1.44,4.291-1.832c-0.039-0.125-0.086-0.236-0.126-0.361
		c0.733,0.465,1.607,0.568,2.284,0.201c1.146-0.624,1.428-2.198,0.869-3.636c-0.055-0.184-0.094-0.374-0.135-0.559
		c-0.14-0.629-0.318-1.185-0.547-1.8c-0.479-1.293-1.383-2.32-2.369-3.129c-0.895-0.734-2.357-0.824-3,0.069
		c-0.387,0.536-0.7,1.069-0.926,1.627c-1.208-1.527-2.604-2.907-4.211-4.188c-4.615-3.674-9.774-5.916-13.016-11.634
		c-1.873-3.306-5.961-1.186-4.238,2.303C127.417,110.712,130.002,115.923,132.855,120.98z"/>
	<path fill="#993017" d="M173.079,174.449c-0.031-1.751-1.27-3.694-3.11-3.301c-2.323,0.498-3.942-0.128-5.405,2.332
		c-0.563,0.95-0.289,2.635,0.52,3.556c1.199,1.367,2.623,3.301,4.139,4.757c2.303-1.964,4.426-4.188,6.344-6.592
		c-0.077-0.072-0.149-0.141-0.227-0.214C174.502,174.196,173.702,174.113,173.079,174.449z"/>
	<path fill="#BE4F3C" d="M121.649,121.041c0.104,0.102,0.214,0.195,0.322,0.292c0.076,0.084,0.15,0.169,0.221,0.261
		c1.005,1.234,2.604,1.449,3.53,0.453c0.009-0.009,0.015-0.023,0.024-0.033c0.699,0.165,1.402,0.011,1.928-0.555
		c0.891-0.96,0.896-2.905-0.146-4.101c-1.46-1.673-2.943-3.406-4.919-4.021c-1.734-0.539-2.896,0.397-3.061,2.351
		c-0.1,1.179,0.033,2.597,0.717,3.684C120.731,120.107,121.038,120.452,121.649,121.041z"/>
	<path fill="#BE4F3C" d="M132.497,102.207c0.227,0.403,0.46,0.802,0.709,1.188c0.877,1.359,2.697,1.35,3.53,0.454
		c1.009-1.085,0.729-2.742-0.146-4.099c-1.164-1.801-2.017-3.811-3.098-5.681c-0.417,0.08-0.834,0.148-1.248,0.247
		c-1.139,0.271-2.259,0.609-3.367,0.98c0.275,2.015,0.848,4.233,2.081,5.872C131.433,101.799,131.968,102.104,132.497,102.207z"/>
	<path fill="#993017" d="M144.915,111.799c1.662,0.398,3.217-0.661,4.449-0.941c0.152-0.033,0.285-0.09,0.415-0.148
		c0.788,0.402,1.563,0.851,2.313,1.358c2.934,1.984,5.289-2.688,2.325-4.693c-3.989-2.699-8.243-4.08-12.537-5.271
		c-2.019-0.562-2.876,2.194-2.048,4.045C140.948,108.642,142.448,111.212,144.915,111.799z"/>
	<path fill="#993017" d="M127.291,142.8c1.438,0.667,2.856,1.201,4.153,1.58c1.308,0.38,2.524-1.097,2.426-2.535
		c-0.3-4.29-1.975-10.621-6.746-9.614c-0.758,0.159-1.408,0.496-1.97,0.953c-1.22-3.012-2.624-5.894-4.319-8.649
		c-1.119-1.818-3.402-2.554-4.33-0.58c-0.15,0.319-0.283,0.635-0.401,0.948c-1.138-1.945-2.169-3.694-3.445-5.194
		c2.851,1.41,3.991-3.113,1.694-5.025c-0.029-0.061-0.045-0.118-0.076-0.179c-1.371-2.627-2.998-5.077-4.7-7.46
		c-2.658,2.438-5.048,5.094-7.203,7.979c1.445,0.719,2.923,1.369,4.407,2.012c-0.668,0.832-0.854,2.323-0.38,3.533
		c3.601,9.195,12.301,14.158,12.491,24.565c0.047,2.646,2.812,4.093,4.334,2.635c0.809-0.771,2.046-1.057,3.021-1.52
		c1.039-0.494,1.27-1.805,1.073-3.077C127.299,143.043,127.305,142.927,127.291,142.8z"/>
	<path fill="#993017" d="M128.665,122.731c-2.733,1.484-0.09,6.842,2.645,5.356C134.042,126.601,131.399,121.246,128.665,122.731z"
		/>
	<path fill="#993017" d="M174.651,142.352c2.732-1.485,0.09-6.842-2.645-5.357C169.273,138.481,171.917,143.837,174.651,142.352z"/>
</g>
</svg>
