<?xml version="1.0" encoding="utf-8"?>
<!-- Generator: Adobe Illustrator 15.1.0, SVG Export Plug-In . SVG Version: 6.00 Build 0)  -->
<!DOCTYPE svg PUBLIC "-//W3C//DTD SVG 1.1//EN" "http://www.w3.org/Graphics/SVG/1.1/DTD/svg11.dtd">
<svg version="1.1" id="Ebene_1" xmlns="http://www.w3.org/2000/svg" xmlns:xlink="http://www.w3.org/1999/xlink" x="0px" y="0px"
	 width="283.46px" height="283.46px" viewBox="0 0 283.46 283.46" enable-background="new 0 0 283.46 283.46" xml:space="preserve">
<g>
	<path fill="#FFFFFF" d="M141.729,89.402c-28.854,0-52.328,23.475-52.328,52.329c0,28.854,23.474,52.328,52.328,52.328
		s52.33-23.475,52.33-52.328C194.059,112.876,170.583,89.402,141.729,89.402z M126.444,103.238l7.869,0.085l-0.156,7.58
		l-7.871-0.025L126.444,103.238z M134.143,116.924l0.102,7.595l-7.871,0.053l-0.102-7.634L134.143,116.924z M133.879,144.25
		l0.297,7.619l-7.869,0.098l-0.297-7.617L133.879,144.25z M125.918,179.216l-0.049-7.604l7.871-0.037l0.049,7.648L125.918,179.216z
		 M126.75,165.62l-0.225-7.61l7.871-0.087l0.225,7.634L126.75,165.62z M126.778,138.207l-0.252-7.625l7.869-0.075l0.254,7.605
		L126.778,138.207z M167.772,172.643c0,3.521-2.854,6.375-6.375,6.375s-6.375-2.854-6.375-6.375v-58.527
		c0-3.52,2.854-6.375,6.375-6.375s6.375,2.855,6.375,6.375V172.643z"/>
	<path fill="#A3BC4B" d="M141.729,83.402c-32.162,0-58.328,26.166-58.328,58.329c0,32.162,26.166,58.328,58.328,58.328
		c32.163,0,58.33-26.166,58.33-58.328C200.059,109.568,173.892,83.402,141.729,83.402z M141.729,194.059
		c-28.854,0-52.328-23.475-52.328-52.328c0-28.854,23.474-52.329,52.328-52.329s52.33,23.475,52.33,52.329
		C194.059,170.584,170.583,194.059,141.729,194.059z"/>
	<path fill="#EBADCE" d="M161.397,107.741c-3.521,0-6.375,2.855-6.375,6.375v58.527c0,3.521,2.854,6.375,6.375,6.375
		s6.375-2.854,6.375-6.375v-58.527C167.772,110.596,164.918,107.741,161.397,107.741z"/>
	<polygon fill="#EBADCE" points="134.176,151.87 133.879,144.25 126.01,144.35 126.307,151.967 	"/>
	<polygon fill="#EBADCE" points="126.526,158.009 126.75,165.62 134.622,165.556 134.397,157.922 	"/>
	<polygon fill="#EBADCE" points="125.87,171.612 125.918,179.216 133.79,179.223 133.741,171.575 	"/>
	<polygon fill="#EBADCE" points="134.313,103.323 126.444,103.238 126.286,110.877 134.157,110.903 	"/>
	<polygon fill="#EBADCE" points="134.245,124.519 134.143,116.924 126.272,116.938 126.374,124.572 	"/>
	<polygon fill="#EBADCE" points="126.526,130.582 126.778,138.207 134.649,138.112 134.395,130.506 	"/>
</g>
</svg>
