<?xml version="1.0" encoding="utf-8"?>
<!-- Generator: Adobe Illustrator 15.1.0, SVG Export Plug-In . SVG Version: 6.00 Build 0)  -->
<!DOCTYPE svg PUBLIC "-//W3C//DTD SVG 1.1//EN" "http://www.w3.org/Graphics/SVG/1.1/DTD/svg11.dtd">
<svg version="1.1" id="Ebene_1" xmlns="http://www.w3.org/2000/svg" xmlns:xlink="http://www.w3.org/1999/xlink" x="0px" y="0px"
	 width="283.46px" height="283.46px" viewBox="0 0 283.46 283.46" enable-background="new 0 0 283.46 283.46" xml:space="preserve">
<g>
	<path fill="#FFFFFF" d="M141.729,89.401c-28.854,0-52.329,23.475-52.329,52.328c0,28.854,23.475,52.33,52.329,52.33
		c28.856,0,52.331-23.476,52.331-52.33C194.06,112.875,170.585,89.401,141.729,89.401z M146.607,170.993
		c0,3.521-2.854,6.375-6.375,6.375c-3.52,0-6.375-2.854-6.375-6.375v-58.526c0-3.521,2.855-6.375,6.375-6.375
		c3.522,0,6.375,2.854,6.375,6.375V170.993z"/>
	<path fill="#A3BC4B" d="M141.729,83.401c-32.162,0-58.329,26.166-58.329,58.328c0,32.163,26.167,58.33,58.329,58.33
		c32.165,0,58.331-26.167,58.331-58.33C200.06,109.567,173.894,83.401,141.729,83.401z M141.729,194.059
		c-28.854,0-52.329-23.476-52.329-52.33c0-28.854,23.475-52.328,52.329-52.328c28.856,0,52.331,23.475,52.331,52.328
		C194.06,170.583,170.585,194.059,141.729,194.059z"/>
	<path fill="#DB6CA6" d="M140.231,106.091c-3.52,0-6.375,2.854-6.375,6.375v58.526c0,3.521,2.855,6.375,6.375,6.375
		c3.522,0,6.375-2.854,6.375-6.375v-58.526C146.607,108.946,143.753,106.091,140.231,106.091z"/>
</g>
</svg>
