<?xml version="1.0" encoding="utf-8"?>
<!-- Generator: Adobe Illustrator 15.1.0, SVG Export Plug-In . SVG Version: 6.00 Build 0)  -->
<!DOCTYPE svg PUBLIC "-//W3C//DTD SVG 1.1//EN" "http://www.w3.org/Graphics/SVG/1.1/DTD/svg11.dtd">
<svg version="1.1" id="Ebene_1" xmlns="http://www.w3.org/2000/svg" xmlns:xlink="http://www.w3.org/1999/xlink" x="0px" y="0px"
	 width="283.46px" height="283.46px" viewBox="0 0 283.46 283.46" enable-background="new 0 0 283.46 283.46" xml:space="preserve">
<g>
	<path fill="#FFFFFF" d="M152.084,158.705c-1.73,0.702-3.431,1.435-5.08,2.146c-2.514,1.083-5.107,2.2-7.851,3.229
		c1.531,3.747,3.693,8.404,5.636,12.141c1.306-0.613,2.664-1.215,3.982-1.798c2.884-1.275,5.86-2.592,8.349-4.069
		C155.475,166.942,153.824,163.123,152.084,158.705z"/>
	<path fill="#FFFFFF" d="M141.729,89.401c-28.854,0-52.328,23.475-52.328,52.329s23.475,52.33,52.328,52.33
		c28.854,0,52.33-23.476,52.33-52.33S170.583,89.401,141.729,89.401z M132.071,91.408c0.146-0.098,0.205,0.002,0.26,0.111
		c0.268,5.865,0.832,13.262-0.771,18.611C130.624,104.028,131.323,97.298,132.071,91.408z M124.239,110.677
		c-2.35-2.773-5.262-6.314-7.414-9.969c3.791,3.239,7.012,7.801,10.271,12.276C125.78,113.059,125.04,111.621,124.239,110.677z
		 M126.508,108.265c-1.922-3.618-3.727-9.492-4.215-12.75c-0.072-0.186-0.148-0.371-0.221-0.557
		c1.959,2.527,4.984,11.201,6.254,15.168C127.413,110.14,126.893,108.988,126.508,108.265z M131.063,142.416
		c0.51-0.705,1.307-1.285,2.566-1.668c0.471-1.08,0.203-2.479,1.529-3.191c-1.955-6.797-3.84-13.564-5.729-20.332
		c0.92-0.683,2.223-1.199,3.385-1.777c4.195,5.4,7.961,11.799,12.084,17.368c1.182,0.116,2.316,0.341,3.23,1.083
		c1.24-0.495,2.574-1.207,3.381-0.701c2.186,2.021-0.852,3.014-2.754,3.896c-4.695,2.178-12.486,6.148-16.619,7.479
		C131.577,144.167,130.987,143.279,131.063,142.416z M144.35,177.535l-0.224-0.426c-2.095-3.986-4.486-9.142-6.094-13.133
		l-0.192-0.478l0.483-0.178c2.898-1.068,5.637-2.248,8.285-3.389c1.803-0.777,3.667-1.581,5.57-2.344l0.469-0.188l0.184,0.469
		c1.867,4.772,3.63,8.847,5.388,12.456l0.199,0.407l-0.387,0.237c-2.621,1.608-5.79,3.011-8.855,4.366
		c-1.459,0.646-2.968,1.312-4.393,1.991L144.35,177.535z M170.756,180.448c-4.932,2.764-12.051,5.239-17.734,7.923
		c-4.195,0.324-5.734-5.521-7.859-10.006c5.08-2.178,10.133-4.366,13.979-7.074c-1.668-4.582-3.463-10.196-6.33-14.277
		c-4.76,1.498-10.125,4.059-14.795,6.107c-3.828-6.521-2.131-11.73,1.064-15.714c-0.227-1.263-1.328-1.999-1.186-2.974
		c2.152-0.444,7.697-4.662,9.742-4.74c1.775-0.068,1.236,1.352,2.373,2.715c3.236,0.195,7.301,1.064,9.803,4.065
		c2.697,3.237,4.773,9.616,7.109,14.612c1.105,2.36,2.391,4.75,3.592,7.398C172.985,173.921,175.288,177.908,170.756,180.448z"/>
	<path fill="#A3BC4B" d="M141.729,83.401c-32.162,0-58.328,26.166-58.328,58.329s26.166,58.33,58.328,58.33
		c32.163,0,58.33-26.167,58.33-58.33S173.892,83.401,141.729,83.401z M141.729,194.06c-28.854,0-52.328-23.476-52.328-52.33
		s23.475-52.329,52.328-52.329c28.854,0,52.33,23.475,52.33,52.329S170.583,194.06,141.729,194.06z"/>
	<path fill="#97D1E8" d="M122.293,95.515c0.488,3.258,2.293,9.132,4.215,12.75c0.385,0.723,0.904,1.875,1.818,1.861
		c-1.27-3.967-4.295-12.641-6.254-15.168C122.145,95.144,122.221,95.33,122.293,95.515z"/>
	<path fill="#97D1E8" d="M132.331,91.519c-0.055-0.109-0.113-0.209-0.26-0.111c-0.748,5.891-1.447,12.62-0.512,18.723
		C133.163,104.781,132.598,97.384,132.331,91.519z"/>
	<path fill="#97D1E8" d="M116.825,100.708c2.152,3.654,5.064,7.195,7.414,9.969c0.801,0.943,1.541,2.382,2.857,2.308
		C123.836,108.509,120.616,103.948,116.825,100.708z"/>
	<path fill="#97D1E8" d="M151.51,133.197c-0.807-0.506-2.141,0.206-3.381,0.701c-0.914-0.742-2.049-0.967-3.23-1.083
		c-4.123-5.569-7.889-11.968-12.084-17.368c-1.162,0.578-2.465,1.095-3.385,1.777c1.889,6.768,3.773,13.535,5.729,20.332
		c-1.326,0.712-1.059,2.111-1.529,3.191c-1.26,0.383-2.057,0.963-2.566,1.668c-0.076,0.863,0.514,1.751,1.074,2.156
		c4.133-1.33,11.924-5.301,16.619-7.479C150.659,136.21,153.696,135.218,151.51,133.197z"/>
	<path fill="#6394A3" d="M166.922,161.085c-2.336-4.996-4.412-11.375-7.109-14.612c-2.502-3.001-6.566-3.87-9.803-4.065
		c-1.137-1.363-0.598-2.783-2.373-2.715c-2.045,0.078-7.59,4.296-9.742,4.74c-0.143,0.975,0.959,1.711,1.186,2.974
		c-3.195,3.983-4.893,9.193-1.064,15.714c4.67-2.049,10.035-4.609,14.795-6.107c2.867,4.081,4.662,9.695,6.33,14.277
		c-3.846,2.708-8.898,4.896-13.979,7.074c2.125,4.484,3.664,10.33,7.859,10.006c5.684-2.684,12.803-5.159,17.734-7.923
		c4.531-2.54,2.229-6.526-0.242-11.964C169.313,165.835,168.028,163.446,166.922,161.085z"/>
	<path fill="#6394A3" d="M158.032,170.97l0.387-0.237l-0.199-0.407c-1.758-3.609-3.521-7.684-5.388-12.456l-0.184-0.469
		l-0.469,0.188c-1.903,0.763-3.768,1.566-5.57,2.344c-2.648,1.141-5.387,2.32-8.285,3.389l-0.483,0.178l0.192,0.478
		c1.607,3.991,3.999,9.146,6.094,13.133l0.224,0.426l0.434-0.207c1.425-0.679,2.934-1.346,4.393-1.991
		C152.242,173.981,155.411,172.579,158.032,170.97z M144.79,176.219c-1.942-3.736-4.104-8.394-5.636-12.141
		c2.743-1.028,5.337-2.146,7.851-3.229c1.649-0.711,3.35-1.443,5.08-2.146c1.739,4.418,3.391,8.237,5.036,11.647
		c-2.488,1.478-5.465,2.794-8.349,4.069C147.454,175.004,146.095,175.606,144.79,176.219z"/>
</g>
</svg>
