<?xml version="1.0" encoding="utf-8"?>
<!-- Generator: Adobe Illustrator 15.1.0, SVG Export Plug-In . SVG Version: 6.00 Build 0)  -->
<!DOCTYPE svg PUBLIC "-//W3C//DTD SVG 1.1//EN" "http://www.w3.org/Graphics/SVG/1.1/DTD/svg11.dtd">
<svg version="1.1" id="Ebene_1" xmlns="http://www.w3.org/2000/svg" xmlns:xlink="http://www.w3.org/1999/xlink" x="0px" y="0px"
	 width="283.46px" height="283.46px" viewBox="0 0 283.46 283.46" enable-background="new 0 0 283.46 283.46" xml:space="preserve">
<g>
	<path fill="#FFFFFF" d="M141.731,89.401c-28.854,0-52.329,23.475-52.329,52.329s23.475,52.33,52.329,52.33
		c28.854,0,52.328-23.476,52.328-52.33S170.584,89.401,141.731,89.401z M184.721,125.445c-0.939-0.381-2.189-2.457-2.863-3.394
		c-0.996-1.384-1.809-2.797-2.705-3.711c-2.367,1.823-4.887,3.571-7.303,5.372c0.846,1.121,1.656,2.283,2.664,3.592
		c0.797,1.031,2.408,2.326,2.469,3.791c0.039,0.947-1.438,2.182-2.248,2.344c-1.496,0.299-2.605-1.137-3.646-1.412
		c-10.406,7.356-20.17,15.032-30.475,22.439c-1.34-0.289-2.115-1.713-3.293-2.324c-1.709,1.163-3.373,2.347-4.857,3.621
		c-0.781,0.248-1.023-0.592-1.742-0.469c-0.678,0.4-1.625,1.715-2.332,0.92c-0.582,0.666-1.59,1.121-2.172,1.789
		c-0.678,0.039-1.051-0.535-1.664-0.627c-12.316,9.119-20.027,15.191-21.266,14.731c3.68-3.181,16.805-12.431,20.748-15.482
		c0.139-0.491-0.287-1.261-0.205-1.78c0.773-0.473,1.293-1.072,2.133-1.512c-0.287-0.998,1.232-1.43,1.891-2.225
		c-0.18-0.584-0.484-1.229-0.441-1.699c1.889-1.173,3.359-2.552,5.211-3.741c-0.537-1.126-1.432-2.678-1.32-3.914
		c10.033-7.411,20.02-14.843,30.002-22.278c-0.625-1.594-0.936-3.031-0.609-4.154c0.9-0.838,1.953-2.16,3.279-1.635
		c1.596,0.633,3.99,5.771,5.488,6.867c2.711-1.654,4.889-3.571,7.461-5.293c-0.871-1.215-1.59-2.308-2.547-3.633
		c-0.773-1.072-2.242-2.212-2.428-3.672c-0.094-0.728,0.512-1.973,1.932-2.105c1.23-0.113,2.916,2.491,3.734,3.629
		c2.381,3.309,4.24,6.027,6.525,9.158c1.238,1.697,2.873,3.097,3.223,4.461C187.667,124.279,186.352,126.107,184.721,125.445z"/>
	<path fill="#FFFFFF" d="M133.563,142.578c1.014,2.604,2.393,4.473,3.824,6.24c-0.484-1.568-1.34-2.712-1.598-3.953
		c-0.629-3.003,3.047-4.498,4.051-6.784C137.676,139.544,135.682,141.091,133.563,142.578z"/>
	<path fill="#A3BC4B" d="M141.731,83.401c-32.163,0-58.329,26.166-58.329,58.329s26.166,58.33,58.329,58.33
		c32.162,0,58.328-26.167,58.328-58.33S173.893,83.401,141.731,83.401z M141.731,194.06c-28.854,0-52.329-23.476-52.329-52.33
		s23.475-52.329,52.329-52.329c28.854,0,52.328,23.475,52.328,52.329S170.584,194.06,141.731,194.06z"/>
	<path fill="#6394A3" d="M187.364,123.099c-0.35-1.364-1.984-2.764-3.223-4.461c-2.285-3.131-4.145-5.85-6.525-9.158
		c-0.818-1.138-2.504-3.742-3.734-3.629c-1.42,0.133-2.025,1.378-1.932,2.105c0.186,1.46,1.654,2.6,2.428,3.672
		c0.957,1.325,1.676,2.418,2.547,3.633c-2.572,1.722-4.75,3.639-7.461,5.293c-1.498-1.097-3.893-6.234-5.488-6.867
		c-1.326-0.525-2.379,0.797-3.279,1.635c-0.326,1.123-0.016,2.561,0.609,4.154c-9.982,7.436-19.969,14.867-30.002,22.278
		c-0.111,1.236,0.783,2.788,1.32,3.914c-1.852,1.189-3.322,2.568-5.211,3.741c-0.043,0.471,0.262,1.115,0.441,1.699
		c-0.658,0.795-2.178,1.227-1.891,2.225c-0.84,0.439-1.359,1.039-2.133,1.512c-0.082,0.52,0.344,1.289,0.205,1.78
		c-3.943,3.052-17.068,12.302-20.748,15.482c1.238,0.46,8.949-5.612,21.266-14.731c0.613,0.092,0.986,0.666,1.664,0.627
		c0.582-0.668,1.59-1.123,2.172-1.789c0.707,0.795,1.654-0.52,2.332-0.92c0.719-0.123,0.961,0.717,1.742,0.469
		c1.484-1.274,3.148-2.458,4.857-3.621c1.178,0.611,1.953,2.035,3.293,2.324c10.305-7.407,20.068-15.083,30.475-22.439
		c1.041,0.275,2.15,1.711,3.646,1.412c0.811-0.162,2.287-1.396,2.248-2.344c-0.061-1.465-1.672-2.76-2.469-3.791
		c-1.008-1.309-1.818-2.471-2.664-3.592c2.416-1.801,4.936-3.549,7.303-5.372c0.896,0.914,1.709,2.327,2.705,3.711
		c0.674,0.937,1.924,3.013,2.863,3.394C186.352,126.107,187.667,124.279,187.364,123.099z M135.79,144.865
		c0.258,1.241,1.113,2.385,1.598,3.953c-1.432-1.768-2.811-3.636-3.824-6.24c2.119-1.486,4.113-3.033,6.277-4.497
		C138.836,140.367,135.161,141.862,135.79,144.865z M162.868,135.462c-0.658,0.474-1.816,1.458-2.369,1.592
		c-0.797,0.193-2.619-0.555-3.564-0.778c-3.631-0.858-7.197-1.569-10.539-2.653c1.576-1.095,3.031-2.25,4.697-3.303
		c0.75,0.4,1.502,1.154,2.186,2.17c0.586,0.87,1.027,2.773,2.029,2.486c1.373-0.396-0.02-2.363-0.527-3.126
		c-0.828-1.245-1.377-1.897-2.107-2.724c0.969-0.738,2.045-1.422,2.961-2.188c0.861,0.405,1.332,1.174,2.105,2.327
		c0.518,0.772,1.119,2.513,2.066,2.209c1.912-0.612-1.916-5.165-2.514-5.493c1.795-1.678,4.158-3.076,6.236-4.614
		c2.111,2.984,4.268,5.877,6.328,8.962C167.508,131.923,165.321,133.696,162.868,135.462z"/>
	<path fill="#97D1E8" d="M157.292,125.982c0.598,0.328,4.426,4.881,2.514,5.493c-0.947,0.304-1.549-1.437-2.066-2.209
		c-0.773-1.153-1.244-1.922-2.105-2.327c-0.916,0.766-1.992,1.449-2.961,2.188c0.73,0.826,1.279,1.479,2.107,2.724
		c0.508,0.763,1.9,2.729,0.527,3.126c-1.002,0.287-1.443-1.616-2.029-2.486c-0.684-1.016-1.436-1.77-2.186-2.17
		c-1.666,1.053-3.121,2.208-4.697,3.303c3.342,1.084,6.908,1.795,10.539,2.653c0.945,0.224,2.768,0.972,3.564,0.778
		c0.553-0.134,1.711-1.118,2.369-1.592c2.453-1.767,4.641-3.539,6.988-5.133c-2.061-3.085-4.217-5.978-6.328-8.962
		C161.45,122.906,159.086,124.304,157.292,125.982z"/>
</g>
</svg>
