<?xml version="1.0" encoding="utf-8"?>
<!-- Generator: Adobe Illustrator 15.1.0, SVG Export Plug-In . SVG Version: 6.00 Build 0)  -->
<!DOCTYPE svg PUBLIC "-//W3C//DTD SVG 1.1//EN" "http://www.w3.org/Graphics/SVG/1.1/DTD/svg11.dtd">
<svg version="1.1" id="Ebene_1" xmlns="http://www.w3.org/2000/svg" xmlns:xlink="http://www.w3.org/1999/xlink" x="0px" y="0px"
	 width="283.46px" height="283.46px" viewBox="0 0 283.46 283.46" enable-background="new 0 0 283.46 283.46" xml:space="preserve">
<g>
	<path fill="#718027" d="M179.733,177.468c-0.756-1.948-1.345-4.68-2.056-7.254c-0.646-2.338-1.066-5.206-2.055-7.253
		c-1.028-2.124-4.933-5.216-7.329-7.576c-15.146-14.912-30.06-29.596-45.05-44.354c-3.605-3.549-6.455-7.151-11.149-8.272
		c-0.485,0.004-0.969,0.008-1.454,0.012c-4.52,0.899-7.183,3.628-8.298,7.879c0.006,0.727,0.011,1.453,0.017,2.18
		c0.843,3.887,3.986,6.449,6.612,9.035c16.854,16.594,33.704,33.184,50.91,50.125c1.362,1.341,2.723,3.224,3.846,3.786
		c1.984,0.995,4.793,1.16,7.102,1.762c2.461,0.644,4.787,1.276,6.921,1.945c0.666-0.005,2.703,1.226,3.369,1.22
		C181.114,180.036,179.738,178.134,179.733,177.468z M113.757,106.379c2.652,1.683,5.196,4.395,7.868,7.026
		c14.142,13.924,27.945,27.874,42.123,41.833c2.313,2.278,5.971,5.002,6.963,7.216c0.857,1.915,0.9,4.202-1.237,4.553
		c-2.313,0.379-6.234-4.696-7.863-6.299c-16.973-16.712-34.048-33.203-50.904-49.398
		C111.717,109.661,112.972,108.251,113.757,106.379z M157.286,165.285c-14.955-14.724-29.849-29.389-44.501-43.813
		c-2.434-2.396-5.442-4.52-6.966-7.76c1.336-0.188,2.357-0.685,3.261-1.298c-0.059-0.369,0.524,0.033,0.547,0.178
		c17.318,17.03,36.442,35.158,54.018,52.462c1.091,1.074,3.204,2.829,3.302,3.973c0.1,1.164-0.522,2.307-1.434,2.556
		C162.635,172.367,158.99,166.963,157.286,165.285z M172.991,175.158c-2.591-0.728-5.342-1.29-7.831-2.119
		c2.439-0.183,3.337-1.886,3.236-4.569c3.428,0.431,3.976-1.975,4.509-4.396c0.89,2.697,1.457,5.725,2.428,8.34
		C174.723,173.498,173.993,174.46,172.991,175.158z"/>
	<path fill="#DBE4B4" d="M169.474,167.007c2.138-0.351,2.095-2.638,1.237-4.553c-0.992-2.214-4.649-4.938-6.963-7.216
		c-14.178-13.959-27.981-27.909-42.123-41.833c-2.672-2.632-5.216-5.344-7.868-7.026c-0.785,1.872-2.04,3.281-3.051,4.931
		c16.856,16.195,33.932,32.687,50.904,49.398C163.24,162.311,167.161,167.386,169.474,167.007z"/>
	<path fill="#DBE4B4" d="M166.946,169.026c-0.098-1.144-2.211-2.898-3.302-3.973c-17.575-17.304-36.699-35.432-54.018-52.462
		c-0.022-0.145-0.605-0.547-0.547-0.178c-0.903,0.613-1.925,1.11-3.261,1.298c1.523,3.24,4.532,5.364,6.966,7.76
		c14.652,14.425,29.546,29.09,44.501,43.813c1.704,1.679,5.35,7.082,8.227,6.297C166.423,171.333,167.045,170.19,166.946,169.026z"
		/>
	<path fill="#F6B7A6" d="M168.396,168.469c0.101,2.684-0.797,4.387-3.236,4.569c2.489,0.829,5.24,1.392,7.831,2.119
		c1.002-0.697,1.732-1.66,2.342-2.745c-0.971-2.615-1.538-5.643-2.428-8.34C172.372,166.495,171.824,168.9,168.396,168.469z"/>
</g>
</svg>
