<?xml version="1.0" encoding="utf-8"?>
<!-- Generator: Adobe Illustrator 15.1.0, SVG Export Plug-In . SVG Version: 6.00 Build 0)  -->
<!DOCTYPE svg PUBLIC "-//W3C//DTD SVG 1.1//EN" "http://www.w3.org/Graphics/SVG/1.1/DTD/svg11.dtd">
<svg version="1.1" id="Ebene_1" xmlns="http://www.w3.org/2000/svg" xmlns:xlink="http://www.w3.org/1999/xlink" x="0px" y="0px"
	 width="283.46px" height="283.46px" viewBox="0 0 283.46 283.46" enable-background="new 0 0 283.46 283.46" xml:space="preserve">
<g>
	<path fill="#FFFFFF" d="M181.074,110.098c-5.201-5.599-11.379-9.744-18.67-12.502l16.05-15.363l-19.555,6.462l5.318-7.83
		l-7.322,3.096l3.437-8.659l-9.856,6.689l2.132-4.724L133.52,92.083c-2.891,2.244-6.519,3.838-10.359,5.525
		c-1.24,0.545-2.494,1.096-3.745,1.679l-5.894,3.127c-0.652,0.406-1.296,0.833-1.93,1.285
		c-15.188,10.84-24.167,28.079-24.635,47.298c-0.367,15.205,4.73,29.351,14.352,39.831c9.542,10.393,22.875,16.525,37.547,17.268
		c0.858,0.044,1.706,0.064,2.543,0.064c0.001,0,0,0,0.001,0c14.097,0,26.938-5.806,38.162-17.256
		c10.271-10.48,15.932-23.073,16.822-37.429C197.439,136.508,192.431,122.319,181.074,110.098z M189.808,153.274
		c-0.91,14.633-7.299,25.621-15.121,33.602c-8.301,8.469-20.277,16.195-36.119,15.398c-26.855-1.359-46.887-22.543-46.201-50.961
		c0.479-19.675,10.311-34.129,22.121-42.559c6.66-4.756,15.496-6.619,22.121-11.761c-0.639,1.415-2.047,2.06-3.082,3.081
		c5.391-1.984,9.049-5.699,13.442-8.681c-1.484,3.74-5.29,5.163-7.842,7.839c3.215-1.08,5.106-3.482,8.122-4.758
		c-1.621,2.387-4.449,3.574-6.44,5.6c4.815-0.975,9.373-2.203,13.722-3.641c-2.193,2.1-5.687,2.9-9.239,3.641
		c13.366,1.455,23.376,6.289,30.798,14.278C184.392,123.288,190.917,135.427,189.808,153.274z"/>
	<path fill="#FFFFFF" d="M148.394,102.426c6.104,1.196,11.833,3.153,16.919,5.945C160.449,105.292,154.759,103.068,148.394,102.426z
		"/>
	<path fill="#FFFFFF" d="M133.248,126.954c-1.123-0.29-1.439,0.144-2.242,0.278c-0.438,0.075-1.502,0.193-2.236,0.56
		c-3.516,1.758-12.234,9.312-11.199,15.683c0.449,2.761,3.299,5.845,6.719,5.878c3.514,0.035,8.494-5.089,10.361-9.237
		C136.09,136.906,137.264,127.985,133.248,126.954z M134.93,137.035c-0.328,2.471-1.186,4.41-3.924,4.479
		c-0.414-0.33-0.789-0.701-1.117-1.121c-0.088-2.768,2.209-5.596,4.762-3.92C134.602,136.796,134.713,136.972,134.93,137.035z"/>
	<path fill="#F4E2D9" d="M165.313,108.372c-5.086-2.792-10.815-4.749-16.919-5.945c-1.998-0.201-4.062-0.247-6.187-0.115
		c-7.217,0.453-12.682,2.472-17.918,5.04c-14.908,7.314-25.734,20.233-27.721,40.321c-2.734,27.697,15.514,48.447,39.199,50.68
		c27.599,2.604,45.812-18.275,50.119-39.76c2.906-14.479-1.256-27.82-6.719-36.4C175.977,117.182,171.261,112.137,165.313,108.372z
		 M142.207,112.113c4.012,1.31,5.485,5.158,9.242,6.72C147.739,120.611,141.586,116.493,142.207,112.113z M129.611,113.512
		c0.689-0.037,1.348-0.043,1.676,0.278c-0.043,0.327,0.062,0.503,0.281,0.562c-0.975,4.399-6.971,6.586-11.482,5.599
		C122.508,117.053,127.195,116.418,129.611,113.512z M115.051,150.471c-1.227-1.984-1.641-5.131-1.682-6.997
		c2.65,3.323,3.98,7.966,8.398,9.519C119.584,155.028,116.27,152.459,115.051,150.471z M133.809,152.993
		c-2.961-5.977,7.037-6.826,7.279-1.398C137.566,149.356,136.34,150.778,133.809,152.993z M139.408,164.473
		c0.25,0.123,0.502,0.242,0.562,0.559c1.061,2.758,1.949,5.326,3.641,7.561c1.617,2.143,4.451,3.215,5.035,5.602
		C142.997,176.374,139.748,170.674,139.408,164.473z M149.765,184.913c-4.651-3.797,5.598-9.352,6.164-3.078
		C153.388,182.372,151.492,183.559,149.765,184.913z M148.928,152.153c0.944-1.428,2.661-0.463,3.923-0.84
		c3.006-0.9,4.518-3.922,5.879-6.438c0.275,0,0.557,0,0.84,0C159.583,150.461,154.048,155.286,148.928,152.153z M156.207,186.594
		c0.943-1.488,2.592-2.266,3.08-4.199c0.328-0.049,0.5,0.059,0.561,0.277C159.71,184.909,158.626,187.559,156.207,186.594z
		 M157.609,144.033c-2.857,2.011-5.371,6.419-10.64,5.88c-4.693-0.482-7.737-5.103-9.801-9.239
		c-3.391,4.543-6.43,11.261-13.16,10.921c-7.871-0.398-6.451-9.702-13.158-11.761c1.807-1.486,3.973,1.16,5.318,1.959
		c1.236-6.398,7.074-16.045,13.998-17.079c3.309-0.496,4.85,1.087,6.164,3.362c1.004-2.746,2.982-4.806,6.999-4.481
		c7.917,0.639,13.706,10.435,12.878,19.317c1.771-0.193,3.672-2.672,7.004-2.238C161.595,142.146,159.642,142.599,157.609,144.033z"
		/>
	<path fill="#FFFFFF" d="M141.088,126.954c-3.326,0.963-3.518,8.661-1.961,12.321c-0.188-6.818,6.637-0.15,3.364,2.518
		c-0.284,0-0.336,0.229-0.563,0.281c-1.334,0.572-1.842-1.115-2.24-0.561c1.908,2.838,3.149,5.778,6.161,6.44
		c3.87,0.852,8.479-1.088,9.241-4.479C156.91,135.343,147.866,124.985,141.088,126.954z"/>
	<path fill="#96AA41" d="M145.292,100.075c3.553-0.74,7.046-1.541,9.239-3.641c-4.35,1.438-8.907,2.666-13.722,3.641
		c1.991-2.025,4.819-3.213,6.44-5.6c-3.016,1.275-4.906,3.678-8.122,4.758c2.553-2.676,6.358-4.099,7.842-7.839
		c-4.393,2.981-8.051,6.696-13.442,8.681c1.035-1.021,2.443-1.666,3.082-3.081c-6.625,5.142-15.461,7.005-22.121,11.761
		c-11.811,8.43-21.643,22.884-22.121,42.559c-0.686,28.418,19.346,49.602,46.201,50.961c15.841,0.797,27.818-6.93,36.119-15.398
		c7.822-7.98,14.211-18.969,15.121-33.602c1.109-17.847-5.416-29.986-13.719-38.921C168.667,106.364,158.658,101.53,145.292,100.075
		z M185.886,158.592c-4.307,21.484-22.52,42.363-50.119,39.76c-23.686-2.232-41.934-22.982-39.199-50.68
		c1.986-20.088,12.812-33.007,27.721-40.321c5.236-2.568,10.701-4.587,17.918-5.04c2.125-0.132,4.189-0.086,6.187,0.115
		c6.365,0.642,12.055,2.866,16.919,5.945c5.948,3.766,10.664,8.811,13.854,13.82C184.63,130.772,188.792,144.113,185.886,158.592z"
		/>
	<path fill="#96AA41" d="M151.449,118.833c-3.757-1.562-5.229-5.41-9.242-6.72C141.586,116.493,147.739,120.611,151.449,118.833z"/>
	<path fill="#96AA41" d="M131.568,114.353c-0.219-0.06-0.324-0.235-0.281-0.562c-0.328-0.321-0.986-0.315-1.676-0.278
		c-2.416,2.906-7.104,3.541-9.525,6.439C124.598,120.939,130.594,118.752,131.568,114.353z"/>
	<path fill="#96AA41" d="M129.889,140.392c0.328,0.42,0.703,0.791,1.117,1.121c2.738-0.068,3.596-2.008,3.924-4.479
		c-0.217-0.062-0.328-0.238-0.279-0.562C132.098,134.796,129.801,137.625,129.889,140.392z"/>
	<path fill="#96AA41" d="M113.369,143.474c0.041,1.866,0.455,5.013,1.682,6.997c1.219,1.988,4.533,4.557,6.717,2.521
		C117.35,151.44,116.02,146.797,113.369,143.474z"/>
	<path fill="#96AA41" d="M159.57,144.875c-0.283,0-0.564,0-0.84,0c-1.361,2.517-2.873,5.538-5.879,6.438
		c-1.262,0.377-2.979-0.588-3.923,0.84C154.048,155.286,159.583,150.461,159.57,144.875z"/>
	<path fill="#96AA41" d="M133.809,152.993c2.531-2.215,3.758-3.637,7.279-1.398C140.846,146.167,130.848,147.016,133.809,152.993z"
		/>
	<path fill="#96AA41" d="M143.612,172.592c-1.692-2.234-2.581-4.803-3.641-7.561c-0.061-0.316-0.312-0.436-0.562-0.559
		c0.34,6.201,3.588,11.9,9.239,13.721C148.063,175.807,145.229,174.735,143.612,172.592z"/>
	<path fill="#96AA41" d="M149.765,184.913c1.727-1.354,3.623-2.541,6.164-3.078C155.363,175.561,145.114,181.116,149.765,184.913z"
		/>
	<path fill="#96AA41" d="M159.287,182.395c-0.488,1.934-2.137,2.711-3.08,4.199c2.42,0.965,3.504-1.686,3.641-3.922
		C159.787,182.454,159.615,182.346,159.287,182.395z"/>
	<path fill="#96AA41" d="M156.207,142.912c0.828-8.883-4.961-18.679-12.878-19.317c-4.016-0.324-5.995,1.735-6.999,4.481
		c-1.314-2.275-2.855-3.858-6.164-3.362c-6.924,1.034-12.762,10.681-13.998,17.079c-1.346-0.799-3.512-3.445-5.318-1.959
		c6.707,2.059,5.287,11.362,13.158,11.761c6.73,0.34,9.77-6.378,13.16-10.921c2.064,4.137,5.108,8.757,9.801,9.239
		c5.269,0.539,7.782-3.869,10.64-5.88c2.033-1.434,3.986-1.887,5.602-3.359C159.878,140.24,157.978,142.718,156.207,142.912z
		 M134.65,140.115c-1.867,4.148-6.848,9.272-10.361,9.237c-3.42-0.033-6.27-3.117-6.719-5.878
		c-1.035-6.371,7.684-13.925,11.199-15.683c0.734-0.366,1.799-0.484,2.236-0.56c0.803-0.135,1.119-0.568,2.242-0.278
		C137.264,127.985,136.09,136.906,134.65,140.115z M155.089,143.474c-0.762,3.392-5.371,5.331-9.241,4.479
		c-3.012-0.662-4.252-3.603-6.161-6.44c0.398-0.555,0.906,1.133,2.24,0.561c0.227-0.053,0.279-0.281,0.563-0.281
		c3.273-2.668-3.551-9.336-3.364-2.518c-1.557-3.66-1.365-11.358,1.961-12.321C147.866,124.985,156.91,135.343,155.089,143.474z"/>
</g>
</svg>
