<?xml version="1.0" encoding="utf-8"?>
<!-- Generator: Adobe Illustrator 15.1.0, SVG Export Plug-In . SVG Version: 6.00 Build 0)  -->
<!DOCTYPE svg PUBLIC "-//W3C//DTD SVG 1.1//EN" "http://www.w3.org/Graphics/SVG/1.1/DTD/svg11.dtd">
<svg version="1.1" id="Ebene_1" xmlns="http://www.w3.org/2000/svg" xmlns:xlink="http://www.w3.org/1999/xlink" x="0px" y="0px"
	 width="283.46px" height="283.46px" viewBox="0 0 283.46 283.46" enable-background="new 0 0 283.46 283.46" xml:space="preserve">
<g>
	<path fill="#FFFFFF" d="M182.486,112.482c-5.43-6.022-12.445-10.737-20.475-13.864l16.061-15.369l-18.534,6.057l5.97-8.102
		l-8.708,3.673l3.396-8.58l-9.612,6.52l2.13-4.713L133.596,92.95c-2.795,2.171-6.357,3.739-10.13,5.4
		c-1.2,0.529-2.413,1.062-3.624,1.626l-5.548,2.912c-0.756,0.46-1.502,0.947-2.232,1.469
		c-14.949,10.671-23.786,27.637-24.244,46.549c-0.737,30.526,21.222,54.685,51.08,56.194c0.854,0.044,1.695,0.064,2.529,0.064
		c0.002,0,0.003,0,0.004,0c13.863,0,26.493-5.715,37.541-16.985c10.107-10.318,15.677-22.711,16.553-36.833
		C196.528,137.187,192.019,123.056,182.486,112.482z M188.966,153.099c-0.71,11.411-4.753,20.491-10.28,27.727
		c-4.03,6.419-9.547,11.485-16.472,14.634c-6.599,3.809-14.429,6.236-23.584,5.773c-25.732-1.302-46.072-21.639-45.385-50.058
		c0.467-19.312,10.133-33.53,21.73-41.808c6.527-4.66,15.283-6.55,21.73-11.556c-0.629,1.393-2.012,2.025-3.027,3.028
		c5.295-1.948,8.885-5.601,13.204-8.528c-1.455,3.68-5.198,5.074-7.7,7.703c3.151-1.062,5.01-3.424,7.977-4.677
		c-1.711,2.326-4.34,3.729-6.604,5.502c4.922-0.855,9.401-2.154,13.752-3.578c-2.154,2.066-5.584,2.852-9.078,3.578
		C170.949,104.001,190.875,122.35,188.966,153.099z"/>
	<path fill="#F4E2D9" d="M162.214,195.459c6.925-3.148,12.441-8.215,16.472-14.634c-1.437,1.88-2.967,3.642-4.571,5.279
		C170.724,189.563,166.758,192.835,162.214,195.459z"/>
	<path fill="#009EE2" d="M163.658,179.505c3.686-0.728,3.484-6.447,1.377-8.803C164.583,173.484,162.644,176.164,163.658,179.505z"
		/>
	<path fill="#009EE2" d="M134.229,150.351c-2.842-1.835-6.188-3.167-11.004-3.026C122.628,153.239,131.587,153.913,134.229,150.351z
		"/>
	<path fill="#009EE2" d="M149.634,153.374c1.881,2.852,7.225,1.979,8.801-0.549C155.654,152.092,151.91,152.694,149.634,153.374z"/>
	<path fill="#F4E2D9" d="M142.206,103.042c-7.035,0.438-12.762,2.514-18.156,5.226c-14.488,7.285-26.127,21.176-26.955,41.807
		c-0.59,14.872,4.709,25.942,12.105,33.83c2.35,2.505,4.924,4.782,7.793,6.725c0.277,0.188,0.565,0.362,0.848,0.544
		c6.189,3.969,13.717,6.395,23.266,6.208c12.762-0.246,23.79-6.23,31.354-14.302c7.484-7.978,13.182-17.857,13.756-32.179
		c0.604-15.149-4.818-25.502-12.102-33.833C167.58,109.599,155.82,102.192,142.206,103.042z M148.808,114.042
		c0.234-0.788,0.898-2.016,2.475-1.651c1.912,5.134,2.721,11.056,6.328,14.579C153.824,126.015,147.281,119.182,148.808,114.042z
		 M134.778,118.717c1.82-2.32,2.062-5.427,4.678-7.152c1.826,0.299,2.303,1.841,1.65,3.853c-1.598,4.918-11.221,8.246-15.957,9.901
		C127.78,122.229,132.335,121.833,134.778,118.717z M132.306,185.279c0.117-0.946-0.113-1.541-0.277-2.2
		c-1.967-0.252-3.678,1.003-4.951,0.549c0.684-1.145,2.152-1.511,3.852-1.648c-0.355-1.022-1.861-0.887-1.926-2.2
		C132.101,179.19,135.669,183.79,132.306,185.279z M140.556,185.279c-1.305-1.313-1.055-3.297-1.65-4.95
		c-1.273-3.513-3.895-7.647-9.074-7.151c-4.205,0.403-5.938,3.75-8.803,6.052c1.713-11.634,18.68-11.353,20.352,0.55
		C141.665,181.81,141.464,183.874,140.556,185.279z M143.855,160.251c-1.5-1.524-2.452-3.477-4.95-3.302
		c-1.787,0.124-2.301,1.885-3.854,1.651C133.579,151.724,147.429,153.84,143.855,160.251z M160.634,158.601c0.186,0,0.365,0,0.551,0
		c2.416,2.903,4.215,13.274-0.551,14.303C152.808,174.591,156.667,160.651,160.634,158.601z M165.035,182.805
		c-7.021,0.374-2.639-12.287,0.277-14.029C169.474,170.983,170.609,182.507,165.035,182.805z M163.935,141.272
		c0.439,3.659-0.229,8.316-1.926,10.727c0.656,1.64,2.939,1.646,2.75,4.127c-1.4-0.617-2.275-1.759-3.574-2.477
		c-2.846,1.349-4.32,4.073-7.703,4.126c-5.898,0.096-10.303-6.734-11.553-12.103c-2.258,2.821-6.344,8.151-11,9.076
		c-5.449,1.086-8.922-1.607-9.629-6.6c-0.617-0.956-1.547,0.919-2.199,0c2.906-1.953,1.594-8.125,3.025-11.551
		c-2.334,0.232-4.863,1.731-7.426,0.823c2.062-1.912,4.826-2.194,7.15-3.3c7.061-3.363,13.668-7.877,18.154-14.303
		c0.277,0,0.551,0,0.826,0c0.74,2.255-1.041,4.244-2.201,5.5c2.174,2.228,4.012,4.792,4.676,8.527
		c1.264-2.772,2.654-5.416,4.953-7.152c-0.621-1.442-1.924-3.515-1.1-5.5c3.771,4.25,5.734,9.749,9.898,13.476
		c3.613,3.236,8.338,4.416,12.104,7.703C167.285,143.059,165.5,141.764,163.935,141.272z"/>
	<path fill="#FFFFFF" d="M148.808,128.07c-4.539,5.25-8.182,19.39-0.826,24.205c2.902-2.056,8.361-2.336,12.379-1.1
		c1.545-2.672,2.189-6.248,1.924-10.729C156.646,137.469,152.466,133.031,148.808,128.07z M146.058,146.499
		c-3.035-0.31-1.682-6.647,1.924-4.126C148.869,144.467,147.638,146.657,146.058,146.499z"/>
	<path fill="#009EE2" d="M158.435,169.328c3.924-0.181,3.449-6.813,1.926-9.353C159.539,162.75,157.775,165.982,158.435,169.328z"/>
	<path fill="#FFFFFF" d="M137.255,126.97c-3.59,3.743-8.18,6.486-13.205,8.8c-0.996,2.669-1.625,5.708-1.373,9.631
		c5.41-0.603,10.594,1.04,13.199,4.121C142.363,145.79,143.464,131.932,137.255,126.97z M140.005,141.272
		c0.252,2.35-0.883,3.792-2.477,3.575C133.999,144.367,137.196,137.81,140.005,141.272z"/>
	<path fill="#96AA41" d="M145.23,100.84c3.494-0.727,6.924-1.512,9.078-3.578c-4.352,1.424-8.83,2.723-13.752,3.578
		c2.264-1.772,4.893-3.176,6.604-5.502c-2.967,1.253-4.826,3.614-7.977,4.677c2.502-2.629,6.245-4.023,7.7-7.703
		c-4.318,2.928-7.909,6.58-13.204,8.528c1.016-1.003,2.398-1.636,3.027-3.028c-6.447,5.006-15.203,6.896-21.73,11.556
		c-11.598,8.277-21.264,22.495-21.73,41.808c-0.688,28.419,19.652,48.756,45.385,50.058c9.156,0.463,16.986-1.965,23.584-5.773
		c4.544-2.624,8.51-5.896,11.9-9.354c1.604-1.638,3.135-3.399,4.571-5.279c5.527-7.235,9.57-16.315,10.28-27.727
		C190.875,122.35,170.949,104.001,145.23,100.84z M186.216,150.9c-0.574,14.321-6.271,24.201-13.756,32.179
		c-7.564,8.071-18.592,14.056-31.354,14.302c-9.549,0.187-17.076-2.239-23.266-6.208c-0.282-0.182-0.57-0.356-0.848-0.544
		c-2.869-1.942-5.443-4.22-7.793-6.725c-7.396-7.888-12.695-18.958-12.105-33.83c0.828-20.631,12.467-34.521,26.955-41.807
		c5.395-2.712,11.121-4.788,18.156-5.226c13.614-0.85,25.374,6.558,31.909,14.025C181.398,125.398,186.82,135.75,186.216,150.9z"/>
	<path fill="#96AA41" d="M141.106,115.417c0.652-2.012,0.176-3.554-1.65-3.853c-2.615,1.726-2.857,4.832-4.678,7.152
		c-2.443,3.115-6.998,3.512-9.629,6.602C129.886,123.664,139.509,120.335,141.106,115.417z"/>
	<path fill="#96AA41" d="M157.611,126.97c-3.607-3.523-4.416-9.445-6.328-14.579c-1.576-0.364-2.24,0.863-2.475,1.651
		C147.281,119.182,153.824,126.015,157.611,126.97z"/>
	<path fill="#96AA41" d="M147.16,121.194c-0.824,1.985,0.479,4.058,1.1,5.5c-2.299,1.736-3.689,4.38-4.953,7.152
		c-0.664-3.735-2.502-6.3-4.676-8.527c1.16-1.256,2.941-3.245,2.201-5.5c-0.275,0-0.549,0-0.826,0
		c-4.486,6.426-11.094,10.939-18.154,14.303c-2.324,1.105-5.088,1.388-7.15,3.3c2.562,0.908,5.092-0.591,7.426-0.823
		c-1.432,3.426-0.119,9.598-3.025,11.551c0.652,0.919,1.582-0.956,2.199,0c0.707,4.992,4.18,7.686,9.629,6.6
		c4.656-0.925,8.742-6.255,11-9.076c1.25,5.368,5.655,12.198,11.553,12.103c3.383-0.053,4.857-2.777,7.703-4.126
		c1.299,0.718,2.174,1.859,3.574,2.477c0.189-2.481-2.094-2.487-2.75-4.127c1.697-2.41,2.365-7.067,1.926-10.727
		c1.564,0.492,3.35,1.787,5.227,1.101c-3.766-3.287-8.49-4.467-12.104-7.703C152.894,130.943,150.931,125.444,147.16,121.194z
		 M123.226,147.325c4.816-0.141,8.162,1.191,11.004,3.026C131.587,153.913,122.628,153.239,123.226,147.325z M135.876,149.522
		c-2.605-3.081-7.789-4.724-13.199-4.121c-0.252-3.923,0.377-6.962,1.373-9.631c5.025-2.313,9.615-5.057,13.205-8.8
		C143.464,131.932,142.363,145.79,135.876,149.522z M149.634,153.374c2.275-0.68,6.02-1.281,8.801-0.549
		C156.859,155.352,151.515,156.225,149.634,153.374z M160.361,151.175c-4.018-1.236-9.477-0.956-12.379,1.1
		c-7.356-4.815-3.713-18.955,0.826-24.205c3.658,4.961,7.838,9.399,13.477,12.376C162.55,144.927,161.906,148.503,160.361,151.175z"
		/>
	<path fill="#96AA41" d="M137.528,144.847c1.594,0.217,2.729-1.226,2.477-3.575C137.196,137.81,133.999,144.367,137.528,144.847z"/>
	<path fill="#96AA41" d="M146.058,146.499c1.58,0.158,2.811-2.031,1.924-4.126C144.376,139.851,143.023,146.189,146.058,146.499z"/>
	<path fill="#96AA41" d="M135.052,158.601c1.553,0.233,2.066-1.527,3.854-1.651c2.498-0.175,3.45,1.777,4.95,3.302
		C147.429,153.84,133.579,151.724,135.052,158.601z"/>
	<path fill="#1D70B7" d="M161.185,158.601c-0.186,0-0.365,0-0.551,0c-3.967,2.05-7.826,15.99,0,14.303
		C165.4,171.875,163.601,161.504,161.185,158.601z M158.435,169.328c-0.66-3.346,1.104-6.578,1.926-9.353
		C161.884,162.514,162.359,169.147,158.435,169.328z"/>
	<path fill="#1D70B7" d="M165.312,168.776c-2.916,1.742-7.299,14.403-0.277,14.029C170.609,182.507,169.474,170.983,165.312,168.776
		z M163.658,179.505c-1.014-3.342,0.926-6.021,1.377-8.803C167.142,173.058,167.343,178.778,163.658,179.505z"/>
	<path fill="#96AA41" d="M121.028,179.229c2.865-2.302,4.598-5.648,8.803-6.052c5.18-0.496,7.801,3.639,9.074,7.151
		c0.596,1.653,0.346,3.637,1.65,4.95c0.908-1.405,1.109-3.469,0.824-5.5C139.708,167.876,122.741,167.595,121.028,179.229z"/>
	<path fill="#96AA41" d="M129.003,179.779c0.064,1.313,1.57,1.178,1.926,2.2c-1.699,0.138-3.168,0.504-3.852,1.648
		c1.273,0.454,2.984-0.801,4.951-0.549c0.164,0.659,0.395,1.254,0.277,2.2C135.669,183.79,132.101,179.19,129.003,179.779z"/>
</g>
</svg>
