<?xml version="1.0" encoding="utf-8"?>
<!-- Generator: Adobe Illustrator 15.1.0, SVG Export Plug-In . SVG Version: 6.00 Build 0)  -->
<!DOCTYPE svg PUBLIC "-//W3C//DTD SVG 1.1//EN" "http://www.w3.org/Graphics/SVG/1.1/DTD/svg11.dtd">
<svg version="1.1" id="Ebene_1" xmlns="http://www.w3.org/2000/svg" xmlns:xlink="http://www.w3.org/1999/xlink" x="0px" y="0px"
	 width="283.46px" height="283.46px" viewBox="0 0 283.46 283.46" enable-background="new 0 0 283.46 283.46" xml:space="preserve">
<g>
	<path fill="#FFFFFF" d="M158.375,159.152c0.648-0.099,1.153-0.341,1.641-0.597C159.238,158.524,158.601,158.631,158.375,159.152z"
		/>
	<path fill="#FFFFFF" d="M169.868,154.525c0.476-0.47,1.316-0.575,1.791-1.044C170.578,153.249,169.657,153.959,169.868,154.525z"/>
	<path fill="#FFFFFF" d="M153.898,160.495c0.565-0.08,1.068-0.225,1.491-0.447C154.732,160.036,154.107,160.057,153.898,160.495z"/>
	<path fill="#FFFFFF" d="M166.285,156.167c0.623-0.225,1.269-0.424,1.643-0.896C167.152,155.342,166.582,155.617,166.285,156.167z"
		/>
	<path fill="#FFFFFF" d="M163.152,153.778c-2.618,1.943-5.996,2.654-8.21,5.076c0.57-0.023,1.087,0.007,1.343,0.298
		c1.101-0.843,2.319-2.188,4.478-1.493c0.839-1.129,2.191-2.449,4.33-1.791c0.521-1.129,1.89-1.837,3.433-1.492
		c0.398-1.393,1.484-2.098,3.433-1.939c-0.015-0.712,0.685-0.709,0.746-1.344c-0.644-0.6-0.656-1.832-1.344-2.389
		C168.769,150.561,165.771,151.834,163.152,153.778z"/>
	<path fill="#FFFFFF" d="M109.717,158.405c0.351,0.694,1.34,0.749,1.94,1.195C111.495,158.736,110.652,158.034,109.717,158.405z"/>
	<path fill="#FFFFFF" d="M162.405,157.809c0.575-0.47,1.621-0.47,2.09-1.045C163.43,156.649,162.205,157.157,162.405,157.809z"/>
	<path fill="#FFFFFF" d="M113,160.196c0.557,0.191,1.016,0.479,1.643,0.598c0.007-0.455-0.314-0.58-0.448-0.896
		C113.687,159.887,113.153,159.852,113,160.196z"/>
	<path fill="#FFFFFF" d="M123.897,163.48c0.933,0.214,2.553,0.529,3.581,0.149C126.961,162.638,124.61,162.657,123.897,163.48z"/>
	<path fill="#FFFFFF" d="M119.569,162.584c0.984,0.012,2,0.782,2.835,0.447C121.846,162.625,120.252,161.894,119.569,162.584z"/>
	<path fill="#FFFFFF" d="M141.73,89.401c-28.854,0-52.329,23.475-52.329,52.328c0,28.855,23.475,52.33,52.329,52.33
		s52.33-23.475,52.33-52.33C194.06,112.875,170.584,89.401,141.73,89.401z M143.748,126.167c0.816-0.789,1.853-0.18,2.687,0.895
		c0.08-2.496,1.901-6.557,4.029-3.432c2.13-3.542,3.344-8,5.672-11.344c0.254-0.056,0.283,0.117,0.299,0.299
		c-0.733,2.795-2.235,6.758-3.433,10c-0.746,2.02-1.07,4.535-3.731,3.135c-0.497,2.08-1.208,6.657-4.179,3.73
		c-0.396,1.736,0.253,5.535-1.492,5.522C141.755,134.959,142.865,127.02,143.748,126.167z M137.628,110.345
		c0.308,4.687-0.41,9.64-0.448,14.478C136.174,120.531,137.232,114.702,137.628,110.345z M136.434,135.868
		c-0.303-1.227-0.183-2.52-0.747-3.73C138.416,131.137,138.782,135.652,136.434,135.868z M113.748,117.958
		c-0.269-4.832-2.241-9.583-1.342-13.731c2.148,7.98,7.174,18.581,2.534,27.164c-1.12,0.059-1.343-2.024-3.132-1.791
		C113.452,126.03,113.999,122.479,113.748,117.958z M104.493,123.479c2.269-0.021,3.561,8.348,5.076,9.404
		c1.14-0.354,1.607-1.377,2.837-1.643c2.065,1.564,3.273,3.989,4.625,6.269c3.541,0.64,4.09,4.271,5.074,7.464
		c-1.673-1.361-2.767-3.304-4.328-4.777c-0.594-0.096-0.6,0.396-1.194,0.299c-1.607-0.612-1.999-1.891-2.835-3.283
		c-0.397-0.661-1.424-3.348-2.538-3.434c-1.017-0.078-1.239,1.471-2.237,1.493c-1.416,0.03-2.422-3.292-2.837-4.329
		c-0.81-2.021-1.147-3.605-1.939-5.223c-0.437,0.559-0.564,1.426-1.046,1.939C103.336,126.465,102.936,123.495,104.493,123.479z
		 M111.808,136.913c0.112,1.258-1.89,2.578-2.239,4.18c-0.859-0.734-1.654-1.53-2.389-2.389c0.249-0.797,0.637-1.453,1.044-2.09
		C109.983,137.597,111.604,134.654,111.808,136.913z M94.494,135.42c3.297,1.13,6.094,2.762,8.656,4.627
		c1.905-4.174,5.413,2.234,7.463,3.283c1.221-5.278,5.654,1.486,6.269,3.881c-1.69-0.697-2.314-2.462-3.881-3.283
		c0.03,7.291-5.51-0.72-7.462-1.643c-0.582,0.064-0.681,0.613-0.598,1.344c-3.899-2.121-7.235-4.805-10.447-7.611
		C94.246,135.72,94.507,135.827,94.494,135.42z M147.479,178.256c-0.538,0.088-1.002,0.252-1.491,0
		c-1.214-1.125-1.662-3.016-2.24-4.776c-2.93,3.206-4.296-4.702-4.028-7.761c2.711-0.924,2.015,3.883,2.835,5.82
		c2.401-2.304,3.799,2.149,4.328,4.479c0.766-0.12,1.134,0.16,1.642,0.298c2.259,3.613,3.014,10.318,4.627,13.583
		C150.937,186.34,149.151,182.356,147.479,178.256z M158.076,173.182c-1.792,2.746-4.709-0.68-5.82-2.238
		c-0.575,0.119-0.727,0.665-1.492,0.596c-1.885-1.5-2.406-4.359-3.135-7.014c1.236,1.002,2.071,2.406,2.835,3.879
		c2.332-2.85,4.653,3.404,5.971,3.583c0.358,0.048,1.099-0.724,1.344-0.746c1.039-0.102,2.263,0.894,2.836,1.492
		c2.246,2.35,3.753,5.753,6.419,8.06C163.888,179.088,161.229,175.463,158.076,173.182z M180.167,164.375
		c-1.367-4.016-4.005-7.016-5.971-10.447c-5.679,2.872-11.979,5.631-18.955,7.463c-2.286,0.6-4.707,0.929-7.016,1.641
		c-2.03,0.627-3.554,1.438-5.373,1.791c-3.281,0.637-7.261,1.039-11.046,0.598c-0.871-0.102-1.941-0.5-2.984-0.598
		c-1.062-0.099-2.141,0.072-3.135,0c-8.408-0.602-14.499-4.305-20.895-7.312c-1.604,3.869-3.958,6.988-4.029,12.389
		c-1.408-4.403,0.813-8.414,1.939-12.24c1.166-3.961,0.802-8.638,1.94-12.984c0.642,0.045,1.204,0.01,1.194-0.598
		c0.546,0.35,0.987,0.805,1.492,1.194c-1.471,2.36-1.698,5.964-2.089,9.403c0.276,0.52,1.09,0.501,1.043,1.343
		c1.795-0.302,2.417,0.569,2.985,1.493c1.658-0.561,2.893,0.452,3.283,1.642c1.293-0.651,2.575-0.016,2.986,1.044
		c0.537-0.258,1.247-0.344,2.089-0.298c1.329-1.209,3.069-2.007,5.374-2.239c-3.193-0.13-8.719,0.396-8.807-2.687
		c-0.031-1.096,0.747-1.614,1.643-2.089c-0.333-0.365-0.547-0.846-0.448-1.643c2.823-3.195,8.881-3.158,13.433-4.627
		c-3.461-1.209-0.355-3.656,1.345-4.925c3.098-2.313,6.295-3.597,10.596-4.776c4.951-1.357,10.148,1.998,14.926,1.343
		c3.662-0.501,7.192-4.171,10.447-5.224c-3.111-7.467,0.138-14.768,2.091-21.045c1.244-4.002,1.57-8.036,2.536-12.239
		c0-0.148,0-0.299,0-0.446c0.242-0.043,0.259,0.141,0.448,0.147c1.077,11.56-4.892,20.832-2.239,31.644
		c3.076-0.759,5.652-3.302,8.807-4.479c-2.439,2.774-5.788,4.789-8.954,6.866c-3.114,2.041-6.4,4.556-9.852,5.97
		c-1.243,0.51-3.044,1.17-4.478,1.344c-4.023,0.488-6.588-1.894-10.3-2.09c-1.268-0.066-2.9,0.426-4.329,0.746
		c-1.39,0.313-2.923,0.487-4.027,0.896c-2.622,0.967-4.621,3.344-6.867,4.328c3.679,2.327,7.745-0.957,11.194-1.643
		c0.191,0.713-1.148,1.006-1.94,1.492c-2.312,1.419-5.244,2.646-8.208,3.732c-4.092,1.498-8.867,1.595-12.539,3.432
		c5.515,0.24,12.164-0.471,16.867-1.043c-3.316,2.967-11.213,1.681-16.27,2.686c-0.937,0.187-2.002,0.622-2.388,1.493
		c0.817,1.079,3.062,0.972,4.478,1.044c2.935,0.15,6.22-0.014,9.254-0.149c2.532-0.112,5.07-0.753,6.865,0
		c-0.499,1.103-2.222,1.336-3.582,1.643c-4.137,0.932-9.729,1.349-13.434,2.835c0.869,1.154,2.8,1.199,4.329,1.195
		c4.9-0.013,11.148-0.717,15.373-0.896c-2.519,1.512-5.974,2.086-9.851,2.24c2.569,1.565,7.285,0.698,11.194,0.297
		c2.814-0.287,5.358-0.805,7.164-1.791c3.649-1.99,6.019-5.472,10.149-7.611c2.1-1.088,4.434-1.513,6.419-2.537
		c5.798-2.994,11.245-6.514,17.462-9.254c-2.099,2.18-4.918,3.639-7.463,5.373c3.723,6.227,8.45,12.973,7.91,22.537
		C180.806,168.104,180.757,166.114,180.167,164.375z M144.345,160.047c-3.052-1.784-2.815-7.619-3.433-11.344
		c0.148,0,0.297,0,0.447,0C142.75,152.09,143.177,156.438,144.345,160.047z"/>
	<path fill="#FFFFFF" d="M106.733,157.211c0.628,0.02,0.714,0.578,1.343,0.598c0.022-0.373-0.234-0.463-0.3-0.746
		C107.468,157.151,106.797,156.877,106.733,157.211z"/>
	<path fill="#FFFFFF" d="M117.926,161.092c-0.577-0.265-1.484-0.141-2.089,0c0.432,0.612,1.433,0.656,2.238,0.896
		C118.184,161.532,117.819,161.549,117.926,161.092z"/>
	<path fill="#A3BC4B" d="M141.73,83.401c-32.163,0-58.329,26.166-58.329,58.328c0,32.163,26.166,58.33,58.329,58.33
		s58.33-26.167,58.33-58.33C200.06,109.567,173.893,83.401,141.73,83.401z M141.73,194.059c-28.854,0-52.329-23.475-52.329-52.33
		c0-28.854,23.475-52.328,52.329-52.328s52.33,23.475,52.33,52.328C194.06,170.584,170.584,194.059,141.73,194.059z"/>
	<path fill="#E84E1B" d="M114.94,131.39c4.64-8.583-0.386-19.184-2.534-27.164c-0.899,4.148,1.073,8.899,1.342,13.731
		c0.251,4.521-0.296,8.072-1.939,11.642C113.597,129.366,113.82,131.449,114.94,131.39z"/>
	<path fill="#E84E1B" d="M137.628,110.345c-0.396,4.356-1.454,10.186-0.448,14.478C137.218,119.985,137.936,115.032,137.628,110.345
		z"/>
	<path fill="#E84E1B" d="M143.599,134.972c1.745,0.013,1.096-3.786,1.492-5.522c2.971,2.927,3.682-1.65,4.179-3.73
		c2.661,1.4,2.985-1.115,3.731-3.135c1.197-3.242,2.699-7.205,3.433-10c-0.016-0.182-0.045-0.354-0.299-0.299
		c-2.328,3.344-3.542,7.802-5.672,11.344c-2.128-3.125-3.949,0.936-4.029,3.432c-0.834-1.074-1.87-1.684-2.687-0.895
		C142.865,127.02,141.755,134.959,143.599,134.972z"/>
	<path fill="#E84E1B" d="M106.135,130.942c0.415,1.037,1.421,4.359,2.837,4.329c0.998-0.022,1.221-1.571,2.237-1.493
		c1.114,0.086,2.141,2.772,2.538,3.434c0.836,1.393,1.228,2.671,2.835,3.283c0.595,0.097,0.601-0.395,1.194-0.299
		c1.562,1.474,2.655,3.416,4.328,4.777c-0.984-3.193-1.533-6.824-5.074-7.464c-1.352-2.279-2.56-4.704-4.625-6.269
		c-1.229,0.266-1.697,1.289-2.837,1.643c-1.516-1.057-2.808-9.426-5.076-9.404c-1.557,0.016-1.156,2.986-1.343,4.18
		c0.481-0.514,0.609-1.381,1.046-1.939C104.988,127.336,105.326,128.92,106.135,130.942z"/>
	<path fill="#E84E1B" d="M135.687,132.137c0.564,1.211,0.444,2.504,0.747,3.73C138.782,135.652,138.416,131.137,135.687,132.137z"/>
	<path fill="#E84E1B" d="M105.539,142.286c1.952,0.923,7.492,8.934,7.462,1.643c1.566,0.821,2.19,2.586,3.881,3.283
		c-0.614-2.395-5.048-9.159-6.269-3.881c-2.05-1.049-5.558-7.457-7.463-3.283c-2.562-1.865-5.359-3.497-8.656-4.627
		c0.014,0.406-0.248,0.3,0,0.598c3.212,2.807,6.548,5.49,10.447,7.611C104.858,142.899,104.957,142.35,105.539,142.286z"/>
	<path fill="#E84E1B" d="M108.224,136.614c-0.407,0.637-0.795,1.293-1.044,2.09c0.734,0.858,1.529,1.654,2.389,2.389
		c0.35-1.602,2.352-2.922,2.239-4.18C111.604,134.654,109.983,137.597,108.224,136.614z"/>
	<path fill="#E84E1B" d="M140.913,148.704c0.617,3.725,0.381,9.56,3.433,11.344c-1.168-3.609-1.596-7.957-2.985-11.344
		C141.209,148.704,141.061,148.704,140.913,148.704z"/>
	<path fill="#E84E1B" d="M160.614,172.734c-0.573-0.599-1.797-1.594-2.836-1.492c-0.245,0.022-0.985,0.794-1.344,0.746
		c-1.317-0.179-3.639-6.433-5.971-3.583c-0.764-1.473-1.599-2.877-2.835-3.879c0.729,2.654,1.25,5.514,3.135,7.014
		c0.766,0.069,0.917-0.477,1.492-0.596c1.111,1.559,4.028,4.984,5.82,2.238c3.153,2.281,5.812,5.906,8.957,7.611
		C164.367,178.487,162.86,175.083,160.614,172.734z"/>
	<path fill="#E84E1B" d="M174.046,147.211c2.545-1.734,5.364-3.193,7.463-5.373c-6.217,2.74-11.664,6.26-17.462,9.254
		c-1.985,1.024-4.319,1.449-6.419,2.537c-4.131,2.14-6.5,5.621-10.149,7.611c-1.806,0.986-4.35,1.504-7.164,1.791
		c-3.909,0.401-8.625,1.269-11.194-0.297c3.877-0.154,7.332-0.729,9.851-2.24c-4.225,0.18-10.473,0.884-15.373,0.896
		c-1.529,0.004-3.46-0.041-4.329-1.195c3.705-1.486,9.297-1.903,13.434-2.835c1.36-0.307,3.083-0.54,3.582-1.643
		c-1.795-0.753-4.333-0.112-6.865,0c-3.034,0.136-6.319,0.3-9.254,0.149c-1.416-0.072-3.66,0.035-4.478-1.044
		c0.386-0.871,1.451-1.307,2.388-1.493c5.057-1.005,12.953,0.281,16.27-2.686c-4.703,0.572-11.353,1.283-16.867,1.043
		c3.672-1.837,8.447-1.934,12.539-3.432c2.964-1.086,5.896-2.313,8.208-3.732c0.792-0.486,2.132-0.779,1.94-1.492
		c-3.449,0.686-7.516,3.97-11.194,1.643c2.246-0.984,4.245-3.361,6.867-4.328c1.104-0.409,2.638-0.583,4.027-0.896
		c1.429-0.32,3.062-0.812,4.329-0.746c3.712,0.196,6.276,2.578,10.3,2.09c1.434-0.174,3.234-0.834,4.478-1.344
		c3.451-1.414,6.737-3.929,9.852-5.97c3.166-2.077,6.515-4.092,8.954-6.866c-3.154,1.177-5.73,3.72-8.807,4.479
		c-2.652-10.812,3.316-20.084,2.239-31.644c-0.189-0.007-0.206-0.19-0.448-0.147c0,0.147,0,0.298,0,0.446
		c-0.966,4.203-1.292,8.237-2.536,12.239c-1.953,6.277-5.202,13.578-2.091,21.045c-3.255,1.053-6.785,4.723-10.447,5.224
		c-4.777,0.655-9.975-2.7-14.926-1.343c-4.301,1.18-7.498,2.463-10.596,4.776c-1.7,1.269-4.806,3.716-1.345,4.925
		c-4.552,1.469-10.609,1.432-13.433,4.627c-0.099,0.797,0.115,1.277,0.448,1.643c-0.896,0.475-1.674,0.993-1.643,2.089
		c0.088,3.082,5.613,2.557,8.807,2.687c-2.305,0.232-4.045,1.03-5.374,2.239c-0.842-0.046-1.552,0.04-2.089,0.298
		c-0.411-1.06-1.693-1.695-2.986-1.044c-0.391-1.189-1.625-2.202-3.283-1.642c-0.568-0.924-1.19-1.795-2.985-1.493
		c0.047-0.842-0.767-0.823-1.043-1.343c0.391-3.439,0.618-7.043,2.089-9.403c-0.505-0.39-0.946-0.845-1.492-1.194
		c0.01,0.607-0.553,0.643-1.194,0.598c-1.139,4.347-0.774,9.023-1.94,12.984c-1.126,3.826-3.348,7.837-1.939,12.24
		c0.071-5.4,2.426-8.52,4.029-12.389c6.396,3.008,12.486,6.711,20.895,7.312c0.994,0.072,2.072-0.099,3.135,0
		c1.043,0.098,2.113,0.496,2.984,0.598c3.785,0.441,7.765,0.039,11.046-0.598c1.819-0.353,3.343-1.164,5.373-1.791
		c2.309-0.712,4.729-1.041,7.016-1.641c6.976-1.832,13.276-4.591,18.955-7.463c1.966,3.432,4.604,6.432,5.971,10.447
		c0.591,1.738,0.64,3.729,1.79,5.373C182.497,160.184,177.769,153.438,174.046,147.211z M106.733,157.211
		c0.064-0.334,0.735-0.061,1.043-0.148c0.065,0.283,0.322,0.373,0.3,0.746C107.447,157.79,107.361,157.231,106.733,157.211z
		 M109.717,158.405c0.935-0.371,1.777,0.331,1.94,1.195C111.057,159.154,110.068,159.099,109.717,158.405z M113,160.196
		c0.152-0.344,0.687-0.309,1.194-0.298c0.134,0.315,0.455,0.44,0.448,0.896C114.016,160.674,113.557,160.387,113,160.196z
		 M118.076,161.988c-0.806-0.239-1.807-0.283-2.238-0.896c0.604-0.141,1.512-0.265,2.089,0
		C117.819,161.549,118.184,161.532,118.076,161.988z M119.569,162.584c0.684-0.69,2.277,0.041,2.835,0.447
		C121.569,163.367,120.553,162.596,119.569,162.584z M123.897,163.48c0.713-0.823,3.064-0.842,3.581,0.149
		C126.45,164.009,124.83,163.694,123.897,163.48z M153.898,160.495c0.209-0.438,0.834-0.459,1.491-0.447
		C154.966,160.27,154.463,160.415,153.898,160.495z M158.375,159.152c0.226-0.521,0.862-0.628,1.641-0.597
		C159.529,158.811,159.024,159.053,158.375,159.152z M162.405,157.809c-0.2-0.652,1.025-1.16,2.09-1.045
		C164.026,157.339,162.98,157.339,162.405,157.809z M166.285,156.167c0.297-0.55,0.867-0.824,1.643-0.896
		C167.553,155.743,166.908,155.942,166.285,156.167z M169.868,154.525c-0.211-0.565,0.71-1.276,1.791-1.044
		C171.184,153.95,170.343,154.055,169.868,154.525z M171.958,152.436c-1.948-0.158-3.034,0.547-3.433,1.939
		c-1.543-0.345-2.911,0.363-3.433,1.492c-2.139-0.658-3.491,0.662-4.33,1.791c-2.158-0.694-3.377,0.65-4.478,1.493
		c-0.256-0.291-0.772-0.321-1.343-0.298c2.214-2.422,5.592-3.133,8.21-5.076c2.619-1.943,5.617-3.217,8.208-5.074
		c0.688,0.557,0.7,1.789,1.344,2.389C172.642,151.727,171.943,151.724,171.958,152.436z"/>
	<path fill="#E84E1B" d="M146.882,176.018c-0.529-2.329-1.927-6.782-4.328-4.479c-0.82-1.938-0.124-6.744-2.835-5.82
		c-0.268,3.059,1.099,10.967,4.028,7.761c0.578,1.761,1.026,3.651,2.24,4.776c0.489,0.252,0.953,0.088,1.491,0
		c1.672,4.1,3.458,8.084,5.672,11.643c-1.613-3.265-2.368-9.97-4.627-13.583C148.016,176.178,147.648,175.898,146.882,176.018z"/>
</g>
</svg>
