<?xml version="1.0" encoding="utf-8"?>
<!-- Generator: Adobe Illustrator 15.1.0, SVG Export Plug-In . SVG Version: 6.00 Build 0)  -->
<!DOCTYPE svg PUBLIC "-//W3C//DTD SVG 1.1//EN" "http://www.w3.org/Graphics/SVG/1.1/DTD/svg11.dtd">
<svg version="1.1" id="Ebene_1" xmlns="http://www.w3.org/2000/svg" xmlns:xlink="http://www.w3.org/1999/xlink" x="0px" y="0px"
	 width="283.46px" height="283.46px" viewBox="0 0 283.46 283.46" enable-background="new 0 0 283.46 283.46" xml:space="preserve">
<g>
	<path fill="#FFFFFF" d="M141.73,89.401c-28.854,0-52.329,23.475-52.329,52.329s23.475,52.329,52.329,52.329
		s52.33-23.475,52.33-52.329S170.584,89.401,141.73,89.401z M170.925,175.041c-7.327,7.477-17.371,13.883-30.952,13.198
		c-23.426-1.185-39.933-19.451-39.589-43.432c0.24-16.884,8.838-29.488,18.956-36.709c5.776-4.124,13.161-5.596,18.954-10.077
		c-0.546,1.212-1.754,1.764-2.64,2.639c4.62-1.696,7.754-4.883,11.517-7.437c-1.271,3.207-4.532,4.425-6.718,6.717
		c2.753-0.927,4.373-2.982,6.958-4.081c-1.49,2.033-3.784,3.257-5.758,4.801c4.294-0.743,8.199-1.876,11.997-3.117
		c-1.879,1.8-4.872,2.485-7.919,3.117c21.141,2.346,36.641,16.74,38.15,38.871C184.98,155.637,178.689,167.119,170.925,175.041z"/>
	<path fill="#FFFFFF" d="M143.093,102.581c-6.146,0.355-11.142,2.197-15.835,4.56c-12.649,6.357-22.796,18.466-23.515,36.469
		c-0.521,12.998,4.049,22.576,10.557,29.513c6.525,6.96,15.185,12.021,27.832,11.757c11.141-0.23,20.745-5.426,27.354-12.477
		c6.53-6.961,11.497-15.56,11.997-28.073c0.514-12.825-4.024-22.681-10.316-29.751C165.537,108.253,154.601,101.908,143.093,102.581
		z M109.263,145.049c-1.16-1.288,1.155-4.169,2.878-3.36C111.475,143.102,109.835,143.544,109.263,145.049z M108.063,140.969
		c0.289-1.403,3.306-2.319,4.558-1.2C112.029,141.101,109.299,140.292,108.063,140.969z M107.823,137.612
		c1.025-1.657,5.859-1.184,5.998,0.96C112.246,138.749,109.929,137.692,107.823,137.612z M153.41,121.535
		c3.858-0.304,6.299-1.579,9.598-2.4c-1.476,1.922-5.097,4.581-8.639,5.039c-2.951,0.386-6.653,0.182-8.396-1.679
		C147.519,120.704,150.533,121.76,153.41,121.535z M142.132,144.807c-3.017-1.916-4.069-0.697-6.236,1.202
		C133.358,140.888,141.924,140.158,142.132,144.807z M132.055,125.134c-0.928,4.461-12.676,5.191-15.835,1.441
		C121.995,128.877,127.2,124.278,132.055,125.134z M124.377,136.891c-3.572-0.436-6.407,1.394-9.118,2.399
		c1.351-4.784,12.572-7.602,14.396-1.438C127.989,138.89,126.427,137.143,124.377,136.891z M139.973,171.923
		c0.107-2.184,5.226-2.326,5.519-0.239C143.721,171.137,141.63,171.633,139.973,171.923z M149.813,164.004
		c-4.56-1.979-10.885-0.04-14.158,2.162c0.479,3.617,0.115,7.98-2.159,9.596c-0.386-2.561,0.513-4.871,0.238-7.2
		c-0.56-4.768-4.182-7.639-5.038-11.033c3.038,1.199,4.891,3.585,6.238,6.476c3.327-2.486,9.618-4.837,14.879-3.118
		c1.998-3.765,3.804-8.986,8.156-9.599c-2.581,3.551-6.018,7.668-5.521,13.196c0.158,1.749,0.937,3.568,1.682,4.799
		c1.197,1.979,3.509,2.969,4.078,5.042C153.23,174.002,149.986,169.919,149.813,164.004z M145.972,136.891
		c0.484-4.999,11.997-5.5,12.715,0.237C154.716,134.877,150.557,135.833,145.972,136.891z M162.768,138.331
		c0.841-0.27,2.345,0.63,2.398,1.92C164.254,139.818,162.377,139.292,162.768,138.331z M161.807,136.891
		c-0.407-1.918,3.301-1.373,3.359-0.241C163.915,136.596,162.769,136.655,161.807,136.891z M159.408,135.212
		c0.436-1.615,4.412-3.087,5.759-1.441C162.917,133.789,161.283,135.609,159.408,135.212z"/>
	<path fill="#A3BC4B" d="M141.73,83.401c-32.163,0-58.329,26.167-58.329,58.329c0,32.163,26.166,58.329,58.329,58.329
		s58.33-26.166,58.33-58.329C200.06,109.568,173.893,83.401,141.73,83.401z M141.73,194.059c-28.854,0-52.329-23.475-52.329-52.329
		s23.475-52.329,52.329-52.329s52.33,23.475,52.33,52.329S170.584,194.059,141.73,194.059z"/>
	<path fill="#E84E1B" d="M183.882,139.531c-1.51-22.131-17.01-36.525-38.15-38.871c3.047-0.632,6.04-1.317,7.919-3.117
		c-3.798,1.241-7.703,2.374-11.997,3.117c1.974-1.544,4.268-2.768,5.758-4.801c-2.585,1.099-4.205,3.154-6.958,4.081
		c2.186-2.292,5.446-3.51,6.718-6.717c-3.763,2.554-6.896,5.74-11.517,7.437c0.886-0.875,2.094-1.427,2.64-2.639
		c-5.793,4.481-13.178,5.953-18.954,10.077c-10.118,7.221-18.716,19.825-18.956,36.709c-0.344,23.98,16.163,42.247,39.589,43.432
		c13.581,0.685,23.625-5.722,30.952-13.198C178.689,167.119,184.98,155.637,183.882,139.531z M181.483,144.329
		c-0.5,12.514-5.467,21.112-11.997,28.073c-6.608,7.051-16.213,12.246-27.354,12.477c-12.647,0.265-21.307-4.797-27.832-11.757
		c-6.508-6.937-11.077-16.515-10.557-29.513c0.719-18.003,10.865-30.111,23.515-36.469c4.693-2.362,9.688-4.204,15.835-4.56
		c11.508-0.673,22.443,5.673,28.073,11.997C177.458,121.648,181.997,131.503,181.483,144.329z"/>
	<path fill="#E84E1B" d="M154.369,124.173c3.542-0.458,7.163-3.117,8.639-5.039c-3.299,0.821-5.739,2.097-9.598,2.4
		c-2.877,0.226-5.891-0.831-7.438,0.96C147.715,124.355,151.417,124.559,154.369,124.173z"/>
	<path fill="#E84E1B" d="M132.055,125.134c-4.855-0.856-10.061,3.743-15.835,1.441C119.379,130.326,131.127,129.595,132.055,125.134
		z"/>
	<path fill="#E84E1B" d="M145.972,136.891c4.585-1.058,8.744-2.014,12.715,0.237C157.969,131.391,146.457,131.892,145.972,136.891z"
		/>
	<path fill="#E84E1B" d="M159.408,135.212c1.875,0.396,3.509-1.424,5.759-1.441C163.82,132.125,159.843,133.597,159.408,135.212z"/>
	<path fill="#E84E1B" d="M115.259,139.291c2.711-1.006,5.546-2.835,9.118-2.399c2.05,0.252,3.611,1.999,5.278,0.961
		C127.832,131.689,116.61,134.506,115.259,139.291z"/>
	<path fill="#E84E1B" d="M161.807,136.891c0.962-0.236,2.107-0.295,3.359-0.241C165.108,135.518,161.4,134.973,161.807,136.891z"/>
	<path fill="#E84E1B" d="M107.823,137.612c2.106,0.08,4.423,1.137,5.998,0.96C113.682,136.428,108.848,135.955,107.823,137.612z"/>
	<path fill="#E84E1B" d="M162.768,138.331c-0.391,0.962,1.486,1.487,2.398,1.92C165.113,138.96,163.609,138.061,162.768,138.331z"/>
	<path fill="#E84E1B" d="M108.063,140.969c1.236-0.678,3.966,0.132,4.558-1.2C111.369,138.65,108.352,139.566,108.063,140.969z"/>
	<path fill="#E84E1B" d="M109.263,145.049c0.572-1.505,2.212-1.947,2.878-3.36C110.418,140.88,108.103,143.761,109.263,145.049z"/>
	<path fill="#E84E1B" d="M142.132,144.807c-0.208-4.649-8.774-3.919-6.236,1.202C138.063,144.11,139.116,142.891,142.132,144.807z"
		/>
	<path fill="#E84E1B" d="M154.13,169.283c-0.745-1.23-1.523-3.05-1.682-4.799c-0.497-5.528,2.939-9.646,5.521-13.196
		c-4.353,0.612-6.158,5.834-8.156,9.599c-5.261-1.719-11.552,0.632-14.879,3.118c-1.348-2.891-3.2-5.276-6.238-6.476
		c0.856,3.395,4.479,6.266,5.038,11.033c0.274,2.329-0.624,4.64-0.238,7.2c2.274-1.615,2.638-5.979,2.159-9.596
		c3.273-2.202,9.599-4.141,14.158-2.162c0.173,5.915,3.417,9.998,8.396,10.32C157.639,172.251,155.328,171.261,154.13,169.283z"/>
	<path fill="#E84E1B" d="M139.973,171.923c1.657-0.29,3.748-0.786,5.519-0.239C145.199,169.597,140.081,169.74,139.973,171.923z"/>
</g>
</svg>
