<?xml version="1.0" encoding="utf-8"?>
<!-- Generator: Adobe Illustrator 15.1.0, SVG Export Plug-In . SVG Version: 6.00 Build 0)  -->
<!DOCTYPE svg PUBLIC "-//W3C//DTD SVG 1.1//EN" "http://www.w3.org/Graphics/SVG/1.1/DTD/svg11.dtd">
<svg version="1.1" id="Ebene_1" xmlns="http://www.w3.org/2000/svg" xmlns:xlink="http://www.w3.org/1999/xlink" x="0px" y="0px"
	 width="283.46px" height="283.46px" viewBox="0 0 283.46 283.46" enable-background="new 0 0 283.46 283.46" xml:space="preserve">
<g>
	<path fill="#FFFFFF" d="M141.73,89.401c-28.854,0-52.329,23.475-52.329,52.33c0,28.854,23.475,52.328,52.329,52.328
		c28.855,0,52.33-23.475,52.33-52.328C194.06,112.875,170.585,89.401,141.73,89.401z M176.349,164.258
		c0.815,10.703-5.864,18.014-15.927,15.086c-3.744,5.232-14.36,4.709-14.661-3.35c-6.829,0.119-8.594-4.816-12.567-7.545
		c-0.5-1.176-0.465-2.891-0.421-4.607c-1.559-0.006-3.337-0.094-5.21-0.176c-3.121-1.088-15.566,2.402-18.798,2.135
		c-1.777-0.145-7.205,0.256-8.956,0.094c0.083-0.43,0.176-0.857,0.258-1.289c6.484-1.742,25.671-6.785,32.389-7.203
		c0.838,0.027,1.654,0.066,2.409,0.15c1.604-1.887,3.344-3.641,5.452-5.023c-1.034-0.5-1.637-1.438-2.094-2.516
		c-0.737,0.316-1.486,0.619-2.225,0.936c-4.6,0.723-17.823,5.695-22.202,7.203c-3.232,1.117-6.448,2.4-9.682,3.623
		c0.051-0.328,0.71-0.941,1.478-1.605c2.998-1.316,5.699-3.418,8.619-4.857c2.196-1.082,4.581-1.475,6.753-2.639
		c0.818-0.439,1.605-0.912,2.396-1.375c5.045-1.994,10.179-3.98,13.182-5.055c-0.265-4.043,2.264-7.508,2.933-9.215
		c-4.535,2.828-17.855,8.562-22.019,11.631c-2.091,1.229-3.883,2.947-5.976,4.281c-2.131,1.361-12.012,7.291-14.281,8.418
		c0.013-0.119,0.035-0.234,0.046-0.354c2.803-2.621,13.314-9.902,16.118-12.525c2.476-2.312,14.27-7.148,16.559-9.75
		c1.991-1.623,3.953-3.271,5.782-5.057c-0.428-0.963-1.442-1.352-1.255-2.932c-2.646,2.398-8.693,6.113-13.847,9.715
		c-1.986,1.264-3.869,2.693-5.889,4.102c-0.93,0.646-1.89,1.244-2.853,1.836c-1.232,0.064-9.807,5.51-10.94,6.258
		c0.348-0.475,6.665-6.434,7.016-6.902c0.988-1.33,3.532-2.027,4.587-3.348c3.775-4.039,17.174-11.438,21.087-15.434
		c-1.71-2.969,3.338-6.119,3.355-7.541c0.006-0.943-2.97-3.373-3.355-4.605c-2.943-9.447,8.439-20.711,18.02-15.924
		c7.953-5.352,16.488,2.5,17.171,10.895c7.062,1.762,12.039,8.561,9.22,17.598c8.649,1.055,8.801,12.244,3.772,17.596
		C185.829,152.02,180.491,160.262,176.349,164.258z"/>
	<path fill="#FFFFFF" d="M181.793,134.51c-0.891-2.727-7.198-2.533-7.961-5.859c-0.519-2.281,1.478-4.949,1.26-7.127
		c-0.618-6.148-6.346-6.797-10.902-7.957c-0.924-6.43-7.053-13.699-13.401-8.385c-9.129-3.762-13.859,7.545-9.634,14.668
		c-7.658,6.133,0.812,13.211,5.023,17.18c-1.273,4.092-3.463,4.219-2.93,7.957c0.491,3.459,6.234,4.686,6.283,7.963
		c0.091,5.27-9.489,4.914-7.955,12.145c0.773,3.662,4.944,3.662,7.955,6.289c0.542,13.506,7.785,1.398,16.76,4.189
		c4.783-2.021,6.413-7.883,5.448-13.41c3.396-2.785,7.741-5.992,7.541-11.729c-0.062-1.744-1.811-3.6-1.678-5.447
		C177.86,141.51,183.256,139.004,181.793,134.51z M148.694,120.686c-13.608,0.895,0.567-22.195,5.45-9.635
		C147.969,110.735,145.368,116.129,148.694,120.686z M152.469,158.395c-3.793,5.84,2.094,7.771,5.024,10.473
		C149.555,177.028,141.617,157.354,152.469,158.395z M166.71,157.139c1.05-3.072,4.977-2.914,5.446-6.289
		c0.311-2.221-1.386-2.949-1.257-5.863C181.267,145.292,174.552,162.014,166.71,157.139z"/>
	<path fill="#A3BC4B" d="M141.73,83.401c-32.162,0-58.329,26.167-58.329,58.33c0,32.162,26.167,58.328,58.329,58.328
		c32.163,0,58.33-26.166,58.33-58.328C200.06,109.568,173.893,83.401,141.73,83.401z M141.73,194.059
		c-28.854,0-52.329-23.475-52.329-52.328c0-28.855,23.475-52.33,52.329-52.33c28.855,0,52.33,23.475,52.33,52.33
		C194.06,170.584,170.585,194.059,141.73,194.059z"/>
	<path fill="#E84E1B" d="M178.021,127.391c2.819-9.037-2.158-15.836-9.22-17.598c-0.683-8.395-9.218-16.246-17.171-10.895
		c-9.58-4.787-20.963,6.477-18.02,15.924c0.386,1.232,3.361,3.662,3.355,4.605c-0.018,1.422-5.065,4.572-3.355,7.541
		c-3.913,3.996-17.312,11.395-21.087,15.434c-1.055,1.32-3.599,2.018-4.587,3.348c-0.351,0.469-6.668,6.428-7.016,6.902
		c1.134-0.748,9.708-6.193,10.94-6.258c0.963-0.592,1.923-1.189,2.853-1.836c2.02-1.408,3.902-2.838,5.889-4.102
		c5.153-3.602,11.2-7.316,13.847-9.715c-0.188,1.58,0.827,1.969,1.255,2.932c-1.829,1.785-3.791,3.434-5.782,5.057
		c-2.289,2.602-14.083,7.438-16.559,9.75c-2.804,2.623-13.315,9.904-16.118,12.525c-0.011,0.119-0.033,0.234-0.046,0.354
		c2.27-1.127,12.15-7.057,14.281-8.418c2.093-1.334,3.885-3.053,5.976-4.281c4.163-3.068,17.483-8.803,22.019-11.631
		c-0.669,1.707-3.197,5.172-2.933,9.215c-3.003,1.074-8.137,3.061-13.182,5.055c-0.791,0.463-1.578,0.936-2.396,1.375
		c-2.172,1.164-4.557,1.557-6.753,2.639c-2.92,1.439-5.621,3.541-8.619,4.857c-0.768,0.664-1.427,1.277-1.478,1.605
		c3.233-1.223,6.449-2.506,9.682-3.623c4.379-1.508,17.603-6.48,22.202-7.203c0.738-0.316,1.487-0.619,2.225-0.936
		c0.457,1.078,1.06,2.016,2.094,2.516c-2.108,1.383-3.848,3.137-5.452,5.023c-0.755-0.084-1.571-0.123-2.409-0.15
		c-6.718,0.418-25.904,5.461-32.389,7.203c-0.082,0.432-0.175,0.859-0.258,1.289c1.751,0.162,7.179-0.238,8.956-0.094
		c3.231,0.268,15.677-3.223,18.798-2.135c1.873,0.082,3.651,0.17,5.21,0.176c-0.044,1.717-0.079,3.432,0.421,4.607
		c3.974,2.729,5.738,7.664,12.567,7.545c0.301,8.059,10.917,8.582,14.661,3.35c10.062,2.928,16.742-4.383,15.927-15.086
		c4.142-3.996,9.479-12.238,5.444-19.271C186.822,139.635,186.67,128.446,178.021,127.391z M171.74,162.163
		c0.965,5.527-0.665,11.389-5.448,13.41c-8.975-2.791-16.218,9.316-16.76-4.189c-3.011-2.627-7.182-2.627-7.955-6.289
		c-1.534-7.23,8.046-6.875,7.955-12.145c-0.049-3.277-5.792-4.504-6.283-7.963c-0.533-3.738,1.656-3.865,2.93-7.957
		c-4.211-3.969-12.682-11.047-5.023-17.18c-4.226-7.123,0.505-18.43,9.634-14.668c6.349-5.314,12.478,1.955,13.401,8.385
		c4.557,1.16,10.284,1.809,10.902,7.957c0.218,2.178-1.778,4.846-1.26,7.127c0.763,3.326,7.07,3.133,7.961,5.859
		c1.463,4.494-3.934,7-4.19,10.477c-0.133,1.848,1.615,3.703,1.678,5.447C179.481,156.17,175.135,159.377,171.74,162.163z"/>
	<path fill="#E84E1B" d="M148.694,120.686c-3.326-4.557-0.725-9.951,5.45-9.635C149.261,98.491,135.085,121.581,148.694,120.686z"/>
	<path fill="#E84E1B" d="M170.9,144.987c-0.129,2.914,1.567,3.643,1.257,5.863c-0.47,3.375-4.396,3.217-5.446,6.289
		C174.552,162.014,181.267,145.292,170.9,144.987z"/>
	<path fill="#E84E1B" d="M152.469,158.395c-10.853-1.041-2.914,18.633,5.024,10.473
		C154.563,166.167,148.676,164.235,152.469,158.395z"/>
</g>
</svg>
