<?xml version="1.0" encoding="utf-8"?>
<!-- Generator: Adobe Illustrator 15.1.0, SVG Export Plug-In . SVG Version: 6.00 Build 0)  -->
<!DOCTYPE svg PUBLIC "-//W3C//DTD SVG 1.1//EN" "http://www.w3.org/Graphics/SVG/1.1/DTD/svg11.dtd">
<svg version="1.1" id="Ebene_1" xmlns="http://www.w3.org/2000/svg" xmlns:xlink="http://www.w3.org/1999/xlink" x="0px" y="0px"
	 width="283.46px" height="283.46px" viewBox="0 0 283.46 283.46" enable-background="new 0 0 283.46 283.46" xml:space="preserve">
<g>
	<path fill="#FFFFFF" d="M141.73,89.401c-28.854,0-52.329,23.475-52.329,52.329s23.475,52.33,52.329,52.33
		s52.329-23.476,52.329-52.33S170.584,89.401,141.73,89.401z M147.875,190.913c-10.256,1.599-22.318-0.475-31.569-5.775
		c3.958-10.293,11.819-18.565,22.907-22.134c1.449-0.825,3.271-1.104,5.371-0.492c11.602,3.381,18.417,11.745,24.009,21.507
		C161.999,187.2,155.155,189.778,147.875,190.913z M163.845,118.94c-5.229,9.271-12.34,31.083-24.094,29.735
		c-11.822-1.356-17.869-23.377-21.773-33.587c-1.701-4.451-10.7-8.165-10.937-8.468c6.778-5.052,19.88-12.156,28.269-13.844
		c2.73-0.15,5.453-0.394,8.194-0.601c5.06-0.381,9.403,0.821,14.01,2.801c5.363,2.305,15.893,7.833,20.342,11.644
		C166.952,107.339,166.459,114.306,163.845,118.94z"/>
	<path fill="#A3BC4B" d="M141.73,83.401c-32.163,0-58.329,26.166-58.329,58.329s26.166,58.33,58.329,58.33
		s58.329-26.167,58.329-58.33S173.893,83.401,141.73,83.401z M141.73,194.06c-28.854,0-52.329-23.476-52.329-52.33
		s23.475-52.329,52.329-52.329s52.329,23.475,52.329,52.329S170.584,194.06,141.73,194.06z"/>
	<path fill="#D2B497" d="M143.504,92.176c-2.741,0.207-5.464,0.45-8.194,0.601c-8.389,1.688-21.49,8.792-28.269,13.844
		c0.236,0.303,9.235,4.017,10.937,8.468c3.904,10.21,9.951,32.23,21.773,33.587c11.754,1.348,18.864-20.464,24.094-29.735
		c2.614-4.634,3.106-11.601,14.011-12.319c-4.449-3.811-14.979-9.339-20.342-11.644C152.908,92.998,148.564,91.795,143.504,92.176z"
		/>
	<path fill="#D2B497" d="M144.583,162.511c-2.1-0.612-3.922-0.333-5.371,0.492c-11.088,3.568-18.949,11.841-22.907,22.134
		c9.251,5.301,21.313,7.374,31.569,5.775c7.28-1.135,14.124-3.713,20.718-6.895C163,174.256,156.185,165.892,144.583,162.511z"/>
</g>
</svg>
