<?xml version="1.0" encoding="utf-8"?>
<!-- Generator: Adobe Illustrator 15.1.0, SVG Export Plug-In . SVG Version: 6.00 Build 0)  -->
<!DOCTYPE svg PUBLIC "-//W3C//DTD SVG 1.1//EN" "http://www.w3.org/Graphics/SVG/1.1/DTD/svg11.dtd">
<svg version="1.1" id="Ebene_1" xmlns="http://www.w3.org/2000/svg" xmlns:xlink="http://www.w3.org/1999/xlink" x="0px" y="0px"
	 width="283.46px" height="283.46px" viewBox="0 0 283.46 283.46" enable-background="new 0 0 283.46 283.46" xml:space="preserve">
<g>
	<path fill="#FFFFFF" d="M141.729,89.401c-28.854,0-52.328,23.475-52.328,52.328c0,28.855,23.475,52.33,52.328,52.33
		c28.855,0,52.33-23.475,52.33-52.33C194.059,112.875,170.584,89.401,141.729,89.401z M176.683,145.714
		c-3.542,4.149-10.891,7.222-18.495,6.936c1.938,2.812,5.354,4.459,5.514,9.069c0.299,8.625-6.777,13.293-16.006,13.16
		c-2.01,1.463-0.781,6.166-2.458,7.963c0.03,1.029,0.063,2.064,0.086,3.061c-0.059,0.877-0.146,1.753-0.269,2.63
		c-0.173,1.231,0.045,2.462-0.209,3.663c-1.429-1.563-1.522-3.887-2.201-5.888c0.264,2.056,0.56,4.08,0.961,5.999
		c-1.328-1.184-1.244-3.328-1.6-5.156c-0.383-1.966-0.841-3.955-1.037-6.241c-0.061,0.068-0.107,0.153-0.113,0.274
		c-0.055,1.148-0.11,2.307-0.151,3.467c-0.016,0.043-0.029,0.088-0.03,0.14c-0.01,0.386-0.013,0.767-0.01,1.146
		c-0.059,2.528-0.002,5.065,0.332,7.563c-0.549,0.014-0.778-7.228-1.333-7.416c-0.014-1.469-0.485,4.274-0.655,2.814
		c-0.183-1.572-0.025-3.146-0.219-4.715c-0.018-0.137-0.848-5.558-1.117-1.807c0.32,3.09,0.625,6.211,0.421,9.219
		c-0.108-0.261-0.2-0.556-0.297-0.838c0.087,0.818,0.205,1.613,0.362,2.355c-1.459-1.158-2.688-4.034-3.043-9.306
		c-1.214-0.612-1.127-2.428-1.291-3.771c-0.839-6.915,0.773-13.132,4.98-16.183c-10.197,0.142-21.025-0.183-26.676-5.158
		c-1.18-1.038-3.137-3.456-3.379-5.334c-0.715-5.553,2.711-11.387,6.758-13.16c2.846-1.248,6.396-0.659,10.137-1.245
		c-5.041-1.947-10.736-6.685-10.137-13.159c0.285-3.086,2.592-6.978,5.335-8.715c5.32-3.368,14.266-1.535,22.052-2.134
		c-0.875-1.274-2.588-1.905-3.734-3.2c-2.705-3.056-4.203-7.953-3.734-12.982c0.174-1.873,1.127-3.685,1.066-5.691
		c0.062-0.232,0.312-0.279,0.355-0.533h0.533c1.012,7.12,0.576,12.977,3.913,17.25c2.188,2.803,7.565,4.636,12.804,4.269
		c1.268-0.089,4.461-1.248,4.802,0.533c0.396,2.072-6.138,2.149-8.003,2.312c-6.696,0.584-13.225,0.176-19.562,0.711
		c-3.341,0.283-6.647,0.613-8.536,1.602c-3.482,1.823-5.35,7.148-3.557,11.025c4.063,8.789,18.221,6.853,31.477,7.47
		c4.424,0.205,8.043,0.589,13.338,0.532c1.13-0.012,3.05-0.145,3.201,0.891c0.276,1.888-3.621,1.617-5.335,1.6
		c-9.052-0.095-18.718-0.361-27.731,0.16c1.375,0.163,2.746,0.369,4.113,0.652c1.956,0.407,3.94,0.963,5.748,1.827
		c1.373,0.657,2.594,1.556,3.994,2.172c3.983,1.753,8.658,1.464,11.324,4.561c1.387-0.132,2.722-0.293,3.975-0.479
		c4.787-0.716,9.473-3.053,11.559-5.869c3.134-4.23,0.655-10.436-3.023-12.449c-3.229-1.766-9.232-2.311-14.227-2.311
		c-6.743,0-15.527,0.875-23.652,0.355c-2.435-0.156-6.172-0.398-6.224-1.778c-0.065-1.752,4.017-1.204,6.579-1.067
		c3.166,0.168,5.602,0.152,7.648,0c4.564-0.34,11.041,0.105,15.471-0.178c5.422-0.348,11.633-4.809,11.025-11.382
		c-0.205-2.22-1.863-4.397-2.845-5.513c-1.8-2.043-5.36-4.095-8.181-4.268c-3.682-0.227-7.949,1.524-9.604-1.601
		c-0.558-1.054-0.574-3.083-0.533-5.157c0.033-1.674-0.154-4.019,1.067-4.624c2.141,1.653-0.382,7.97,1.956,9.425
		c2.645,0.593,5.125-0.314,7.469-0.178c6.029,0.352,12.529,6.152,12.982,11.915c0.425,5.401-2.93,9.079-6.402,11.56
		c4.148,0.771,8.07,1.15,10.848,3.734C179.205,133.912,180.68,141.033,176.683,145.714z"/>
	<path fill="#A3BC4B" d="M141.729,83.401c-32.162,0-58.328,26.166-58.328,58.328c0,32.163,26.166,58.33,58.328,58.33
		c32.164,0,58.33-26.167,58.33-58.33C200.059,109.567,173.893,83.401,141.729,83.401z M141.729,194.059
		c-28.854,0-52.328-23.475-52.328-52.33c0-28.854,23.475-52.328,52.328-52.328c28.855,0,52.33,23.475,52.33,52.328
		C194.059,170.584,170.584,194.059,141.729,194.059z"/>
	<path fill="#98D0DC" d="M146.274,172.746c2.34-1.868,6.615-1.078,9.604-2.489c2.826-1.336,5.77-5.381,4.527-9.535
		c-0.395-2.253-1.867-4.455-3.727-5.695c-0.918-0.717-2.01-1.195-3.271-1.298c-2.857-0.734-6.8-0.544-10.867-0.544
		c-6.853,0-11.8-0.234-18.496-0.712c-2.027-0.145-4.636,0.024-4.801-1.245c-0.266-2.04,3.351-1.461,4.979-1.422
		c1.839,0.043,4.899,0.234,6.401,0.355c6.101,0.488,11.109-0.139,15.828,0.178c4.197,0.281,8.785,0.16,12.92-0.231
		c-2.666-3.097-7.341-2.808-11.324-4.561c-1.4-0.616-2.621-1.515-3.994-2.172c-1.808-0.864-3.792-1.42-5.748-1.827
		c-1.367-0.283-2.738-0.489-4.113-0.652c-1.687,0.098-3.358,0.213-4.99,0.373c-3.842,0.377-8.932,0.175-12.094,1.424
		c-3.096,1.223-6.25,5.909-5.334,10.492c0.6,3.002,5.398,5.879,8.713,6.758c3.758,0.996,9.059,0.74,13.516,1.244
		c0.921,0.104,1.806,0.511,2.668,0.533c4.238,0.111,9.729-1.333,13.338,0.178c0.085,0.479,0.038,0.826-0.091,1.091
		c-1.657,0.757-3.392,1.065-5.214,1.333c-1.141,0.168-2.474,0.364-3.455,1.029c-1.102,0.746-1.95,1.713-2.613,2.8
		c-1.603,1.808-2.455,5.485-2.676,8.508c-0.176,2.407,0.564,5.043-0.533,7.292c-0.119-0.033-0.21-0.092-0.311-0.142
		c0.355,5.271,1.584,8.147,3.043,9.306c-0.157-0.742-0.275-1.537-0.362-2.355c-1.214-3.543-1.516-8.736-1.126-13.566
		c0.178,0,0.355,0,0.533,0c0.102,1.699,0.288,3.438,0.469,5.186c0.27-3.751,1.1,1.67,1.117,1.807
		c0.193,1.568,0.036,3.143,0.219,4.715c0.17,1.46,0.642-4.283,0.655-2.814c0.555,0.188,0.784,7.43,1.333,7.416
		c-0.334-2.498-0.391-5.035-0.332-7.563c-0.003-0.38,0-0.761,0.01-1.146c0.001-0.052,0.015-0.097,0.03-0.14
		c0.041-1.16,0.097-2.318,0.151-3.467c0.006-0.121,0.053-0.206,0.113-0.274c-0.107-1.253-0.141-2.593-0.031-4.073
		c0.167-0.131,0.27-0.324,0.356-0.534c0.574,3.211,0.919,6.651,1.351,10.006c0.679,2.001,0.772,4.324,2.201,5.888
		c0.254-1.201,0.036-2.432,0.209-3.663c0.123-0.877,0.21-1.753,0.269-2.63c-0.022-0.996-0.056-2.031-0.086-3.061
		c-0.011,0.013-0.02,0.028-0.031,0.04C144.196,179.383,143.897,174.642,146.274,172.746z M140.227,185.016
		c-2.03-4.355-1.369-11.945,1.067-15.294c0.206-0.029,0.315,0.04,0.355,0.179C140.003,173.911,139.503,179.633,140.227,185.016z
		 M155.166,168.122c-3.767,2.221-11.175,0.8-11.737,6.225C142.118,167.875,150.456,168.573,155.166,168.122z M144.851,192.129
		c-1.224-3.848-2.081-9.647-1.601-14.049C144.073,182.358,145.079,187.393,144.851,192.129z"/>
	<path fill="#E84E1B" d="M135.959,176.658c0.221-3.022,1.073-6.7,2.676-8.508c0.663-1.087,1.512-2.054,2.613-2.8
		c0.981-0.665,2.314-0.861,3.455-1.029c1.822-0.268,3.557-0.576,5.214-1.333c0.129-0.265,0.176-0.612,0.091-1.091
		c-3.608-1.511-9.1-0.066-13.338-0.178c-0.862-0.022-1.747-0.43-2.668-0.533c-4.457-0.504-9.758-0.248-13.516-1.244
		c-3.314-0.879-8.113-3.756-8.713-6.758c-0.916-4.583,2.238-9.27,5.334-10.492c3.162-1.249,8.252-1.047,12.094-1.424
		c1.632-0.16,3.304-0.275,4.99-0.373c9.014-0.521,18.68-0.255,27.731-0.16c1.714,0.018,5.611,0.288,5.335-1.6
		c-0.151-1.035-2.071-0.902-3.201-0.891c-5.295,0.057-8.914-0.327-13.338-0.532c-13.256-0.617-27.413,1.319-31.477-7.47
		c-1.793-3.877,0.074-9.202,3.557-11.025c1.889-0.988,5.195-1.318,8.536-1.602c6.337-0.535,12.865-0.127,19.562-0.711
		c1.865-0.162,8.399-0.239,8.003-2.312c-0.341-1.781-3.534-0.622-4.802-0.533c-5.238,0.367-10.616-1.466-12.804-4.269
		c-3.337-4.273-2.901-10.13-3.913-17.25h-0.533c-0.043,0.254-0.293,0.301-0.355,0.533c0.061,2.007-0.893,3.818-1.066,5.691
		c-0.469,5.029,1.029,9.927,3.734,12.982c1.146,1.295,2.859,1.926,3.734,3.2c-7.786,0.599-16.731-1.234-22.052,2.134
		c-2.743,1.737-5.05,5.629-5.335,8.715c-0.6,6.475,5.096,11.212,10.137,13.159c-3.74,0.586-7.291-0.003-10.137,1.245
		c-4.047,1.773-7.473,7.607-6.758,13.16c0.242,1.878,2.199,4.296,3.379,5.334c5.65,4.976,16.479,5.3,26.676,5.158
		c-4.207,3.051-5.819,9.268-4.98,16.183c0.164,1.344,0.077,3.159,1.291,3.771c0.101,0.05,0.191,0.108,0.311,0.142
		C136.524,181.701,135.784,179.065,135.959,176.658z"/>
	<path fill="#E84E1B" d="M175.26,130.243c-2.777-2.584-6.699-2.963-10.848-3.734c3.473-2.48,6.827-6.158,6.402-11.56
		c-0.453-5.763-6.953-11.563-12.982-11.915c-2.344-0.137-4.824,0.771-7.469,0.178c-2.338-1.455,0.185-7.771-1.956-9.425
		c-1.222,0.605-1.034,2.95-1.067,4.624c-0.041,2.074-0.024,4.104,0.533,5.157c1.654,3.125,5.922,1.374,9.604,1.601
		c2.82,0.173,6.381,2.225,8.181,4.268c0.981,1.115,2.64,3.293,2.845,5.513c0.607,6.573-5.604,11.034-11.025,11.382
		c-4.43,0.283-10.906-0.162-15.471,0.178c-2.047,0.152-4.482,0.168-7.648,0c-2.562-0.137-6.645-0.685-6.579,1.067
		c0.052,1.38,3.789,1.622,6.224,1.778c8.125,0.52,16.909-0.355,23.652-0.355c4.994,0,10.998,0.545,14.227,2.311
		c3.679,2.014,6.157,8.219,3.023,12.449c-2.086,2.816-6.771,5.153-11.559,5.869c-1.253,0.187-2.588,0.348-3.975,0.479
		c-4.135,0.392-8.723,0.513-12.92,0.231c-4.719-0.316-9.728,0.311-15.828-0.178c-1.502-0.121-4.562-0.312-6.401-0.355
		c-1.629-0.039-5.245-0.618-4.979,1.422c0.165,1.27,2.773,1.101,4.801,1.245c6.696,0.478,11.644,0.712,18.496,0.712
		c4.067,0,8.01-0.19,10.867,0.544c1.262,0.103,2.354,0.581,3.271,1.298c1.859,1.24,3.332,3.442,3.727,5.695
		c1.242,4.154-1.701,8.199-4.527,9.535c-2.988,1.411-7.264,0.621-9.604,2.489c-2.377,1.896-2.078,6.638-1.067,10.137
		c0.012-0.012,0.021-0.027,0.031-0.04c1.677-1.797,0.448-6.5,2.458-7.963c9.229,0.133,16.305-4.535,16.006-13.16
		c-0.16-4.61-3.575-6.258-5.514-9.069c7.604,0.286,14.953-2.786,18.495-6.936C180.68,141.033,179.205,133.912,175.26,130.243z"/>
	<path fill="#6EB0BC" d="M155.166,168.122c-4.71,0.451-13.048-0.246-11.737,6.225C143.991,168.921,151.399,170.342,155.166,168.122z
		"/>
	<path fill="#6EB0BC" d="M141.294,169.722c-2.437,3.349-3.098,10.938-1.067,15.294c-0.724-5.383-0.224-11.105,1.423-15.115
		C141.61,169.762,141.5,169.693,141.294,169.722z"/>
	<path fill="#6EB0BC" d="M140.938,176.836c-0.109,1.48-0.076,2.82,0.031,4.073c0.196,2.286,0.654,4.275,1.037,6.241
		c0.355,1.828,0.271,3.973,1.6,5.156c-0.401-1.919-0.697-3.943-0.961-5.999c-0.432-3.354-0.776-6.795-1.351-10.006
		C141.208,176.512,141.105,176.706,140.938,176.836z"/>
	<path fill="#6EB0BC" d="M136.67,177.192c-0.39,4.83-0.088,10.023,1.126,13.566c0.097,0.282,0.188,0.577,0.297,0.838
		c0.204-3.008-0.101-6.129-0.421-9.219c-0.181-1.748-0.367-3.486-0.469-5.186C137.026,177.192,136.848,177.192,136.67,177.192z"/>
	<path fill="#6EB0BC" d="M144.851,192.129c0.228-4.736-0.778-9.771-1.601-14.049C142.77,182.482,143.627,188.282,144.851,192.129z"
		/>
</g>
</svg>
