<?xml version="1.0" encoding="utf-8"?>
<!-- Generator: Adobe Illustrator 15.1.0, SVG Export Plug-In . SVG Version: 6.00 Build 0)  -->
<!DOCTYPE svg PUBLIC "-//W3C//DTD SVG 1.1//EN" "http://www.w3.org/Graphics/SVG/1.1/DTD/svg11.dtd">
<svg version="1.1" id="Ebene_1" xmlns="http://www.w3.org/2000/svg" xmlns:xlink="http://www.w3.org/1999/xlink" x="0px" y="0px"
	 width="283.46px" height="283.46px" viewBox="0 0 283.46 283.46" enable-background="new 0 0 283.46 283.46" xml:space="preserve">
<g>
	<path fill="#FFFFFF" d="M141.73,89.401c-28.854,0-52.329,23.475-52.329,52.329c0,28.854,23.475,52.329,52.329,52.329
		c28.855,0,52.33-23.475,52.33-52.329C194.06,112.876,170.585,89.401,141.73,89.401z M176.653,160.927
		c-5.959,7.758-15.031,14.012-26.376,16.311c-13.081,2.65-25.381-0.188-34.438-6.242c-8.186-5.474-15.408-14.098-15.507-26.985
		c-0.086-11.607,5.757-21.075,12.284-26.783c6.901-6.036,16.272-10.622,28.597-11.278c12.8-0.679,21.916,3.898,28.798,9.668
		c4.224-0.328,6.087,3.086,8.056,5.839c4.282,5.995,7.402,15.095,5.436,24.972C182.402,151.957,179.534,157.18,176.653,160.927z"/>
	<path fill="#FFFFFF" d="M169.205,117.026c-6.62-5.179-14.729-8.446-25.575-8.457c-17.534-0.02-30.193,9.446-36.45,21.144
		c0.304,0.034,0.744-0.071,0.807,0.201c-1.168,0.913-2.155,2.008-2.417,3.827c0.428,0.349,0.882-0.989,1.812-0.806
		c-0.912,1.372-3.235,2.4-2.618,4.631c0.558-0.953,1.454-2.529,2.618-2.217c-0.506,3.053-3.736,4.453-3.222,7.856
		c1.284-1.946,2.033-5.474,4.631-5.438c-1.088,2.468-4.306,4.711-4.631,8.057c-0.286,2.949,1.399,5.846,2.415,8.457
		c1.114-4.524,0.935-10.345,5.035-11.882c-1.436,3.337-5.714,11.772-3.219,15.305c0.253-2.501,0.555-5.372,1.206-7.854
		c0.587-2.239,1.266-5.056,3.423-5.235c-2.108,4.066-3.252,9.098-3.625,14.9c0.546,0.26,0.582,1.033,1.209,1.21
		c0.208-5.03,0.139-11.402,4.027-12.084c0.294,0.918-0.661,1.385-1.008,2.216c-1.227,2.93-1.373,7.641-1.41,11.68
		c1.035,1.115,2.464,2.904,3.828,3.021c-1.732-3.219-3.195-11.656,0.402-13.896c-1.351,4.827-2.013,14.146,2.416,16.11
		c-1.486-2.801-2.949-10.928,0.604-11.883c-1.465,5.027-1.363,13.652,4.03,14.3c-1.022-2.409-3.526-8.401-0.202-10.272
		c0.074,4.533-0.365,11.207,4.429,11.682c-0.744-1.516-4.496-5.457-2.216-8.055c1.46,3.641,1.697,8.508,6.244,9.061
		c-0.559-1.158-3.973-4.068-2.016-6.443c1.623,2.674,2.464,6.129,6.043,6.847c0.092-0.186-1.847-2.534-0.202-3.021
		c1.243,0.841,1.684,2.479,3.021,3.222c11.521-0.135,19.604-3.602,26.784-9.462c6.198-5.062,11.62-12.103,12.282-21.348
		c0.764-10.661-3.54-17.196-8.256-23.358C168.866,118.547,169.528,117.3,169.205,117.026z M105.569,150.857
		c0.017-4.359,0.994-9.465,4.23-11.275C107.721,142.671,107.116,147.237,105.569,150.857z M142.018,142.803
		c-1.233,4.135,1.915,11.825-2.417,12.081c-4.843,0.287-1.606-7.92-2.012-12.283c-3.431-1.271-9.135-0.266-11.883-2.215
		c2.214-2.328,8.263-0.244,11.883-0.805c1.016-3.666-0.622-11.637,2.415-12.688c1.521-0.528,1.927,2.826,2.014,4.026
		c0.21,2.87-0.161,6.091,0,8.661c3.601,0.916,10.922-2.243,11.679,1.609C154.868,147.123,145.218,142.904,142.018,142.803z"/>
	<path fill="#A3BC4B" d="M141.73,83.401c-32.162,0-58.329,26.167-58.329,58.329c0,32.163,26.167,58.329,58.329,58.329
		c32.163,0,58.33-26.166,58.33-58.329C200.06,109.568,173.893,83.401,141.73,83.401z M141.73,194.059
		c-28.854,0-52.329-23.475-52.329-52.329c0-28.854,23.475-52.329,52.329-52.329c28.855,0,52.33,23.475,52.33,52.329
		C194.06,170.584,170.585,194.059,141.73,194.059z"/>
	<path fill="#ABDCEF" d="M178.067,121.456c-1.969-2.753-3.832-6.167-8.056-5.839c-6.882-5.77-15.998-10.347-28.798-9.668
		c-12.324,0.656-21.695,5.242-28.597,11.278c-6.527,5.708-12.37,15.176-12.284,26.783c0.099,12.888,7.321,21.512,15.507,26.985
		c9.057,6.055,21.356,8.893,34.438,6.242c11.345-2.299,20.417-8.553,26.376-16.311c2.881-3.747,5.749-8.971,6.85-14.5
		C185.469,136.55,182.349,127.451,178.067,121.456z M177.662,142.399c-0.662,9.245-6.084,16.285-12.282,21.348
		c-7.18,5.86-15.263,9.327-26.784,9.462c-1.338-0.743-1.778-2.381-3.021-3.222c-1.645,0.487,0.294,2.836,0.202,3.021
		c-3.579-0.718-4.42-4.173-6.043-6.847c-1.957,2.375,1.457,5.285,2.016,6.443c-4.547-0.553-4.784-5.42-6.244-9.061
		c-2.28,2.598,1.472,6.539,2.216,8.055c-4.794-0.475-4.354-7.148-4.429-11.682c-3.324,1.871-0.82,7.863,0.202,10.272
		c-5.394-0.647-5.495-9.272-4.03-14.3c-3.553,0.955-2.09,9.082-0.604,11.883c-4.429-1.965-3.767-11.283-2.416-16.11
		c-3.598,2.239-2.135,10.677-0.402,13.896c-1.364-0.117-2.793-1.906-3.828-3.021c0.037-4.039,0.184-8.75,1.41-11.68
		c0.347-0.831,1.302-1.298,1.008-2.216c-3.889,0.682-3.819,7.054-4.027,12.084c-0.627-0.177-0.663-0.95-1.209-1.21
		c0.373-5.803,1.517-10.834,3.625-14.9c-2.157,0.18-2.836,2.996-3.423,5.235c-0.651,2.481-0.953,5.353-1.206,7.854
		c-2.495-3.532,1.783-11.968,3.219-15.305c-4.101,1.537-3.921,7.357-5.035,11.882c-1.016-2.611-2.701-5.508-2.415-8.457
		c0.325-3.346,3.543-5.589,4.631-8.057c-2.598-0.035-3.347,3.492-4.631,5.438c-0.515-3.403,2.716-4.804,3.222-7.856
		c-1.164-0.312-2.061,1.264-2.618,2.217c-0.617-2.23,1.706-3.259,2.618-4.631c-0.931-0.184-1.385,1.154-1.812,0.806
		c0.262-1.819,1.249-2.914,2.417-3.827c-0.062-0.272-0.503-0.167-0.807-0.201c6.257-11.697,18.916-21.163,36.45-21.144
		c10.847,0.011,18.955,3.278,25.575,8.457c0.323,0.274-0.339,1.521,0.201,2.015C174.122,125.203,178.425,131.738,177.662,142.399z"
		/>
	<path fill="#ABDCEF" d="M142.018,139.582c-0.161-2.57,0.21-5.791,0-8.661c-0.087-1.2-0.492-4.555-2.014-4.026
		c-3.037,1.051-1.399,9.021-2.415,12.688c-3.62,0.561-9.669-1.523-11.883,0.805c2.748,1.949,8.452,0.944,11.883,2.215
		c0.405,4.363-2.831,12.57,2.012,12.283c4.332-0.256,1.184-7.946,2.417-12.081c3.2,0.101,12.85,4.319,11.679-1.612
		C152.94,137.338,145.619,140.498,142.018,139.582z"/>
	<path fill="#ABDCEF" d="M105.569,150.857c1.547-3.62,2.152-8.186,4.23-11.275C106.563,141.392,105.585,146.498,105.569,150.857z"/>
</g>
</svg>
