<?xml version="1.0" encoding="utf-8"?>
<!-- Generator: Adobe Illustrator 15.1.0, SVG Export Plug-In . SVG Version: 6.00 Build 0)  -->
<!DOCTYPE svg PUBLIC "-//W3C//DTD SVG 1.1//EN" "http://www.w3.org/Graphics/SVG/1.1/DTD/svg11.dtd">
<svg version="1.1" id="Ebene_1" xmlns="http://www.w3.org/2000/svg" xmlns:xlink="http://www.w3.org/1999/xlink" x="0px" y="0px"
	 width="283.46px" height="283.46px" viewBox="0 0 283.46 283.46" enable-background="new 0 0 283.46 283.46" xml:space="preserve">
<g>
	<path fill="#FFFFFF" d="M173.592,121.749c-7.886-8.411-19.497-15.287-35.845-13.646c-17.692,1.776-32.467,13.208-33.807,30.347
		c0.828-2.183,2.979-6.854,5.294-5.297c-2.661,2.726-6.242,6.633-5.093,11.814c0.871-3.066,1.25-6.625,4.279-7.536
		c-0.718,4.349-5.006,8.633-2.852,13.237c0.57-3.773,0.588-8.102,3.461-9.57c0.046,0.158,0.17,0.236,0.406,0.203
		c-0.057,4.361-4.677,11.328-1.016,15.072c0.185-4.025-0.422-8.844,2.238-10.389c0.873,3.342-2.645,10.889,0.407,13.85
		c-0.116-3.07-0.891-7.922,2.039-8.555c-0.568,3.625-1.661,12.316,1.63,11.812c-0.244-1.928-1.15-5.766,0.611-6.719
		c1.559,2.717,0.149,9.482,3.458,9.775c-0.45-1.77-1.268-5.293,0.409-6.314c0.73,2.596,0.723,5.928,1.834,8.146
		c0.98,0.174,1.461,0.846,2.443,1.018c-0.213-1.461-1.365-4.383,0-5.5c1.193,2.203,0.432,6.359,3.259,6.926
		c-0.354-1.512-1.163-4.393-0.204-5.906c0.886,1.898,1.041,4.527,1.832,6.518c1.309,0.117,2.156,0.697,3.463,0.812
		c-0.248-1.314-1.193-3.008-0.611-4.479c1.246,1.471,0.418,5.014,3.26,4.889c0.026-1.342-1.328-3.162-0.203-4.277
		c0.316,1.857,0.904,3.438,1.834,4.684c1.443-0.154,2.325,0.252,3.664,0.205c-0.049-1.174-0.779-1.664-0.611-3.055
		c1.031,0.666,1.131,2.262,2.038,3.055c0.678,0,1.356,0,2.034,0c0.44-0.174,0.173-1.051,0.613-1.223
		c0.641,0.035,0.26,1.096,1.019,1.018c17.968-2.492,32.581-12.545,33.605-30.548c0.259-4.582-0.657-8.297-1.833-11.406
		C175.49,127.655,172.892,125.185,173.592,121.749z M147.727,141.912c-1.93,7.66-15.531,8.21-18.53,1.017
		c-2.463-5.892,2.141-10.783,7.533-11.608C143.14,130.337,149.599,134.484,147.727,141.912z M157.911,166.349
		c9.718-6.305,18.654-16.416,15.886-33.197c-0.057-0.326,0.193-0.35,0.205-0.611c0.329-0.057,0.35,0.195,0.609,0.205
		C181.082,148.783,169.775,162.48,157.911,166.349z"/>
	<path fill="#FFFFFF" d="M141.73,89.4c-28.854,0-52.329,23.475-52.329,52.33c0,28.853,23.475,52.33,52.329,52.33
		s52.329-23.477,52.329-52.33C194.059,112.875,170.584,89.4,141.73,89.4z M171.152,168.386c-7.296,5.846-16.382,9.844-28.72,9.777
		c-11.368-0.062-20.874-3.658-28.718-9.777c-7.199-5.615-13.127-13.846-13.847-24.439c-0.798-11.683,4.386-20.812,10.995-27.087
		c6.329-6.006,15.045-10.764,27.291-11.609c17.494-1.205,28.713,6.324,36.661,15.275c4.794,0.789,6.656,6.135,8.148,10.389
		C188.676,147.232,179.824,161.435,171.152,168.386z"/>
	<path fill="#A3BC4B" d="M141.73,83.401c-32.163,0-58.329,26.167-58.329,58.33c0,32.162,26.166,58.33,58.329,58.33
		s58.329-26.168,58.329-58.33C200.059,109.567,173.893,83.401,141.73,83.401z M141.73,194.06c-28.854,0-52.329-23.477-52.329-52.33
		c0-28.855,23.475-52.33,52.329-52.33s52.329,23.475,52.329,52.33C194.059,170.583,170.584,194.06,141.73,194.06z"/>
	<path fill="#ABDCEF" d="M182.963,130.914c-1.492-4.254-3.354-9.6-8.148-10.389c-7.948-8.951-19.167-16.48-36.661-15.275
		c-12.246,0.846-20.962,5.604-27.291,11.609c-6.609,6.275-11.793,15.404-10.995,27.087c0.72,10.594,6.647,18.824,13.847,24.439
		c7.844,6.119,17.35,9.715,28.718,9.777c12.338,0.066,21.424-3.932,28.72-9.777C179.824,161.435,188.676,147.232,182.963,130.914z
		 M178.483,142.115c-1.024,18.003-15.638,28.056-33.605,30.548c-0.759,0.078-0.378-0.982-1.019-1.018
		c-0.44,0.172-0.173,1.049-0.613,1.223c-0.678,0-1.356,0-2.034,0c-0.907-0.793-1.007-2.389-2.038-3.055
		c-0.168,1.391,0.562,1.881,0.611,3.055c-1.339,0.047-2.221-0.359-3.664-0.205c-0.93-1.246-1.518-2.826-1.834-4.684
		c-1.125,1.115,0.229,2.936,0.203,4.277c-2.842,0.125-2.014-3.418-3.26-4.889c-0.582,1.471,0.363,3.164,0.611,4.479
		c-1.307-0.115-2.154-0.695-3.463-0.812c-0.791-1.99-0.946-4.619-1.832-6.518c-0.959,1.514-0.15,4.395,0.204,5.906
		c-2.827-0.566-2.065-4.723-3.259-6.926c-1.365,1.117-0.213,4.039,0,5.5c-0.982-0.172-1.463-0.844-2.443-1.018
		c-1.111-2.219-1.104-5.551-1.834-8.146c-1.677,1.021-0.859,4.545-0.409,6.314c-3.309-0.293-1.899-7.059-3.458-9.775
		c-1.762,0.953-0.855,4.791-0.611,6.719c-3.291,0.504-2.198-8.188-1.63-11.812c-2.93,0.633-2.155,5.484-2.039,8.555
		c-3.052-2.961,0.466-10.508-0.407-13.85c-2.66,1.545-2.054,6.363-2.238,10.389c-3.661-3.744,0.959-10.711,1.016-15.072
		c-0.236,0.033-0.36-0.045-0.406-0.203c-2.873,1.468-2.891,5.796-3.461,9.57c-2.154-4.604,2.134-8.888,2.852-13.237
		c-3.029,0.911-3.408,4.47-4.279,7.536c-1.149-5.181,2.432-9.088,5.093-11.814c-2.315-1.558-4.466,3.114-5.294,5.297
		c1.34-17.139,16.114-28.57,33.807-30.347c16.348-1.641,27.959,5.235,35.845,13.646c-0.7,3.436,1.897,5.906,3.058,8.96
		C177.826,133.818,178.742,137.533,178.483,142.115z"/>
	<path fill="#ABDCEF" d="M136.73,131.321c-5.393,0.825-9.996,5.716-7.533,11.608c2.999,7.193,16.601,6.643,18.53-1.017
		C149.599,134.484,143.14,130.337,136.73,131.321z"/>
	<path fill="#ABDCEF" d="M174.001,132.541c-0.012,0.262-0.262,0.285-0.205,0.611c2.769,16.781-6.168,26.892-15.886,33.197
		c11.864-3.869,23.171-17.566,16.7-33.603C174.351,132.736,174.331,132.484,174.001,132.541z"/>
</g>
</svg>
