<?xml version="1.0" encoding="utf-8"?>
<!-- Generator: Adobe Illustrator 15.1.0, SVG Export Plug-In . SVG Version: 6.00 Build 0)  -->
<!DOCTYPE svg PUBLIC "-//W3C//DTD SVG 1.1//EN" "http://www.w3.org/Graphics/SVG/1.1/DTD/svg11.dtd">
<svg version="1.1" id="Ebene_1" xmlns="http://www.w3.org/2000/svg" xmlns:xlink="http://www.w3.org/1999/xlink" x="0px" y="0px"
	 width="283.46px" height="283.46px" viewBox="0 0 283.46 283.46" enable-background="new 0 0 283.46 283.46" xml:space="preserve">
<g>
	<path fill="#FFFFFF" d="M141.729,89.401c-28.854,0-52.328,23.475-52.328,52.329s23.475,52.33,52.328,52.33
		c28.855,0,52.33-23.476,52.33-52.33S170.584,89.401,141.729,89.401z M145.926,157.6c1.188,19.21,13.307,25.57,14.389,27.065
		c-8.419,3.653-17.645,5.114-27.162,3.926c-1.74-0.217-3.447-0.558-5.133-0.99c9.846-20.658,5.572-30.78,3.189-45.388
		c-2.113-12.963-9.18-31.808-22.877-35.68c7.055-4.948,19.065-11.296,26.934-12.878c2.729-0.151,5.452-0.394,8.193-0.601
		c5.06-0.382,9.403,0.821,14.01,2.801c3.26,1.4,8.424,3.991,12.974,6.664C159.168,111.512,143.477,117.999,145.926,157.6z"/>
	<path fill="#A3BC4B" d="M141.729,83.401c-32.162,0-58.328,26.166-58.328,58.329s26.166,58.33,58.328,58.33
		c32.163,0,58.33-26.167,58.33-58.33S173.892,83.401,141.729,83.401z M141.729,194.06c-28.854,0-52.328-23.476-52.328-52.33
		s23.475-52.329,52.328-52.329c28.855,0,52.33,23.475,52.33,52.329S170.584,194.06,141.729,194.06z"/>
	<path fill="#D7C8B9" d="M170.443,102.52c-4.55-2.673-9.714-5.264-12.974-6.664c-4.606-1.979-8.95-3.183-14.01-2.801
		c-2.741,0.207-5.465,0.449-8.193,0.601c-7.868,1.582-19.879,7.93-26.934,12.878c13.697,3.872,20.764,22.717,22.877,35.68
		c2.383,14.607,6.656,24.729-3.189,45.388c1.686,0.433,3.393,0.773,5.133,0.99c9.518,1.188,18.743-0.272,27.162-3.926
		c-1.082-1.495-13.201-7.855-14.389-27.065C143.477,117.999,159.168,111.512,170.443,102.52z"/>
</g>
</svg>
