<?xml version="1.0" encoding="utf-8"?>
<!-- Generator: Adobe Illustrator 15.1.0, SVG Export Plug-In . SVG Version: 6.00 Build 0)  -->
<!DOCTYPE svg PUBLIC "-//W3C//DTD SVG 1.1//EN" "http://www.w3.org/Graphics/SVG/1.1/DTD/svg11.dtd">
<svg version="1.1" id="Ebene_1" xmlns="http://www.w3.org/2000/svg" xmlns:xlink="http://www.w3.org/1999/xlink" x="0px" y="0px"
	 width="283.46px" height="283.46px" viewBox="0 0 283.46 283.46" enable-background="new 0 0 283.46 283.46" xml:space="preserve">
<g>
	<path fill="#FFFFFF" d="M141.729,89.401c-28.854,0-52.328,23.475-52.328,52.331c0,28.854,23.475,52.329,52.328,52.329
		c28.854,0,52.33-23.475,52.33-52.329C194.059,112.876,170.583,89.401,141.729,89.401z M135.026,110.419
		c0.162,0.831,0.463,1.523,0.557,2.418c0.307,0.315,1.012,0.231,1.305,0.56c0.215,0.84,0.719,1.387,0.557,2.604
		c0.389,0.293,1.236,0.129,1.674,0.372c0.643,1.361,1.027,4.907-0.371,5.767c-0.914-0.326-0.406-2.073-0.744-2.977
		c-0.455-0.356-0.91,0.448-1.676,0c-0.707-0.842-0.482-2.616-0.744-3.906c-0.076-0.418-0.984-0.004-1.115-0.371
		c-0.242-4.409-3.648-5.654-3.906-10.046C132.5,106.247,132.67,109.426,135.026,110.419z M123.12,110.234
		c3.08-2.743,4.369,2.284,5.395,4.465c0.416-0.269,0.896-0.467,1.674-0.372c1.643,1.221,1.6,3.402,2.791,4.836
		c0.369,0.444,1.125,0.621,1.488,1.117c1,1.356,1.164,3.518,1.49,5.581c-2.059-0.422-1.895-3.066-2.791-4.651
		c-2.451-0.276-2.783-2.673-3.721-4.465c-0.416,0.269-0.898,0.467-1.676,0.372c-1.793-1.246-2.154-3.923-2.977-6.14
		c-0.891,0.04-0.705,1.156-1.859,0.932c-1.656-2.008-2.107-6.197-2.418-8.932C122.145,104.635,122.27,107.795,123.12,110.234z
		 M119.772,111.164c1.529,1.261,1.586,3.995,2.602,5.768c0.615-0.009,0.928-0.314,1.676-0.187c1.248,0.8,1.549,2.545,2.42,3.721
		c0.27-0.287,0.951-0.164,1.486-0.186c1.473,1.793,3.742,4.637,2.979,7.442c-2.141-0.961-2.482-3.721-3.723-5.583
		c-0.309,0.312-1.092,0.148-1.674,0.187c-1.088-0.835-1.791-2.055-2.23-3.534c-3.648,0.526-3.699-4.101-3.908-7.628
		C119.524,111.164,119.647,111.164,119.772,111.164z M105.258,150.605c2.611-0.242,5.217,1.102,8,1.301
		c0.488-0.258-0.088-1.578,0.373-1.861c1.266-0.76,3.211,0.004,4.652,0.188c0.295-0.695,0.357-1.625,1.115-1.859
		c2.676,0.301,5.516,0.436,6.697,2.232c-1.842,0.574-3.725-0.35-5.58-0.373c-0.461,0.16,0.055,1.295-0.373,1.488
		c-0.891,0.91-3.256,0.553-4.465,0.186c-0.293,0.514-0.271,1.34-0.744,1.674c-1.807,0.398-3.705-0.248-5.396-0.742
		C107.961,152.375,105.922,152.009,105.258,150.605z M120.516,157.115c-0.139,2.404-2.811,2.275-5.209,2.418
		c1.059,3.654-3.643,3.018-6.514,3.35c0.488,0.445,1.285,0.574,1.303,1.488c-1.553,0.227-3.479-0.719-4.463-1.674
		c0.352-2.996,5.275-1.424,7.625-2.42c-1.59-3.023,2.533-3.035,5.025-3.162c0.52-0.098,0.344-0.896,0.557-1.301
		c1.744-0.516,5.746-1.531,8-1.303c0.402,0.041,0.801,0.064,0.93,0.557C126.543,156.941,122.989,156.49,120.516,157.115z
		 M154.559,184.648c-0.221-8.059-2.186-14.863-7.998-17.486c-1.334-0.602-2.73-0.758-3.908-1.303
		c-3.35-1.549-6.486-3.455-9.115-6.326c-3.016-3.291-6.178-7.809-6.697-13.951c-0.051-0.607,0.258-1.662,0-2.418
		c-0.467-1.375-2.455-1.897-2.979-3.165c-2.225-5.422,4.205-7.436,7.258-9.488c7.93-5.332,15.57-12.713,21.58-20.091
		c1.205-1.479,2.479-3.13,3.535-4.837c1.012-1.635,1.658-3.843,2.975-5.395c0.137-0.174,0.34-0.282,0.559-0.373
		c0.15,0.036,0.186,0.188,0.373,0.188c-0.15,1.291-0.223,2.526-0.744,3.906c-2.248,5.941-7.502,11.835-11.906,16.557
		c-2.252,2.414-4.742,4.645-7.256,6.883c-4.074,3.627-7.201,6.98-12.836,8.744c-0.365,0.689-0.807,1.303-1.117,2.047
		c0.238,0.816,0.686,1.422,1.117,2.045c1.164-0.57,0.406-3.066,1.859-3.348c1.131,2.217-0.916,4.223-0.371,7.071
		c2.84-1.688,5.355-5.313,5.395-10.418c2.357,4.781-1.906,10.522-5.209,12.278c2.135,7.777,6.941,12.416,13.395,15.998
		c3.256,1.809,6.98,3.152,9.303,5.582C155.077,170.81,156.1,178.101,154.559,184.648z M169.442,155.814
		c-1.387,2.729-4.572,6.439-6.139,7.812c-2.172,1.904-5.393,4.076-9.117,2.977c1.256-1.715,3.566-2.098,5.396-3.164
		c4.961-2.879,9.242-7.672,10.232-14.881c0.098-0.15,0.195-0.303,0.186-0.559c0.217-0.031,0.33,0.041,0.371,0.186
		C170.618,150.697,170.452,153.828,169.442,155.814z"/>
	<path fill="#A3BC4B" d="M141.729,83.401c-32.162,0-58.328,26.167-58.328,58.331c0,32.163,26.166,58.329,58.328,58.329
		c32.163,0,58.33-26.166,58.33-58.329C200.059,109.568,173.892,83.401,141.729,83.401z M141.729,194.06
		c-28.854,0-52.328-23.475-52.328-52.329c0-28.855,23.475-52.331,52.328-52.331c28.854,0,52.33,23.475,52.33,52.331
		C194.059,170.585,170.583,194.06,141.729,194.06z"/>
	<path fill="#E84E1B" d="M142.467,161.765c-6.453-3.582-11.26-8.221-13.395-15.998c3.303-1.756,7.566-7.497,5.209-12.278
		c-0.039,5.105-2.555,8.73-5.395,10.418c-0.545-2.848,1.502-4.854,0.371-7.071c-1.453,0.281-0.695,2.777-1.859,3.348
		c-0.432-0.623-0.879-1.229-1.117-2.045c0.311-0.744,0.752-1.357,1.117-2.047c5.635-1.764,8.762-5.117,12.836-8.744
		c2.514-2.238,5.004-4.469,7.256-6.883c4.404-4.722,9.658-10.615,11.906-16.557c0.521-1.38,0.594-2.615,0.744-3.906
		c-0.188,0-0.223-0.151-0.373-0.188c-0.219,0.091-0.422,0.199-0.559,0.373c-1.316,1.552-1.963,3.76-2.975,5.395
		c-1.057,1.707-2.33,3.357-3.535,4.837c-6.01,7.378-13.65,14.759-21.58,20.091c-3.053,2.053-9.482,4.066-7.258,9.488
		c0.523,1.268,2.512,1.789,2.979,3.165c0.258,0.756-0.051,1.811,0,2.418c0.52,6.143,3.682,10.66,6.697,13.951
		c2.629,2.871,5.766,4.777,9.115,6.326c1.178,0.545,2.574,0.701,3.908,1.303c5.812,2.623,7.777,9.428,7.998,17.486
		c1.541-6.547,0.518-13.838-2.789-17.301C149.448,164.917,145.723,163.574,142.467,161.765z"/>
	<path fill="#E84E1B" d="M124.793,110.977c0.822,2.217,1.184,4.894,2.977,6.14c0.777,0.095,1.26-0.104,1.676-0.372
		c0.938,1.792,1.27,4.188,3.721,4.465c0.896,1.585,0.732,4.229,2.791,4.651c-0.326-2.062-0.49-4.224-1.49-5.581
		c-0.363-0.496-1.119-0.673-1.488-1.117c-1.191-1.434-1.148-3.615-2.791-4.836c-0.777-0.095-1.258,0.104-1.674,0.372
		c-1.025-2.181-2.314-7.208-5.395-4.465c-0.85-2.438-0.975-5.599-2.604-7.257c0.311,2.734,0.762,6.924,2.418,8.932
		C124.088,112.133,123.903,111.017,124.793,110.977z"/>
	<path fill="#E84E1B" d="M135.583,115.256c0.262,1.29,0.037,3.064,0.744,3.906c0.766,0.448,1.221-0.356,1.676,0
		c0.338,0.903-0.17,2.65,0.744,2.977c1.398-0.859,1.014-4.405,0.371-5.767c-0.438-0.243-1.285-0.079-1.674-0.372
		c0.162-1.217-0.342-1.764-0.557-2.604c-0.293-0.328-0.998-0.244-1.305-0.56c-0.094-0.895-0.395-1.587-0.557-2.418
		c-2.355-0.993-2.525-4.173-4.465-5.58c0.258,4.392,3.664,5.637,3.906,10.046C134.598,115.252,135.506,114.838,135.583,115.256z"/>
	<path fill="#E84E1B" d="M123.307,118.792c0.439,1.479,1.143,2.699,2.23,3.534c0.582-0.038,1.365,0.126,1.674-0.187
		c1.24,1.862,1.582,4.622,3.723,5.583c0.764-2.805-1.506-5.649-2.979-7.442c-0.535,0.021-1.217-0.102-1.486,0.186
		c-0.871-1.176-1.172-2.921-2.42-3.721c-0.748-0.128-1.061,0.178-1.676,0.187c-1.016-1.772-1.072-4.507-2.602-5.768
		c-0.125,0-0.248,0-0.373,0C119.608,114.691,119.659,119.318,123.307,118.792z"/>
	<path fill="#E84E1B" d="M170,148c0.01,0.256-0.088,0.408-0.186,0.559c-0.99,7.209-5.271,12.002-10.232,14.881
		c-1.83,1.066-4.141,1.449-5.396,3.164c3.725,1.1,6.945-1.072,9.117-2.977c1.566-1.373,4.752-5.084,6.139-7.812
		c1.01-1.986,1.176-5.117,0.93-7.629C170.331,148.041,170.217,147.968,170,148z"/>
	<path fill="#E84E1B" d="M114.934,153.58c0.473-0.334,0.451-1.16,0.744-1.674c1.209,0.367,3.574,0.725,4.465-0.186
		c0.428-0.193-0.088-1.328,0.373-1.488c1.855,0.023,3.738,0.947,5.58,0.373c-1.182-1.797-4.021-1.932-6.697-2.232
		c-0.758,0.234-0.82,1.164-1.115,1.859c-1.441-0.184-3.387-0.947-4.652-0.188c-0.461,0.283,0.115,1.604-0.373,1.861
		c-2.783-0.199-5.389-1.543-8-1.301c0.664,1.404,2.703,1.77,4.279,2.232C111.229,153.332,113.127,153.978,114.934,153.58z"/>
	<path fill="#E84E1B" d="M126.84,154.511c-2.254-0.229-6.256,0.787-8,1.303c-0.213,0.404-0.037,1.203-0.557,1.301
		c-2.492,0.127-6.615,0.139-5.025,3.162c-2.35,0.996-7.273-0.576-7.625,2.42c0.984,0.955,2.91,1.9,4.463,1.674
		c-0.018-0.914-0.814-1.043-1.303-1.488c2.871-0.332,7.572,0.305,6.514-3.35c2.398-0.143,5.07-0.014,5.209-2.418
		c2.473-0.625,6.027-0.174,7.254-2.047C127.641,154.576,127.243,154.552,126.84,154.511z"/>
</g>
</svg>
