<?xml version="1.0" encoding="utf-8"?>
<!-- Generator: Adobe Illustrator 15.1.0, SVG Export Plug-In . SVG Version: 6.00 Build 0)  -->
<!DOCTYPE svg PUBLIC "-//W3C//DTD SVG 1.1//EN" "http://www.w3.org/Graphics/SVG/1.1/DTD/svg11.dtd">
<svg version="1.1" id="Ebene_1" xmlns="http://www.w3.org/2000/svg" xmlns:xlink="http://www.w3.org/1999/xlink" x="0px" y="0px"
	 width="283.46px" height="283.46px" viewBox="0 0 283.46 283.46" enable-background="new 0 0 283.46 283.46" xml:space="preserve">
<g>
	<path fill="#FFFFFF" d="M132.204,153.245c-1.364,1.771-3.005,3.266-3.474,5.928c0.898,0.601,2.45,0.548,3.679,0.817
		C132.087,157.741,133.301,154.917,132.204,153.245z"/>
	<path fill="#FFFFFF" d="M139.765,100.922c-8.721-0.042-18.155,5.553-23.094,10.425c-6.652,6.562-11.579,16.851-10.834,28.819
		c1.025,16.498,11.372,27.039,25.754,30.451c0.617-2.036,0.434-4.879,0.817-7.152c-6.44,1.906-8.573-3.286-6.132-7.767
		c3.897-7.155,17.453-11.356,25.346-4.906c1.773,1.453,6.779,6.294,5.107,10.016c-1.004,2.235-4.553,1.369-6.949,0.411
		c0.305,2.554,1.202,4.52,1.842,6.743c11.408-6.107,19.582-15.417,20.438-30.862C173.175,116.958,158.957,101.02,139.765,100.922z
		 M129.956,120.338c-0.791,3.8-10.799,4.425-13.489,1.229C121.402,123.542,125.814,119.607,129.956,120.338z M125.254,139.963
		c-0.118-2.437,1.786-2.848,2.657-4.293c-4.889-0.396-6.57,2.422-10.015,3.473c1.146-1.922,4.468-5.184,7.151-5.722
		c0.908-0.183,1.851,0.135,2.863,0c-2.653-1.337-7.093-1.38-10.832-1.021c1.147-2.041,4.431-2.192,6.949-2.046
		c3.521,0.208,7.157,2.062,8.788,3.678C131.086,136.799,127.866,138.077,125.254,139.963z M135.882,143.231
		c-1.567-3.447,5.918-5.136,6.133-1.431C139.514,140.962,137.448,142.738,135.882,143.231z M141.81,118.092
		c1.318-1.528,3.884-0.625,6.335-0.818c3.287-0.26,5.368-1.345,8.178-2.044c-1.26,1.635-4.343,3.899-7.359,4.292
		C146.449,119.849,143.294,119.676,141.81,118.092z M148.351,134.443c1.158,1.293,3.666,1.238,3.883,3.472
		c-1.221,0.224-2.311-0.648-3.883-1.223c-1.27-0.467-3.373-0.834-3.68-1.841c-0.664-2.189,3.908-6.201,5.928-7.562
		c2.732-1.844,6.551-3.018,9.197-2.248c-1.205,1.571-3.668,2.096-5.519,3.066c-1.882,0.986-3.688,2.056-4.905,3.679
		c3.535-0.256,8.728-0.608,10.832,1.228C156.5,133.734,151.634,133.296,148.351,134.443z"/>
	<path fill="#FFFFFF" d="M148.963,170.414c0.439-5.013-1.776-11.47-0.612-15.942c0.576,1.334,0.358,3.457,1.227,4.5
		c1.205-0.364,2.667-0.469,3.678-1.023c-1.809-6.434-11.035-10.402-18.188-6.541c0.466,2.389,0.194,4.928,0.202,6.948
		c0.012,2.648,1.576,4.912,1.432,7.152c-0.041,0.638-0.52,1.396-0.613,2.048c-0.164,1.128,0.136,2.316,0,3.27
		c-0.495,3.478-2.467,6.942-4.904,8.786c-1.511,1.144-3.572,1.123-4.906,2.863c1.023,1.726,3.295,0.305,4.906,0.408
		c0.871,0.055,1.646,0.597,2.451,0.613c0.705,0.014,1.471-0.408,2.248-0.409c0.793,0,1.705,0.459,2.453,0.409
		c2.473-0.162,4.908-3.145,6.949-0.819c1.319-0.585,2.516-2.162,4.496-1.431c0.279-2.221,3.859-2.877,3.475,0.409
		c3.331,0.495,4.38,0.352,7.154-0.61c-0.516-3.915-6.365-2.495-8.584-4.702C147.998,176.719,148.699,173.413,148.963,170.414z
		 M140.788,156.927c1.604,1.126,1.923,4.319-0.204,4.699C137.468,162.182,136.526,156.493,140.788,156.927z M136.292,154.269
		C137.314,149.08,140.638,156.721,136.292,154.269L136.292,154.269z M136.292,181.859c-3.334,0.053-1.669-6.043,1.635-3.269
		C138.64,180.369,137.589,181.839,136.292,181.859z M138.949,170.414c1.191-0.285,1.92-0.064,2.046,1.228
		C141.448,176.307,134.422,171.507,138.949,170.414z M141.606,177.363C144.794,181.412,136.794,178.93,141.606,177.363
		L141.606,177.363z M144.671,168.372c-3.498,1.023-3.233-5.484,0.613-3.884C146.376,165.717,145.864,168.024,144.671,168.372z
		 M147.125,179.611c-1.057,0.066-1.771-1.29-0.816-2.451C148.783,176.71,148.541,179.523,147.125,179.611z"/>
	<path fill="#FFFFFF" d="M141.73,89.401c-28.854,0-52.329,23.475-52.329,52.329s23.475,52.329,52.329,52.329
		c28.855,0,52.33-23.475,52.33-52.329S170.585,89.401,141.73,89.401z M174.103,138.121c-0.907,16.393-10.182,26.147-21.664,32.497
		c0.025,6.002,13.133,4.153,11.445,11.448c-0.336,1.45-2.953,3.122-5.519,3.473c-6.317,0.866-17.677,0.715-24.731,1.225
		c-4.879,0.356-10.635-0.207-10.832-3.881c-0.065-1.197,0.502-2.321,1.022-2.861c2.367-2.455,7.875-0.737,7.358-6.337
		c-16.721-4.673-28.562-17.13-28.207-36.584c0.263-14.405,7.51-25.107,16.146-31.273c4.806-3.428,11.243-4.641,15.738-8.583
		c0.455,1.004-1.332,1.527-1.84,2.247c3.936-1.446,6.605-4.158,9.811-6.333c-1.082,2.729-3.86,3.768-5.721,5.72
		c2.343-0.787,3.723-2.54,5.927-3.473c-1.271,1.728-3.224,2.771-4.906,4.086c3.657-0.634,6.985-1.599,10.22-2.654
		c-1.601,1.533-4.148,2.116-6.745,2.654C160.833,101.891,175.361,115.427,174.103,138.121z"/>
	<path fill="#A3BC4B" d="M141.73,83.401c-32.163,0-58.329,26.167-58.329,58.329s26.166,58.329,58.329,58.329
		s58.33-26.167,58.33-58.329S173.893,83.401,141.73,83.401z M141.73,194.059c-28.854,0-52.329-23.475-52.329-52.329
		s23.475-52.329,52.329-52.329c28.855,0,52.33,23.475,52.33,52.329S170.585,194.059,141.73,194.059z"/>
	<path fill="#E84E1B" d="M141.606,99.491c2.597-0.538,5.145-1.121,6.745-2.654c-3.234,1.056-6.562,2.021-10.22,2.654
		c1.683-1.315,3.636-2.358,4.906-4.086c-2.204,0.933-3.584,2.686-5.927,3.473c1.86-1.952,4.639-2.99,5.721-5.72
		c-3.205,2.175-5.875,4.887-9.811,6.333c0.508-0.72,2.295-1.243,1.84-2.247c-4.495,3.942-10.933,5.155-15.738,8.583
		c-8.637,6.166-15.884,16.868-16.146,31.273c-0.354,19.454,11.486,31.911,28.207,36.584c0.517,5.6-4.991,3.882-7.358,6.337
		c-0.521,0.54-1.088,1.664-1.022,2.861c0.197,3.674,5.953,4.237,10.832,3.881c7.055-0.51,18.414-0.358,24.731-1.225
		c2.565-0.351,5.183-2.022,5.519-3.473c1.688-7.295-11.42-5.446-11.445-11.448c11.482-6.35,20.757-16.104,21.664-32.497
		C175.361,115.427,160.833,101.891,141.606,99.491z M160.41,181.044c-2.774,0.962-3.823,1.105-7.154,0.61
		c0.385-3.286-3.195-2.63-3.475-0.409c-1.98-0.731-3.177,0.846-4.496,1.431c-2.041-2.325-4.477,0.657-6.949,0.819
		c-0.748,0.05-1.66-0.409-2.453-0.409c-0.777,0.001-1.543,0.423-2.248,0.409c-0.806-0.017-1.58-0.559-2.451-0.613
		c-1.611-0.104-3.883,1.317-4.906-0.408c1.334-1.74,3.396-1.72,4.906-2.863c2.438-1.844,4.409-5.309,4.904-8.786
		c0.136-0.953-0.164-2.142,0-3.27c0.094-0.652,0.572-1.41,0.613-2.048c0.145-2.24-1.42-4.504-1.432-7.152
		c-0.008-2.021,0.264-4.56-0.202-6.948c7.153-3.861,16.38,0.107,18.188,6.541c-1.011,0.555-2.473,0.659-3.678,1.023
		c-0.868-1.043-0.65-3.166-1.227-4.5c-1.164,4.473,1.052,10.93,0.612,15.942c-0.265,2.999-0.966,6.306,2.862,5.929
		C154.044,178.549,159.894,177.129,160.41,181.044z M132.409,159.99c-1.229-0.27-2.78-0.217-3.679-0.817
		c0.469-2.662,2.109-4.157,3.474-5.928C133.301,154.917,132.087,157.741,132.409,159.99z M172.06,137.1
		c-0.855,15.445-9.029,24.755-20.438,30.862c-0.64-2.224-1.537-4.189-1.842-6.743c2.396,0.958,5.945,1.824,6.949-0.411
		c1.672-3.722-3.334-8.562-5.107-10.016c-7.893-6.45-21.448-2.249-25.346,4.906c-2.441,4.48-0.309,9.673,6.132,7.767
		c-0.384,2.273-0.2,5.116-0.817,7.152c-14.382-3.412-24.729-13.953-25.754-30.451c-0.745-11.969,4.182-22.258,10.834-28.819
		c4.938-4.872,14.373-10.467,23.094-10.425C158.957,101.02,173.175,116.958,172.06,137.1z"/>
	<path fill="#E84E1B" d="M148.963,119.522c3.017-0.393,6.1-2.657,7.359-4.292c-2.81,0.699-4.891,1.784-8.178,2.044
		c-2.451,0.193-5.017-0.71-6.335,0.818C143.294,119.676,146.449,119.849,148.963,119.522z"/>
	<path fill="#E84E1B" d="M129.956,120.338c-4.142-0.731-8.554,3.204-13.489,1.229C119.157,124.763,129.165,124.138,129.956,120.338z
		"/>
	<path fill="#E84E1B" d="M149.373,131.786c1.217-1.623,3.023-2.692,4.905-3.679c1.851-0.971,4.313-1.495,5.519-3.066
		c-2.646-0.77-6.465,0.404-9.197,2.248c-2.02,1.361-6.592,5.373-5.928,7.562c0.307,1.007,2.41,1.374,3.68,1.841
		c1.572,0.574,2.662,1.446,3.883,1.223c-0.217-2.233-2.725-2.179-3.883-3.472c3.283-1.146,8.148-0.709,11.854-1.43
		C158.1,131.177,152.908,131.53,149.373,131.786z"/>
	<path fill="#E84E1B" d="M117.08,132.4c3.739-0.358,8.179-0.315,10.832,1.021c-1.013,0.135-1.955-0.183-2.863,0
		c-2.684,0.538-6.006,3.8-7.151,5.722c3.444-1.051,5.126-3.868,10.015-3.473c-0.871,1.445-2.775,1.856-2.657,4.293
		c2.611-1.887,5.832-3.164,7.562-5.932c-1.631-1.616-5.267-3.47-8.788-3.678C121.51,130.208,118.227,130.359,117.08,132.4z"/>
	<path fill="#E84E1B" d="M135.882,143.231c1.565-0.493,3.632-2.269,6.133-1.431C141.8,138.095,134.315,139.784,135.882,143.231z"/>
	<path fill="#E84E1B" d="M136.292,154.269C140.638,156.721,137.314,149.08,136.292,154.269L136.292,154.269z"/>
	<path fill="#E84E1B" d="M140.583,161.626c2.127-0.38,1.809-3.573,0.204-4.699C136.526,156.493,137.468,162.182,140.583,161.626z"/>
	<path fill="#E84E1B" d="M145.285,164.488c-3.847-1.601-4.111,4.907-0.613,3.884C145.864,168.024,146.376,165.717,145.285,164.488z"
		/>
	<path fill="#E84E1B" d="M140.995,171.641c-0.126-1.292-0.854-1.513-2.046-1.228C134.422,171.507,141.448,176.307,140.995,171.641z"
		/>
	<path fill="#E84E1B" d="M146.308,177.16c-0.955,1.161-0.24,2.518,0.816,2.451C148.541,179.523,148.783,176.71,146.308,177.16z"/>
	<path fill="#E84E1B" d="M141.606,177.363C136.794,178.93,144.794,181.412,141.606,177.363L141.606,177.363z"/>
	<path fill="#E84E1B" d="M136.292,181.859c1.297-0.02,2.348-1.49,1.635-3.269C134.624,175.816,132.958,181.912,136.292,181.859z"/>
</g>
</svg>
