<?xml version="1.0" encoding="utf-8"?>
<!-- Generator: Adobe Illustrator 15.1.0, SVG Export Plug-In . SVG Version: 6.00 Build 0)  -->
<!DOCTYPE svg PUBLIC "-//W3C//DTD SVG 1.1//EN" "http://www.w3.org/Graphics/SVG/1.1/DTD/svg11.dtd">
<svg version="1.1" id="Ebene_1" xmlns="http://www.w3.org/2000/svg" xmlns:xlink="http://www.w3.org/1999/xlink" x="0px" y="0px"
	 width="283.46px" height="283.46px" viewBox="0 0 283.46 283.46" enable-background="new 0 0 283.46 283.46" xml:space="preserve">
<g>
	<path fill="none" d="M139.779,141.333c1.527,1.528,3.54,2.36,5.799,2.146C143.342,143.69,141.327,142.857,139.779,141.333z"/>
	<path fill="none" d="M136.061,131.622c-0.089,0.001-0.181-0.04-0.284-0.186C135.897,131.606,135.987,131.651,136.061,131.622z"/>
	<path fill="#FFFFFF" d="M179.683,108.421c-5.039-4.751-10.767-8.336-17.298-10.806l16.034-15.383l-19.502,6.458l5.338-7.853
		l-7.363,3.119l3.428-8.662l-9.943,6.762l2.032-4.548l-18.872,14.568c-2.929,2.262-6.571,3.865-10.428,5.563
		c-1.199,0.527-2.41,1.061-3.619,1.622l-5.949,3.148c-0.657,0.408-1.306,0.838-1.943,1.293
		c-16.025,11.436-25.231,30.182-24.627,50.144c0.438,14.491,5.799,27.883,15.098,37.708c9.413,9.946,22.48,15.821,36.797,16.545
		c0.858,0.044,1.709,0.064,2.547,0.064c0.001,0,0.001,0,0.001,0c14.1,0,26.938-5.807,38.157-17.259
		c10.271-10.482,15.931-23.075,16.823-37.427C197.487,135.891,191.397,119.468,179.683,108.421z M189.816,153.279
		c-0.91,14.627-7.307,25.625-15.121,33.602c-8.305,8.477-20.279,16.197-36.117,15.4c-26.52-1.34-45.391-21.652-46.199-48.441
		c-0.631-20.828,10.102-36.507,22.115-45.08c6.605-4.716,15.443-6.605,22.121-11.761c-0.633,1.416-2.045,2.059-3.08,3.082
		c5.391-1.984,9.051-5.699,13.439-8.684c-1.482,3.746-5.289,5.164-7.836,7.839c3.209-1.077,5.102-3.48,8.119-4.759
		c-1.625,2.391-4.451,3.574-6.439,5.604c4.811-0.977,9.373-2.203,13.717-3.642c-2.189,2.101-5.684,2.903-9.238,3.642
		c12.658,1.383,22.186,5.811,29.682,12.878C184,121.466,190.931,135.348,189.816,153.279z"/>
	<path fill="#FFFFFF" d="M187.017,151.037c-0.104,1.935-0.285,3.836-0.528,5.706C186.753,154.917,186.938,153.023,187.017,151.037z"
		/>
	<path fill="#FFFFFF" d="M147.206,102.376c6.796,1.204,13.158,3.328,18.725,6.475C160.58,105.519,154.08,102.956,147.206,102.376z"
		/>
	<path fill="#FFFFFF" d="M133.257,130.598c-6.035,0.188-11.334,2.078-17.643,1.119c-1.348,8.311,6.271,16.151,13.439,11.761
		c3.469-2.122,4.633-7.624,4.762-12.88C133.628,130.598,133.443,130.598,133.257,130.598z M131.857,134.517
		c-1.939,1.281-3.807,0.341-3.641-1.396C128.437,130.827,133.496,130.895,131.857,134.517z"/>
	<path fill="#F4E2D9" d="M165.93,108.851c-5.566-3.146-11.929-5.271-18.725-6.475c-1.646-0.139-3.312-0.164-4.989-0.06
		c-7.195,0.449-12.975,2.553-18.48,5.32c-14.768,7.427-26.6,21.55-27.438,42.562c-0.607,15.121,4.736,26.355,12.318,34.439
		c7.619,8.125,17.707,14.027,32.479,13.723c13.002-0.273,24.209-6.338,31.918-14.561c6.578-7.015,11.798-15.485,13.476-27.058
		c0.243-1.87,0.425-3.771,0.528-5.706c0.596-14.933-4.711-26.483-12.039-34.72C172.665,113.719,169.558,111.111,165.93,108.851z
		 M119.255,119.12c3.254-0.996,4.678-3.414,7.562-2.243c0.479,6.312-8.592,4.421-13.162,4.763
		C114.06,119.438,117.039,119.794,119.255,119.12z M121.498,146.558c-6.244-0.936-8.053-6.89-7.842-15.122
		c0.576-0.078,0.557-0.746,0.838-1.118c6.057-1.472,13.92,0.319,19.602-0.841c0.277-2.145-1.311-2.422-1.68-3.918
		c3.324-0.068,3.441,3.306,3.361,5.877c0.104,0.146,0.195,0.187,0.284,0.186c0.29-0.113,0.35-1.386,1.012-1.318
		c0.077-0.091,0.201-0.241,0.329-0.396c-0.165-0.053-0.347-0.089-0.506-0.148c0.303-1.568,1.49-2.243,2.242-3.362
		c0.775,0.981-1.078,1.716-1.121,2.804c6.174-0.051,14.279-2.115,19.879,0c-0.094,1.398-1.945,1.037-3.08,1.398
		c2.711,7.659-3.99,16.745-10.922,15.399c-3.857-0.748-7.471-4.763-8.117-9.8C134.089,142.444,129.185,147.708,121.498,146.558z
		 M155.937,141.801c-0.828,2.993-3.668,6.657-7.283,5.036C151.763,145.837,153.175,143.14,155.937,141.801z M138.296,147.4
		c-2.693-0.297-4.414,2.584-6.721,2.24c-0.385-6.5,10.275-5.847,10.361-0.281C140.037,148.958,140.015,147.587,138.296,147.4z
		 M151.457,174c-1.246,0.748-1.672-0.879-3.08-1.119c-2.605-0.449-4.791,1.203-6.439,1.4C141.787,169.98,152.593,168.91,151.457,174
		z M159.296,164.478c-1.494-0.543-1.053-1.703-2.24-2.521c-3.193-2.199-8.584-0.453-12.039-0.559
		C147.257,155.783,162.255,156.216,159.296,164.478z M145.578,118.835c0.527-0.031,0.193-0.925,0.84-0.837
		c3.783,1.14,10.207,2.102,14.277-0.281C160.154,121.366,147.541,124.194,145.578,118.835z"/>
	<path fill="#FFFFFF" d="M139.779,141.333c1.548,1.524,3.563,2.357,5.799,2.146c4.941-0.466,7.744-6.574,6.996-12.601
		c-5.188-0.192-11.092,0.332-15.172-0.971c-0.128,0.155-0.252,0.306-0.329,0.396c0.034,0.003,0.067,0.004,0.104,0.015
		C136.213,134.882,137.404,138.958,139.779,141.333z M148.654,131.717c1.461-0.568,2.611-0.49,2.803,1.119
		C151.951,137.022,143.96,133.545,148.654,131.717z"/>
	<path fill="#96AA41" d="M174.978,112.958c-7.496-7.067-17.023-11.495-29.682-12.878c3.555-0.738,7.049-1.541,9.238-3.642
		c-4.344,1.438-8.906,2.665-13.717,3.642c1.988-2.029,4.814-3.213,6.439-5.604c-3.018,1.278-4.91,3.682-8.119,4.759
		c2.547-2.675,6.354-4.093,7.836-7.839c-4.389,2.984-8.049,6.699-13.439,8.684c1.035-1.023,2.447-1.666,3.08-3.082
		c-6.678,5.155-15.516,7.045-22.121,11.761c-12.014,8.573-22.746,24.252-22.115,45.08c0.809,26.789,19.68,47.102,46.199,48.441
		c15.838,0.797,27.812-6.924,36.117-15.4c7.814-7.977,14.211-18.975,15.121-33.602C190.931,135.348,184,121.466,174.978,112.958z
		 M187.017,151.037c-0.079,1.986-0.264,3.881-0.528,5.706c-1.678,11.572-6.897,20.043-13.476,27.058
		c-7.709,8.223-18.916,14.287-31.918,14.561c-14.771,0.305-24.859-5.598-32.479-13.723c-7.582-8.084-12.926-19.318-12.318-34.439
		c0.838-21.012,12.67-35.135,27.438-42.562c5.506-2.768,11.285-4.871,18.48-5.32c1.677-0.104,3.344-0.079,4.989,0.06
		c6.874,0.579,13.374,3.143,18.725,6.475c3.628,2.26,6.734,4.868,9.048,7.466C182.306,124.553,187.613,136.104,187.017,151.037z"/>
	<path fill="#96AA41" d="M126.818,116.876c-2.885-1.171-4.309,1.247-7.562,2.243c-2.217,0.675-5.195,0.318-5.6,2.52
		C118.226,121.297,127.296,123.188,126.818,116.876z"/>
	<path fill="#96AA41" d="M146.417,117.999c-0.646-0.088-0.312,0.806-0.84,0.837c1.963,5.358,14.576,2.53,15.117-1.118
		C156.625,120.1,150.201,119.138,146.417,117.999z"/>
	<path fill="#96AA41" d="M135.777,136.198c0.646,5.037,4.26,9.052,8.117,9.8c6.932,1.346,13.633-7.74,10.922-15.399
		c1.135-0.361,2.986,0,3.08-1.398c-5.6-2.115-13.705-0.051-19.879,0c0.043-1.088,1.896-1.822,1.121-2.804
		c-0.752,1.119-1.939,1.794-2.242,3.362c0.159,0.06,0.341,0.096,0.506,0.148c4.08,1.303,9.983,0.778,15.172,0.971
		c0.748,6.026-2.055,12.135-6.996,12.601c-2.259,0.215-4.271-0.617-5.799-2.146c-2.375-2.375-3.565-6.45-2.602-11.015
		c-0.037-0.011-0.07-0.012-0.104-0.015c-0.662-0.067-0.722,1.205-1.012,1.318c-0.074,0.029-0.164-0.016-0.284-0.186
		c0.08-2.571-0.037-5.945-3.361-5.877c0.369,1.496,1.957,1.773,1.68,3.918c-5.682,1.16-13.545-0.631-19.602,0.841
		c-0.281,0.372-0.262,1.04-0.838,1.118c-0.211,8.232,1.598,14.187,7.842,15.122C129.185,147.708,134.089,142.444,135.777,136.198z
		 M129.054,143.478c-7.168,4.391-14.787-3.45-13.439-11.761c6.309,0.959,11.607-0.931,17.643-1.119c0.186,0,0.371,0,0.559,0
		C133.687,135.854,132.523,141.356,129.054,143.478z"/>
	<path fill="#96AA41" d="M128.216,133.121c-0.166,1.737,1.701,2.678,3.641,1.396C133.496,130.895,128.437,130.827,128.216,133.121z"
		/>
	<path fill="#96AA41" d="M151.457,132.836c-0.191-1.609-1.342-1.688-2.803-1.119C143.96,133.545,151.951,137.022,151.457,132.836z"
		/>
	<path fill="#96AA41" d="M155.937,141.801c-2.762,1.339-4.174,4.036-7.283,5.036C152.269,148.458,155.109,144.794,155.937,141.801z"
		/>
	<path fill="#96AA41" d="M131.576,149.64c2.307,0.344,4.027-2.537,6.721-2.24c1.719,0.188,1.74,1.559,3.641,1.959
		C141.851,143.793,131.191,143.14,131.576,149.64z"/>
	<path fill="#96AA41" d="M145.017,161.398c3.455,0.105,8.846-1.641,12.039,0.559c1.188,0.818,0.746,1.979,2.24,2.521
		C162.255,156.216,147.257,155.783,145.017,161.398z"/>
	<path fill="#96AA41" d="M141.937,174.281c1.648-0.197,3.834-1.85,6.439-1.4c1.408,0.24,1.834,1.867,3.08,1.119
		C152.593,168.91,141.787,169.98,141.937,174.281z"/>
</g>
</svg>
