<?xml version="1.0" encoding="utf-8"?>
<!-- Generator: Adobe Illustrator 15.1.0, SVG Export Plug-In . SVG Version: 6.00 Build 0)  -->
<!DOCTYPE svg PUBLIC "-//W3C//DTD SVG 1.1//EN" "http://www.w3.org/Graphics/SVG/1.1/DTD/svg11.dtd">
<svg version="1.1" id="Ebene_1" xmlns="http://www.w3.org/2000/svg" xmlns:xlink="http://www.w3.org/1999/xlink" x="0px" y="0px"
	 width="283.46px" height="283.46px" viewBox="0 0 283.46 283.46" enable-background="new 0 0 283.46 283.46" xml:space="preserve">
<g>
	<path fill="#FFFFFF" d="M180.456,110.675c-5.089-5.476-11.117-9.538-18.224-12.251l16.015-15.331l-19.394,6.427l5.243-7.728
		l-7.279,3.08l3.41-8.596l-9.664,6.564l2.103-4.665L133.6,92.968c-2.833,2.198-6.39,3.761-10.155,5.415
		c-1.207,0.53-2.427,1.066-3.646,1.633l-6.126,3.276c-0.544,0.345-1.081,0.705-1.612,1.083
		c-14.95,10.668-23.786,27.634-24.242,46.547c-0.362,14.964,4.653,28.885,14.122,39.201c9.392,10.23,22.518,16.266,36.958,16.996
		c0.847,0.043,1.684,0.063,2.511,0.063c13.673,0,26.66-5.872,37.562-16.985c10.106-10.318,15.676-22.711,16.554-36.834
		C196.56,136.672,191.631,122.709,180.456,110.675z M188.964,153.117c-0.895,14.373-7.174,25.167-14.852,33.007
		c-8.162,8.32-19.941,15.913-35.484,15.128c-26.385-1.333-46.059-22.145-45.385-50.06c0.467-19.317,10.129-33.529,21.73-41.808
		c6.551-4.673,15.217-6.498,21.73-11.551c-0.627,1.391-2.012,2.022-3.027,3.023c5.295-1.946,8.889-5.596,13.203-8.526
		c-1.459,3.678-5.195,5.073-7.703,7.703c3.158-1.064,5.014-3.423,7.977-4.677c-1.592,2.348-4.369,3.515-6.328,5.5
		c4.73-0.958,9.211-2.159,13.48-3.573c-2.154,2.062-5.584,2.849-9.076,3.573c13.139,1.424,22.965,6.181,30.258,14.027
		C183.642,123.665,190.05,135.589,188.964,153.117z"/>
	<path fill="#FFFFFF" d="M143.133,133.456c-0.035,0.015-0.072,0.027-0.108,0.041c0.003,0.031,0.003,0.062,0.006,0.092
		C143.064,133.544,143.1,133.5,143.133,133.456z"/>
	<path fill="#FFFFFF" d="M143.031,138.54c0.975-0.307,1.381-1.184,3.025-0.824c0.781,0.776,1.348,1.768,1.098,3.575
		c-0.754,0.558-1.533,1.514-2.75,0.826c1.969,5.761,12.613,4.727,14.576-0.826c1.826-5.149-1.793-10.512-6.873-12.102
		c-3.516,1.711-6.105,4.345-9.076,6.603c-1.369-0.993-1.973,0.546-3.303,0.273c-3.592-0.738-5.707-6.259-9.076-7.701
		c-6.344,0.632-9.783,7.899-6.053,13.477c4.355,6.513,14.717,2.743,15.955-4.674c0.082,0.562,0.104,1.094,0.101,1.611
		c0.423-0.608,0.855-1.156,1.314-1.574c0.003,0.006,0.005,0.015,0.007,0.021c0.071-0.291,0.136-0.579,0.229-0.884
		C142.9,136.65,143.001,137.558,143.031,138.54z M134.777,141.016c-0.496-2.805,1.756-4.799,3.852-3.301
		C139.976,140.436,136.732,143.221,134.777,141.016z"/>
	<path fill="#FFFFFF" d="M131.201,169.62c0-2.016,0-4.033,0-6.05c-1.508-1.182-4.123-2.622-6.875-1.65
		c-0.641,2.296-0.221,5.903,0.273,7.977C126.859,169.859,128.732,169.442,131.201,169.62z"/>
	<path fill="#FFFFFF" d="M151.007,168.519c2.012,0,4.033,0,6.049,0c0-3.393,0-6.784,0-10.176c-2.754-0.187-5.014,0.12-6.33,1.377
		C150.9,162.576,150.382,166.118,151.007,168.519z"/>
	<path fill="#FFFFFF" d="M124.878,172.094c-0.191,2.939,0.258,5.242,0.273,7.979c2.895,0.325,4.488-0.647,6.602-1.102
		c0.193-2.578-0.291-4.478-0.279-6.878C129.277,172.094,127.076,172.094,124.878,172.094z"/>
	<path fill="#FFFFFF" d="M140.003,175.123c0-1.102,0-2.2,0-3.302c-1.291-0.215-4.205,0.147-6.326,0
		c-0.166,1.441-1.016,5.582,0.422,6.449c0.732-0.484,1.474-0.959,2.24-1.369c-0.156,0.053-0.299,0.086-0.461,0.146
		C136.56,175.711,138.494,175.629,140.003,175.123z"/>
	<path fill="#FFFFFF" d="M118.001,171.544c0.273,3.849,2.527,5.721,4.947,7.428c-0.133-2.339-0.451-4.497-0.547-6.878
		C120.812,172.032,119.365,171.833,118.001,171.544z"/>
	<path fill="#FFFFFF" d="M122.123,169.896c0-2.292,0-4.586,0-6.878c-2.459,1.299-3.5,4.018-4.121,7.151
		C119.16,169.866,120.615,169.853,122.123,169.896z"/>
	<path fill="#FFFFFF" d="M148.802,161.093c-1.893,1.953-4.389,3.312-7.15,4.401c0,1.19,0,2.385,0,3.576
		c2.471-0.099,4.955-0.183,7.15-0.552C148.457,165.875,149.386,163.055,148.802,161.093z"/>
	<path fill="#FFFFFF" d="M141.927,171.544c-0.539,0.743-0.162,2.405-0.275,3.578c3.363,0.394,4.938,2.579,7.15,4.126
		c0-2.658,0-5.319,0-7.978C146.22,171.069,144.488,171.719,141.927,171.544z"/>
	<path fill="#FFFFFF" d="M133.128,164.945c-0.15,1.799,0.17,3.131,0.273,4.675c2.086-0.208,4.215-0.371,6.602-0.273
		c0.033-1.533-0.117-2.625-0.275-3.3C137.343,166.596,134.826,165.888,133.128,164.945z"/>
	<path fill="#FFFFFF" d="M150.726,171.271c0,3.211,0,6.418,0,9.626c1.715,0.619,5.152,0.853,7.156,0.275
		c-0.047-3.526-0.539-6.614-0.826-9.901C154.949,171.271,152.837,171.271,150.726,171.271z"/>
	<path fill="#FFFFFF" d="M159.257,171.271c-0.189,3.493,0.65,5.948,0.822,9.076c2.877-1.348,4.033-5.872,3.58-9.626
		C162.75,171.461,160.878,171.241,159.257,171.271z"/>
	<path fill="#FFFFFF" d="M158.707,159.168c0.369,2.751,0.279,5.957,0.273,9.079c1.158,0.582,3.352,0.132,4.955,0.271
		C163.388,164.207,161.326,161.41,158.707,159.168z"/>
	<path fill="#F7B79C" d="M165.582,109.384c-5.416-3.461-14.518-6.879-23.377-6.325c-6.338,0.395-12.338,2.125-17.053,4.401
		c-14.164,6.835-23.852,17.978-27.23,36.031c-4.76,25.407,10.162,46.76,30.256,52.536c26.115,7.504,46.07-9.736,53.631-27.23
		c4.254-9.842,5.988-23.227,1.93-35.209C180.263,123.333,174.578,115.129,165.582,109.384z M168.882,113.785
		c5.156,1.256-1.873,8.888-3.301,3.577C167.701,117.185,169.574,116.768,168.882,113.785z M168.882,120.663
		c1.488,2.219,0.746,7.125-2.475,6.051c-0.418-1.469,0.988-1.877,0.824-3.301c-0.17-1.504-1.986-1.783-1.922-3.575
		C166.912,119.703,167.515,120.563,168.882,120.663z M163.66,143.764c1.883-1.322,2.795-3.617,3.846-5.774
		c1.047,3.431-2.764,7.621-6.322,7.428c1.895-2.304,3.203-6.419,3.301-9.626C166.89,137.429,164.681,142.1,163.66,143.764z
		 M121.025,120.386c8.746,0.519,13.674,7.227,18.703,12.379c0.535-1.025,0.174-2.943,0.549-4.127
		c0.979,0.032,1.111,0.91,1.102,1.924c1.01,0.097,0.254-1.577,1.652-1.101c0.261,0.882-0.145,2.462-0.006,4.035
		c0.036-0.014,0.073-0.026,0.108-0.041c2.04-2.69,4.635-5.629,7.593-7.844c2.729-2.033,6.717-4.59,10.73-3.574
		c-0.568,3.737-5.23,3.385-7.428,5.5c5.434,1.387,9.35,6.279,7.977,12.929c-2.112,10.243-23.474,10.885-20.029-3.242
		c-0.002-0.006-0.004-0.015-0.007-0.021c-0.459,0.418-0.892,0.966-1.314,1.574c-0.083,11.29-19.687,11.85-21.007-0.238
		c-0.66-6.053,2.695-11.131,8.254-12.376C126.628,123.219,122.144,123.487,121.025,120.386z M145.23,149.819
		c-2.381-1.997-6.023-0.864-8.525-0.552C137.257,144.79,145.925,145.913,145.23,149.819z M119.648,145.417
		c-1.629-2.274-4.623-6.469-2.473-9.902c0.301,4.198,2.129,8.981,4.947,11.552c-3.809-0.131-6.971-3.296-8.25-6.875
		C116.32,141.411,117.123,144.276,119.648,145.417z M138.353,185.297c-1.664,0.077-2.889,2.038-4.402,0.55
		c1.32-6.007,10.666-3.063,11.279,1.654C142.824,187.798,141.126,185.174,138.353,185.297z M161.734,183.1
		c-2.926,1.544-9.191,1.961-12.932-0.276c-4.044-2.423-5.008-8.438-12.463-5.923c-0.767,0.41-1.508,0.885-2.24,1.369
		c0.12,0.072,0.25,0.129,0.402,0.152c-2.822,2.459-4.674,4.476-7.975,4.951c-14.336,2.071-14.273-26.393,2.475-22.829
		c2.869,0.61,5.287,4.077,9.627,3.025c6.918-1.675,14.865-13.988,23.377-6.326c1.855,1.664,4.127,5.377,4.953,8.803
		C168.591,172.796,166.011,180.834,161.734,183.1z M167.505,178.146c1.051-2.802,1.012-6.69,1.377-10.176
		C172.003,169.595,170.507,177.523,167.505,178.146z M169.71,127.814c-2.424-2.526,3-4.792,4.125-2.202
		C173.253,127.139,170.964,126.958,169.71,127.814z M174.662,121.762c-2.969,4.352-7.939-4.288-2.473-4.675
		C172.144,119.47,172.486,121.078,174.662,121.762z"/>
	<path fill="#96AA41" d="M145.23,100.857c3.492-0.725,6.922-1.512,9.076-3.573c-4.27,1.414-8.75,2.615-13.48,3.573
		c1.959-1.985,4.736-3.152,6.328-5.5c-2.963,1.254-4.818,3.612-7.977,4.677c2.508-2.63,6.244-4.025,7.703-7.703
		c-4.314,2.931-7.908,6.58-13.203,8.526c1.016-1.001,2.4-1.633,3.027-3.023c-6.514,5.053-15.18,6.878-21.73,11.551
		c-11.602,8.278-21.264,22.49-21.73,41.808c-0.674,27.915,19,48.727,45.385,50.06c15.543,0.785,27.322-6.808,35.484-15.128
		c7.678-7.84,13.957-18.634,14.852-33.007c1.086-17.527-5.322-29.452-13.477-38.232C168.195,107.038,158.369,102.281,145.23,100.857
		z M181.808,168.797c-7.561,17.494-27.516,34.734-53.631,27.23c-20.094-5.776-35.016-27.129-30.256-52.536
		c3.379-18.054,13.066-29.196,27.23-36.031c4.715-2.276,10.715-4.007,17.053-4.401c8.859-0.554,17.961,2.864,23.377,6.325
		c8.996,5.745,14.682,13.948,18.156,24.204C187.796,145.571,186.062,158.956,181.808,168.797z"/>
	<path fill="#E84E1B" d="M168.882,113.785c0.691,2.983-1.182,3.4-3.301,3.577C167.009,122.672,174.039,115.041,168.882,113.785z"/>
	<path fill="#E84E1B" d="M174.662,121.762c-2.176-0.685-2.518-2.292-2.473-4.675C166.722,117.474,171.693,126.114,174.662,121.762z"
		/>
	<path fill="#E84E1B" d="M166.408,126.713c3.221,1.074,3.963-3.832,2.475-6.051c-1.367-0.1-1.971-0.96-3.572-0.825
		c-0.064,1.792,1.752,2.071,1.922,3.575C167.396,124.836,165.99,125.245,166.408,126.713z"/>
	<path fill="#96AA41" d="M119.648,138.54c1.32,12.088,20.924,11.528,21.007,0.238c0.004-0.518-0.019-1.049-0.101-1.611
		c-1.238,7.417-11.6,11.187-15.955,4.674c-3.73-5.577-0.291-12.845,6.053-13.477c3.369,1.442,5.484,6.963,9.076,7.701
		c1.33,0.272,1.934-1.267,3.303-0.273c2.971-2.258,5.561-4.892,9.076-6.603c5.08,1.59,8.699,6.952,6.873,12.102
		c-1.963,5.553-12.607,6.587-14.576,0.826c1.217,0.688,1.996-0.269,2.75-0.826c0.25-1.808-0.316-2.799-1.098-3.575
		c-1.645-0.359-2.051,0.518-3.025,0.824c-0.029-0.981-0.131-1.89-0.826-2.199c-0.093,0.305-0.157,0.593-0.229,0.884
		c-3.444,14.127,17.917,13.485,20.029,3.242c1.373-6.649-2.543-11.542-7.977-12.929c2.197-2.115,6.859-1.763,7.428-5.5
		c-4.014-1.016-8.002,1.541-10.73,3.574c-2.958,2.215-5.553,5.153-7.593,7.844c-0.033,0.044-0.069,0.089-0.103,0.133
		c-0.003-0.03-0.003-0.061-0.006-0.092c-0.139-1.573,0.267-3.153,0.006-4.035c-1.398-0.477-0.643,1.197-1.652,1.101
		c0.01-1.014-0.123-1.892-1.102-1.924c-0.375,1.184-0.014,3.102-0.549,4.127c-5.029-5.152-9.957-11.86-18.703-12.379
		c1.119,3.101,5.604,2.833,6.877,5.777C122.343,127.409,118.988,132.487,119.648,138.54z"/>
	<path fill="#E84E1B" d="M169.71,127.814c1.254-0.856,3.543-0.675,4.125-2.202C172.71,123.022,167.287,125.288,169.71,127.814z"/>
	<path fill="#96AA41" d="M122.123,147.067c-2.818-2.57-4.646-7.354-4.947-11.552c-2.15,3.434,0.844,7.628,2.473,9.902
		c-2.525-1.142-3.328-4.007-5.775-5.226C115.152,143.771,118.314,146.936,122.123,147.067z"/>
	<path fill="#96AA41" d="M167.505,137.99c-1.051,2.157-1.963,4.452-3.846,5.774c1.021-1.664,3.23-6.335,0.824-7.973
		c-0.098,3.207-1.406,7.322-3.301,9.626C164.742,145.611,168.552,141.42,167.505,137.99z"/>
	<path fill="#96AA41" d="M134.777,141.016c1.955,2.205,5.199-0.58,3.852-3.301C136.533,136.217,134.281,138.211,134.777,141.016z"/>
	<path fill="#96AA41" d="M136.705,149.267c2.502-0.312,6.145-1.445,8.525,0.552C145.925,145.913,137.257,144.79,136.705,149.267z"/>
	<path fill="#96AA41" d="M162.005,157.244c-8.512-7.662-16.459,4.651-23.377,6.326c-4.34,1.052-6.758-2.415-9.627-3.025
		c-16.748-3.563-16.811,24.9-2.475,22.829c3.301-0.476,5.152-2.492,7.975-4.951c-0.152-0.023-0.282-0.08-0.402-0.152
		c-1.438-0.867-0.588-5.008-0.422-6.449c2.121,0.147,5.035-0.215,6.326,0c0,1.102,0,2.2,0,3.302
		c-1.51,0.507-3.443,0.589-4.125,1.925c0.162-0.061,0.305-0.094,0.461-0.146c7.455-2.516,8.419,3.5,12.463,5.923
		c3.74,2.237,10.006,1.82,12.932,0.276c4.277-2.266,6.857-10.304,5.225-17.054C166.132,162.621,163.861,158.908,162.005,157.244z
		 M122.123,163.018c0,2.292,0,4.586,0,6.878c-1.508-0.043-2.963-0.03-4.121,0.273C118.623,167.036,119.664,164.317,122.123,163.018z
		 M118.001,171.544c1.363,0.289,2.811,0.487,4.4,0.55c0.096,2.381,0.414,4.539,0.547,6.878
		C120.529,177.265,118.275,175.393,118.001,171.544z M124.326,161.919c2.752-0.972,5.367,0.469,6.875,1.65c0,2.017,0,4.034,0,6.05
		c-2.469-0.178-4.342,0.239-6.602,0.276C124.105,167.823,123.685,164.215,124.326,161.919z M131.753,178.972
		c-2.113,0.454-3.707,1.427-6.602,1.102c-0.016-2.737-0.465-5.04-0.273-7.979c2.197,0,4.398,0,6.596,0
		C131.462,174.495,131.947,176.394,131.753,178.972z M133.402,169.62c-0.104-1.544-0.424-2.876-0.273-4.675
		c1.697,0.943,4.215,1.651,6.6,1.102c0.158,0.675,0.309,1.767,0.275,3.3C137.617,169.249,135.488,169.412,133.402,169.62z
		 M148.802,179.249c-2.213-1.547-3.787-3.732-7.15-4.126c0.113-1.173-0.264-2.835,0.275-3.578c2.561,0.175,4.293-0.476,6.875-0.273
		C148.802,173.929,148.802,176.59,148.802,179.249z M148.802,168.519c-2.195,0.369-4.68,0.453-7.15,0.552c0-1.191,0-2.386,0-3.576
		c2.762-1.089,5.258-2.448,7.15-4.401C149.386,163.055,148.457,165.875,148.802,168.519z M150.726,159.72
		c1.316-1.257,3.576-1.563,6.33-1.377c0,3.392,0,6.783,0,10.176c-2.016,0-4.037,0-6.049,0
		C150.382,166.118,150.9,162.576,150.726,159.72z M150.726,180.897c0-3.208,0-6.415,0-9.626c2.111,0,4.223,0,6.33,0
		c0.287,3.287,0.779,6.375,0.826,9.901C155.878,181.75,152.441,181.516,150.726,180.897z M160.08,180.347
		c-0.172-3.128-1.012-5.583-0.822-9.076c1.621-0.03,3.492,0.19,4.402-0.55C164.113,174.475,162.957,179,160.08,180.347z
		 M158.98,168.248c0.006-3.122,0.096-6.328-0.273-9.079c2.619,2.241,4.682,5.038,5.229,9.351
		C162.332,168.379,160.138,168.83,158.98,168.248z"/>
	<path fill="#96AA41" d="M168.882,167.97c-0.365,3.485-0.326,7.374-1.377,10.176C170.507,177.523,172.003,169.595,168.882,167.97z"
		/>
	<path fill="#96AA41" d="M133.951,185.847c1.514,1.488,2.738-0.473,4.402-0.55c2.773-0.123,4.471,2.501,6.877,2.204
		C144.617,182.784,135.271,179.84,133.951,185.847z"/>
</g>
</svg>
