<?xml version="1.0" encoding="utf-8"?>
<!-- Generator: Adobe Illustrator 15.1.0, SVG Export Plug-In . SVG Version: 6.00 Build 0)  -->
<!DOCTYPE svg PUBLIC "-//W3C//DTD SVG 1.1//EN" "http://www.w3.org/Graphics/SVG/1.1/DTD/svg11.dtd">
<svg version="1.1" id="Ebene_1" xmlns="http://www.w3.org/2000/svg" xmlns:xlink="http://www.w3.org/1999/xlink" x="0px" y="0px"
	 width="283.46px" height="283.46px" viewBox="0 0 283.46 283.46" enable-background="new 0 0 283.46 283.46" xml:space="preserve">
<g>
	<path fill="#FFFFFF" d="M141.73,89.401c-28.854,0-52.33,23.475-52.33,52.329s23.476,52.329,52.33,52.329s52.33-23.475,52.33-52.329
		S170.584,89.401,141.73,89.401z M174.541,171.52c0,4.327-3.521,7.848-7.848,7.848H116.13c-4.327,0-7.848-3.521-7.848-7.848v-60.363
		c0-4.326,3.521-7.846,7.848-7.846h50.562c4.327,0,7.848,3.52,7.848,7.846V171.52z"/>
	<path fill="#A3BC4B" d="M141.73,83.401c-32.163,0-58.33,26.166-58.33,58.329s26.167,58.329,58.33,58.329s58.33-26.166,58.33-58.329
		S173.893,83.401,141.73,83.401z M141.73,194.059c-28.854,0-52.33-23.475-52.33-52.329s23.476-52.329,52.33-52.329
		s52.33,23.475,52.33,52.329S170.584,194.059,141.73,194.059z"/>
	<path fill="#A77CB4" d="M166.693,105.208H116.13c-3.281,0-5.951,2.668-5.951,5.949v60.363c0,3.281,2.67,5.951,5.951,5.951h50.562
		c3.281,0,5.951-2.67,5.951-5.951v-60.363C172.644,107.875,169.974,105.208,166.693,105.208z M118.359,143.721
		c1.438,0.146,1.265,3.077-0.829,2.207C116.855,144.958,117.208,143.604,118.359,143.721z M119.875,141.237
		c2.011-0.789,2.327,3.148,0.552,3.174C119.035,144.432,118.566,141.752,119.875,141.237z M132.57,149.792
		c-1.064,2.602-3.668,3.822-4.414,6.072c-2.096,6.305,3.631,9.744,3.172,15.178c-0.463,5.483-8.406,5.924-9.795,0.966
		c-0.453-1.612,0.361-4.487,0.412-6.347c0.039-1.346-0.148-2.627-0.552-4.002c-1.182-4.027-5.487-7.41-2.897-12.557
		c1.416-2.812,5.413-5.756,8.693-6.209c2.236-0.309,4.678,0.16,5.52,1.932C133.388,146.258,133.093,148.514,132.57,149.792z
		 M122.498,139.305c2.018-0.962,2.654,3.298,0.827,3.45C121.724,142.889,121.228,139.911,122.498,139.305z M125.394,136.545
		c2.322-1.122,2.99,4.084,1.105,4.416C124.604,141.295,123.972,137.235,125.394,136.545z M130.086,135.442
		c3.266-0.656,3.21,5.838,0.828,6.209C127.986,142.108,127.437,135.975,130.086,135.442z M157.406,172.007
		c-0.797,2.846-5.264,4.973-8.141,2.483c-1.04-0.9-1.605-2.699-1.656-3.588c-0.301-5.389,5.384-8.932,3.036-15.178
		c-1.067-2.84-3.532-4.111-4.276-5.934c-1.146-2.799-0.518-6.229,2.482-6.898c5.045-1.126,10.047,3.192,11.59,6.209
		c3.172,6.197-3.639,9.814-3.448,16.559C157.048,167.655,157.932,170.131,157.406,172.007z M148.162,135.442
		c3.164-0.627,3.127,6.531,0,6.209C145.598,141.387,145.73,135.924,148.162,135.442z M153.542,136.409
		c1.215,1.115,0.921,4.727-0.966,4.553C150.695,140.789,150.721,135.961,153.542,136.409z M155.474,139.305
		c2.123-0.76,2.1,3.45,0.276,3.45C154.064,142.755,154.22,139.754,155.474,139.305z M159.337,141.237
		c0.93,0.912,0.487,3.086-0.689,3.174C156.687,144.559,156.793,140.365,159.337,141.237z M161.408,145.928
		c-2.558,1.107-1.954-3.432,0.138-1.932C161.763,144.531,161.763,145.562,161.408,145.928z M167.751,123.895
		c0,3.81-3.089,6.898-6.899,6.898h-39.459c-3.811,0-6.899-3.089-6.899-6.898v-10.103c0-3.81,3.089-6.899,6.899-6.899h39.459
		c3.811,0,6.899,3.09,6.899,6.899V123.895z"/>
	<path fill="#602576" d="M166.693,103.311H116.13c-4.327,0-7.848,3.52-7.848,7.846v60.363c0,4.327,3.521,7.848,7.848,7.848h50.562
		c4.327,0,7.848-3.521,7.848-7.848v-60.363C174.541,106.831,171.02,103.311,166.693,103.311z M172.644,171.52
		c0,3.281-2.67,5.951-5.951,5.951H116.13c-3.281,0-5.951-2.67-5.951-5.951v-60.363c0-3.281,2.67-5.949,5.951-5.949h50.562
		c3.281,0,5.951,2.668,5.951,5.949V171.52z"/>
	<path fill="#FFFFFF" d="M160.852,106.893h-39.459c-3.811,0-6.899,3.09-6.899,6.899v10.103c0,3.81,3.089,6.898,6.899,6.898h39.459
		c3.811,0,6.899-3.089,6.899-6.898v-10.103C167.751,109.983,164.663,106.893,160.852,106.893z M116.978,113.917
		c1.147-0.251,1.873,2.153,2.07,3.587C117.628,119.722,115.654,114.208,116.978,113.917z M145.126,108.537
		c1.415-0.118,1.868,4.113-0.414,3.862C143.722,111.649,144.029,108.627,145.126,108.537z M139.607,108.399
		c0.762,0.92,1.246,3.396,0.139,4.276C138.07,113.016,137.785,108.147,139.607,108.399z M133.398,108.537
		c1.307-0.184,1.785,3.369,0.689,4.139C132.394,112.686,132.153,108.71,133.398,108.537z M123.74,115.573
		c-1.125,0.31-2.273-3.15-1.519-3.725C123.227,111.083,125.238,115.161,123.74,115.573z M128.844,113.503
		c-1.792,0.76-2.557-2.985-1.38-3.863C128.769,109.983,129.525,112.063,128.844,113.503z M147.472,128.198c-2.713,0-5.783,0-8.969,0
		c-2.629,0-7.148,0.725-7.313-1.518c-0.195-2.654,4.475-2.674,7.038-3.035c1.938-1.855,4.031-6.188,6.208-7.451
		c0.456-0.265,1.238,0.088,1.38,0.552c0.287,0.938-1.192,2.989-1.656,3.726c-0.809,1.283-1.605,2.062-2.207,3.174
		C144.781,123.928,149.724,125.045,147.472,128.198z M150.23,113.917c-1.77-0.114-0.473-4.576,1.242-4.002
		C152.16,111.182,151.422,113.995,150.23,113.917z M155.336,115.987c-1.226-1.354,0.048-4.757,2.069-4.139
		C157.976,113.471,156.951,115.653,155.336,115.987z M159.615,118.057c-1.197-1.68,1.025-4.539,2.759-3.726
		C162.283,115.899,161.519,117.856,159.615,118.057z"/>
	<path fill="#602576" d="M139.746,112.675c1.107-0.88,0.623-3.356-0.139-4.276C137.785,108.147,138.07,113.016,139.746,112.675z"/>
	<path fill="#602576" d="M134.087,112.675c1.096-0.77,0.617-4.322-0.689-4.139C132.153,108.71,132.394,112.686,134.087,112.675z"/>
	<path fill="#602576" d="M144.712,112.399c2.282,0.251,1.829-3.98,0.414-3.862C144.029,108.627,143.722,111.649,144.712,112.399z"/>
	<path fill="#602576" d="M127.464,109.64c-1.177,0.878-0.412,4.623,1.38,3.863C129.525,112.063,128.769,109.983,127.464,109.64z"/>
	<path fill="#602576" d="M150.23,113.917c1.192,0.077,1.93-2.735,1.242-4.002C149.757,109.341,148.46,113.803,150.23,113.917z"/>
	<path fill="#602576" d="M122.221,111.848c-0.755,0.574,0.394,4.034,1.519,3.725C125.238,115.161,123.227,111.083,122.221,111.848z"
		/>
	<path fill="#602576" d="M155.336,115.987c1.614-0.334,2.64-2.516,2.069-4.139C155.384,111.23,154.111,114.633,155.336,115.987z"/>
	<path fill="#602576" d="M116.978,113.917c-1.324,0.29,0.65,5.805,2.07,3.587C118.851,116.071,118.125,113.667,116.978,113.917z"/>
	<path fill="#602576" d="M141.953,123.645c0.602-1.112,1.398-1.891,2.207-3.174c0.464-0.736,1.943-2.787,1.656-3.726
		c-0.142-0.464-0.924-0.816-1.38-0.552c-2.177,1.263-4.271,5.596-6.208,7.451c-2.563,0.361-7.233,0.381-7.038,3.035
		c0.165,2.242,4.685,1.518,7.313,1.518c3.186,0,6.256,0,8.969,0C149.724,125.045,144.781,123.928,141.953,123.645z"/>
	<path fill="#602576" d="M159.615,118.057c1.904-0.201,2.668-2.158,2.759-3.726C160.64,113.518,158.417,116.377,159.615,118.057z"/>
	<path fill="#FFFFFF" d="M130.915,141.651c2.382-0.371,2.438-6.865-0.828-6.209C127.437,135.975,127.986,142.108,130.915,141.651z"
		/>
	<path fill="#FFFFFF" d="M148.162,135.442c-2.432,0.482-2.563,5.945,0,6.209C151.289,141.973,151.326,134.815,148.162,135.442z"/>
	<path fill="#FFFFFF" d="M126.5,140.961c1.885-0.332,1.217-5.538-1.105-4.416C123.972,137.235,124.604,141.295,126.5,140.961z"/>
	<path fill="#FFFFFF" d="M153.542,136.409c-2.821-0.447-2.848,4.38-0.966,4.553C154.463,141.135,154.757,137.524,153.542,136.409z"
		/>
	<path fill="#FFFFFF" d="M122.498,139.305c-1.27,0.605-0.773,3.584,0.827,3.45C125.152,142.603,124.515,138.343,122.498,139.305z"/>
	<path fill="#FFFFFF" d="M155.474,139.305c-1.254,0.449-1.41,3.45,0.276,3.45C157.574,142.755,157.597,138.545,155.474,139.305z"/>
	<path fill="#FFFFFF" d="M120.427,144.411c1.775-0.025,1.459-3.963-0.552-3.174C118.566,141.752,119.035,144.432,120.427,144.411z"
		/>
	<path fill="#FFFFFF" d="M159.337,141.237c-2.544-0.872-2.65,3.322-0.689,3.174C159.825,144.323,160.267,142.149,159.337,141.237z"
		/>
	<path fill="#FFFFFF" d="M127.189,142.893c-3.28,0.453-7.277,3.396-8.693,6.209c-2.59,5.146,1.716,8.529,2.897,12.557
		c0.403,1.375,0.591,2.656,0.552,4.002c-0.051,1.859-0.865,4.734-0.412,6.347c1.389,4.958,9.332,4.518,9.795-0.966
		c0.459-5.434-5.268-8.873-3.172-15.178c0.746-2.25,3.35-3.471,4.414-6.072c0.523-1.277,0.818-3.533,0.139-4.967
		C131.867,143.053,129.425,142.584,127.189,142.893z"/>
	<path fill="#FFFFFF" d="M160.441,149.102c-1.543-3.017-6.545-7.335-11.59-6.209c-3,0.67-3.629,4.1-2.482,6.898
		c0.744,1.822,3.209,3.094,4.276,5.934c2.348,6.246-3.337,9.789-3.036,15.178c0.051,0.889,0.616,2.688,1.656,3.588
		c2.877,2.489,7.344,0.362,8.141-2.483c0.526-1.876-0.357-4.353-0.413-6.347C156.802,158.917,163.613,155.299,160.441,149.102z"/>
	<path fill="#FFFFFF" d="M118.359,143.721c-1.15-0.117-1.504,1.236-0.829,2.207C119.624,146.798,119.796,143.868,118.359,143.721z"
		/>
	<path fill="#FFFFFF" d="M161.408,145.928c0.355-0.366,0.355-1.397,0.138-1.932C159.454,142.497,158.85,147.036,161.408,145.928z"/>
</g>
</svg>
