<?xml version="1.0" encoding="utf-8"?>
<!-- Generator: Adobe Illustrator 15.1.0, SVG Export Plug-In . SVG Version: 6.00 Build 0)  -->
<!DOCTYPE svg PUBLIC "-//W3C//DTD SVG 1.1//EN" "http://www.w3.org/Graphics/SVG/1.1/DTD/svg11.dtd">
<svg version="1.1" id="Ebene_1" xmlns="http://www.w3.org/2000/svg" xmlns:xlink="http://www.w3.org/1999/xlink" x="0px" y="0px"
	 width="283.46px" height="283.46px" viewBox="0 0 283.46 283.46" enable-background="new 0 0 283.46 283.46" xml:space="preserve">
<g>
	<path fill="none" d="M96.593,136.214c-0.163,0.019-0.325,0.046-0.486,0.078c0.149,0.011,0.302,0.021,0.46,0.028
		C96.575,136.286,96.584,136.25,96.593,136.214z"/>
	<path fill="#E20613" d="M95.627,139.706c-0.003,0-0.006,0.002-0.01,0.002c0.348-1.119,0.67-2.247,0.949-3.387
		c-0.158-0.008-0.311-0.018-0.46-0.028c-0.196,0.039-0.392,0.085-0.587,0.138c0.004-0.012,0.008-0.023,0.01-0.035
		c-2.008,0.163-2.76,1.582-4.027,2.486c-3.824-6.04-10.975-1.568-11.553,3.852c-0.871,8.201,4.227,9.775,8.527,13.201
		c1.908,1.52,2.781,4.174,4.676,4.399c0.001-0.167,0.672-2.492,1.106-3.286c0.065,0.672,0.147,1.338,0.247,1.996
		C93.519,152.577,94.245,145.302,95.627,139.706z"/>
	<path fill="#FFFFFF" d="M208.03,131.532c-1.44-4.077-5.188-6.9-9.844-7.58c3.33-2.764,5.986-6.547,5.78-11.837
		c-0.192-4.93-3.526-9.343-8.106-10.731l-0.47-0.143l-0.486-0.064c-2.351-0.31-4.494-0.141-6.246,0.348
		c-1.407-1.398-3.16-2.359-5.124-2.812c0.367-1.881,0.225-4.5-1.841-7.42c-1.613-2.287-4.272-3.626-7.333-3.737l2.945-2.826
		l-8.577,2.471c-0.392-0.048-0.785-0.081-1.183-0.081c-2.391,0-4.535,0.818-6.195,2.206l-0.288,0.083l7.505-9.138l-11.027,4.668
		l3.391-8.573l-9.654,6.555l2.386-5.3L134.27,93.081c-2.58,2.058-5.985,3.549-9.59,5.128c-1.356,0.594-2.734,1.197-4.104,1.848
		l-5.956,3.312c-9.975,6.503-17.214,15.584-22.034,27.656c-0.057,0.023-0.111,0.047-0.167,0.072c-1.54-0.805-3.237-1.23-5.007-1.23
		c-6.378,0-12.145,5.432-12.855,12.108c-1.088,10.239,4.788,14.32,8.677,17.021c0.743,0.518,1.446,1.006,2.077,1.508
		c0.182,0.148,0.6,0.699,0.875,1.063c0.053,0.069,0.111,0.146,0.167,0.218c-0.849,1.539-0.976,3.152-1.188,4.883
		c0.773,4.233,3.391,6.941,5.699,10.693c1.114,1.811,2.41,4.068,3.313,6.369c0.167,0.197,0.33,0.396,0.503,0.587
		c0.475,0.521,2.184-1.415,2.645-1.724c0.271-0.182,0.625-0.111,0.768,0.195c0.85,1.834,2.858,5.098,2.858,5.098
		c8.864,11.601,24.351,19.209,40.366,19.209c5.917,0,11.77-1.008,17.394-2.995c21.896-7.733,35.499-26.679,37.462-52.065
		C202.448,148.938,212.201,143.348,208.03,131.532z M185.295,108.348c-0.42,1.688-1.75,2.472-1.928,4.401
		c2.609-2.616,4.156-6.295,10.178-5.5c2.084,0.632,3.76,2.856,3.852,5.224c0.262,6.676-8.33,10-12.654,12.105
		c-0.2,0.148-0.325,0.29-0.412,0.43c-0.572-0.379-1.109-0.823-1.592-1.367c-1.123-1.266-1.58-3.098-2.5-4.506
		c-1.85-2.829-4.32-5.221-6.55-7.771C173.801,104.54,183.127,101.614,185.295,108.348z M170.719,97.622
		c0.717-0.733,0.053-2.425,0-3.301c1.891-1.004,4.469-0.907,5.498,0.553c3.799,5.369-5.504,6.562-8.25,8.524
		c-1.408-1.63-4.742-3.147-4.676-6.326C163.399,91.821,170.983,91.942,170.719,97.622z M187.299,149.67
		c0,0.709-0.016,1.412-0.035,2.112c0.682-0.302,1.311-0.659,1.883-1.075h0.549c-1.533,23.985-14.309,41.061-33.557,47.858
		c-23.371,8.256-47.154-3.938-54.734-20.353c1.129-0.062,1.801-0.583,2.475-1.102c2.004,3.123,3.211,4.033,4.953,6.052
		c3.186,3.696,7.299,6.839,11.977,9.226c-7.199-4.094-13.271-9.934-17.636-16.953c-3.15,1.506-6.589,2.709-7.269,5.527
		c-0.686-1.621-0.686-1.621-1.104-3.026c-0.941-3.179-4.324-5.979-4.674-8.526c-0.61-4.445,3.228-8.868,7.139-7.814
		c-0.223-0.871-0.416-1.753-0.592-2.643c-0.812-0.002-1.588,0.03-2.145,0.28c-0.01-0.062-0.015-0.128-0.023-0.19
		c-0.1-0.658-0.182-1.324-0.247-1.996c-0.435,0.794-1.105,3.119-1.106,3.286c-1.895-0.226-2.768-2.88-4.676-4.399
		c-4.301-3.426-9.398-5-8.527-13.201c0.578-5.42,7.729-9.892,11.553-3.852c1.268-0.904,2.02-2.323,4.027-2.486
		c-0.002,0.012-0.006,0.023-0.01,0.035c0.195-0.053,0.391-0.099,0.587-0.138c0.161-0.032,0.323-0.06,0.486-0.078
		c0.049-0.202,0.108-0.401,0.153-0.604c4.5-12.459,11.473-21.5,21.711-27.811c5.889-3.628,13.461-5.503,18.98-9.901
		c-0.627,1.391-2.012,2.023-3.027,3.026c5.297-1.949,8.889-5.598,13.203-8.528c-1.457,3.679-5.197,5.072-7.701,7.702
		c3.156-1.062,5.014-3.422,7.975-4.674c-1.777,2.164-4.004,3.876-6.602,5.224c4.453-0.136,9.482-2.07,13.754-3.299
		c-2.154,2.062-5.584,2.851-9.076,3.575c10.938,1.186,19.541,4.709,26.191,10.18c3.03,3.674,6.42,6.873,8.615,11.17
		c0.852,1.668,1.969,2.838,3.327,3.702c-0.028,0.165-0.076,0.339-0.177,0.527c-0.479,0.22-0.898,0.292-1.275,0.249
		c0.195,0.43,0.368,0.876,0.553,1.314c2.574,0.184,5.025,1.996,6.771,3.937c3.008-3.232,10.279-2.737,11.83,1.651
		C205.145,143.135,193.957,145.71,187.299,149.67z"/>
	<path fill="#F4E2D9" d="M182.819,154.559c-1.752-0.617-1.428-2.881-2.201-4.951c-2.244-6.015-8.33-15.226-1.375-20.354
		c1.301-0.958,2.643-1.28,3.955-1.187c-0.185-0.438-0.357-0.885-0.553-1.314c-1.613-0.182-2.436-2.479-3.676-4.376
		c-6.602-10.094-17.945-19.494-34.383-19.528c-12.59-0.026-24.389,6.513-32.18,14.303c-9.76,9.763-15.957,23.339-14.303,41.81
		c-0.469,0.006-0.953-0.005-1.43-0.007c0.176,0.89,0.369,1.771,0.592,2.643c0.84,0.227,1.685,0.701,2.488,1.489
		c-0.248,0.943-1.189,1.195-1.1,2.474c2.041-1.13,3.035-3.455,6.051-3.023c2.961,0.424,4.748,4.8,3.85,7.978
		c-0.683,2.413-2.946,3.759-5.382,4.923c4.364,7.02,10.437,12.859,17.636,16.953c11.258,5.744,25.797,7.07,38.631,0.949
		c15.236-7.262,25.613-22.531,27.779-41.533c0.016-0.007,0.029-0.016,0.045-0.022c0.02-0.7,0.035-1.403,0.035-2.112
		C185.02,151.027,183.269,152.544,182.819,154.559z M167.967,123.479c-4.184-2.488-11.412-1.85-15.129,0.55
		C153.379,118.921,165.752,119.13,167.967,123.479z M145.688,149.881c-2.164,0.212-3.818-2.105-6.602-1.648
		c-1.744,0.284-2.223,1.691-3.85,2.199C135.473,145.121,144.981,144.66,145.688,149.881z M129.735,123.752
		c-5.383-0.352-10.906,0.584-14.303,3.025C116.54,123.115,126.694,119.042,129.735,123.752z M111.032,142.455
		c0.916-2.018,3.93-3.401,6.6-2.749c4.6-3.064,14.711-1.454,17.057,2.749c-0.27,0.009-0.217,0.337-0.277,0.552
		c-4.551-0.354-10.221-4.042-15.678-2.2c-1.836,0.619-2.596,2.072-4.676,2.477c0.496-1.247,1.564-1.921,2.475-2.753
		C114.141,140.615,112.965,141.914,111.032,142.455z M117.083,161.71c-0.885-2.452,5.715-9.21,7.977-5.226
		C120.833,156.658,118.788,159.012,117.083,161.71z M130.01,176.29c2.67,0.524,5.242,3.357,9.076,3.022
		c2.479-0.215,4.006-1.995,6.328-2.473C144.407,182.314,131.483,182.066,130.01,176.29z M158.616,164.184
		c-3.855,5.046-13.809,8.83-21.73,7.977c-7.389-0.795-12.443-6.062-13.477-12.927c2.135,2.59,2.979,5.41,5.227,7.428
		c8.91,7.995,24.375,0.434,29.154-7.151c0.07-0.298,0.549-0.188,0.551-0.55c0.275,0,0.549,0,0.826,0
		C160.651,160.585,159.542,162.973,158.616,164.184z M161.641,160.059c-1.244-1.191-2.746-4.251-5.225-2.474
		C156.245,154.452,162.936,156.241,161.641,160.059z M155.59,141.629c-1.432,0.963-2.486,3.305-4.676,2.752
		c-1.01-3.658,3.906-6.559,7.975-7.149c2.949-0.428,5.959,0.207,8.803-0.278c-0.039,1.157-2.203,0.185-2.752,0.828
		c0.912,1.103,3.113,0.922,3.578,2.475C164.065,138.01,159.417,139.066,155.59,141.629z"/>
	<path fill="#96AA41" d="M112.407,117.151c7.791-7.79,19.59-14.329,32.18-14.303c16.438,0.034,27.781,9.435,34.383,19.528
		c1.24,1.897,2.062,4.194,3.676,4.376c0.377,0.043,0.797-0.029,1.275-0.249c0.101-0.188,0.148-0.362,0.177-0.527
		c-1.358-0.864-2.476-2.034-3.327-3.702c-2.195-4.297-5.585-7.496-8.615-11.17c-6.65-5.471-15.254-8.994-26.191-10.18
		c3.492-0.725,6.922-1.514,9.076-3.575c-4.271,1.229-9.301,3.163-13.754,3.299c2.598-1.348,4.824-3.06,6.602-5.224
		c-2.961,1.252-4.818,3.612-7.975,4.674c2.504-2.63,6.244-4.023,7.701-7.702c-4.314,2.931-7.906,6.579-13.203,8.528
		c1.016-1.003,2.4-1.636,3.027-3.026c-5.52,4.398-13.092,6.273-18.98,9.901c-10.238,6.311-17.211,15.352-21.711,27.811
		c-0.045,0.203-0.104,0.402-0.153,0.604c-0.009,0.036-0.019,0.071-0.026,0.106c-0.279,1.14-0.602,2.268-0.949,3.387
		c0.004,0,0.007-0.002,0.01-0.002c-1.383,5.597-2.108,12.871-1.121,19.338c0.009,0.062,0.014,0.128,0.023,0.19
		c0.557-0.25,1.333-0.282,2.145-0.28c0.477,0.002,0.961,0.013,1.43,0.007C96.45,140.49,102.647,126.914,112.407,117.151z"/>
	<path fill="#E20613" d="M173.689,111.364c2.229,2.551,4.7,4.942,6.55,7.771c0.92,1.408,1.377,3.24,2.5,4.506
		c0.482,0.544,1.02,0.988,1.592,1.367c0.087-0.14,0.212-0.281,0.412-0.43c4.324-2.105,12.916-5.43,12.654-12.105
		c-0.092-2.367-1.768-4.592-3.852-5.224c-6.021-0.795-7.568,2.884-10.178,5.5c0.178-1.93,1.508-2.713,1.928-4.401
		C183.127,101.614,173.801,104.54,173.689,111.364z"/>
	<path fill="#E20613" d="M167.967,103.398c2.746-1.962,12.049-3.155,8.25-8.524c-1.029-1.46-3.607-1.557-5.498-0.553
		c0.053,0.876,0.717,2.567,0,3.301c0.264-5.68-7.32-5.801-7.428-0.55C163.225,100.25,166.559,101.768,167.967,103.398z"/>
	<path fill="#96AA41" d="M167.967,123.479c-2.215-4.349-14.588-4.558-15.129,0.55C156.555,121.629,163.784,120.991,167.967,123.479z
		"/>
	<path fill="#96AA41" d="M129.735,123.752c-3.041-4.711-13.195-0.638-14.303,3.025C118.829,124.336,124.352,123.401,129.735,123.752
		z"/>
	<path fill="#E20613" d="M189.969,132.003c-1.746-1.94-4.197-3.753-6.771-3.937c-1.312-0.094-2.654,0.229-3.955,1.187
		c-6.955,5.129-0.869,14.34,1.375,20.354c0.773,2.07,0.449,4.334,2.201,4.951c0.45-2.015,2.201-3.532,4.48-4.889
		c6.657-3.96,17.846-6.535,14.5-16.016C200.249,129.266,192.977,128.771,189.969,132.003z"/>
	<path fill="#96AA41" d="M164.94,137.782c0.549-0.644,2.713,0.329,2.752-0.828c-2.844,0.485-5.854-0.149-8.803,0.278
		c-4.068,0.591-8.984,3.491-7.975,7.149c2.189,0.553,3.244-1.789,4.676-2.752c3.826-2.563,8.475-3.619,12.928-1.373
		C168.053,138.704,165.852,138.884,164.94,137.782z"/>
	<path fill="#96AA41" d="M114.057,143.283c2.08-0.404,2.84-1.857,4.676-2.477c5.457-1.842,11.127,1.847,15.678,2.2
		c0.061-0.215,0.008-0.543,0.277-0.552c-2.346-4.203-12.457-5.813-17.057-2.749c-2.67-0.652-5.684,0.731-6.6,2.749
		c1.934-0.541,3.109-1.84,5.5-1.925C115.622,141.362,114.553,142.036,114.057,143.283z"/>
	<path fill="#96AA41" d="M145.688,149.881c-0.707-5.222-10.215-4.761-10.451,0.551c1.627-0.508,2.105-1.915,3.85-2.199
		C141.87,147.776,143.524,150.093,145.688,149.881z"/>
	<path fill="#96AA41" d="M159.44,193.338c-12.834,6.121-27.373,4.795-38.631-0.949c-4.678-2.387-8.791-5.529-11.977-9.226
		c-1.742-2.019-2.949-2.929-4.953-6.052c-0.674,0.519-1.346,1.04-2.475,1.102c7.58,16.414,31.363,28.608,54.734,20.353
		c19.248-6.798,32.023-23.873,33.557-47.858h-0.549c-0.572,0.416-1.201,0.773-1.883,1.075c-0.016,0.007-0.029,0.016-0.045,0.022
		C185.053,170.807,174.676,186.077,159.44,193.338z"/>
	<path fill="#96AA41" d="M117.083,161.71c1.705-2.698,3.75-5.053,7.977-5.226C122.797,152.5,116.198,159.258,117.083,161.71z"/>
	<path fill="#96AA41" d="M156.417,157.585c2.479-1.777,3.98,1.282,5.225,2.474C162.936,156.241,156.245,154.452,156.417,157.585z"/>
	<path fill="#96AA41" d="M158.34,158.96c-0.002,0.361-0.48,0.252-0.551,0.55c-4.779,7.585-20.244,15.146-29.154,7.151
		c-2.248-2.018-3.092-4.838-5.227-7.428c1.033,6.865,6.088,12.132,13.477,12.927c7.922,0.854,17.875-2.931,21.73-7.977
		c0.926-1.211,2.035-3.599,0.551-5.224C158.889,158.96,158.616,158.96,158.34,158.96z"/>
	<path fill="#E20613" d="M108.555,170.513c0.898-3.178-0.889-7.554-3.85-7.978c-3.016-0.432-4.01,1.894-6.051,3.023
		c-0.09-1.278,0.852-1.53,1.1-2.474c-0.804-0.788-1.648-1.263-2.488-1.489c-3.911-1.054-7.749,3.369-7.139,7.814
		c0.35,2.548,3.732,5.348,4.674,8.526c0.418,1.405,0.418,1.405,1.104,3.026c0.68-2.818,4.118-4.021,7.269-5.527
		C105.609,174.272,107.873,172.926,108.555,170.513z"/>
	<path fill="#96AA41" d="M130.01,176.29c1.473,5.776,14.396,6.024,15.404,0.55c-2.322,0.478-3.85,2.258-6.328,2.473
		C135.252,179.647,132.68,176.814,130.01,176.29z"/>
</g>
</svg>
