<?xml version="1.0" encoding="utf-8"?>
<!-- Generator: Adobe Illustrator 15.1.0, SVG Export Plug-In . SVG Version: 6.00 Build 0)  -->
<!DOCTYPE svg PUBLIC "-//W3C//DTD SVG 1.1//EN" "http://www.w3.org/Graphics/SVG/1.1/DTD/svg11.dtd">
<svg version="1.1" id="Ebene_1" xmlns="http://www.w3.org/2000/svg" xmlns:xlink="http://www.w3.org/1999/xlink" x="0px" y="0px"
	 width="283.46px" height="283.46px" viewBox="0 0 283.46 283.46" enable-background="new 0 0 283.46 283.46" xml:space="preserve">
<g>
	<path fill="#FFFFFF" d="M142.129,102.731c0.373-2.348-2.979-2.656-2.434,0H142.129z"/>
	<path fill="#FFFFFF" d="M139.543,106.991h1.978c-0.09-0.646,0.108-1.006,0.151-1.521c-0.77-0.01-1.26,0.262-2.129,0.152
		C139.704,106.258,139.223,106.653,139.543,106.991z"/>
	<path fill="#FFFFFF" d="M141.729,89.401c-28.854,0-52.328,23.475-52.328,52.328c0,28.854,23.475,52.33,52.328,52.33
		c28.855,0,52.33-23.476,52.33-52.33C194.059,112.875,170.584,89.401,141.729,89.401z M171.493,125.551
		c-0.373,7.846-0.305,14.631-0.304,22.062c0.001,10.33,0.083,22.531-0.913,32.863c-0.102,1.059-0.155,2.428-0.247,4.244
		c-0.917,0.646-1.88,1.221-2.858,1.771c-0.121-2.123,0.062-4.582,0.062-5.561c-0.001-10.373,0-21.475,0-31.494
		c-0.001-9.926,0.484-20.389,0-31.035c-0.219-4.824-0.316-9.57-3.348-11.107c-4.729-2.4-13.406-0.756-19.474-1.979v1.826
		c3.727,0.689,9.606-0.266,12.019,1.979c2.463,2.289,2.576,10.672,2.587,15.67c0.017,7.305-0.271,14.938-1.064,22.822
		c-0.54,5.342-0.624,9.916-2.435,12.779c-2.192,3.465-6.543,5.764-10.803,6.693c0.109,1.553,0.509,3.129-0.152,4.107
		c-0.736,1.096-2.698,0.941-3.955,1.521c-0.037,5.277,0.488,11.891,0,17.953c-0.068,0.85-0.111,2.021-0.291,2.898h-1.395
		c-0.316-2.074,0.199-19.633-0.141-20.697c-0.379-1.189-2.284-1.277-2.738-2.74c-0.234-0.756,0.031-1.346,0-2.891
		c-14.14-1.529-13.223-17.158-14.301-32.711c-0.238-3.428-0.324-8.068-0.457-12.322c-0.301-9.641,1.04-14.48,9.737-15.062
		c0.839-0.057,1.726-0.135,2.587-0.152c0.676-0.014,1.821,0.385,2.281-0.457c-0.633-0.977-1.873-0.342-2.738-0.305
		c-2.98,0.131-6.699,0.213-9.281-0.76c-3.678-1.387-6.676-8.389-1.673-10.041c0.423-0.141,0.715-0.168,1.37,0
		c0.645,1.256-0.42,2.199-0.152,3.65c0.729,3.971,7.723,4.35,12.779,3.805c0.415-4.859,8.193-6.053,8.367-0.305
		c6.094-0.105,10.822,0.053,17.497,0.305c2.347,0.086,7.993-0.217,8.977,0.912c1.198,1.377,0.582,7.646,0.456,10.498
		C171.313,118.403,171.653,122.184,171.493,125.551z"/>
	<path fill="#A3BC4B" d="M141.729,83.401c-32.162,0-58.328,26.166-58.328,58.328c0,32.163,26.166,58.33,58.328,58.33
		c32.163,0,58.33-26.167,58.33-58.33C200.059,109.567,173.892,83.401,141.729,83.401z M141.729,194.059
		c-28.854,0-52.328-23.476-52.328-52.33c0-28.854,23.475-52.328,52.328-52.328c28.855,0,52.33,23.475,52.33,52.328
		C194.059,170.583,170.584,194.059,141.729,194.059z"/>
	<path fill="#6394A3" d="M171.037,103.795c-0.983-1.129-6.63-0.826-8.977-0.912c-6.675-0.252-11.403-0.41-17.497-0.305
		c-0.174-5.748-7.952-4.555-8.367,0.305c-5.057,0.545-12.051,0.166-12.779-3.805c-0.268-1.451,0.797-2.395,0.152-3.65
		c-0.655-0.168-0.947-0.141-1.37,0c-5.003,1.652-2.005,8.654,1.673,10.041c2.582,0.973,6.301,0.891,9.281,0.76
		c0.865-0.037,2.105-0.672,2.738,0.305c-0.46,0.842-1.605,0.443-2.281,0.457c-0.861,0.018-1.748,0.096-2.587,0.152
		c-8.697,0.582-10.038,5.422-9.737,15.062c0.133,4.254,0.219,8.895,0.457,12.322c1.078,15.553,0.161,31.182,14.301,32.711
		c0.031,1.545-0.234,2.135,0,2.891c0.454,1.463,2.359,1.551,2.738,2.74c0.34,1.064-0.176,18.623,0.141,20.697h1.395
		c0.18-0.877,0.223-2.049,0.291-2.898c0.488-6.062-0.037-12.676,0-17.953c1.257-0.58,3.219-0.426,3.955-1.521
		c0.661-0.979,0.262-2.555,0.152-4.107c4.26-0.93,8.61-3.229,10.803-6.693c1.811-2.863,1.895-7.438,2.435-12.779
		c0.794-7.885,1.081-15.518,1.064-22.822c-0.011-4.998-0.124-13.381-2.587-15.67c-2.412-2.244-8.292-1.289-12.019-1.979v-1.826
		c6.067,1.223,14.745-0.422,19.474,1.979c3.031,1.537,3.129,6.283,3.348,11.107c0.484,10.646-0.001,21.109,0,31.035
		c0,10.02-0.001,21.121,0,31.494c0,0.979-0.184,3.438-0.062,5.561c0.979-0.551,1.941-1.125,2.858-1.771
		c0.092-1.816,0.146-3.186,0.247-4.244c0.996-10.332,0.914-22.533,0.913-32.863c-0.001-7.432-0.069-14.217,0.304-22.062
		c0.16-3.367-0.18-7.148,0-11.258C171.619,111.442,172.235,105.172,171.037,103.795z M142.129,102.731h-2.434
		C139.151,100.075,142.502,100.383,142.129,102.731z M139.543,105.622c0.869,0.109,1.359-0.162,2.129-0.152
		c-0.043,0.516-0.241,0.875-0.151,1.521h-1.978C139.223,106.653,139.704,106.258,139.543,105.622z M139.086,170.891
		c-0.696-0.32-1.248-0.781-1.674-1.371c0.065-0.695,0.231-1.289,0.152-2.129c0.252-0.207,0.889,0.125,1.521,0
		C139.106,168.604,138.723,169.788,139.086,170.891z M138.934,164.196c12.238-1.365,10.945-17.689,9.738-29.971
		c1.844-0.287,3.84-0.422,5.933-0.459C154.214,147.95,154.475,165.667,138.934,164.196z M155.213,115.208
		c0.898,4.391,0.211,9.705,0.762,14.758c-9.555,0.445-20.468,0.824-30.887,0.912c0.115-1.027-0.244-1.582-0.151-2.588
		c2.296-0.543,6.011,0.332,7.15-1.367c-1.087-1.754-4.593-1.088-7.15-1.371v-1.977c2.548-0.496,6.165,0.078,7.759-1.369
		c-1.001-2.168-5.635-0.744-7.759-1.066c0.228-0.939,0.011-2.322,0.305-3.195c1.124,0.092,2.431-0.199,3.651-0.303
		c1.178-0.102,2.736,0.281,3.194-0.762c-1.227-1.207-4.271-0.596-6.542-0.76c-0.634-6.459,9.039-5.047,14.91-4.566
		C146.286,112.032,154.304,110.758,155.213,115.208z"/>
	<path fill="#FFFFFF" d="M125.545,116.12c2.271,0.164,5.315-0.447,6.542,0.76c-0.458,1.043-2.017,0.66-3.194,0.762
		c-1.221,0.104-2.527,0.395-3.651,0.303c-0.294,0.873-0.077,2.256-0.305,3.195c2.124,0.322,6.758-1.102,7.759,1.066
		c-1.594,1.447-5.211,0.873-7.759,1.369v1.977c2.558,0.283,6.063-0.383,7.15,1.371c-1.14,1.699-4.854,0.824-7.15,1.367
		c-0.093,1.006,0.267,1.561,0.151,2.588c10.419-0.088,21.332-0.467,30.887-0.912c-0.551-5.053,0.137-10.367-0.762-14.758
		c-0.909-4.449-8.928-3.176-14.758-3.654C134.584,111.073,124.912,109.661,125.545,116.12z"/>
	<path fill="#B3DEEC" d="M138.934,164.196c15.541,1.471,15.28-16.246,15.671-30.43c-2.093,0.037-4.089,0.172-5.933,0.459
		C149.879,146.506,151.172,162.831,138.934,164.196z"/>
	<path fill="#FFFFFF" d="M137.565,167.391c0.079,0.84-0.087,1.434-0.152,2.129c0.426,0.59,0.978,1.051,1.674,1.371
		c-0.363-1.104,0.02-2.287,0-3.5C138.454,167.516,137.817,167.184,137.565,167.391z"/>
</g>
</svg>
