<?xml version="1.0" encoding="utf-8"?>
<!-- Generator: Adobe Illustrator 15.1.0, SVG Export Plug-In . SVG Version: 6.00 Build 0)  -->
<!DOCTYPE svg PUBLIC "-//W3C//DTD SVG 1.1//EN" "http://www.w3.org/Graphics/SVG/1.1/DTD/svg11.dtd">
<svg version="1.1" id="Ebene_1" xmlns="http://www.w3.org/2000/svg" xmlns:xlink="http://www.w3.org/1999/xlink" x="0px" y="0px"
	 width="283.46px" height="283.46px" viewBox="0 0 283.46 283.46" enable-background="new 0 0 283.46 283.46" xml:space="preserve">
<g>
	<path fill="#FFFFFF" d="M141.73,89.401c-28.854,0-52.329,23.475-52.329,52.329s23.475,52.33,52.329,52.33s52.33-23.476,52.33-52.33
		S170.584,89.401,141.73,89.401z M142.619,191.256c-5.691-0.256-17.546,0.021-26.711-8.464c3.888-9.071,9.316-15.626,19.541-18.917
		c0.189-0.107,1.645-1.607,1.847-1.695c0.032-1.203,1.205-1.877,1.212-3.081c0.018-3.562,2.242-7.23,2.223-3.666
		c-0.006,1.219,3.271,6.103,3.239,7.32c10.567,3.335,17.095,12.324,22.404,21.236C159.656,188.305,150.955,191.631,142.619,191.256z
		 M162.845,118.94c-3.252,5.765-16.396,7.36-20.988,31.13c-0.473,2.448-2.269,3.413-2.885,1.272
		c-1.85-6.422-19.391-29.446-21.994-36.254c-1.701-4.451-10.699-8.165-10.937-8.468c6.778-5.052,19.88-12.156,28.27-13.844
		c2.729-0.15,5.452-0.394,8.193-0.601c5.06-0.381,9.403,0.821,14.009,2.801c5.365,2.305,15.894,7.833,20.342,11.644
		C165.952,107.339,165.459,114.306,162.845,118.94z"/>
	<path fill="#A3BC4B" d="M141.73,83.401c-32.163,0-58.329,26.166-58.329,58.329s26.166,58.33,58.329,58.33s58.33-26.167,58.33-58.33
		S173.893,83.401,141.73,83.401z M141.73,194.06c-28.854,0-52.329-23.476-52.329-52.33s23.475-52.329,52.329-52.329
		s52.33,23.475,52.33,52.329S170.584,194.06,141.73,194.06z"/>
	<path fill="#E4CBB0" d="M142.504,92.176c-2.741,0.207-5.464,0.45-8.193,0.601c-8.39,1.688-21.491,8.792-28.27,13.844
		c0.237,0.303,9.235,4.017,10.937,8.468c2.604,6.808,20.145,29.832,21.994,36.254c0.616,2.141,2.412,1.176,2.885-1.272
		c4.592-23.77,17.736-25.365,20.988-31.13c2.614-4.634,3.106-11.601,14.01-12.319c-4.448-3.811-14.977-9.339-20.342-11.644
		C151.908,92.998,147.564,91.795,142.504,92.176z"/>
	<path fill="#E4CBB0" d="M143.969,162.753c0.032-1.218-3.245-6.102-3.239-7.32c0.02-3.564-2.205,0.104-2.223,3.666
		c-0.007,1.204-1.18,1.878-1.212,3.081c-0.202,0.088-1.657,1.588-1.847,1.695c-10.225,3.291-15.653,9.846-19.541,18.917
		c9.165,8.484,21.02,8.208,26.711,8.464c8.336,0.375,17.037-2.951,23.755-7.267C161.064,175.078,154.537,166.088,143.969,162.753z"
		/>
</g>
</svg>
