<?xml version="1.0" encoding="utf-8"?>
<!-- Generator: Adobe Illustrator 15.1.0, SVG Export Plug-In . SVG Version: 6.00 Build 0)  -->
<!DOCTYPE svg PUBLIC "-//W3C//DTD SVG 1.1//EN" "http://www.w3.org/Graphics/SVG/1.1/DTD/svg11.dtd">
<svg version="1.1" id="Ebene_1" xmlns="http://www.w3.org/2000/svg" xmlns:xlink="http://www.w3.org/1999/xlink" x="0px" y="0px"
	 width="283.46px" height="283.46px" viewBox="0 0 283.46 283.46" enable-background="new 0 0 283.46 283.46" xml:space="preserve">
<path fill="#FFFFFF" d="M141.729,187.117c28.855,0,52.33-23.475,52.33-52.328c0-28.855-23.475-52.33-52.33-52.33
	c-28.854,0-52.329,23.475-52.329,52.33C89.4,163.643,112.875,187.117,141.729,187.117z M132.661,99.65
	c0.006-0.206,0.258-0.165,0.424-0.211c6.688,2.114,11.164,7.155,15.662,12.487c4.189,4.967,7.982,11.611,9.736,18.203
	c0.719,2.701,1.383,7.414,0.848,11.219c-0.9,6.394-6.393,13.094-11.643,15.664c-5.808,2.841-14.935,1.438-19.683-2.541
	c-2.438-2.042-4.875-6.205-5.715-9.526c-3.479-13.722,7.508-21.655,11.641-30.69C136.168,109.362,136.032,102.751,132.661,99.65z"/>
<path fill="#FFFFFF" d="M145.994,153.836c6.916-2.652,10.742-15.534,7.408-23.707c1.568,9.424-3.26,16.061-8.467,19.686
	c-1.504,1.047-3.847,1.57-4.443,3.598C141.997,155.105,144.482,154.415,145.994,153.836z"/>
<path fill="#A4BC4B" d="M141.729,193.117c32.164,0,58.33-26.166,58.33-58.328c0-32.164-26.166-58.33-58.33-58.33
	c-32.162,0-58.329,26.167-58.329,58.33C83.4,166.951,109.567,193.117,141.729,193.117z M141.729,82.459
	c28.855,0,52.33,23.475,52.33,52.33c0,28.854-23.475,52.328-52.33,52.328c-28.854,0-52.329-23.475-52.329-52.328
	C89.4,105.934,112.875,82.459,141.729,82.459z"/>
<path fill="#BE1622" d="M122.29,144.944c0.84,3.321,3.277,7.484,5.715,9.526c4.748,3.979,13.875,5.382,19.683,2.541
	c5.25-2.57,10.742-9.271,11.643-15.664c0.535-3.805-0.129-8.518-0.848-11.219c-1.754-6.592-5.547-13.236-9.736-18.203
	c-4.498-5.333-8.974-10.374-15.662-12.487c-0.166,0.046-0.418,0.005-0.424,0.211c3.371,3.102,3.508,9.712,1.27,14.604
	C129.797,123.289,118.811,131.223,122.29,144.944z M144.936,149.814c5.207-3.625,10.035-10.262,8.467-19.686
	c3.334,8.173-0.492,21.055-7.408,23.707c-1.512,0.579-3.998,1.27-5.501-0.424C141.088,151.385,143.432,150.861,144.936,149.814z"/>
</svg>
