<?xml version="1.0" encoding="utf-8"?>
<!-- Generator: Adobe Illustrator 15.1.0, SVG Export Plug-In . SVG Version: 6.00 Build 0)  -->
<!DOCTYPE svg PUBLIC "-//W3C//DTD SVG 1.1//EN" "http://www.w3.org/Graphics/SVG/1.1/DTD/svg11.dtd">
<svg version="1.1" id="Ebene_1" xmlns="http://www.w3.org/2000/svg" xmlns:xlink="http://www.w3.org/1999/xlink" x="0px" y="0px"
	 width="283.46px" height="283.46px" viewBox="0 0 283.46 283.46" enable-background="new 0 0 283.46 283.46" xml:space="preserve">
<g>
	<path fill="#FFFFFF" d="M150.673,166.958c-1.484,1.033-3.797,1.551-4.386,3.551c1.486,1.67,3.938,0.99,5.43,0.418
		c6.824-2.617,10.599-15.326,7.311-23.391C160.573,156.833,155.809,163.382,150.673,166.958z"/>
	<path fill="#FFFFFF" d="M141.731,89.401c-28.854,0-52.33,23.475-52.33,52.33c0,28.855,23.476,52.33,52.33,52.33
		c28.854,0,52.328-23.475,52.328-52.33C194.059,112.876,170.584,89.401,141.731,89.401z M110.577,147.954
		c-5.115-11.445,4.841-20.399,8.562-28.82c1.959-4.431,1.646-10.228-1.462-13.156c0.006-0.204,0.256-0.163,0.418-0.209
		c7.387,2.86,12.801,8.162,17.334,14.619c1.038,1.479,3.678,5.179,3.76,6.892c0.172,3.685-5.203,9.835-6.893,12.321
		c-3.648,5.366-6.875,9.607-6.893,17.75C117.593,157.316,112.916,153.189,110.577,147.954z M164.875,158.605
		c-0.888,6.309-6.307,12.92-11.485,15.455c-5.73,2.805-14.737,1.42-19.423-2.506c-2.405-2.016-4.81-6.123-5.639-9.398
		c-3.433-13.54,7.409-21.368,11.486-30.282c2.207-4.827,2.073-11.35-1.253-14.41c0.006-0.204,0.255-0.163,0.418-0.209
		c6.598,2.085,11.016,7.06,15.453,12.321c4.133,4.9,7.876,11.456,9.606,17.961C164.749,150.203,165.403,154.851,164.875,158.605z
		 M166.754,158.396c-0.57-4.755,2.454-6.842,2.924-11.695c0.221-2.277,0.064-5.342-0.628-7.1c0.422,4.139-0.835,8.143-2.505,10.859
		c-2.466-9.647-6.942-17.282-12.531-23.808c1.481-3.531,0.793-8.528-1.254-10.859c8.709,3.276,18.734,15.278,20.469,25.897
		C174.571,149.912,171.119,154.361,166.754,158.396z"/>
	<path fill="#A3BC4B" d="M141.731,83.401c-32.163,0-58.33,26.167-58.33,58.33c0,32.164,26.167,58.33,58.33,58.33
		c32.162,0,58.328-26.166,58.328-58.33C200.059,109.567,173.893,83.401,141.731,83.401z M141.731,194.06
		c-28.854,0-52.33-23.475-52.33-52.33c0-28.854,23.476-52.33,52.33-52.33c28.854,0,52.328,23.475,52.328,52.33
		C194.059,170.585,170.584,194.06,141.731,194.06z"/>
	<path fill="#BD1622" d="M139.188,127.28c-0.082-1.712-2.722-5.413-3.76-6.892c-4.533-6.457-9.947-11.759-17.334-14.619
		c-0.162,0.046-0.412,0.005-0.418,0.209c3.107,2.928,3.421,8.725,1.462,13.156c-3.721,8.42-13.677,17.375-8.562,28.82
		c2.339,5.235,7.017,9.362,14.826,9.397c0.018-8.144,3.244-12.385,6.893-17.75C133.985,137.115,139.36,130.965,139.188,127.28z"/>
	<path fill="#BD1622" d="M152.76,115.792c2.047,2.331,2.735,7.328,1.254,10.859c5.589,6.526,10.065,14.161,12.531,23.808
		c1.67-2.716,2.927-6.72,2.505-10.859c0.692,1.758,0.849,4.823,0.628,7.1c-0.47,4.854-3.494,6.94-2.924,11.695
		c4.364-4.035,7.816-8.484,6.475-16.707C171.495,131.07,161.469,119.068,152.76,115.792z"/>
	<path fill="#BD1622" d="M154.432,129.576c-4.438-5.261-8.855-10.235-15.453-12.321c-0.163,0.046-0.412,0.005-0.418,0.209
		c3.326,3.06,3.46,9.583,1.253,14.41c-4.077,8.914-14.919,16.742-11.486,30.282c0.829,3.275,3.233,7.383,5.639,9.398
		c4.686,3.926,13.692,5.311,19.423,2.506c5.179-2.535,10.598-9.146,11.485-15.455c0.528-3.754-0.126-8.402-0.836-11.068
		C162.308,141.032,158.565,134.476,154.432,129.576z M151.717,170.927c-1.492,0.572-3.943,1.252-5.43-0.418
		c0.589-2,2.901-2.518,4.386-3.551c5.136-3.576,9.899-10.125,8.354-19.422C162.316,155.601,158.542,168.31,151.717,170.927z"/>
</g>
</svg>
