<?xml version="1.0" encoding="utf-8"?>
<!-- Generator: Adobe Illustrator 15.1.0, SVG Export Plug-In . SVG Version: 6.00 Build 0)  -->
<!DOCTYPE svg PUBLIC "-//W3C//DTD SVG 1.1//EN" "http://www.w3.org/Graphics/SVG/1.1/DTD/svg11.dtd">
<svg version="1.1" id="Ebene_1" xmlns="http://www.w3.org/2000/svg" xmlns:xlink="http://www.w3.org/1999/xlink" x="0px" y="0px"
	 width="283.46px" height="283.46px" viewBox="0 0 283.46 283.46" enable-background="new 0 0 283.46 283.46" xml:space="preserve">
<g>
	<path fill="#FFFFFF" d="M158.793,166.783c-1.504,1.047-3.848,1.57-4.444,3.598c1.505,1.693,3.99,1.004,5.503,0.424
		c6.915-2.652,10.743-15.533,7.409-23.707C168.828,156.521,164,163.158,158.793,166.783z"/>
	<path fill="#FFFFFF" d="M141.729,89.401c-28.854,0-52.328,23.475-52.328,52.329c0,28.856,23.475,52.331,52.328,52.331
		c28.855,0,52.33-23.475,52.33-52.331C194.059,112.875,170.584,89.401,141.729,89.401z M118.155,147.521
		c-5.183-11.601,4.907-20.676,8.678-29.209c1.985-4.492,1.668-10.367-1.481-13.334c0.006-0.206,0.26-0.165,0.424-0.212
		c7.487,2.899,12.974,8.272,17.567,14.817c1.053,1.499,3.729,5.249,3.811,6.985c0.176,3.734-5.272,9.968-6.985,12.486
		c-3.698,5.438-6.968,9.737-6.984,17.993C125.267,157.009,120.526,152.828,118.155,147.521z M173.187,158.316
		c-0.9,6.395-6.392,13.094-11.642,15.664c-5.809,2.842-14.936,1.438-19.685-2.541c-2.437-2.041-4.874-6.205-5.715-9.525
		c-3.478-13.723,7.509-21.657,11.642-30.69c2.237-4.893,2.102-11.504-1.27-14.605c0.006-0.206,0.258-0.165,0.423-0.211
		c6.688,2.114,11.165,7.155,15.663,12.487c4.188,4.967,7.981,11.611,9.735,18.204C173.06,149.798,173.722,154.511,173.187,158.316z"
		/>
	<path fill="#A3BC4B" d="M141.729,83.401c-32.162,0-58.328,26.167-58.328,58.329c0,32.163,26.166,58.331,58.328,58.331
		c32.164,0,58.33-26.168,58.33-58.331C200.059,109.567,173.893,83.401,141.729,83.401z M141.729,194.06
		c-28.854,0-52.328-23.475-52.328-52.331c0-28.854,23.475-52.329,52.328-52.329c28.855,0,52.33,23.475,52.33,52.329
		C194.059,170.585,170.584,194.06,141.729,194.06z"/>
	<path fill="#BD1622" d="M147.153,126.567c-0.082-1.736-2.758-5.486-3.811-6.985c-4.594-6.544-10.08-11.917-17.567-14.817
		c-0.164,0.047-0.418,0.006-0.424,0.212c3.149,2.967,3.467,8.843,1.481,13.334c-3.771,8.533-13.86,17.608-8.678,29.209
		c2.371,5.307,7.112,9.488,15.028,9.525c0.017-8.256,3.286-12.555,6.984-17.993C141.88,136.535,147.329,130.302,147.153,126.567z"/>
	<path fill="#BD1622" d="M162.604,128.894c-4.498-5.332-8.976-10.373-15.663-12.487c-0.165,0.046-0.417,0.005-0.423,0.211
		c3.371,3.102,3.507,9.713,1.27,14.605c-4.133,9.033-15.119,16.967-11.642,30.69c0.841,3.32,3.278,7.484,5.715,9.525
		c4.749,3.979,13.876,5.383,19.685,2.541c5.25-2.57,10.741-9.27,11.642-15.664c0.535-3.805-0.127-8.518-0.848-11.219
		C170.585,140.505,166.792,133.86,162.604,128.894z M159.852,170.804c-1.513,0.58-3.998,1.27-5.503-0.424
		c0.597-2.027,2.94-2.551,4.444-3.598c5.206-3.625,10.034-10.262,8.468-19.686C170.595,155.271,166.767,168.152,159.852,170.804z"/>
</g>
</svg>
