<?xml version="1.0" encoding="utf-8"?>
<!-- Generator: Adobe Illustrator 15.1.0, SVG Export Plug-In . SVG Version: 6.00 Build 0)  -->
<!DOCTYPE svg PUBLIC "-//W3C//DTD SVG 1.1//EN" "http://www.w3.org/Graphics/SVG/1.1/DTD/svg11.dtd">
<svg version="1.1" id="Ebene_1" xmlns="http://www.w3.org/2000/svg" xmlns:xlink="http://www.w3.org/1999/xlink" x="0px" y="0px"
	 width="283.46px" height="283.46px" viewBox="0 0 283.46 283.46" enable-background="new 0 0 283.46 283.46" xml:space="preserve">
<g>
	<path fill="#FFFFFF" d="M141.73,89.401c-28.854,0-52.329,23.475-52.329,52.33s23.475,52.328,52.329,52.328
		s52.329-23.474,52.329-52.328S170.584,89.401,141.73,89.401z M142.347,128.243c0.459-0.834,1.289-1.291,1.852-2.02
		c-0.771-2.492-0.562-6.045,1.011-7.576c0.444,0.949-0.021,1.436,0,2.359c0.042,1.914,1.364,4.271,1.179,5.385
		c-0.221,1.316-1.777,1.26-2.357,2.523c-0.104,1.451,0.184,2.512,0.504,3.537c-0.396,0.893-1.567,1.012-2.019,1.852
		c0.039,0.689,0.083,1.377,0.336,1.852c-1.021,0.016-1.556-1.309-1.515-2.189C141.401,132.571,143.365,130.838,142.347,128.243z
		 M138.138,153.661c-0.434,1.852-4.467,1.85-4.039,4.715c-1.615,0.629-2.658,1.828-4.713,2.018c0.789-1.508,3.01-2.303,2.189-4.881
		c1.449-0.736,2.605-1.77,3.701-2.859c0.221-1.869-0.807-2.787,0-4.043c0.945-1.463,4.814-1.412,6.229-0.336
		c-0.792,1.229-2.898,1.141-4.039,2.021C137.095,151.504,138.406,152.524,138.138,153.661z M136.793,106.865
		c0.168,0,0.337,0,0.505,0c2.391,5.79,4.439,14.293,3.365,22.895c-0.302,2.418-0.797,5.078-2.188,6.73
		c1.479-10.432-1.713-19.77-2.021-28.954C136.333,107.079,136.791,107.2,136.793,106.865z M130.564,132.956
		c0.967-0.322,0.451-2.133,1.348-2.523c1.884,1.426,2.479,4.143,3.535,6.395c0.305-0.367,0.565-0.779,1.347-0.672
		c1.14,1.496,1.606,3.668,2.019,5.891c-1.465-0.104-1.304-1.838-1.851-2.861c-0.464,0.66-0.427,1.82-1.852,1.514
		c-1.036-2.162-1.255-5.139-2.694-6.9c-0.927,0.193-0.336,1.908-0.504,2.863c-1.795-2.023-3.16-4.473-4.041-7.408
		C129.71,129.545,129.476,131.913,130.564,132.956z M127.871,146.76c0.383-0.506,0.074-1.445,0-2.021
		c0.678-1.52,3.09-0.904,4.545-0.504c-0.361-1.023-0.479-2.246,0.336-2.861c2.471,1.176,4.962,2.332,6.565,4.375
		c-2.089-0.266-3.376-1.334-5.386-1.682c-0.555,0.84,0.381,1.633,0.336,2.523c-1.686,0.541-3.215-0.471-4.545-0.842
		c1.639,4.207-4.655,1.873-7.069,1.182C124.37,146.475,125.874,146.811,127.871,146.76z M137.634,172.514
		c-0.355-0.34-0.771-1.252-0.336-1.852c-0.703,0.029-1.406,0.059-1.684-0.336c-0.302-0.539-0.592-1.412-0.338-2.02
		c-0.228-0.271-1.162,0.174-1.85,0c-0.362-0.48-0.836-0.85-0.676-1.852c-1.1,0.365-2.153-0.154-2.188-1.348
		c-1.455,0.551-2.629-0.164-2.693-1.514c-0.244-0.104-1.182,0.375-1.853,0c-0.434-0.408-0.664-1.02-0.84-1.686
		c-0.493,0.182-0.869,0.48-1.684,0.336c-0.51-0.443-1.158-0.75-1.01-1.852c-0.527,0.203-0.836,0.625-1.684,0.508
		c-0.75-0.092-0.861-0.822-1.179-1.348c-0.465,0.207-0.855,0.49-1.515,0.504c-0.452-0.445-1.09-0.703-1.18-1.514
		c-0.941,0.832-2.753,0.543-2.859-0.844c-0.853,0.428-1.623,0.289-2.189-0.334c-1.426,5.605-0.734,13.641,0,18.854
		c-1.827-1.17-2.659-4.455-2.862-7.24c-0.705-9.691,1.534-16.969,4.714-23.398c2.184-4.416,5.375-9.021,5.892-13.633
		c0.435-3.893-0.962-8.961-2.188-13.133c-0.379-1.289-1.146-2.719-1.852-4.545c-0.535-1.379-2.681-5.025-1.011-5.218
		c1.966-0.226,5.329,6.384,6.061,8.082c1.427,3.309,2.792,7.527,3.03,11.109c0.311,4.672-1.959,8.631-3.367,11.277
		c-1.195,2.248-2.396,4.396-3.871,6.904c4.227,3.629,10.488,5.221,18.012,5.555c-0.062,1.004-1.147,0.982-1.515,1.682
		c-6.892-0.795-13.259-2.113-17.171-5.891c-0.471,0.312-0.649,0.924-0.841,1.516c2.271,1.635,5.207,2.072,7.912,3.029
		c2.741,0.971,5.65,1.852,8.92,2.02c-0.246,0.596-1.137,0.547-1.01,1.516c-6.218-0.963-11.755-2.609-16.327-5.219
		c-0.899,1.234-1.379,2.885-1.853,4.545c6.034,0.236,13.229,3.873,17.676,6.732c4.83,3.109,9.693,6.521,10.605,12.625
		C139.469,174.161,139.617,172.272,137.634,172.514z M176.857,118.143c-1.072,0.986-2.195,2.133-3.367,3.199
		c-2.752,2.502-7.393,4.564-7.071,9.594c0.205,3.184,2.266,7.051,0.506,10.773c3.231,4.076,5.517,10.299,5.051,18.518
		c-0.134,2.33-0.644,4.688-1.011,6.902c-0.355,2.141-0.242,4.699-1.852,5.891c-0.848-1.986-0.289-4.744-0.168-7.406
		c0.138-3.027,0.354-6.244,0-9.092c-0.995,0.486-2.671-0.217-3.535,1.01c-0.867,0.084-1.412-0.158-1.852-0.504
		c-0.381,0.938-1.871,1.572-3.198,1.01c-0.28,1.068-1.122,1.57-2.694,1.348c-0.28,0.561-0.426,1.256-0.841,1.682
		c-0.637,0.094-1.052,0.408-1.853,0.338c-0.213,1.191-1.037,1.768-2.524,1.682c-0.181,1.168-0.584,2.111-2.019,2.021
		c0.162,1.678-0.944,2.088-2.19,2.357c-0.167,0.102,0.157,1.131-0.169,1.514c-0.528,0.256-1.009,0.562-1.682,0.676
		c0.141,0.418,0.22,0.9,0.168,1.514c-0.456,0.217-0.6,0.75-1.347,0.672c0.407,0.662,0.147,1.883-0.675,1.852
		c-0.974-0.283,0.426-0.699,0.17-1.346c-0.919,0.26-0.5,1.855-1.853,1.686c0.952-6.482,4.936-10.631,9.09-13.975
		c4.127-3.318,9.647-6.002,16.16-6.732c-0.061-1.061-0.485-1.76-0.673-2.693c-9.412,2.594-18.385,5.631-30.299,5.723
		c0.719-0.514,1.4-1.068,2.019-1.684c11.132-0.146,19.708-2.848,27.608-6.227c-1.021-0.477-2.104,0.355-3.031,0.672
		c-7.002,2.406-15.297,4.475-24.577,4.883c0.083-0.756-0.085-1.262-0.169-1.852c10.615-0.217,18.6-3.061,26.598-5.893
		c-1.311-3.01-3.604-5.035-4.713-8.248c-2.688,2.41-5.818,7.863-9.932,9.09c-1.219,0.363-6.134,0.098-7.744,0
		c-2.486-1.559-0.52-5.582,0.17-7.406c0.814-2.164,1.131-4.059,2.523-5.725c2.334-2.787,5.644-4.732,7.576-8.752
		c0.631-1.314,1.65-2.443,1.852-3.367c0.184-0.85-0.049-2.07,0-3.031c0.117-2.301,0.457-4.816,1.008-7.068
		c0.477-1.938,0.559-4.9,2.863-5.219c0.959,4.072-1.201,7.871-1.347,11.951c2.858-2.438,6.282-5.561,9.427-8.417
		c0.979-0.889,2.068-2.17,3.367-2.356c-2.809,6.4-9.846,10.199-13.635,16.16c-1.359,2.137-1.861,4.477-3.535,6.23
		c-1.763,1.844-4.387,2.715-5.724,4.879c-0.032,0.137-0.169,0.168-0.169,0.338c1.506-0.906,2.515-2.311,4.376-2.861
		c-1.337,3.49-5.703,5.402-7.237,9.258c2.443-1.707,5.195-4.568,8.418-6.061c0.021,1.055-1.125,1.734-1.853,2.357
		c-2.219,1.902-5.067,4.141-6.398,7.07c0.528,0.516,1.246-0.207,2.021,0c1.172-4.045,5.188-5.248,8.417-7.238
		c-1.133,2.801-5.034,4.277-6.565,7.238c5.05-0.984,8.431-5.293,10.942-9.092c0.549-0.832,1.584-2.783,2.355-2.693
		c1.221,0.145,0.678,1.924,0.337,2.527c0.798,1.504,1.769,2.83,2.862,4.039c0.614-6.57-3.133-11.441,0.336-15.318
		c1.747-1.953,4.322-3.766,6.734-5.555c2.369-1.762,5.121-3.51,7.744-4.377C179.638,116.143,178.059,117.038,176.857,118.143z"/>
	<path fill="#A3BC4B" d="M141.73,83.401c-32.163,0-58.329,26.167-58.329,58.33c0,32.162,26.166,58.328,58.329,58.328
		s58.329-26.166,58.329-58.328C200.059,109.568,173.893,83.401,141.73,83.401z M141.73,194.059
		c-28.854,0-52.329-23.474-52.329-52.328s23.475-52.33,52.329-52.33s52.329,23.475,52.329,52.33S170.584,194.059,141.73,194.059z"/>
	<path fill="#E84E1B" d="M172.312,118.985c-2.412,1.789-4.987,3.602-6.734,5.555c-3.469,3.877,0.278,8.748-0.336,15.318
		c-1.094-1.209-2.064-2.535-2.862-4.039c0.341-0.604,0.884-2.383-0.337-2.527c-0.771-0.09-1.807,1.861-2.355,2.693
		c-2.512,3.799-5.893,8.107-10.942,9.092c1.531-2.961,5.433-4.438,6.565-7.238c-3.229,1.99-7.245,3.193-8.417,7.238
		c-0.775-0.207-1.493,0.516-2.021,0c1.331-2.93,4.18-5.168,6.398-7.07c0.728-0.623,1.874-1.303,1.853-2.357
		c-3.223,1.492-5.975,4.354-8.418,6.061c1.534-3.855,5.9-5.768,7.237-9.258c-1.861,0.551-2.87,1.955-4.376,2.861
		c0-0.17,0.137-0.201,0.169-0.338c1.337-2.164,3.961-3.035,5.724-4.879c1.674-1.754,2.176-4.094,3.535-6.23
		c3.789-5.961,10.826-9.76,13.635-16.16c-1.299,0.187-2.389,1.468-3.367,2.356c-3.145,2.856-6.568,5.979-9.427,8.417
		c0.146-4.08,2.306-7.878,1.347-11.951c-2.305,0.318-2.387,3.281-2.863,5.219c-0.551,2.251-0.891,4.767-1.008,7.068
		c-0.049,0.961,0.184,2.182,0,3.031c-0.201,0.924-1.221,2.053-1.852,3.367c-1.933,4.02-5.242,5.965-7.576,8.752
		c-1.393,1.666-1.709,3.561-2.523,5.725c-0.689,1.824-2.656,5.848-0.17,7.406c1.61,0.098,6.525,0.363,7.744,0
		c4.113-1.227,7.244-6.68,9.932-9.09c1.109,3.213,3.402,5.238,4.713,8.248c-7.998,2.832-15.982,5.676-26.598,5.893
		c0.084,0.59,0.252,1.096,0.169,1.852c9.28-0.408,17.575-2.477,24.577-4.883c0.927-0.316,2.011-1.148,3.031-0.672
		c-7.9,3.379-16.477,6.08-27.608,6.227c-0.618,0.615-1.3,1.17-2.019,1.684c11.914-0.092,20.887-3.129,30.299-5.723
		c0.188,0.934,0.612,1.633,0.673,2.693c-6.513,0.73-12.033,3.414-16.16,6.732c-4.154,3.344-8.138,7.492-9.09,13.975
		c1.353,0.17,0.934-1.426,1.853-1.686c0.256,0.646-1.144,1.062-0.17,1.346c0.822,0.031,1.082-1.189,0.675-1.852
		c0.747,0.078,0.891-0.455,1.347-0.672c0.052-0.613-0.027-1.096-0.168-1.514c0.673-0.113,1.153-0.42,1.682-0.676
		c0.326-0.383,0.002-1.412,0.169-1.514c1.246-0.27,2.353-0.68,2.19-2.357c1.435,0.09,1.838-0.854,2.019-2.021
		c1.487,0.086,2.312-0.49,2.524-1.682c0.801,0.07,1.216-0.244,1.853-0.338c0.415-0.426,0.561-1.121,0.841-1.682
		c1.572,0.223,2.414-0.279,2.694-1.348c1.327,0.562,2.817-0.072,3.198-1.01c0.439,0.346,0.984,0.588,1.852,0.504
		c0.864-1.227,2.54-0.523,3.535-1.01c0.354,2.848,0.138,6.064,0,9.092c-0.121,2.662-0.68,5.42,0.168,7.406
		c1.609-1.191,1.496-3.75,1.852-5.891c0.367-2.215,0.877-4.572,1.011-6.902c0.466-8.219-1.819-14.441-5.051-18.518
		c1.76-3.723-0.301-7.59-0.506-10.773c-0.321-5.029,4.319-7.092,7.071-9.594c1.172-1.066,2.295-2.213,3.367-3.199
		c1.202-1.105,2.781-2,3.199-3.535C177.433,115.475,174.681,117.223,172.312,118.985z"/>
	<path fill="#E84E1B" d="M138.476,136.491c1.391-1.652,1.886-4.312,2.188-6.73c1.074-8.602-0.975-17.105-3.365-22.895
		c-0.168,0-0.337,0-0.505,0c-0.003,0.335-0.46,0.214-0.338,0.672C136.763,116.721,139.955,126.059,138.476,136.491z"/>
	<path fill="#E84E1B" d="M130.228,161.909c-4.446-2.859-11.642-6.496-17.676-6.732c0.474-1.66,0.953-3.311,1.853-4.545
		c4.572,2.609,10.109,4.256,16.327,5.219c-0.127-0.969,0.764-0.92,1.01-1.516c-3.27-0.168-6.179-1.049-8.92-2.02
		c-2.705-0.957-5.642-1.395-7.912-3.029c0.191-0.592,0.37-1.203,0.841-1.516c3.912,3.777,10.279,5.096,17.171,5.891
		c0.367-0.699,1.453-0.678,1.515-1.682c-7.523-0.334-13.785-1.926-18.012-5.555c1.475-2.508,2.676-4.656,3.871-6.904
		c1.408-2.646,3.678-6.605,3.367-11.277c-0.238-3.582-1.604-7.801-3.03-11.109c-0.731-1.697-4.095-8.307-6.061-8.082
		c-1.67,0.193,0.476,3.839,1.011,5.218c0.706,1.826,1.473,3.256,1.852,4.545c1.227,4.172,2.623,9.24,2.188,13.133
		c-0.517,4.611-3.708,9.217-5.892,13.633c-3.18,6.43-5.419,13.707-4.714,23.398c0.203,2.785,1.035,6.07,2.862,7.24
		c-0.734-5.213-1.426-13.248,0-18.854c0.566,0.623,1.337,0.762,2.189,0.334c0.106,1.387,1.918,1.676,2.859,0.844
		c0.09,0.811,0.728,1.068,1.18,1.514c0.659-0.014,1.05-0.297,1.515-0.504c0.317,0.525,0.429,1.256,1.179,1.348
		c0.848,0.117,1.156-0.305,1.684-0.508c-0.148,1.102,0.5,1.408,1.01,1.852c0.814,0.145,1.19-0.154,1.684-0.336
		c0.176,0.666,0.406,1.277,0.84,1.686c0.671,0.375,1.608-0.104,1.853,0c0.064,1.35,1.238,2.064,2.693,1.514
		c0.034,1.193,1.088,1.713,2.188,1.348c-0.16,1.002,0.313,1.371,0.676,1.852c0.688,0.174,1.622-0.271,1.85,0
		c-0.254,0.607,0.036,1.48,0.338,2.02c0.277,0.395,0.98,0.365,1.684,0.336c-0.436,0.6-0.02,1.512,0.336,1.852
		c1.982-0.242,1.835,1.646,3.199,2.02C139.921,168.43,135.058,165.018,130.228,161.909z"/>
	<path fill="#E84E1B" d="M142.852,136.155c-0.253-0.475-0.297-1.162-0.336-1.852c0.451-0.84,1.622-0.959,2.019-1.852
		c-0.32-1.025-0.607-2.086-0.504-3.537c0.58-1.264,2.137-1.207,2.357-2.523c0.186-1.113-1.137-3.471-1.179-5.385
		c-0.021-0.924,0.444-1.41,0-2.359c-1.573,1.531-1.781,5.084-1.011,7.576c-0.562,0.729-1.393,1.186-1.852,2.02
		c1.018,2.596-0.946,4.328-1.01,5.723C141.296,134.846,141.832,136.17,142.852,136.155z"/>
	<path fill="#E84E1B" d="M132.416,133.797c1.439,1.762,1.658,4.738,2.694,6.9c1.425,0.307,1.388-0.854,1.852-1.514
		c0.547,1.023,0.386,2.758,1.851,2.861c-0.412-2.223-0.879-4.395-2.019-5.891c-0.781-0.107-1.042,0.305-1.347,0.672
		c-1.057-2.252-1.651-4.969-3.535-6.395c-0.896,0.391-0.381,2.201-1.348,2.523c-1.088-1.043-0.854-3.41-2.693-3.703
		c0.881,2.936,2.246,5.385,4.041,7.408C132.08,135.706,131.489,133.991,132.416,133.797z"/>
	<path fill="#E84E1B" d="M129.722,145.749c1.33,0.371,2.859,1.383,4.545,0.842c0.045-0.891-0.891-1.684-0.336-2.523
		c2.01,0.348,3.297,1.416,5.386,1.682c-1.604-2.043-4.095-3.199-6.565-4.375c-0.814,0.615-0.697,1.838-0.336,2.861
		c-1.455-0.4-3.867-1.016-4.545,0.504c0.074,0.576,0.383,1.516,0,2.021c-1.997,0.051-3.501-0.285-5.218,0.17
		C125.067,147.622,131.361,149.956,129.722,145.749z"/>
	<path fill="#E84E1B" d="M141.505,148.274c-1.414-1.076-5.283-1.127-6.229,0.336c-0.807,1.256,0.221,2.174,0,4.043
		c-1.096,1.09-2.252,2.123-3.701,2.859c0.82,2.578-1.4,3.373-2.189,4.881c2.055-0.189,3.098-1.389,4.713-2.018
		c-0.428-2.865,3.605-2.863,4.039-4.715c0.268-1.137-1.043-2.156-0.672-3.365C138.607,149.415,140.713,149.502,141.505,148.274z"/>
</g>
</svg>
