<?xml version="1.0" encoding="utf-8"?>
<!-- Generator: Adobe Illustrator 15.1.0, SVG Export Plug-In . SVG Version: 6.00 Build 0)  -->
<!DOCTYPE svg PUBLIC "-//W3C//DTD SVG 1.1//EN" "http://www.w3.org/Graphics/SVG/1.1/DTD/svg11.dtd">
<svg version="1.1" id="Ebene_1" xmlns="http://www.w3.org/2000/svg" xmlns:xlink="http://www.w3.org/1999/xlink" x="0px" y="0px"
	 width="283.46px" height="283.46px" viewBox="0 0 283.46 283.46" enable-background="new 0 0 283.46 283.46" xml:space="preserve">
<g>
	<path fill="#FFFFFF" d="M118.963,132.333c7.527,2.445,17.107-6.242,23.553-9.225c-0.459-0.438-1.006-0.86-1.096-1.361
		c-4.449,1.162-8.453,4.912-12.941,5.847c3.748-2.569,7.594-4.571,11.199-7.957c-2.777-3.77-3.775-7.845-4.809-11.915
		c-4.773,3.607-12.352,6.775-17.115,12.593C114.006,124.888,113.202,130.462,118.963,132.333z"/>
	<path fill="#FFFFFF" d="M141.729,89.401c-28.854,0-52.328,23.475-52.328,52.329s23.474,52.33,52.328,52.33
		s52.33-23.476,52.33-52.33S170.583,89.401,141.729,89.401z M112.112,124.559c0.559-2.415,3.564-6.651,6.172-9.157
		c5.186-4.982,11.83-8.1,18.57-12.154c5.975-3.594,13.143-7.562,19.436-7.138c1.541,0.104,4.803,0.538,6.736,2.111
		c3.84,3.128,3.07,8.931,1.543,11.96c-2.271,4.511-7.064,6.565-11.027,8.961c-2.914,1.763-5.898,3.65-8.869,5.489
		c-5.648,3.497-12.572,8.399-17.971,9.641c-2.73,0.628-7.271,0.792-9.516-0.255C112.739,131.943,111.465,127.355,112.112,124.559z
		 M145.125,148.107c-2.262,5.3-13.275,6.156-14.639-0.96c-1.129-5.886,3.334-9.12,7.92-9.6
		C143.821,136.982,147.407,142.765,145.125,148.107z M145.125,178.828c-2.293,0.936-7.488,0.924-11.039,0.24
		c-7.061-1.363-13.439-4.994-20.641-8.16c-6.381-2.809-13.758-6.375-17.039-11.761c-0.805-1.319-2.332-4.233-2.16-6.72
		c0.34-4.942,5.523-7.658,8.879-8.16c4.994-0.746,9.439,1.986,13.682,3.84c3.119,1.364,6.385,2.715,9.6,4.08
		c6.113,2.598,14.111,5.426,18.24,9.12c2.088,1.868,4.84,5.483,5.279,7.921C150.797,174.056,147.784,177.744,145.125,178.828z
		 M161.686,168.507c-5.111-1.402-10.467-8.846-11.039-14.4c-0.449-4.35,1.773-9.879,2.879-11.52c2.145-3.182,6.24-6.264,10.32-6.961
		c9.801-1.672,17.002,4.63,18.961,11.521C186.344,159.597,175.758,172.367,161.686,168.507z"/>
	<path fill="#A3BC4B" d="M141.729,83.401c-32.162,0-58.328,26.166-58.328,58.329s26.166,58.33,58.328,58.33
		s58.33-26.167,58.33-58.33S173.891,83.401,141.729,83.401z M141.729,194.06c-28.854,0-52.328-23.476-52.328-52.33
		s23.474-52.329,52.328-52.329s52.33,23.475,52.33,52.329S170.583,194.06,141.729,194.06z"/>
	<path fill="#6394A3" d="M182.807,147.147c-1.959-6.891-9.16-13.192-18.961-11.521c-4.08,0.697-8.176,3.779-10.32,6.961
		c-1.105,1.641-3.328,7.17-2.879,11.52c0.572,5.555,5.928,12.998,11.039,14.4C175.758,172.367,186.344,159.597,182.807,147.147z
		 M162.167,166.347c-4.436-1.514-9.492-8.469-9.6-14.16c-0.082-4.332,1.943-7.975,4.559-11.04c4.232,9.449,9.918,17.444,18,23.04
		C172.59,166.925,166.247,167.739,162.167,166.347z M159.286,141.867c6.844,4.757,11.387,11.813,14.881,19.92
		C167.721,156.631,162.721,150.033,159.286,141.867z M176.086,163.467c-3.941-9.578-9.521-17.519-16.561-24
		c3.594-2.899,10.389-3.12,14.4-0.96C181.625,142.652,184.684,158.389,176.086,163.467z"/>
	<path fill="#FFFFFF" d="M173.926,138.507c-4.012-2.16-10.807-1.939-14.4,0.96c7.039,6.481,12.619,14.422,16.561,24
		C184.684,158.389,181.625,142.652,173.926,138.507z"/>
	<path fill="#999999" d="M138.407,137.547c-4.586,0.479-9.049,3.714-7.92,9.6c1.363,7.116,12.377,6.26,14.639,0.96
		C147.407,142.765,143.821,136.982,138.407,137.547z M143.926,146.667c-1.203,5.776-10.428,5.303-11.279-0.24
		c-0.668-4.344,2.48-7.232,5.76-7.68C141.7,138.298,144.911,141.94,143.926,146.667z"/>
	<path fill="#E6F4FA" d="M138.407,138.748c-3.279,0.447-6.428,3.336-5.76,7.68c0.852,5.543,10.076,6.017,11.279,0.24
		C144.911,141.94,141.7,138.298,138.407,138.748z M139.366,148.347c-2.537-0.986-2.066-5.851-1.439-8.641
		C139.752,141.14,141.237,146.171,139.366,148.347z"/>
	<path fill="#999999" d="M137.926,139.707c-0.627,2.79-1.098,7.654,1.439,8.641C141.237,146.171,139.752,141.14,137.926,139.707z"/>
	<path fill="#E6F4FA" d="M157.125,141.147c-2.615,3.065-4.641,6.708-4.559,11.04c0.107,5.691,5.164,12.646,9.6,14.16
		c4.08,1.392,10.424,0.578,12.959-2.16C167.043,158.591,161.358,150.596,157.125,141.147z"/>
	<path fill="#999999" d="M174.167,161.787c-3.494-8.106-8.037-15.163-14.881-19.92C162.721,150.033,167.721,156.631,174.167,161.787
		z"/>
	<path fill="#E6F4FA" d="M113.446,154.347c-3.166-1.205-7.182-1.85-8.639-5.04c5.184,0.415,10.504,2.897,14.879,4.8
		c1.4,0.609,2.902,1.895,4.32,1.44c1.412-2.069-1.676-2.302-3.121-2.88c-4.383-1.754-10.643-5.342-15.119-5.76
		c-4.1-0.384-8.311,2.314-8.641,5.76c-0.215,2.252,1.24,5.027,2.4,6.479c3.67,4.597,11.207,7.005,16.561,9.841
		c2.551-3.371,5.416-6.424,6.959-10.801C119.854,157.307,116.698,155.585,113.446,154.347z"/>
	<path fill="#97D1E8" d="M126.407,154.828c-0.094,0.626-0.123,1.316-0.48,1.68c3.516,2.965,8.887,4.072,12.24,7.199
		c-4.26-1.579-8.115-3.565-12.961-4.56c-1.477,4.444-4.23,7.608-6.959,10.8c5.701,1.82,12.658,6.184,20.16,6.721
		c5.896,0.422,10.914-2.135,9.119-7.92C145.182,161.187,132.559,158.371,126.407,154.828z"/>
	<path fill="#6394A3" d="M144.647,161.307c-4.129-3.694-12.127-6.522-18.24-9.12c-3.215-1.365-6.48-2.716-9.6-4.08
		c-4.242-1.854-8.688-4.586-13.682-3.84c-3.355,0.502-8.539,3.218-8.879,8.16c-0.172,2.486,1.355,5.4,2.16,6.72
		c3.281,5.386,10.658,8.952,17.039,11.761c7.201,3.166,13.58,6.797,20.641,8.16c3.551,0.684,8.746,0.695,11.039-0.24
		c2.658-1.084,5.672-4.771,4.801-9.6C149.487,166.791,146.735,163.175,144.647,161.307z M99.526,159.147
		c-1.16-1.452-2.615-4.228-2.4-6.479c0.33-3.445,4.541-6.144,8.641-5.76c4.477,0.418,10.736,4.006,15.119,5.76
		c1.445,0.578,4.533,0.811,3.121,2.88c-1.418,0.454-2.92-0.831-4.32-1.44c-4.375-1.902-9.695-4.385-14.879-4.8
		c1.457,3.19,5.473,3.835,8.639,5.04c3.252,1.238,6.408,2.96,9.6,3.84c-1.543,4.377-4.408,7.43-6.959,10.801
		C110.733,166.152,103.196,163.744,99.526,159.147z M138.407,176.667c-7.502-0.537-14.459-4.9-20.16-6.721
		c2.729-3.191,5.482-6.355,6.959-10.8c4.846,0.994,8.701,2.98,12.961,4.56c-3.354-3.127-8.725-4.234-12.24-7.199
		c0.357-0.363,0.387-1.054,0.48-1.68c6.152,3.543,18.775,6.359,21.119,13.92C149.321,174.533,144.303,177.089,138.407,176.667z"/>
	<path fill="#97D1E8" d="M117.186,134.017c2.244,1.047,6.785,0.883,9.516,0.255c5.398-1.241,12.322-6.144,17.971-9.641
		c2.971-1.839,5.955-3.727,8.869-5.489c3.963-2.396,8.756-4.45,11.027-8.961c1.527-3.029,2.297-8.832-1.543-11.96
		c-1.934-1.573-5.195-2.007-6.736-2.111c-6.293-0.425-13.461,3.544-19.436,7.138c-6.74,4.055-13.385,7.172-18.57,12.154
		c-2.607,2.506-5.613,6.742-6.172,9.157C111.465,127.355,112.739,131.943,117.186,134.017z M117.754,120.315
		c4.764-5.817,12.342-8.985,17.115-12.593c1.033,4.07,2.031,8.146,4.809,11.915c-3.605,3.386-7.451,5.388-11.199,7.957
		c4.488-0.935,8.492-4.685,12.941-5.847c0.09,0.501,0.637,0.924,1.096,1.361c-6.445,2.982-16.025,11.67-23.553,9.225
		C113.202,130.462,114.006,124.888,117.754,120.315z"/>
</g>
</svg>
