<?xml version="1.0" encoding="utf-8"?>
<!-- Generator: Adobe Illustrator 15.1.0, SVG Export Plug-In . SVG Version: 6.00 Build 0)  -->
<!DOCTYPE svg PUBLIC "-//W3C//DTD SVG 1.1//EN" "http://www.w3.org/Graphics/SVG/1.1/DTD/svg11.dtd">
<svg version="1.1" id="Ebene_1" xmlns="http://www.w3.org/2000/svg" xmlns:xlink="http://www.w3.org/1999/xlink" x="0px" y="0px"
	 width="283.46px" height="283.46px" viewBox="0 0 283.46 283.46" enable-background="new 0 0 283.46 283.46" xml:space="preserve">
<g>
	<path fill="#718027" d="M178.172,151.459c0.332-4.317,2.281-11.465,1.289-16.45c-0.277-1.396-1.58-2.377-1.934-4.193
		c-0.811-4.165,0.057-10.881,0-16.451c-0.051-4.901,0.344-12.891-1.613-15.16c-2.248-2.608-13.203-1.702-18.707-1.935
		c-14.354-0.605-21.83-0.728-37.097-0.646c-4.512,0.024-12.277-0.312-14.514,1.613c-3.127,2.689-1.436,13.985-1.291,19.998
		c0.548,22.932-0.003,46.331,1.291,67.414c5.224,1.625,11.007,1.228,16.451,0.969c12.561-0.598,22.47-0.646,35.481-0.646
		c5.072,0,13.982,0.977,17.094-1.29C180.788,180.193,177.354,162.113,178.172,151.459z M175.592,120.494
		c-0.166,2.336,0.074,4.887,0,7.098c-0.062,1.855,0.33,4.651-1.613,4.838c-2.852-9.86,3.453-24.208-1.289-31.934
		C177.026,102.757,176.083,113.52,175.592,120.494z M167.53,180.167c-1.807,1.404-6.264,2.198-9.355,2.258
		c-10.554,0.205-26.117-1.263-37.095-0.322c-0.549-2.783,1.275-7.94-1.289-8.708c-2.67,1.268-0.333,5.557-0.969,8.708
		c-3.656,0-7.311,0-10.967,0c-0.911-26.078-0.249-53.724-0.969-79.994c3.315-0.663,7.276-0.681,10.645-1.289
		c0.538,3.548-0.381,8.551,1.937,10.322c2.463-1.427,1.003-8.07,1.612-10.322c16.164-0.885,31.352,1.969,47.737,1.935
		c1.199,8.705,1.775,21.068,1.615,29.03c-4.592,0.271-7.76-1.604-10.967-0.645c-4.104,1.225-5.944,6.937-9.679,8.707
		c0.532,3.956,1.42,10.785,4.517,12.903c3.957,2.706,10.861,0.34,16.771,1.936C171.098,163.186,172.811,176.058,167.53,180.167z
		 M167.206,145.653c-6.189,2.86-9.924-6.645-3.871-9.03C168.745,133.791,172.081,143.402,167.206,145.653z M171.075,183.392
		c5.594-6.415,2.389-22.356,3.873-31.933c0.51-0.027,1.23,0.155,1.291-0.322c0.273-0.061,0.301,0.125,0.32,0.322
		C174.969,162.095,179.858,180.006,171.075,183.392z"/>
	<path fill="#DBE4B4" d="M171.075,154.685c-5.91-1.596-12.814,0.771-16.771-1.936c-3.097-2.118-3.984-8.947-4.517-12.903
		c3.734-1.771,5.575-7.482,9.679-8.707c3.207-0.959,6.375,0.916,10.967,0.645c0.16-7.962-0.416-20.325-1.615-29.03
		c-16.386,0.034-31.573-2.819-47.737-1.935c-0.609,2.252,0.851,8.896-1.612,10.322c-2.317-1.771-1.398-6.774-1.937-10.322
		c-3.368,0.608-7.329,0.626-10.645,1.289c0.72,26.27,0.058,53.916,0.969,79.994c3.656,0,7.311,0,10.967,0
		c0.636-3.151-1.701-7.44,0.969-8.708c2.564,0.768,0.74,5.925,1.289,8.708c10.978-0.94,26.541,0.527,37.095,0.322
		c3.092-0.06,7.549-0.854,9.355-2.258C172.811,176.058,171.098,163.186,171.075,154.685z M118.822,114.365
		c0.375-0.052,0.574,0.073,0.646,0.323c1.964,3.431,1.856,12.925,0.323,16.772C117.428,128.128,117.82,118.949,118.822,114.365z
		 M120.111,171.78c-3.315-2.058-0.846-9.904-1.611-14.514c-0.092-0.522,0.305-0.557,0.322-0.969c0.215,0,0.431,0,0.646,0
		C121.618,159.164,121.024,167.975,120.111,171.78z M119.145,153.394c-1.717-4.185-1.231-13.688-0.323-18.384
		c0.323,0,0.646,0,0.969,0C120.588,138.701,122.355,150.636,119.145,153.394z M145.917,116.301
		c-0.435,4.248-5.165,7.26-5.161,11.612c-1.616,0.365-1.787-1.133-2.902-1.613c-1.997-0.859-4.63-0.159-7.741-1.289
		c-7.373-2.678-5.404-16.447,3.869-13.547C138.428,106.106,146.72,108.455,145.917,116.301z"/>
	<path fill="#718027" d="M133.981,111.464c-9.273-2.9-11.242,10.869-3.869,13.547c3.111,1.13,5.744,0.43,7.741,1.289
		c1.115,0.48,1.286,1.979,2.902,1.613c-0.004-4.353,4.727-7.364,5.161-11.612C146.72,108.455,138.428,106.106,133.981,111.464z"/>
	<path fill="#718027" d="M119.467,114.688c-0.071-0.25-0.271-0.375-0.646-0.323c-1.002,4.584-1.394,13.763,0.969,17.096
		C121.324,127.613,121.431,118.119,119.467,114.688z"/>
	<path fill="#718027" d="M118.822,135.01c-0.908,4.696-1.394,14.2,0.323,18.384c3.21-2.758,1.443-14.693,0.646-18.384
		C119.467,135.01,119.145,135.01,118.822,135.01z"/>
	<path fill="#DBE4B4" d="M163.334,136.623c-6.053,2.385-2.318,11.89,3.871,9.03C172.081,143.402,168.745,133.791,163.334,136.623z
		 M167.206,140.816c0.014,0.981-0.682,1.253-0.969,1.934c-1.688,0.076-2.502-0.721-3.227-1.612
		C162.93,138.979,166.875,139.023,167.206,140.816z"/>
	<path fill="#718027" d="M163.01,141.139c0.725,0.891,1.539,1.688,3.227,1.612c0.287-0.681,0.982-0.953,0.969-1.934
		C166.875,139.023,162.93,138.979,163.01,141.139z"/>
	<path fill="#DBE4B4" d="M176.239,151.137c-0.061,0.478-0.781,0.295-1.291,0.322c-1.484,9.576,1.721,25.518-3.873,31.933
		c8.783-3.386,3.895-21.297,5.484-31.933C176.54,151.262,176.512,151.077,176.239,151.137z"/>
	<path fill="#718027" d="M118.822,156.297c-0.018,0.412-0.414,0.446-0.322,0.969c0.766,4.609-1.704,12.456,1.611,14.514
		c0.913-3.805,1.507-12.616-0.644-15.482C119.252,156.297,119.037,156.297,118.822,156.297z"/>
	<path fill="#DBE4B4" d="M173.979,132.43c1.943-0.187,1.551-2.982,1.613-4.838c0.074-2.211-0.166-4.762,0-7.098
		c0.49-6.975,1.434-17.737-2.902-19.998C177.432,108.222,171.127,122.569,173.979,132.43z"/>
</g>
</svg>
