<?xml version="1.0" encoding="utf-8"?>
<!-- Generator: Adobe Illustrator 15.1.0, SVG Export Plug-In . SVG Version: 6.00 Build 0)  -->
<!DOCTYPE svg PUBLIC "-//W3C//DTD SVG 1.1//EN" "http://www.w3.org/Graphics/SVG/1.1/DTD/svg11.dtd">
<svg version="1.1" id="Ebene_1" xmlns="http://www.w3.org/2000/svg" xmlns:xlink="http://www.w3.org/1999/xlink" x="0px" y="0px"
	 width="283.46px" height="283.46px" viewBox="0 0 283.46 283.46" enable-background="new 0 0 283.46 283.46" xml:space="preserve">
<g>
	<path fill="#FFFFFF" d="M108.795,173.315c0.623-2.197,4.84-3.57,1.934-5.409c-1.23,2.054-3.842,2.728-3.479,6.374
		c2.109,1.753,6.004-3.654,5.795-3.863C112.346,169.717,110.084,173.894,108.795,173.315z"/>
	<path fill="#FFFFFF" d="M141.729,89.401c-28.854,0-52.328,23.475-52.328,52.329s23.475,52.329,52.328,52.329
		c28.854,0,52.33-23.475,52.33-52.329S170.583,89.401,141.729,89.401z M171.379,125.99c-8.018,8.55-16.609,16.331-26.463,22.793
		c-6.109,4.007-13.682,7.542-19.895,12.942c-3.951,3.432-7.715,8.713-12.363,12.168c-2.381,1.771-7.051,4.047-7.146-0.965
		c-0.068-3.654,3.291-5.262,5.023-7.146c7.426-8.092,17.057-16.594,22.213-26.85c5.08-10.107,14.029-18.829,22.213-26.85
		c2.803-2.746,6.328-6.639,10.045-7.34c4.027-0.76,7.299,1.812,9.656,4.636c1.596,1.908,3.301,4.366,3.285,6.761
		C177.924,119.687,173.708,123.507,171.379,125.99z"/>
	<path fill="#A3BC4B" d="M141.729,83.401c-32.162,0-58.328,26.166-58.328,58.329s26.166,58.329,58.328,58.329
		c32.163,0,58.33-26.166,58.33-58.329S173.892,83.401,141.729,83.401z M141.729,194.059c-28.854,0-52.328-23.475-52.328-52.329
		s23.475-52.329,52.328-52.329c28.854,0,52.33,23.475,52.33,52.329S170.583,194.059,141.729,194.059z"/>
	<path fill="#602576" d="M165.006,104.743c-3.717,0.701-7.242,4.594-10.045,7.34c-8.184,8.021-17.133,16.742-22.213,26.85
		c-5.156,10.256-14.787,18.758-22.213,26.85c-1.732,1.885-5.092,3.492-5.023,7.146c0.096,5.012,4.766,2.736,7.146,0.965
		c4.648-3.455,8.412-8.736,12.363-12.168c6.213-5.4,13.785-8.936,19.895-12.942c9.854-6.462,18.445-14.243,26.463-22.793
		c2.328-2.482,6.545-6.303,6.568-9.851c0.016-2.395-1.689-4.853-3.285-6.761C172.305,106.555,169.034,103.983,165.006,104.743z
		 M107.25,174.28c-0.363-3.646,2.248-4.32,3.479-6.374c2.906,1.839-1.311,3.212-1.934,5.409c1.289,0.579,3.551-3.598,4.25-2.898
		C113.254,170.625,109.36,176.033,107.25,174.28z M169.448,125.024c-7.752,7.922-16.703,15.805-26.654,21.827
		c-8.08,4.888-16.197,9.636-22.408,16.419c-1.971,2.152-3.934,4.354-6.373,5.988c5.617-6.811,11.979-12.873,19.123-18.158
		c-4.258,1.943-7.711,4.874-11.01,7.92c-3.258,3.006-5.973,6.633-9.273,9.079c-0.238-0.404-0.561-0.727-0.965-0.966
		c3.299-4.566,7.68-8.302,11.59-12.556c3.875-4.218,7.439-8.809,10.43-13.907c1.576-2.689,2.9-5.202,4.637-7.533
		c5.002-6.718,11.385-13.12,17.191-19.316c-4.188,5.15-9.982,10.365-13.908,16.419c6.113-5.735,12.635-11.06,17.963-17.577
		c2.908,2.758,5.477,5.854,8.307,8.691c-4.623,4.971-9.74,9.447-13.715,15.066c4.82-3.475,9.822-7.611,14.295-11.783
		c0.406-0.378,0.928-1.727,1.738-1.158C170.594,124.12,169.786,124.678,169.448,125.024z M171.959,121.741
		c-0.135-1.276,1.674-2.318,1.932-4.25c0.301-2.27-0.475-4.787-2.125-5.795c0.105,2.966,0.127,6.925-2.125,8.113
		c-3.639-2.734-6.123-6.627-9.852-9.271c2.248-2.133,3.787-4.496,6.568-4.637c3.459-0.174,7.844,4.752,9.271,7.727
		C177.053,116.596,174.083,120.969,171.959,121.741z"/>
	<path fill="#A77CB4" d="M166.358,105.901c-2.781,0.141-4.32,2.504-6.568,4.637c3.729,2.645,6.213,6.537,9.852,9.271
		c2.252-1.188,2.23-5.147,2.125-8.113c1.65,1.008,2.426,3.525,2.125,5.795c-0.258,1.932-2.066,2.974-1.932,4.25
		c2.123-0.771,5.094-5.145,3.67-8.113C174.202,110.653,169.817,105.727,166.358,105.901z"/>
	<path fill="#602576" d="M159.596,124.444c-0.168-1.672-1.773-2.766-3.668-2.316c-1.641,0.388-2.205,1.553-2.318,2.316
		C152.928,129.002,160.045,128.867,159.596,124.444z"/>
	<path fill="#602576" d="M149.36,127.729c-2.398,0.365-4.58,3.531-6.76,5.602c-3.09,2.93-7.543,5.744-3.672,9.465
		c3.996,3.837,6.678-0.883,9.852-4.057c1.42-1.42,5.744-4.596,5.602-6.954C154.243,129.475,150.659,127.53,149.36,127.729z
		 M142.213,142.988c-1.402-0.917-2.752-1.885-3.67-3.284c0.943-1.566,2.404-2.615,3.67-3.862c0.141,1.7-1.434,4.343-0.967,6.374
		c1.375-1.292,2.338-4.965,1.74-6.953c1.293-0.546,4.797-6.12,6.76-6.182c1.328-0.042,2.479,1.797,3.283,3.09
		C150.008,136.362,145.899,139.461,142.213,142.988z"/>
	<path fill="#602576" d="M147.235,137.772c0.193,0,0.387,0,0.58,0c0.969-2.058,3.25-5.673,1.932-8.112
		C147.963,131.295,147.393,135.153,147.235,137.772z"/>
	<path fill="#602576" d="M143.952,140.477c1.578-1.641,2.168-4.271,2.318-7.34C144.299,134.266,144.153,138.219,143.952,140.477z"/>
	<path fill="#CCCCCC" d="M168.676,124.637c-4.473,4.172-9.475,8.309-14.295,11.783c3.975-5.619,9.092-10.096,13.715-15.066
		c-2.83-2.837-5.398-5.934-8.307-8.691c-5.328,6.518-11.85,11.842-17.963,17.577c3.926-6.054,9.721-11.269,13.908-16.419
		c-5.807,6.196-12.189,12.599-17.191,19.316c-1.736,2.331-3.061,4.844-4.637,7.533c-2.99,5.099-6.555,9.689-10.43,13.907
		c-3.91,4.254-8.291,7.989-11.59,12.556c0.404,0.239,0.727,0.562,0.965,0.966c3.301-2.446,6.016-6.073,9.273-9.079
		c3.299-3.046,6.752-5.977,11.01-7.92c-7.145,5.285-13.506,11.348-19.123,18.158c2.439-1.635,4.402-3.836,6.373-5.988
		c6.211-6.783,14.328-11.531,22.408-16.419c9.951-6.022,18.902-13.905,26.654-21.827c0.338-0.346,1.146-0.904,0.967-1.545
		C169.604,122.911,169.083,124.259,168.676,124.637z M153.61,124.444c0.113-0.764,0.678-1.929,2.318-2.316
		c1.895-0.449,3.5,0.645,3.668,2.316C160.045,128.867,152.928,129.002,153.61,124.444z M148.78,138.739
		c-3.174,3.174-5.855,7.894-9.852,4.057c-3.871-3.721,0.582-6.535,3.672-9.465c2.18-2.07,4.361-5.236,6.76-5.602
		c1.299-0.199,4.883,1.746,5.021,4.056C154.524,134.143,150.2,137.319,148.78,138.739z"/>
	<path fill="#A77CB4" d="M149.747,129.081c-1.963,0.062-5.467,5.636-6.76,6.182c0.598,1.988-0.365,5.661-1.74,6.953
		c-0.467-2.031,1.107-4.674,0.967-6.374c-1.266,1.247-2.727,2.296-3.67,3.862c0.918,1.399,2.268,2.367,3.67,3.284
		c3.686-3.526,7.795-6.626,10.816-10.817C152.225,130.877,151.075,129.039,149.747,129.081z M143.952,140.477
		c0.201-2.258,0.348-6.211,2.318-7.34C146.12,136.207,145.53,138.836,143.952,140.477z M147.815,137.772c-0.193,0-0.387,0-0.58,0
		c0.158-2.619,0.729-6.477,2.512-8.112C151.065,132.099,148.784,135.714,147.815,137.772z"/>
</g>
</svg>
