<?xml version="1.0" encoding="utf-8"?>
<!-- Generator: Adobe Illustrator 15.1.0, SVG Export Plug-In . SVG Version: 6.00 Build 0)  -->
<!DOCTYPE svg PUBLIC "-//W3C//DTD SVG 1.1//EN" "http://www.w3.org/Graphics/SVG/1.1/DTD/svg11.dtd">
<svg version="1.1" id="Ebene_1" xmlns="http://www.w3.org/2000/svg" xmlns:xlink="http://www.w3.org/1999/xlink" x="0px" y="0px"
	 width="283.46px" height="283.46px" viewBox="0 0 283.46 283.46" enable-background="new 0 0 283.46 283.46" xml:space="preserve">
<g>
	<path fill="#FFFFFF" d="M141.73,89.401c-28.854,0-52.329,23.475-52.329,52.329c0,28.856,23.475,52.331,52.329,52.331
		c28.855,0,52.33-23.475,52.33-52.331C194.06,112.876,170.585,89.401,141.73,89.401z M167.365,167.21
		c-7.545,7.115-17.385,11.365-25.92,16.84c-9.113-6.438-20.627-11.061-28.803-21.049c-6.82-8.328-14.425-20.561-13.295-36.334
		c0.758-10.576,7.616-19.156,19.719-19.498c9.939-0.281,16.364,3.825,22.598,7.754c6.146-3.775,12.151-7.352,21.05-7.975
		c13.327-0.936,21.04,8.135,21.934,19.054c0.784,9.606-1.81,17.464-5.099,24.15C176.531,156.294,171.992,162.847,167.365,167.21z"/>
	<path fill="#FFFFFF" d="M148.311,120.019c3.67-1.401,6.562-3.436,11.521-3.102c7.519,0.509,10.948,8.391,10.19,17.061
		c-0.349,4.006-1.829,8.44-3.1,12.407c-3.649,11.385-12.184,20.953-19.055,27.916c8.779-5.51,17.717-15.129,23.927-24.148
		c2.681-3.891,5.286-8.598,5.761-13.516c0.758-7.824-1.409-15.018-5.538-19.053C165.571,111.281,153.629,115.209,148.311,120.019z"
		/>
	<path fill="#A3BC4B" d="M141.73,83.401c-32.162,0-58.329,26.167-58.329,58.329c0,32.163,26.167,58.331,58.329,58.331
		c32.163,0,58.33-26.168,58.33-58.331C200.06,109.567,173.893,83.401,141.73,83.401z M141.73,194.06
		c-28.854,0-52.329-23.475-52.329-52.331c0-28.854,23.475-52.329,52.329-52.329c28.855,0,52.33,23.475,52.33,52.329
		C194.06,170.585,170.585,194.06,141.73,194.06z"/>
	<path fill="#DB6CA6" d="M184.647,126.002c-0.894-10.919-8.606-19.989-21.934-19.054c-8.898,0.623-14.904,4.199-21.05,7.975
		c-6.233-3.929-12.658-8.035-22.598-7.754c-12.103,0.342-18.961,8.922-19.719,19.498c-1.13,15.774,6.475,28.006,13.295,36.334
		c8.176,9.988,19.689,14.611,28.803,21.049c8.535-5.475,18.375-9.725,25.92-16.84c4.627-4.363,9.166-10.916,12.184-17.059
		C182.837,143.466,185.431,135.608,184.647,126.002z M177.556,136.636c-0.475,4.918-3.08,9.625-5.761,13.516
		c-6.21,9.02-15.147,18.639-23.927,24.148c6.871-6.963,15.405-16.531,19.055-27.916c1.271-3.967,2.751-8.401,3.1-12.407
		c0.758-8.67-2.672-16.552-10.19-17.061c-4.96-0.334-7.852,1.7-11.521,3.102c5.318-4.81,17.26-8.737,23.707-2.436
		C176.147,121.618,178.314,128.812,177.556,136.636z"/>
</g>
</svg>
