<?xml version="1.0" encoding="utf-8"?>
<!-- Generator: Adobe Illustrator 15.1.0, SVG Export Plug-In . SVG Version: 6.00 Build 0)  -->
<!DOCTYPE svg PUBLIC "-//W3C//DTD SVG 1.1//EN" "http://www.w3.org/Graphics/SVG/1.1/DTD/svg11.dtd">
<svg version="1.1" id="Ebene_1" xmlns="http://www.w3.org/2000/svg" xmlns:xlink="http://www.w3.org/1999/xlink" x="0px" y="0px"
	 width="283.46px" height="283.46px" viewBox="0 0 283.46 283.46" enable-background="new 0 0 283.46 283.46" xml:space="preserve">
<g>
	<path fill="#FFFFFF" d="M141.729,89.401c-28.854,0-52.328,23.475-52.328,52.33c0,28.854,23.475,52.328,52.328,52.328
		c28.856,0,52.331-23.475,52.331-52.328C194.06,112.875,170.585,89.401,141.729,89.401z M103.906,162.729
		c-1.687,0.822-3.521,2.316-5.266,2.025c1.489-3.304,5.181-5.484,9.519-5.266C108.044,161.217,105.572,161.917,103.906,162.729z
		 M99.856,156.856c0.631-2.635,7.642-3.045,9.518-1.215C108.385,157.791,102.257,156.6,99.856,156.856z M110.386,152.401
		c-3.846,0.06-6.516-2.795-9.112-4.658c-0.058-0.326,0.19-0.348,0.202-0.607C103.763,146.891,110.858,149.629,110.386,152.401z
		 M163.648,158.071c1.635,1.854,4.078,3.312,5.266,6.076c1.529,3.558,0.381,8.974-1.822,11.949c-2.777,3.75-8.047,5.16-14.176,5.265
		c-2.621,1.226-0.785,6.911-3.037,8.506c-1.258-0.847-0.965-2.737-1.014-4.05c-0.143-3.802,0.209-6.729,3.24-7.696
		c1.494-0.477,3.096-0.063,4.457-0.202c5.238-0.537,11.078-4.158,9.922-11.139c-0.588-3.557-5.199-7.709-9.518-8.304
		c-4.688-0.645-10.029,0.476-15.392,0c0.976,1.769,1.218,6.798-0.607,8.506c2.494,0,4.615,0,7.697,0
		c1.758,0,6.109-0.728,6.479,1.013c0.441,2.063-3.242,2.033-4.049,2.228c-3.137,0.758-6.324,1.724-7.898,3.849
		c-3.69,4.982-2.333,10.536-3.443,17.011c-2.189-1.347-2.224-5.47-2.228-8.101c-0.009-5.694,2.608-11.031,5.874-13.164
		c-10.547-0.008-21.504-0.051-27.746-4.859c-1.563-1.205-3.894-3.92-4.253-6.279c-0.909-5.955,3.15-12.567,7.695-14.176
		c3.009-1.064,6.215-0.592,10.126-1.012c-5.21-2.74-10.964-6.16-10.733-13.367c0.124-3.875,2.537-7.443,4.86-9.315
		c5.324-4.29,15.924-2.054,24.302-3.038c-6.493-2.63-10.008-13.888-6.683-23.289c0.05-0.221,0.403-0.137,0.405-0.405
		c0.172-0.037,0.19,0.079,0.202,0.202c0.135,0,0.271,0,0.405,0c-0.072,13.148,2.743,23.826,17.823,22.683
		c0.195-0.015,4.49-1.419,4.859,0.607c0.359,1.974-3.342,1.865-4.658,2.024c-6.807,0.828-12.273,0.503-20.251,1.014
		c-3.877,0.248-10.342,0.274-13.366,1.822c-3.145,1.609-5.764,6.478-4.254,10.936c3.725,10.994,24.442,8.276,38.883,8.911
		c2.486,0.109,7.428,0.166,10.33,0.405c0.682,0.057,1.943-0.068,2.025,1.013c0.16,2.122-6.088,1.815-8.102,1.822
		c-2.744,0.009-4.934-0.339-7.695-0.405c1.455,2.637,0.65,8.619-2.025,10.126c7.414-0.061,13.783,0.476,19.037-2.024
		c2.543-1.211,5.445-2.756,6.885-4.658c3.527-4.66,0.807-10.721-2.633-12.961c-7.414-4.828-27.115-1.729-38.478-2.229
		c-1.497-0.065-8.875-0.08-8.708-2.228c0.158-2.047,4.52-0.918,7.088-0.81c6.209,0.262,10.209-0.394,16.403-0.607
		c3.051-0.105,5.982,0.512,8.506,0.202c5.381-0.66,11.465-5.024,11.139-11.544c-0.133-2.689-2.189-5.335-3.24-6.48
		c-1.799-1.963-5.434-4.037-8.303-4.252c-4.207-0.315-8.812,1.639-10.531-2.025c-0.975-2.08-0.635-8.477,0.607-10.126
		c2.412,1.241-0.229,7.851,1.822,9.721c1.736,1.581,6.49-0.13,9.316,0.202c6.5,0.766,12.715,7.27,12.76,13.366
		c0.041,5.758-3.26,8.658-6.887,11.544c8.221,0.147,15.979,4.944,15.797,13.366c-0.057,2.644-1.51,5.666-3.037,7.29
		C178.994,155.339,171.781,158.006,163.648,158.071z"/>
	<path fill="#A3BC4B" d="M141.729,83.401c-32.162,0-58.329,26.166-58.329,58.33c0,32.162,26.167,58.328,58.329,58.328
		c32.163,0,58.331-26.166,58.331-58.328C200.06,109.567,173.892,83.401,141.729,83.401z M141.729,194.059
		c-28.854,0-52.328-23.475-52.328-52.328c0-28.855,23.475-52.33,52.328-52.33c28.856,0,52.331,23.475,52.331,52.33
		C194.06,170.584,170.585,194.059,141.729,194.059z"/>
	<path fill="#E84E1B" d="M170.332,130.327c3.627-2.886,6.928-5.786,6.887-11.544c-0.045-6.097-6.26-12.601-12.76-13.366
		c-2.826-0.332-7.58,1.379-9.316-0.202c-2.051-1.87,0.59-8.479-1.822-9.721c-1.242,1.649-1.582,8.046-0.607,10.126
		c1.719,3.664,6.324,1.71,10.531,2.025c2.869,0.215,6.504,2.289,8.303,4.252c1.051,1.146,3.107,3.791,3.24,6.48
		c0.326,6.52-5.758,10.884-11.139,11.544c-2.523,0.31-5.455-0.308-8.506-0.202c-6.193,0.214-10.193,0.869-16.403,0.607
		c-2.568-0.108-6.93-1.237-7.088,0.81c-0.167,2.147,7.211,2.162,8.708,2.228c11.363,0.5,31.064-2.6,38.478,2.229
		c3.439,2.24,6.16,8.301,2.633,12.961c-1.439,1.902-4.342,3.447-6.885,4.658c-5.254,2.5-11.623,1.964-19.037,2.024
		c2.676-1.507,3.48-7.489,2.025-10.126c2.762,0.066,4.951,0.414,7.695,0.405c2.014-0.007,8.262,0.3,8.102-1.822
		c-0.082-1.081-1.344-0.956-2.025-1.013c-2.902-0.239-7.844-0.296-10.33-0.405c-14.441-0.635-35.159,2.083-38.883-8.911
		c-1.51-4.458,1.109-9.326,4.254-10.936c3.024-1.548,9.489-1.574,13.366-1.822c7.978-0.511,13.445-0.186,20.251-1.014
		c1.316-0.159,5.018-0.051,4.658-2.024c-0.369-2.026-4.664-0.622-4.859-0.607c-15.08,1.144-17.895-9.534-17.823-22.683
		c-0.135,0-0.271,0-0.405,0c-0.012-0.123-0.03-0.239-0.202-0.202c-0.002,0.269-0.355,0.185-0.405,0.405
		c-3.325,9.401,0.19,20.659,6.683,23.289c-8.378,0.984-18.978-1.252-24.302,3.038c-2.323,1.872-4.736,5.44-4.86,9.315
		c-0.23,7.207,5.523,10.627,10.733,13.367c-3.911,0.42-7.117-0.053-10.126,1.012c-4.545,1.608-8.604,8.221-7.695,14.176
		c0.359,2.359,2.689,5.074,4.253,6.279c6.241,4.809,17.198,4.852,27.746,4.859c-3.265,2.133-5.882,7.47-5.874,13.164
		c0.004,2.631,0.038,6.754,2.228,8.101c1.11-6.475-0.247-12.028,3.443-17.011c1.574-2.125,4.762-3.091,7.898-3.849
		c0.807-0.194,4.49-0.164,4.049-2.228c-0.369-1.74-4.721-1.013-6.479-1.013c-3.082,0-5.203,0-7.697,0
		c1.826-1.708,1.583-6.737,0.607-8.506c5.363,0.476,10.705-0.645,15.392,0c4.318,0.595,8.93,4.747,9.518,8.304
		c1.156,6.98-4.684,10.602-9.922,11.139c-1.361,0.139-2.963-0.274-4.457,0.202c-3.031,0.968-3.383,3.895-3.24,7.696
		c0.049,1.312-0.244,3.203,1.014,4.05c2.252-1.595,0.416-7.28,3.037-8.506c6.129-0.104,11.398-1.515,14.176-5.265
		c2.203-2.976,3.352-8.392,1.822-11.949c-1.188-2.764-3.631-4.223-5.266-6.076c8.133-0.064,15.346-2.731,19.443-7.088
		c1.527-1.624,2.98-4.646,3.037-7.29C186.31,135.271,178.552,130.474,170.332,130.327z M137.321,155.439
		c-2.111-0.089-4.584-0.501-7.695-0.608c-1.998-0.068-6.764-0.377-7.088,1.014c-0.592,2.535,5.463,1.834,7.695,2.024
		c2.615,0.224,6.327,0.675,7.493,2.025c3.06,3.544-0.934,6.448-5.063,6.683c-7.123,0.406-16.681-2.664-18.023-7.898
		c-1.205-4.697,2.299-10.037,5.469-11.34c2.162-0.891,5.684-0.718,8.91-1.014c3.535-0.322,6.684-0.658,9.518-0.81
		c5.944-0.317,15.934-1.815,16.405,4.051C155.449,155.875,144.837,155.755,137.321,155.439z"/>
	<path fill="#7E4E24" d="M138.536,145.515c-2.834,0.151-5.982,0.487-9.518,0.81c-3.227,0.296-6.748,0.123-8.91,1.014
		c-3.17,1.303-6.674,6.643-5.469,11.34c1.343,5.234,10.9,8.305,18.023,7.898c4.13-0.234,8.123-3.139,5.063-6.683
		c-1.166-1.351-4.878-1.802-7.493-2.025c-2.232-0.19-8.287,0.511-7.695-2.024c0.324-1.391,5.09-1.082,7.088-1.014
		c3.111,0.107,5.584,0.52,7.695,0.608c7.516,0.316,18.127,0.437,17.62-5.873C154.47,143.7,144.48,145.198,138.536,145.515z"/>
	<path fill="#E84E1B" d="M101.476,147.135c-0.012,0.26-0.26,0.281-0.202,0.607c2.597,1.863,5.267,4.718,9.112,4.658
		C110.858,149.629,103.763,146.891,101.476,147.135z"/>
	<path fill="#E84E1B" d="M99.856,156.856c2.4-0.256,8.528,0.935,9.518-1.215C107.498,153.811,100.487,154.221,99.856,156.856z"/>
	<path fill="#E84E1B" d="M98.641,164.754c1.745,0.291,3.579-1.203,5.266-2.025c1.666-0.812,4.138-1.512,4.253-3.24
		C103.821,159.27,100.13,161.451,98.641,164.754z"/>
</g>
</svg>
