<?xml version="1.0" encoding="utf-8"?>
<!-- Generator: Adobe Illustrator 15.1.0, SVG Export Plug-In . SVG Version: 6.00 Build 0)  -->
<!DOCTYPE svg PUBLIC "-//W3C//DTD SVG 1.1//EN" "http://www.w3.org/Graphics/SVG/1.1/DTD/svg11.dtd">
<svg version="1.1" id="Ebene_1" xmlns="http://www.w3.org/2000/svg" xmlns:xlink="http://www.w3.org/1999/xlink" x="0px" y="0px"
	 width="283.46px" height="283.46px" viewBox="0 0 283.46 283.46" enable-background="new 0 0 283.46 283.46" xml:space="preserve">
<g>
	<path fill="#FFFFFF" d="M135.991,122.085v61.367c0,0.585,4.157,2.121,4.157,1.527l-3.244-62.783
		C136.904,121.612,135.991,121.492,135.991,122.085z"/>
	<path fill="#FFFFFF" d="M141.729,89.401c-28.854,0-52.328,23.475-52.328,52.329s23.475,52.33,52.328,52.33
		c28.855,0,52.33-23.476,52.33-52.33S170.584,89.401,141.729,89.401z M159.951,154.356c0.915,14.8,1.386,24.314,2.048,28.599
		c-1.389,0.706-1.464,1.935-2.91,2.522c-0.338-12.23-3.51-24.988-3.212-37.236c0.313-12.904,3.108-25.626,2.571-38.571
		c-0.025-0.592-2.112,0.301-2.089,0.889c0.546,13.146-1.1,25.352-1.418,38.464c-0.295,12.103,1.588,24.137,1.896,36.227
		c-11.477,4.429-24.387,4.966-34.95-0.938c-0.866-0.688-1.707-1.418-2.503-2.216c2.325-13.535,3.18-29.418,1.396-40.364
		c-2.114-12.963,3.593-30.584-10.105-34.455c1.572-1.103,3.398-2.274,5.361-3.448c7.329-3.724,15.223-6.137,23.997-6.636
		c3.224-0.184,6.487-0.071,9.703,0.357c0.248,18.193,1.741,36.469-0.688,54.568c-0.079,0.588,2.023,2.691,2.104,2.103
		c2.428-18.096-0.252-38.357-0.501-56.546c3.324,0.511,6.587,1.375,9.686,2.658c3.317,1.374,6.377,3.312,9.285,5.476
		C160.774,113.124,157.746,118.715,159.951,154.356z"/>
	<path fill="#FFFFFF" d="M122.934,109.152c3.881,22.386,2.627,45.169,2.611,67.772c-0.001,0.585,2.534,4.681,2.534,4.087
		c0.017-22.683-0.34-49.529-4.233-71.995C123.745,108.433,122.833,108.565,122.934,109.152z"/>
	<path fill="#FFFFFF" d="M141.73,109.318c0.059,18.964,5.326,42.749,4.054,61.731c-0.04,0.59,0.874,0.705,0.913,0.111
		c1.273-18.985-2.552-37.831-2.611-56.798C144.083,113.778,141.728,108.724,141.73,109.318z"/>
	<path fill="#FFFFFF" d="M129.816,107.084c0.702,10.408,4.74,24.812,2.91,35.239c-0.103,0.586,0.812,0.694,0.914,0.111
		c1.844-10.508-0.599-20.969-1.307-31.46C132.293,110.383,129.776,106.496,129.816,107.084z"/>
	<path fill="#A3BC4B" d="M141.729,83.401c-32.162,0-58.328,26.166-58.328,58.329s26.166,58.33,58.328,58.33
		c32.163,0,58.33-26.167,58.33-58.33S173.892,83.401,141.729,83.401z M141.729,194.06c-28.854,0-52.328-23.476-52.328-52.33
		s23.475-52.329,52.328-52.329c28.855,0,52.33,23.475,52.33,52.329S170.584,194.06,141.729,194.06z"/>
	<path fill="#D2E7F4" d="M150.65,97.673c0.249,18.188,2.929,38.45,0.501,56.546c-0.08,0.589-2.183-1.515-2.104-2.103
		c2.43-18.1,0.937-36.375,0.688-54.568c-3.216-0.429-6.479-0.541-9.703-0.357c-8.774,0.499-16.668,2.912-23.997,6.636
		c-1.963,1.174-3.789,2.346-5.361,3.448c13.698,3.871,7.991,21.492,10.105,34.455c1.784,10.946,0.93,26.829-1.396,40.364
		c0.796,0.798,1.637,1.528,2.503,2.216c10.563,5.904,23.474,5.367,34.95,0.938c-0.309-12.09-2.191-24.124-1.896-36.227
		c0.318-13.112,1.964-25.318,1.418-38.464c-0.023-0.588,2.063-1.48,2.089-0.889c0.537,12.945-2.258,25.667-2.571,38.571
		c-0.298,12.248,2.874,25.006,3.212,37.236c1.446-0.588,1.521-1.816,2.91-2.522c-0.662-4.284-1.133-13.799-2.048-28.599
		c-2.205-35.641,0.823-41.232,9.67-48.549c-2.908-2.164-5.968-4.102-9.285-5.476C157.237,99.048,153.974,98.184,150.65,97.673z
		 M125.545,176.924c0.016-22.604,1.27-45.387-2.611-67.772c-0.102-0.587,0.811-0.719,0.912-0.136
		c3.894,22.466,4.25,49.312,4.233,71.995C128.08,181.605,125.544,177.509,125.545,176.924z M133.64,142.435
		c-0.103,0.583-1.017,0.475-0.914-0.111c1.83-10.427-2.208-24.831-2.91-35.239c-0.04-0.589,2.478,3.299,2.518,3.891
		C133.042,121.466,135.484,131.927,133.64,142.435z M135.991,183.453v-61.367c0-0.594,0.913-0.474,0.913,0.111l3.244,62.783
		C140.148,185.574,135.991,184.038,135.991,183.453z M146.697,171.161c-0.039,0.594-0.953,0.479-0.913-0.111
		c1.272-18.982-3.995-42.768-4.054-61.731c-0.002-0.594,2.354,4.46,2.355,5.045C144.145,133.33,147.97,152.175,146.697,171.161z"/>
</g>
</svg>
