<?xml version="1.0" encoding="utf-8"?>
<!-- Generator: Adobe Illustrator 15.1.0, SVG Export Plug-In . SVG Version: 6.00 Build 0)  -->
<!DOCTYPE svg PUBLIC "-//W3C//DTD SVG 1.1//EN" "http://www.w3.org/Graphics/SVG/1.1/DTD/svg11.dtd">
<svg version="1.1" id="Ebene_1" xmlns="http://www.w3.org/2000/svg" xmlns:xlink="http://www.w3.org/1999/xlink" x="0px" y="0px"
	 width="283.46px" height="283.46px" viewBox="0 0 283.46 283.46" enable-background="new 0 0 283.46 283.46" xml:space="preserve">
<g>
	<path fill="#FFFFFF" d="M181.792,134.51c-0.891-2.727-7.197-2.533-7.961-5.859c-0.519-2.281,1.479-4.949,1.26-7.127
		c-0.617-6.148-6.346-6.797-10.901-7.957c-0.924-6.43-7.053-13.699-13.401-8.385c-9.128-3.762-13.858,7.545-9.634,14.668
		c-7.658,6.133,0.812,13.211,5.023,17.18c-1.273,4.092-3.464,4.219-2.931,7.957c0.491,3.459,6.234,4.687,6.283,7.964
		c0.092,5.27-9.489,4.913-7.955,12.145c0.773,3.662,4.944,3.662,7.955,6.289c0.543,13.506,7.785,1.397,16.76,4.188
		c4.783-2.021,6.414-7.883,5.448-13.409c3.396-2.785,7.741-5.992,7.541-11.729c-0.062-1.744-1.811-3.601-1.678-5.447
		C177.86,141.51,183.255,139.004,181.792,134.51z M148.694,120.686c-13.608,0.895,0.567-22.195,5.45-9.635
		C147.969,110.735,145.369,116.129,148.694,120.686z M152.469,158.395c-3.794,5.84,2.094,7.771,5.024,10.474
		C149.555,177.028,141.617,157.354,152.469,158.395z M166.71,157.139c1.05-3.072,4.977-2.914,5.445-6.289
		c0.311-2.222-1.386-2.949-1.257-5.863C181.267,145.292,174.552,162.014,166.71,157.139z"/>
	<path fill="#E84E1B" d="M178.021,127.391c2.818-9.037-2.158-15.836-9.221-17.598c-0.682-8.395-9.217-16.246-17.17-10.895
		c-9.581-4.787-20.963,6.477-18.021,15.924c0.386,1.232,3.361,3.662,3.355,4.605c-0.018,1.422-5.065,4.572-3.355,7.541
		c-3.913,3.996-17.312,11.395-21.087,15.434c-1.055,1.32-3.599,2.018-4.587,3.348c-0.351,0.47-6.668,6.429-7.016,6.902
		c1.134-0.748,9.708-6.193,10.94-6.258c0.963-0.592,1.923-1.189,2.853-1.836c2.02-1.408,3.902-2.838,5.889-4.102
		c5.153-3.602,11.2-7.316,13.847-9.715c-0.188,1.58,0.827,1.969,1.255,2.932c-1.829,1.785-3.791,3.434-5.782,5.057
		c-2.289,2.602-14.083,7.438-16.559,9.75c-2.804,2.623-13.315,9.904-16.118,12.525c-0.011,0.119-0.033,0.233-0.046,0.354
		c2.27-1.127,12.15-7.057,14.281-8.418c2.093-1.334,3.885-3.053,5.976-4.281c4.163-3.068,17.483-8.803,22.019-11.631
		c-0.669,1.707-3.197,5.172-2.933,9.215c-3.003,1.074-8.137,3.062-13.182,5.055c-0.791,0.464-1.578,0.937-2.396,1.375
		c-2.172,1.164-4.557,1.558-6.753,2.64c-2.92,1.438-5.621,3.541-8.619,4.856c-0.768,0.664-1.427,1.277-1.478,1.605
		c3.233-1.223,6.449-2.506,9.682-3.623c4.379-1.508,17.603-6.48,22.202-7.203c0.738-0.316,1.487-0.619,2.225-0.936
		c0.457,1.078,1.06,2.016,2.094,2.516c-2.108,1.383-3.848,3.137-5.452,5.023c-0.755-0.084-1.571-0.123-2.409-0.15
		c-6.718,0.418-25.904,5.461-32.389,7.203c-0.082,0.432-0.175,0.859-0.258,1.289c1.751,0.162,7.179-0.238,8.956-0.094
		c3.231,0.268,15.677-3.223,18.798-2.135c1.873,0.082,3.651,0.17,5.21,0.176c-0.044,1.717-0.079,3.432,0.421,4.606
		c3.974,2.729,5.738,7.664,12.567,7.546c0.301,8.059,10.917,8.582,14.66,3.35c10.062,2.928,16.742-4.383,15.928-15.086
		c4.143-3.996,9.479-12.238,5.443-19.271C186.822,139.635,186.669,128.446,178.021,127.391z M171.74,162.164
		c0.965,5.526-0.664,11.389-5.447,13.409c-8.976-2.791-16.219,9.316-16.76-4.188c-3.012-2.627-7.183-2.627-7.956-6.289
		c-1.534-7.23,8.045-6.875,7.956-12.145c-0.05-3.277-5.793-4.505-6.283-7.964c-0.533-3.738,1.655-3.865,2.93-7.957
		c-4.211-3.969-12.682-11.047-5.023-17.18c-4.226-7.123,0.505-18.43,9.635-14.668c6.349-5.314,12.478,1.955,13.4,8.385
		c4.557,1.16,10.284,1.809,10.902,7.957c0.218,2.178-1.778,4.846-1.26,7.127c0.763,3.326,7.069,3.133,7.961,5.859
		c1.463,4.494-3.935,7-4.19,10.477c-0.133,1.849,1.615,3.703,1.679,5.447C179.481,156.169,175.134,159.376,171.74,162.164z"/>
	<path fill="#E84E1B" d="M148.694,120.686c-3.325-4.557-0.725-9.951,5.45-9.635C149.261,98.491,135.085,121.581,148.694,120.686z"/>
	<path fill="#E84E1B" d="M170.9,144.987c-0.129,2.914,1.566,3.644,1.258,5.863c-0.471,3.375-4.396,3.217-5.447,6.289
		C174.552,162.014,181.267,145.292,170.9,144.987z"/>
	<path fill="#E84E1B" d="M152.469,158.395c-10.853-1.041-2.914,18.633,5.024,10.474
		C154.563,166.167,148.675,164.235,152.469,158.395z"/>
</g>
</svg>
