<?xml version="1.0" encoding="utf-8"?>
<!-- Generator: Adobe Illustrator 15.1.0, SVG Export Plug-In . SVG Version: 6.00 Build 0)  -->
<!DOCTYPE svg PUBLIC "-//W3C//DTD SVG 1.1//EN" "http://www.w3.org/Graphics/SVG/1.1/DTD/svg11.dtd">
<svg version="1.1" id="Ebene_1" xmlns="http://www.w3.org/2000/svg" xmlns:xlink="http://www.w3.org/1999/xlink" x="0px" y="0px"
	 width="283.46px" height="283.46px" viewBox="0 0 283.46 283.46" enable-background="new 0 0 283.46 283.46" xml:space="preserve">
<g>
	<path fill="#6394A3" d="M176.32,111.76c-2.783-1.826-4.271-3.242-6.756-4.729c-2.697-1.613-4.812-2.887-7.262-4.223
		c-2.547-1.387-5.949-4.311-8.443-3.547c-1.051,0.424-0.82,2.738-1.182,4.223c-1.094,4.494-3.688,8.857-6.08,13.004
		c-5.713,9.896-12.549,19.65-17.225,30.396c-1.021,2.348-2.312,6.627-1.352,8.951c0.555,1.336,2.908,2.215,3.209,3.377
		c0.568,2.199-2.373,4.924-2.195,7.262c0.051,0.666,1.475,2.076,1.014,2.533c-1.373,1.361-3.65-1.769-4.053-2.027
		c-2.766-1.789-7.074-2.326-9.627-0.168c-1.553,1.314-3.713,6.389-6.586,6.248c-2.488-0.123-4.545-4.322-7.43-2.533
		c4.438,1.793,3.459,7.053,7.6,8.951c2.176,0.994,5.346,0.502,7.262-0.508c1.283-0.676,2.436-2.711,4.053-3.039
		c2.074-0.422,3.416,1.361,5.234,1.689c4.564,0.817,8.189-3.451,9.625-5.912c0.527,0.315,1.816,0.196,2.365,0
		c1.316-1.949,2.102-4.429,3.885-5.91c10.729,1.895,13.483-6.164,16.887-13.342c1.844-3.894,4.486-7.541,6.754-10.978
		c2.396-3.627,4.729-7.285,6.924-10.807c2.309-3.703,4.594-7.641,7.094-10.639c0.67-0.805,2.57-2.029,2.533-3.041
		C182.509,115.417,178.095,112.928,176.32,111.76z M129.71,175.423c-3.615,0.814-6.086-2.567-9.287-2.024
		c-3.174,0.539-4.465,5.16-9.119,4.054c-1.105-0.265-2.279-1.804-2.703-2.701c6.781,1.569,6.752-7.531,13.51-6.248
		c1.814,0.344,3.164,2.053,4.898,2.363c2.883,0.518,4.805-1.57,5.74-4.562c1.312,0.377,2.512,0.866,3.041,2.026
		C134.472,170.438,132.955,174.694,129.71,175.423z M130.892,164.28c3.01-2.559,7.381,1.507,8.105,4.054
		C136.199,167.08,134.992,164.233,130.892,164.28z M146.429,160.057c-4.232-3.347-9.807-6.625-16.549-7.769
		c0.027-0.194-0.037-0.301-0.17-0.338c0.074-0.149,0.148-0.303,0.338-0.338c7.314,0.283,12.727,3.236,17.055,6.756
		c1.342,1.088,3.369,2.369,3.209,4.389C148.519,162.925,147.617,160.998,146.429,160.057z M154.535,105.006
		c-0.131-0.15-0.182-0.383-0.17-0.676c0.113,0,0.225,0,0.338,0c8.928,3.287,15.603,8.828,22.461,14.184
		C169.498,114.135,161.664,109.922,154.535,105.006z"/>
	<path fill="#B3DEEC" d="M132.75,166.305c-0.936,2.989-2.857,5.077-5.74,4.562c-1.734-0.312-3.084-2.021-4.898-2.363
		c-6.758-1.283-6.729,7.817-13.51,6.248c0.424,0.897,1.598,2.438,2.703,2.701c4.654,1.106,5.945-3.515,9.119-4.054
		c3.201-0.543,5.672,2.84,9.287,2.024c3.244-0.729,4.762-4.985,6.08-7.092C135.261,167.171,134.062,166.682,132.75,166.305z"/>
</g>
</svg>
