<?xml version="1.0" encoding="utf-8"?>
<!-- Generator: Adobe Illustrator 15.1.0, SVG Export Plug-In . SVG Version: 6.00 Build 0)  -->
<!DOCTYPE svg PUBLIC "-//W3C//DTD SVG 1.1//EN" "http://www.w3.org/Graphics/SVG/1.1/DTD/svg11.dtd">
<svg version="1.1" xmlns="http://www.w3.org/2000/svg" xmlns:xlink="http://www.w3.org/1999/xlink" x="0px" y="0px"
	 width="283.46px" height="283.46px" viewBox="0 0 283.46 283.46" enable-background="new 0 0 283.46 283.46" xml:space="preserve">
<g id="Ebene_2">
</g>
<g id="Ebene_1">
	<g>
		<path fill="#D2B497" d="M143.503,92.176c-2.74,0.207-5.463,0.45-8.193,0.601c-8.389,1.688-21.49,8.792-28.269,13.844
			c0.236,0.303,9.235,4.017,10.937,8.468c3.904,10.21,9.951,32.23,21.773,33.587c11.754,1.348,18.864-20.464,24.094-29.735
			c2.613-4.634,3.105-11.601,14.011-12.319c-4.449-3.811-14.979-9.339-20.342-11.644C152.908,92.998,148.564,91.795,143.503,92.176z
			"/>
		<path fill="#D2B497" d="M144.583,162.511c-2.101-0.612-3.922-0.333-5.372,0.492c-11.088,3.567-18.949,11.841-22.907,22.134
			c9.251,5.301,21.313,7.374,31.569,5.774c7.279-1.135,14.123-3.713,20.717-6.895C163,174.255,156.185,165.892,144.583,162.511z"/>
	</g>
</g>
</svg>
