<?xml version="1.0" encoding="utf-8"?>
<!-- Generator: Adobe Illustrator 15.1.0, SVG Export Plug-In . SVG Version: 6.00 Build 0)  -->
<!DOCTYPE svg PUBLIC "-//W3C//DTD SVG 1.1//EN" "http://www.w3.org/Graphics/SVG/1.1/DTD/svg11.dtd">
<svg version="1.1" id="Ebene_1" xmlns="http://www.w3.org/2000/svg" xmlns:xlink="http://www.w3.org/1999/xlink" x="0px" y="0px"
	 width="283.46px" height="283.46px" viewBox="0 0 283.46 283.46" enable-background="new 0 0 283.46 283.46" xml:space="preserve">
<g>
	<path fill="#98D0DC" d="M146.274,172.746c2.34-1.867,6.615-1.078,9.604-2.488c2.826-1.336,5.77-5.381,4.526-9.535
		c-0.396-2.253-1.866-4.455-3.727-5.695c-0.919-0.717-2.011-1.195-3.271-1.298c-2.857-0.733-6.801-0.544-10.867-0.544
		c-6.854,0-11.801-0.234-18.497-0.712c-2.027-0.146-4.636,0.024-4.801-1.245c-0.266-2.04,3.351-1.461,4.979-1.422
		c1.839,0.043,4.899,0.234,6.401,0.355c6.101,0.487,11.109-0.14,15.828,0.178c4.197,0.281,8.785,0.16,12.92-0.231
		c-2.666-3.097-7.341-2.808-11.324-4.562c-1.399-0.615-2.621-1.515-3.993-2.172c-1.808-0.863-3.792-1.419-5.748-1.827
		c-1.367-0.283-2.738-0.489-4.113-0.652c-1.687,0.098-3.358,0.213-4.99,0.373c-3.842,0.377-8.932,0.175-12.094,1.424
		c-3.096,1.223-6.25,5.909-5.334,10.492c0.6,3.002,5.398,5.879,8.713,6.758c3.758,0.996,9.059,0.74,13.516,1.244
		c0.921,0.104,1.806,0.511,2.668,0.533c4.238,0.111,9.729-1.333,13.338,0.178c0.084,0.479,0.037,0.826-0.092,1.091
		c-1.656,0.757-3.392,1.065-5.213,1.333c-1.142,0.168-2.475,0.364-3.456,1.029c-1.102,0.746-1.95,1.713-2.613,2.8
		c-1.603,1.808-2.455,5.485-2.676,8.509c-0.176,2.406,0.564,5.043-0.533,7.291c-0.119-0.033-0.21-0.092-0.311-0.142
		c0.355,5.271,1.584,8.147,3.043,9.306c-0.157-0.742-0.275-1.537-0.362-2.354c-1.214-3.544-1.516-8.736-1.126-13.566
		c0.178,0,0.355,0,0.533,0c0.102,1.699,0.288,3.438,0.469,5.187c0.27-3.752,1.1,1.67,1.117,1.807
		c0.193,1.568,0.036,3.143,0.219,4.715c0.17,1.46,0.642-4.283,0.655-2.814c0.555,0.188,0.784,7.431,1.333,7.416
		c-0.334-2.498-0.391-5.034-0.332-7.562c-0.003-0.38,0-0.761,0.01-1.146c0.001-0.051,0.015-0.097,0.03-0.14
		c0.041-1.159,0.097-2.317,0.151-3.467c0.006-0.121,0.053-0.206,0.113-0.274c-0.107-1.252-0.141-2.593-0.031-4.072
		c0.167-0.131,0.27-0.324,0.356-0.534c0.574,3.211,0.919,6.651,1.351,10.006c0.679,2.001,0.772,4.324,2.2,5.888
		c0.255-1.201,0.037-2.432,0.209-3.662c0.123-0.877,0.211-1.754,0.27-2.631c-0.021-0.996-0.056-2.031-0.086-3.061
		c-0.011,0.013-0.02,0.027-0.031,0.04C144.196,179.382,143.897,174.642,146.274,172.746z M140.227,185.016
		c-2.03-4.354-1.369-11.945,1.067-15.294c0.206-0.029,0.315,0.04,0.355,0.179C140.003,173.912,139.503,179.632,140.227,185.016z
		 M155.166,168.123c-3.767,2.221-11.174,0.799-11.736,6.225C142.118,167.875,150.457,168.573,155.166,168.123z M144.851,192.128
		c-1.225-3.848-2.081-9.646-1.602-14.049C144.073,182.358,145.08,187.393,144.851,192.128z"/>
	<path fill="#E84E1B" d="M135.959,176.658c0.221-3.021,1.073-6.699,2.676-8.508c0.663-1.087,1.512-2.054,2.613-2.8
		c0.981-0.665,2.314-0.861,3.455-1.029c1.822-0.268,3.558-0.575,5.215-1.333c0.129-0.265,0.176-0.611,0.09-1.091
		c-3.607-1.511-9.099-0.065-13.337-0.178c-0.862-0.022-1.747-0.431-2.668-0.533c-4.457-0.504-9.758-0.248-13.516-1.244
		c-3.314-0.879-8.113-3.756-8.713-6.758c-0.916-4.583,2.238-9.271,5.334-10.492c3.162-1.249,8.252-1.047,12.094-1.424
		c1.632-0.16,3.304-0.275,4.99-0.373c9.014-0.521,18.68-0.255,27.73-0.16c1.715,0.018,5.611,0.288,5.336-1.6
		c-0.151-1.035-2.071-0.902-3.201-0.891c-5.295,0.057-8.914-0.327-13.338-0.532c-13.256-0.617-27.413,1.319-31.477-7.47
		c-1.793-3.877,0.074-9.202,3.557-11.025c1.889-0.988,5.195-1.318,8.536-1.602c6.337-0.535,12.865-0.127,19.562-0.711
		c1.865-0.162,8.398-0.239,8.003-2.312c-0.341-1.781-3.534-0.622-4.802-0.533c-5.238,0.367-10.616-1.466-12.804-4.269
		c-3.337-4.273-2.901-10.13-3.913-17.25h-0.533c-0.043,0.254-0.293,0.301-0.355,0.533c0.061,2.007-0.893,3.818-1.066,5.691
		c-0.469,5.029,1.029,9.927,3.734,12.982c1.146,1.295,2.859,1.926,3.734,3.2c-7.786,0.599-16.731-1.234-22.052,2.134
		c-2.743,1.737-5.05,5.629-5.335,8.715c-0.6,6.475,5.096,11.212,10.137,13.159c-3.74,0.586-7.291-0.003-10.137,1.245
		c-4.047,1.773-7.473,7.607-6.758,13.16c0.242,1.878,2.199,4.296,3.379,5.334c5.65,4.977,16.479,5.301,26.676,5.158
		c-4.207,3.051-5.819,9.268-4.98,16.184c0.164,1.344,0.077,3.158,1.291,3.771c0.101,0.05,0.191,0.108,0.311,0.142
		C136.524,181.701,135.784,179.065,135.959,176.658z"/>
	<path fill="#E84E1B" d="M175.259,130.243c-2.776-2.584-6.698-2.963-10.848-3.734c3.473-2.48,6.827-6.158,6.402-11.56
		c-0.453-5.763-6.953-11.563-12.982-11.915c-2.344-0.137-4.824,0.771-7.469,0.178c-2.338-1.455,0.186-7.771-1.955-9.425
		c-1.223,0.605-1.035,2.95-1.068,4.624c-0.041,2.074-0.023,4.104,0.533,5.157c1.654,3.125,5.922,1.374,9.604,1.601
		c2.819,0.173,6.381,2.225,8.181,4.268c0.981,1.115,2.641,3.293,2.846,5.513c0.606,6.573-5.604,11.034-11.025,11.382
		c-4.43,0.283-10.906-0.162-15.471,0.178c-2.047,0.152-4.482,0.168-7.648,0c-2.562-0.137-6.645-0.685-6.579,1.067
		c0.052,1.38,3.789,1.622,6.224,1.778c8.125,0.52,16.91-0.355,23.652-0.355c4.994,0,10.998,0.545,14.227,2.311
		c3.68,2.014,6.158,8.219,3.023,12.449c-2.086,2.815-6.771,5.153-11.559,5.868c-1.253,0.188-2.588,0.349-3.975,0.479
		c-4.136,0.392-8.724,0.513-12.92,0.231c-4.72-0.316-9.729,0.311-15.829-0.178c-1.502-0.121-4.562-0.312-6.401-0.355
		c-1.629-0.039-5.245-0.618-4.979,1.422c0.165,1.27,2.773,1.102,4.801,1.245c6.696,0.478,11.644,0.712,18.496,0.712
		c4.067,0,8.01-0.189,10.867,0.544c1.262,0.103,2.354,0.581,3.271,1.298c1.859,1.24,3.332,3.442,3.727,5.695
		c1.242,4.154-1.701,8.199-4.527,9.535c-2.987,1.41-7.264,0.621-9.604,2.488c-2.377,1.896-2.078,6.639-1.066,10.138
		c0.012-0.013,0.021-0.027,0.031-0.04c1.676-1.797,0.447-6.5,2.457-7.963c9.229,0.133,16.305-4.535,16.006-13.16
		c-0.16-4.61-3.574-6.258-5.514-9.069c7.604,0.286,14.953-2.786,18.495-6.937C180.68,141.033,179.205,133.912,175.259,130.243z"/>
	<path fill="#6EB0BC" d="M155.166,168.123c-4.709,0.45-13.047-0.246-11.736,6.225C143.992,168.921,151.399,170.341,155.166,168.123z
		"/>
	<path fill="#6EB0BC" d="M141.294,169.722c-2.437,3.349-3.098,10.938-1.067,15.294c-0.724-5.384-0.224-11.104,1.423-15.115
		C141.61,169.762,141.5,169.693,141.294,169.722z"/>
	<path fill="#6EB0BC" d="M140.938,176.835c-0.109,1.48-0.076,2.82,0.031,4.074c0.196,2.285,0.654,4.274,1.037,6.24
		c0.355,1.828,0.271,3.973,1.6,5.156c-0.401-1.919-0.696-3.943-0.961-5.999c-0.432-3.354-0.776-6.795-1.351-10.006
		C141.208,176.512,141.105,176.707,140.938,176.835z"/>
	<path fill="#6EB0BC" d="M136.67,177.192c-0.39,4.83-0.088,10.022,1.126,13.565c0.097,0.283,0.188,0.578,0.297,0.839
		c0.204-3.009-0.101-6.13-0.421-9.22c-0.181-1.748-0.367-3.485-0.469-5.186C137.026,177.192,136.848,177.192,136.67,177.192z"/>
	<path fill="#6EB0BC" d="M144.851,192.128c0.229-4.735-0.778-9.771-1.602-14.049C142.77,182.482,143.626,188.282,144.851,192.128z"
		/>
</g>
</svg>
