<?xml version="1.0" encoding="utf-8"?>
<!-- Generator: Adobe Illustrator 15.1.0, SVG Export Plug-In . SVG Version: 6.00 Build 0)  -->
<!DOCTYPE svg PUBLIC "-//W3C//DTD SVG 1.1//EN" "http://www.w3.org/Graphics/SVG/1.1/DTD/svg11.dtd">
<svg version="1.1" id="Ebene_1" xmlns="http://www.w3.org/2000/svg" xmlns:xlink="http://www.w3.org/1999/xlink" x="0px" y="0px"
	 width="283.46px" height="283.46px" viewBox="0 0 283.46 283.46" enable-background="new 0 0 283.46 283.46" xml:space="preserve">
<g>
	<path fill="#ABDCEF" d="M182.962,130.914c-1.491-4.254-3.354-9.6-8.147-10.389c-7.948-8.951-19.167-16.48-36.661-15.275
		c-12.246,0.846-20.962,5.604-27.291,11.609c-6.609,6.275-11.793,15.404-10.995,27.087c0.72,10.595,6.647,18.824,13.847,24.439
		c7.844,6.118,17.35,9.715,28.718,9.776c12.338,0.066,21.424-3.932,28.72-9.777C179.824,161.435,188.675,147.232,182.962,130.914z
		 M178.483,142.115c-1.024,18.004-15.638,28.057-33.604,30.549c-0.76,0.078-0.379-0.982-1.02-1.019
		c-0.439,0.172-0.173,1.049-0.613,1.224c-0.678,0-1.355,0-2.034,0c-0.907-0.793-1.007-2.39-2.038-3.056
		c-0.168,1.392,0.562,1.881,0.611,3.056c-1.339,0.047-2.221-0.359-3.664-0.205c-0.93-1.246-1.518-2.826-1.834-4.685
		c-1.125,1.115,0.229,2.937,0.203,4.276c-2.842,0.125-2.014-3.418-3.26-4.889c-0.582,1.471,0.363,3.164,0.611,4.479
		c-1.307-0.115-2.154-0.695-3.463-0.812c-0.791-1.99-0.946-4.619-1.832-6.519c-0.959,1.514-0.15,4.396,0.204,5.905
		c-2.827-0.565-2.065-4.723-3.259-6.926c-1.365,1.117-0.213,4.039,0,5.5c-0.982-0.172-1.463-0.844-2.443-1.018
		c-1.111-2.219-1.104-5.551-1.834-8.146c-1.677,1.021-0.859,4.545-0.409,6.314c-3.309-0.293-1.899-7.059-3.458-9.775
		c-1.762,0.953-0.855,4.791-0.611,6.719c-3.291,0.505-2.198-8.188-1.63-11.812c-2.93,0.634-2.155,5.484-2.039,8.556
		c-3.052-2.961,0.466-10.508-0.407-13.851c-2.66,1.545-2.054,6.363-2.238,10.39c-3.661-3.744,0.959-10.711,1.016-15.073
		c-0.236,0.033-0.36-0.045-0.406-0.203c-2.873,1.468-2.891,5.796-3.461,9.57c-2.154-4.604,2.134-8.889,2.852-13.237
		c-3.029,0.911-3.408,4.47-4.279,7.536c-1.149-5.181,2.432-9.088,5.093-11.814c-2.315-1.558-4.466,3.114-5.294,5.297
		c1.34-17.139,16.114-28.57,33.807-30.347c16.348-1.641,27.958,5.235,35.845,13.646c-0.7,3.436,1.896,5.906,3.058,8.96
		C177.826,133.818,178.742,137.533,178.483,142.115z"/>
	<path fill="#ABDCEF" d="M136.73,131.321c-5.393,0.825-9.996,5.716-7.533,11.608c2.999,7.193,16.602,6.643,18.53-1.017
		C149.599,134.484,143.14,130.337,136.73,131.321z"/>
	<path fill="#ABDCEF" d="M174.001,132.541c-0.013,0.262-0.263,0.285-0.205,0.611c2.769,16.781-6.168,26.893-15.887,33.197
		c11.864-3.869,23.172-17.566,16.7-33.603C174.351,132.736,174.332,132.484,174.001,132.541z"/>
</g>
</svg>
