<?xml version="1.0" encoding="utf-8"?>
<!-- Generator: Adobe Illustrator 15.1.0, SVG Export Plug-In . SVG Version: 6.00 Build 0)  -->
<!DOCTYPE svg PUBLIC "-//W3C//DTD SVG 1.1//EN" "http://www.w3.org/Graphics/SVG/1.1/DTD/svg11.dtd">
<svg version="1.1" id="Ebene_1" xmlns="http://www.w3.org/2000/svg" xmlns:xlink="http://www.w3.org/1999/xlink" x="0px" y="0px"
	 width="283.46px" height="283.46px" viewBox="0 0 283.46 283.46" enable-background="new 0 0 283.46 283.46" xml:space="preserve">
<g>
	<path fill="#ABDCEF" d="M178.067,121.456c-1.969-2.753-3.832-6.167-8.056-5.839c-6.883-5.77-15.998-10.347-28.798-9.668
		c-12.324,0.656-21.695,5.242-28.597,11.278c-6.527,5.708-12.37,15.176-12.284,26.783c0.099,12.888,7.321,21.512,15.507,26.985
		c9.057,6.055,21.356,8.893,34.438,6.241c11.346-2.299,20.417-8.553,26.376-16.311c2.882-3.747,5.749-8.972,6.851-14.5
		C185.469,136.55,182.349,127.451,178.067,121.456z M177.662,142.399c-0.662,9.245-6.084,16.285-12.281,21.349
		c-7.18,5.859-15.264,9.326-26.784,9.461c-1.338-0.742-1.778-2.381-3.021-3.222c-1.645,0.487,0.294,2.836,0.202,3.021
		c-3.579-0.717-4.42-4.172-6.043-6.846c-1.957,2.375,1.457,5.284,2.016,6.442c-4.547-0.553-4.784-5.42-6.244-9.062
		c-2.28,2.599,1.472,6.539,2.216,8.056c-4.794-0.476-4.354-7.147-4.429-11.683c-3.324,1.871-0.82,7.863,0.202,10.272
		c-5.394-0.647-5.495-9.272-4.03-14.3c-3.553,0.955-2.09,9.082-0.604,11.883c-4.429-1.965-3.767-11.283-2.416-16.109
		c-3.598,2.238-2.135,10.676-0.402,13.896c-1.364-0.117-2.793-1.906-3.828-3.021c0.037-4.039,0.184-8.75,1.41-11.681
		c0.347-0.831,1.302-1.298,1.008-2.216c-3.889,0.682-3.819,7.054-4.027,12.084c-0.627-0.178-0.663-0.95-1.209-1.21
		c0.373-5.804,1.517-10.834,3.625-14.9c-2.157,0.181-2.836,2.996-3.423,5.235c-0.651,2.48-0.953,5.354-1.206,7.854
		c-2.495-3.531,1.783-11.968,3.219-15.305c-4.101,1.537-3.921,7.357-5.035,11.882c-1.016-2.61-2.701-5.508-2.415-8.457
		c0.325-3.346,3.543-5.589,4.631-8.057c-2.598-0.035-3.347,3.492-4.631,5.438c-0.515-3.404,2.716-4.805,3.222-7.856
		c-1.164-0.312-2.061,1.264-2.618,2.217c-0.617-2.23,1.706-3.259,2.618-4.631c-0.931-0.184-1.385,1.154-1.812,0.806
		c0.262-1.819,1.249-2.914,2.417-3.827c-0.062-0.272-0.503-0.167-0.807-0.201c6.257-11.697,18.916-21.163,36.45-21.144
		c10.847,0.011,18.955,3.278,25.574,8.457c0.323,0.274-0.338,1.521,0.201,2.015C174.123,125.203,178.425,131.738,177.662,142.399z"
		/>
	<path fill="#ABDCEF" d="M142.018,139.582c-0.161-2.57,0.21-5.791,0-8.661c-0.087-1.2-0.492-4.555-2.014-4.026
		c-3.037,1.051-1.399,9.021-2.415,12.688c-3.62,0.561-9.669-1.523-11.883,0.805c2.748,1.949,8.452,0.944,11.883,2.215
		c0.405,4.363-2.831,12.57,2.012,12.283c4.332-0.256,1.184-7.946,2.417-12.081c3.2,0.101,12.851,4.319,11.679-1.612
		C152.94,137.338,145.619,140.498,142.018,139.582z"/>
	<path fill="#ABDCEF" d="M105.569,150.857c1.547-3.62,2.152-8.186,4.23-11.275C106.563,141.392,105.585,146.498,105.569,150.857z"/>
</g>
</svg>
