<?xml version="1.0" encoding="utf-8"?>
<!-- Generator: Adobe Illustrator 15.1.0, SVG Export Plug-In . SVG Version: 6.00 Build 0)  -->
<!DOCTYPE svg PUBLIC "-//W3C//DTD SVG 1.1//EN" "http://www.w3.org/Graphics/SVG/1.1/DTD/svg11.dtd">
<svg version="1.1" id="Ebene_1" xmlns="http://www.w3.org/2000/svg" xmlns:xlink="http://www.w3.org/1999/xlink" x="0px" y="0px"
	 width="283.46px" height="283.46px" viewBox="0 0 283.46 283.46" enable-background="new 0 0 283.46 283.46" xml:space="preserve">
<g>
	<path fill="#ABDCEF" d="M182.373,130.315c-1.492-4.254-3.354-9.599-8.147-10.388c-7.948-8.952-19.168-16.481-36.66-15.275
		c-12.247,0.845-20.963,5.603-27.292,11.609c-6.609,6.274-11.793,15.403-10.995,27.087c0.721,10.592,6.647,18.821,13.847,24.438
		c7.844,6.117,17.35,9.715,28.717,9.777c12.34,0.064,21.426-3.932,28.721-9.777C179.233,160.837,188.085,146.632,182.373,130.315z
		 M177.892,141.517c-1.023,18.004-15.639,28.055-33.605,30.549c-0.76,0.076-0.377-0.982-1.019-1.02
		c-0.44,0.174-0.172,1.051-0.613,1.223c-0.678,0-1.357,0-2.034,0c-0.907-0.793-1.007-2.389-2.038-3.053
		c-0.169,1.391,0.562,1.881,0.611,3.053c-1.339,0.049-2.221-0.357-3.664-0.203c-0.93-1.246-1.518-2.828-1.834-4.686
		c-1.125,1.117,0.229,2.938,0.202,4.276c-2.841,0.125-2.014-3.418-3.259-4.889c-0.582,1.471,0.363,3.164,0.611,4.479
		c-1.307-0.115-2.154-0.694-3.463-0.813c-0.791-1.99-0.946-4.617-1.832-6.519c-0.959,1.515-0.15,4.396,0.204,5.906
		c-2.827-0.564-2.065-4.721-3.259-6.924c-1.366,1.115-0.213,4.039,0,5.5c-0.981-0.174-1.463-0.846-2.443-1.02
		c-1.111-2.217-1.104-5.549-1.834-8.146c-1.678,1.023-0.859,4.545-0.409,6.316c-3.309-0.293-1.899-7.06-3.458-9.777
		c-1.762,0.955-0.855,4.793-0.612,6.721c-3.29,0.504-2.197-8.188-1.63-11.813c-2.929,0.635-2.154,5.483-2.037,8.555
		c-3.053-2.961,0.465-10.506-0.408-13.849c-2.66,1.544-2.055,6.363-2.238,10.388c-3.66-3.742,0.959-10.711,1.017-15.072
		c-0.237,0.035-0.362-0.043-0.407-0.201c-2.873,1.469-2.891,5.795-3.461,9.568c-2.154-4.604,2.134-8.886,2.852-13.236
		c-3.029,0.91-3.408,4.47-4.279,7.535c-1.149-5.181,2.432-9.087,5.094-11.812c-2.316-1.559-4.467,3.113-5.296,5.296
		c1.341-17.14,16.115-28.57,33.808-30.347c16.348-1.641,27.959,5.234,35.844,13.646c-0.699,3.436,1.897,5.906,3.058,8.961
		C177.235,133.221,178.151,136.936,177.892,141.517z"/>
	<path fill="#ABDCEF" d="M173.412,131.943c-0.013,0.261-0.263,0.283-0.205,0.611c2.768,16.781-6.168,26.892-15.887,33.197
		c11.864-3.869,23.17-17.566,16.7-33.604C173.759,132.138,173.74,131.887,173.412,131.943z"/>
	<path fill="#ABDCEF" d="M146.983,139.918c-3.153,0.15-6.279,0.01-10.185,0.205c-2.278,0.113-7.643,0.604-7.738,2.445
		c-0.136,2.57,7.336,2.775,10.998,3.055c5.722,0.437,14.564,2.582,14.256-2.854C154.112,139.207,150.451,139.754,146.983,139.918z"
		/>
</g>
</svg>
