<?xml version="1.0" encoding="utf-8"?>
<!-- Generator: Adobe Illustrator 15.1.0, SVG Export Plug-In . SVG Version: 6.00 Build 0)  -->
<!DOCTYPE svg PUBLIC "-//W3C//DTD SVG 1.1//EN" "http://www.w3.org/Graphics/SVG/1.1/DTD/svg11.dtd">
<svg version="1.1" id="Ebene_1" xmlns="http://www.w3.org/2000/svg" xmlns:xlink="http://www.w3.org/1999/xlink" x="0px" y="0px"
	 width="283.46px" height="283.46px" viewBox="0 0 283.46 283.46" enable-background="new 0 0 283.46 283.46" xml:space="preserve">
<g>
	<path fill="#D7C8B9" d="M170.443,102.52c-4.55-2.673-9.714-5.264-12.974-6.664c-4.606-1.979-8.95-3.183-14.011-2.801
		c-2.741,0.207-5.464,0.449-8.192,0.601c-7.868,1.582-19.879,7.93-26.934,12.878c13.697,3.872,20.764,22.717,22.877,35.68
		c2.383,14.607,6.656,24.729-3.189,45.388c1.686,0.433,3.393,0.772,5.133,0.989c9.519,1.188,18.743-0.271,27.162-3.926
		c-1.082-1.494-13.201-7.854-14.389-27.064C143.477,117.999,159.167,111.512,170.443,102.52z"/>
</g>
</svg>
