<?xml version="1.0" encoding="utf-8"?>
<!-- Generator: Adobe Illustrator 15.1.0, SVG Export Plug-In . SVG Version: 6.00 Build 0)  -->
<!DOCTYPE svg PUBLIC "-//W3C//DTD SVG 1.1//EN" "http://www.w3.org/Graphics/SVG/1.1/DTD/svg11.dtd">
<svg version="1.1" id="Ebene_1" xmlns="http://www.w3.org/2000/svg" xmlns:xlink="http://www.w3.org/1999/xlink" x="0px" y="0px"
	 width="283.46px" height="283.46px" viewBox="0 0 283.46 283.46" enable-background="new 0 0 283.46 283.46" xml:space="preserve">
<g>
	<path fill="#E84E1B" d="M142.466,161.765c-6.452-3.582-11.259-8.221-13.395-15.998c3.303-1.756,7.566-7.497,5.209-12.278
		c-0.039,5.105-2.555,8.73-5.395,10.418c-0.545-2.848,1.502-4.854,0.371-7.071c-1.453,0.281-0.695,2.777-1.859,3.348
		c-0.432-0.623-0.879-1.229-1.117-2.045c0.311-0.744,0.752-1.357,1.117-2.047c5.635-1.764,8.762-5.117,12.836-8.744
		c2.514-2.238,5.004-4.469,7.256-6.883c4.404-4.722,9.658-10.615,11.906-16.557c0.521-1.38,0.594-2.615,0.744-3.906
		c-0.188,0-0.223-0.151-0.373-0.188c-0.219,0.091-0.422,0.199-0.559,0.373c-1.316,1.552-1.963,3.76-2.976,5.395
		c-1.058,1.707-2.33,3.357-3.535,4.837c-6.01,7.378-13.65,14.759-21.58,20.091c-3.053,2.053-9.482,4.066-7.258,9.488
		c0.523,1.268,2.512,1.789,2.979,3.166c0.258,0.756-0.051,1.811,0,2.418c0.52,6.143,3.682,10.66,6.697,13.95
		c2.629,2.871,5.766,4.777,9.115,6.326c1.179,0.545,2.574,0.701,3.908,1.304c5.812,2.623,7.776,9.428,7.998,17.485
		c1.541-6.547,0.519-13.838-2.789-17.301C149.448,164.917,145.723,163.574,142.466,161.765z"/>
	<path fill="#E84E1B" d="M124.793,110.977c0.822,2.217,1.184,4.894,2.977,6.14c0.777,0.095,1.26-0.104,1.676-0.372
		c0.938,1.792,1.27,4.188,3.721,4.465c0.896,1.585,0.732,4.229,2.791,4.651c-0.326-2.062-0.49-4.224-1.49-5.581
		c-0.363-0.496-1.119-0.673-1.488-1.117c-1.191-1.434-1.148-3.615-2.791-4.836c-0.777-0.095-1.258,0.104-1.674,0.372
		c-1.025-2.181-2.314-7.208-5.395-4.465c-0.85-2.438-0.975-5.599-2.604-7.257c0.311,2.734,0.762,6.924,2.418,8.932
		C124.088,112.133,123.903,111.017,124.793,110.977z"/>
	<path fill="#E84E1B" d="M135.583,115.256c0.262,1.29,0.037,3.064,0.744,3.906c0.766,0.448,1.221-0.356,1.676,0
		c0.338,0.903-0.17,2.65,0.744,2.977c1.398-0.859,1.014-4.405,0.371-5.767c-0.438-0.243-1.285-0.079-1.674-0.372
		c0.162-1.217-0.342-1.764-0.557-2.604c-0.293-0.328-0.998-0.244-1.305-0.56c-0.094-0.895-0.395-1.587-0.557-2.418
		c-2.355-0.993-2.525-4.173-4.465-5.58c0.258,4.392,3.664,5.637,3.906,10.046C134.598,115.252,135.506,114.838,135.583,115.256z"/>
	<path fill="#E84E1B" d="M123.307,118.792c0.439,1.479,1.143,2.699,2.23,3.534c0.582-0.038,1.365,0.126,1.674-0.187
		c1.24,1.862,1.582,4.622,3.723,5.583c0.764-2.805-1.506-5.649-2.979-7.442c-0.535,0.021-1.217-0.102-1.486,0.186
		c-0.871-1.176-1.172-2.921-2.42-3.721c-0.748-0.128-1.061,0.178-1.676,0.187c-1.016-1.772-1.072-4.507-2.602-5.768
		c-0.125,0-0.248,0-0.373,0C119.608,114.691,119.659,119.318,123.307,118.792z"/>
	<path fill="#E84E1B" d="M170,148c0.01,0.256-0.088,0.408-0.186,0.56c-0.99,7.209-5.271,12.002-10.232,14.881
		c-1.83,1.065-4.141,1.449-5.396,3.164c3.726,1.101,6.944-1.072,9.117-2.978c1.565-1.373,4.752-5.084,6.139-7.812
		c1.011-1.985,1.177-5.117,0.931-7.629C170.332,148.041,170.216,147.968,170,148z"/>
	<path fill="#E84E1B" d="M114.934,153.58c0.473-0.334,0.451-1.16,0.744-1.674c1.209,0.367,3.574,0.725,4.465-0.186
		c0.428-0.193-0.088-1.328,0.373-1.488c1.855,0.023,3.738,0.947,5.58,0.373c-1.182-1.797-4.021-1.932-6.697-2.232
		c-0.758,0.234-0.82,1.164-1.115,1.859c-1.441-0.184-3.387-0.947-4.652-0.188c-0.461,0.283,0.115,1.604-0.373,1.86
		c-2.783-0.198-5.389-1.543-8-1.301c0.664,1.403,2.703,1.771,4.279,2.231C111.229,153.332,113.127,153.978,114.934,153.58z"/>
	<path fill="#E84E1B" d="M126.84,154.511c-2.254-0.229-6.256,0.787-8,1.303c-0.213,0.404-0.037,1.203-0.557,1.301
		c-2.492,0.127-6.615,0.139-5.025,3.162c-2.35,0.996-7.273-0.576-7.625,2.42c0.984,0.955,2.91,1.9,4.463,1.674
		c-0.018-0.914-0.814-1.043-1.303-1.488c2.871-0.332,7.572,0.306,6.514-3.35c2.398-0.143,5.07-0.014,5.209-2.418
		c2.473-0.625,6.027-0.174,7.254-2.047C127.641,154.576,127.243,154.552,126.84,154.511z"/>
</g>
</svg>
