<?xml version="1.0" encoding="utf-8"?>
<!-- Generator: Adobe Illustrator 15.1.0, SVG Export Plug-In . SVG Version: 6.00 Build 0)  -->
<!DOCTYPE svg PUBLIC "-//W3C//DTD SVG 1.1//EN" "http://www.w3.org/Graphics/SVG/1.1/DTD/svg11.dtd">
<svg version="1.1" id="Ebene_1" xmlns="http://www.w3.org/2000/svg" xmlns:xlink="http://www.w3.org/1999/xlink" x="0px" y="0px"
	 width="283.46px" height="283.46px" viewBox="0 0 283.46 283.46" enable-background="new 0 0 283.46 283.46" xml:space="preserve">
<g>
	<path fill="#E84E1B" d="M141.606,99.491c2.597-0.538,5.146-1.121,6.745-2.654c-3.234,1.056-6.562,2.021-10.22,2.654
		c1.683-1.315,3.636-2.358,4.906-4.086c-2.204,0.933-3.583,2.686-5.927,3.473c1.86-1.952,4.639-2.99,5.722-5.72
		c-3.206,2.175-5.875,4.887-9.812,6.333c0.508-0.72,2.295-1.243,1.84-2.247c-4.495,3.942-10.933,5.155-15.738,8.583
		c-8.637,6.166-15.884,16.868-16.146,31.273c-0.354,19.454,11.486,31.911,28.207,36.584c0.517,5.601-4.991,3.882-7.358,6.337
		c-0.521,0.54-1.088,1.664-1.022,2.861c0.197,3.674,5.953,4.236,10.832,3.881c7.055-0.51,18.414-0.358,24.732-1.225
		c2.564-0.352,5.182-2.022,5.518-3.474c1.688-7.295-11.42-5.446-11.444-11.448c11.481-6.35,20.757-16.104,21.664-32.497
		C175.361,115.427,160.833,101.891,141.606,99.491z M160.41,181.044c-2.773,0.961-3.822,1.104-7.154,0.609
		c0.386-3.285-3.194-2.63-3.475-0.408c-1.98-0.731-3.177,0.846-4.496,1.431c-2.041-2.325-4.477,0.657-6.949,0.819
		c-0.748,0.049-1.66-0.41-2.453-0.41c-0.777,0.002-1.543,0.424-2.248,0.41c-0.806-0.018-1.58-0.56-2.451-0.613
		c-1.611-0.104-3.883,1.316-4.906-0.408c1.334-1.74,3.396-1.721,4.906-2.863c2.438-1.844,4.409-5.309,4.904-8.785
		c0.136-0.953-0.164-2.143,0-3.271c0.094-0.652,0.572-1.41,0.613-2.048c0.145-2.24-1.42-4.504-1.432-7.152
		c-0.008-2.021,0.264-4.561-0.202-6.948c7.153-3.86,16.38,0.107,18.188,6.541c-1.012,0.556-2.474,0.659-3.678,1.023
		c-0.869-1.043-0.65-3.166-1.228-4.5c-1.164,4.473,1.052,10.93,0.612,15.942c-0.266,2.998-0.967,6.306,2.861,5.928
		C154.044,178.548,159.894,177.128,160.41,181.044z M132.409,159.99c-1.229-0.27-2.78-0.217-3.679-0.816
		c0.469-2.662,2.109-4.157,3.474-5.928C133.301,154.917,132.087,157.742,132.409,159.99z M172.06,137.1
		c-0.855,15.444-9.029,24.755-20.438,30.862c-0.641-2.225-1.537-4.189-1.843-6.743c2.396,0.958,5.945,1.823,6.949-0.411
		c1.672-3.723-3.334-8.562-5.106-10.016c-7.894-6.451-21.449-2.25-25.347,4.905c-2.441,4.48-0.309,9.673,6.132,7.767
		c-0.384,2.273-0.2,5.117-0.817,7.152c-14.382-3.412-24.729-13.953-25.754-30.451c-0.745-11.969,4.182-22.258,10.834-28.819
		c4.938-4.872,14.373-10.467,23.094-10.425C158.957,101.02,173.175,116.958,172.06,137.1z"/>
	<path fill="#E84E1B" d="M148.962,119.522c3.018-0.393,6.101-2.657,7.359-4.292c-2.81,0.699-4.891,1.784-8.178,2.044
		c-2.451,0.193-5.018-0.71-6.335,0.818C143.294,119.676,146.449,119.849,148.962,119.522z"/>
	<path fill="#E84E1B" d="M129.956,120.338c-4.142-0.731-8.554,3.204-13.489,1.229C119.157,124.763,129.165,124.138,129.956,120.338z
		"/>
	<path fill="#E84E1B" d="M149.373,131.786c1.217-1.623,3.023-2.692,4.905-3.679c1.851-0.971,4.313-1.495,5.519-3.066
		c-2.646-0.77-6.465,0.404-9.196,2.248c-2.021,1.361-6.593,5.373-5.929,7.562c0.308,1.007,2.41,1.374,3.681,1.841
		c1.571,0.574,2.662,1.446,3.883,1.223c-0.217-2.233-2.726-2.179-3.883-3.472c3.282-1.146,8.147-0.709,11.854-1.43
		C158.1,131.177,152.908,131.53,149.373,131.786z"/>
	<path fill="#E84E1B" d="M117.08,132.4c3.739-0.358,8.179-0.315,10.832,1.021c-1.013,0.135-1.955-0.183-2.863,0
		c-2.684,0.538-6.006,3.8-7.151,5.722c3.444-1.051,5.126-3.868,10.015-3.473c-0.871,1.445-2.775,1.856-2.657,4.293
		c2.611-1.887,5.832-3.164,7.562-5.932c-1.631-1.616-5.267-3.47-8.788-3.678C121.51,130.208,118.227,130.359,117.08,132.4z"/>
	<path fill="#E84E1B" d="M135.882,143.231c1.565-0.493,3.632-2.269,6.133-1.431C141.8,138.095,134.315,139.784,135.882,143.231z"/>
	<path fill="#E84E1B" d="M136.292,154.269C140.638,156.721,137.314,149.08,136.292,154.269L136.292,154.269z"/>
	<path fill="#E84E1B" d="M140.583,161.626c2.127-0.381,1.809-3.573,0.204-4.699C136.526,156.494,137.468,162.182,140.583,161.626z"
		/>
	<path fill="#E84E1B" d="M145.285,164.488c-3.847-1.601-4.111,4.907-0.613,3.885C145.864,168.024,146.376,165.716,145.285,164.488z"
		/>
	<path fill="#E84E1B" d="M140.995,171.641c-0.126-1.292-0.854-1.513-2.046-1.228C134.422,171.507,141.448,176.307,140.995,171.641z"
		/>
	<path fill="#E84E1B" d="M146.308,177.16c-0.955,1.161-0.24,2.519,0.816,2.451C148.541,179.523,148.783,176.71,146.308,177.16z"/>
	<path fill="#E84E1B" d="M141.606,177.363C136.794,178.93,144.794,181.412,141.606,177.363L141.606,177.363z"/>
	<path fill="#E84E1B" d="M136.292,181.859c1.297-0.02,2.348-1.49,1.635-3.27C134.624,175.816,132.958,181.912,136.292,181.859z"/>
</g>
</svg>
