<?xml version="1.0" encoding="utf-8"?>
<!-- Generator: Adobe Illustrator 15.1.0, SVG Export Plug-In . SVG Version: 6.00 Build 0)  -->
<!DOCTYPE svg PUBLIC "-//W3C//DTD SVG 1.1//EN" "http://www.w3.org/Graphics/SVG/1.1/DTD/svg11.dtd">
<svg version="1.1" id="Ebene_1" xmlns="http://www.w3.org/2000/svg" xmlns:xlink="http://www.w3.org/1999/xlink" x="0px" y="0px"
	 width="283.46px" height="283.46px" viewBox="0 0 283.46 283.46" enable-background="new 0 0 283.46 283.46" xml:space="preserve">
<g>
	<path fill="#DB6CA6" d="M187.423,127.333c-0.928-12.035-9.446-21.604-23.701-20.621c-9.422,0.649-15.707,4.571-22.28,8.533
		c-6.029-4.101-12.948-7.748-21.569-8.296c-13.505-0.859-22.74,8.147-23.702,20.62c-1.313,17.039,7.095,30.404,14.222,39.109
		c8.679,10.598,20.505,15.428,31.05,22.516c10.633-6.68,22.469-11.963,31.286-22.516
		C180.41,157.484,188.755,144.626,187.423,127.333z M149.025,139.185c-0.451,1.376-2.5,2.176-2.844,3.555
		c-0.43,1.725,0.751,4.709,1.188,6.637c0.504,2.24,1.197,4.191,1.42,6.162c-4.062-0.033-7.134-0.472-11.613-0.475
		c0.579-2.336,1.312-4.213,1.896-6.398c0.488-1.824,1.641-4.49,1.421-6.636c-0.231-2.27-2.596-3.706-2.368-6.4
		C138.742,128.244,151.947,130.323,149.025,139.185z M141.203,129.466c-4.777,0.811-6.122,8.269-2.844,11.852
		c-0.542,0.564-1.524,0.687-2.605,0.711C131.137,137.961,134.446,128.647,141.203,129.466z M137.649,143.687
		c0.337,0.021,0.671,0.039,0.71-0.236c0.363-0.092,0.503,0.189,0.476,0.476c-0.315,3.327-2.829,7.62-3.081,11.612
		c-1.005,0.498-1.711,1.291-2.607,1.896C134.042,153.195,135.963,147.928,137.649,143.687z M134.093,158.857
		c-0.702-0.455,1.729-1.699,2.371-2.371c1.512,0.281,4.279,0.131,6.636,0.238c2.575,0.117,6.313-0.221,6.399,2.133
		C144.578,159.582,139.375,158.56,134.093,158.857z M179.839,138.474c-0.512,5.26-3.299,10.293-6.164,14.458
		c-6.631,9.631-16.18,19.764-25.361,25.836c1.551-2.831,5.023-5.294,7.82-8.533c4.963-5.741,9.607-13.011,12.326-21.332
		c3.304-10.101,6.494-27.117-5.215-31.049c-5.199-1.746-10.617,1.136-14.693,2.844c5.846-5.415,19.16-9.354,25.836-2.132
		C178.443,122.955,180.615,130.441,179.839,138.474z"/>
</g>
</svg>
