<?xml version="1.0" encoding="utf-8"?>
<!-- Generator: Adobe Illustrator 15.1.0, SVG Export Plug-In . SVG Version: 6.00 Build 0)  -->
<!DOCTYPE svg PUBLIC "-//W3C//DTD SVG 1.1//EN" "http://www.w3.org/Graphics/SVG/1.1/DTD/svg11.dtd">
<svg version="1.1" id="Ebene_1" xmlns="http://www.w3.org/2000/svg" xmlns:xlink="http://www.w3.org/1999/xlink" x="0px" y="0px"
	 width="283.46px" height="283.46px" viewBox="0 0 283.46 283.46" enable-background="new 0 0 283.46 283.46" xml:space="preserve">
<g>
	<path fill="#A77CB4" d="M166.693,105.208H116.13c-3.281,0-5.951,2.668-5.951,5.949v60.363c0,3.28,2.67,5.951,5.951,5.951h50.562
		c3.281,0,5.951-2.671,5.951-5.951v-60.363C172.644,107.875,169.974,105.208,166.693,105.208z M118.359,143.721
		c1.438,0.146,1.265,3.077-0.829,2.207C116.855,144.958,117.208,143.604,118.359,143.721z M119.875,141.237
		c2.011-0.789,2.327,3.148,0.552,3.175C119.035,144.432,118.566,141.752,119.875,141.237z M132.57,149.792
		c-1.064,2.602-3.668,3.821-4.414,6.071c-2.096,6.306,3.631,9.744,3.172,15.179c-0.463,5.482-8.406,5.924-9.795,0.965
		c-0.453-1.611,0.361-4.486,0.412-6.346c0.039-1.347-0.148-2.627-0.552-4.002c-1.182-4.027-5.487-7.41-2.897-12.558
		c1.416-2.812,5.413-5.756,8.693-6.209c2.236-0.31,4.678,0.16,5.52,1.933C133.388,146.257,133.093,148.514,132.57,149.792z
		 M122.498,139.305c2.018-0.962,2.654,3.298,0.827,3.45C121.724,142.889,121.228,139.911,122.498,139.305z M125.394,136.545
		c2.322-1.122,2.99,4.084,1.105,4.416C124.604,141.295,123.972,137.235,125.394,136.545z M130.086,135.442
		c3.266-0.656,3.21,5.838,0.828,6.209C127.986,142.108,127.437,135.975,130.086,135.442z M157.406,172.007
		c-0.797,2.846-5.264,4.973-8.141,2.482c-1.04-0.9-1.605-2.699-1.656-3.588c-0.301-5.389,5.385-8.932,3.036-15.178
		c-1.067-2.84-3.532-4.111-4.276-5.934c-1.146-2.799-0.518-6.229,2.482-6.898c5.045-1.126,10.047,3.191,11.59,6.209
		c3.172,6.197-3.639,9.814-3.447,16.559C157.048,167.655,157.932,170.13,157.406,172.007z M148.162,135.442
		c3.164-0.627,3.127,6.531,0,6.209C145.598,141.387,145.73,135.924,148.162,135.442z M153.542,136.409
		c1.215,1.115,0.92,4.727-0.967,4.553C150.695,140.789,150.721,135.961,153.542,136.409z M155.474,139.305
		c2.123-0.76,2.1,3.45,0.275,3.45C154.064,142.755,154.22,139.754,155.474,139.305z M159.337,141.237
		c0.93,0.912,0.486,3.086-0.689,3.175C156.687,144.559,156.792,140.365,159.337,141.237z M161.408,145.928
		c-2.558,1.106-1.953-3.433,0.139-1.933C161.763,144.531,161.763,145.562,161.408,145.928z M167.751,123.895
		c0,3.81-3.09,6.898-6.899,6.898h-39.459c-3.811,0-6.899-3.089-6.899-6.898v-10.103c0-3.81,3.089-6.899,6.899-6.899h39.459
		c3.812,0,6.899,3.09,6.899,6.899V123.895z"/>
	<path fill="#602576" d="M166.693,103.311H116.13c-4.327,0-7.848,3.52-7.848,7.846v60.363c0,4.327,3.521,7.849,7.848,7.849h50.562
		c4.327,0,7.849-3.521,7.849-7.849v-60.363C174.541,106.831,171.02,103.311,166.693,103.311z M172.644,171.52
		c0,3.281-2.67,5.951-5.951,5.951H116.13c-3.281,0-5.951-2.67-5.951-5.951v-60.363c0-3.281,2.67-5.949,5.951-5.949h50.562
		c3.281,0,5.951,2.668,5.951,5.949L172.644,171.52L172.644,171.52z"/>
	<path fill="#602576" d="M139.746,112.675c1.107-0.88,0.623-3.356-0.139-4.276C137.785,108.147,138.07,113.016,139.746,112.675z"/>
	<path fill="#602576" d="M134.087,112.675c1.096-0.77,0.617-4.322-0.689-4.139C132.153,108.71,132.394,112.686,134.087,112.675z"/>
	<path fill="#602576" d="M144.712,112.399c2.281,0.251,1.828-3.98,0.414-3.862C144.029,108.627,143.722,111.649,144.712,112.399z"/>
	<path fill="#602576" d="M127.464,109.64c-1.177,0.878-0.412,4.623,1.38,3.863C129.525,112.063,128.769,109.983,127.464,109.64z"/>
	<path fill="#602576" d="M150.23,113.917c1.191,0.077,1.93-2.735,1.242-4.002C149.757,109.341,148.46,113.803,150.23,113.917z"/>
	<path fill="#602576" d="M122.221,111.848c-0.755,0.574,0.394,4.034,1.519,3.725C125.238,115.161,123.227,111.083,122.221,111.848z"
		/>
	<path fill="#602576" d="M155.335,115.987c1.615-0.334,2.641-2.516,2.069-4.139C155.384,111.23,154.111,114.633,155.335,115.987z"/>
	<path fill="#602576" d="M116.978,113.917c-1.324,0.29,0.65,5.805,2.07,3.587C118.851,116.071,118.125,113.667,116.978,113.917z"/>
	<path fill="#602576" d="M141.953,123.645c0.602-1.112,1.398-1.891,2.207-3.174c0.465-0.736,1.943-2.787,1.656-3.726
		c-0.143-0.464-0.924-0.816-1.38-0.552c-2.177,1.263-4.271,5.596-6.208,7.451c-2.563,0.361-7.233,0.381-7.038,3.035
		c0.165,2.242,4.685,1.518,7.313,1.518c3.186,0,6.256,0,8.969,0C149.724,125.045,144.781,123.928,141.953,123.645z"/>
	<path fill="#602576" d="M159.615,118.057c1.904-0.201,2.668-2.158,2.76-3.726C160.64,113.518,158.417,116.377,159.615,118.057z"/>
</g>
</svg>
