<?xml version="1.0" encoding="utf-8"?>
<!-- Generator: Adobe Illustrator 15.1.0, SVG Export Plug-In . SVG Version: 6.00 Build 0)  -->
<!DOCTYPE svg PUBLIC "-//W3C//DTD SVG 1.1//EN" "http://www.w3.org/Graphics/SVG/1.1/DTD/svg11.dtd">
<svg version="1.1" id="Ebene_1" xmlns="http://www.w3.org/2000/svg" xmlns:xlink="http://www.w3.org/1999/xlink" x="0px" y="0px"
	 width="283.46px" height="283.46px" viewBox="0 0 283.46 283.46" enable-background="new 0 0 283.46 283.46" xml:space="preserve">
<g>
	<path fill="#E84E1B" d="M160.03,120.661c0.156-1.773-2.235-2.236-2.268-0.971C157.744,120.385,158.97,121.125,160.03,120.661z"/>
	<path fill="#E84E1B" d="M152.255,121.307c0.375-2.082-2.908-2.316-2.104-0.16C150.5,121.62,151.8,121.897,152.255,121.307z"/>
	<path fill="#E84E1B" d="M164.724,121.795c1.146-1.09-0.855-2.6-1.619-1.297C163.117,121.461,163.792,121.75,164.724,121.795z"/>
	<path fill="#E84E1B" d="M169.744,122.118C170.528,119.469,167.113,121.569,169.744,122.118L169.744,122.118z"/>
	<path fill="#E84E1B" d="M156.953,123.252c0.063-0.973-0.769-1.764-1.619-1.297C154.171,122.915,156.111,124.282,156.953,123.252z"
		/>
	<path fill="#E84E1B" d="M168.125,124.545c0.59-0.473,0.338-1.914-0.164-2.266C165.833,121.78,166.199,125.096,168.125,124.545z"/>
	<path fill="#E84E1B" d="M147.401,124.709c0.32-2.287-2.987-2.498-2.59-0.646C144.968,124.79,146.611,125.299,147.401,124.709z"/>
	<path fill="#E84E1B" d="M142.056,124.709c-0.031-1.977-2.599-1.729-2.264-0.164C139.958,125.334,141.55,125.856,142.056,124.709z"
		/>
	<path fill="#E84E1B" d="M161,126.327c0.092-0.234,0.254-0.395,0.486-0.484c0.237-1.492-1.271-2.277-2.105-1.297
		C159.272,125.788,159.778,126.415,161,126.327z"/>
	<path fill="#E84E1B" d="M151.285,125.68c0.038-0.125,0.006-0.32,0.163-0.324C150.998,122.229,147.925,126.422,151.285,125.68z"/>
	<path fill="#E84E1B" d="M174.599,126.977c0.331-0.049,0.318-0.439,0.648-0.486C174.958,122.417,171.298,126.352,174.599,126.977z"
		/>
	<path fill="#E84E1B" d="M163.105,127.946c1.764-0.611,0.146-3.477-1.135-1.941C161.854,127.145,162.196,127.831,163.105,127.946z"
		/>
	<path fill="#E84E1B" d="M169.417,128.754c1.355,0.168,1.718-0.658,1.621-1.941C169.803,125.543,168.322,127.692,169.417,128.754z"
		/>
	<path fill="#E84E1B" d="M139.304,127.299c-2.268-0.162-0.631,2.977,1.135,1.617C140.455,127.891,139.931,127.344,139.304,127.299z"
		/>
	<path fill="#E84E1B" d="M146.589,128.754C145.697,124.905,143.121,130.415,146.589,128.754L146.589,128.754z"/>
	<path fill="#E84E1B" d="M156.142,129.565c0.115,0.508,0.896,1.139,1.781,0.648C158.841,128.118,155.692,127.602,156.142,129.565z"
		/>
	<path fill="#E84E1B" d="M149.99,128.917c-0.482,0.842,0.904,1.689,1.62,0.975c0.072-0.559-0.065-0.91-0.162-1.299
		C151.016,128.432,150,128.223,149.99,128.917z"/>
	<path fill="#E84E1B" d="M174.923,131.348c1.363,0.25,1.879-0.916,1.457-1.945C174.851,128.569,173.93,130.469,174.923,131.348z"/>
	<path fill="#E84E1B" d="M167.314,131.024c0.239-0.086,0.407-0.24,0.646-0.324c0-0.271,0-0.541,0-0.809
		C166.957,128.694,165.748,130.899,167.314,131.024z"/>
	<path fill="#E84E1B" d="M142.219,132.803c0.966-0.346,0.627-1.801,0-2.266C140.205,130.034,140.754,133.124,142.219,132.803z"/>
	<path fill="#E84E1B" d="M135.582,132.319c0.38,0.359,1.442,0.498,1.78,0C137.575,130.54,134.797,130.514,135.582,132.319z"/>
	<path fill="#E84E1B" d="M178.323,132.965C182.162,131.819,175.951,130.026,178.323,132.965L178.323,132.965z"/>
	<path fill="#E84E1B" d="M150.314,143.167c-1.078,0.352-1.618-0.498-2.428-0.164c0.099,0.977,0.414,1.522,0.81,1.781
		c2.875,1.875,4.826-2.293,7.608-2.429c1.607-0.08,3.201,1.358,4.533,0c-2.506-0.268-2.573-1.633-4.047-2.105
		C153.375,139.157,152.766,142.364,150.314,143.167z"/>
	<path fill="#E84E1B" d="M185.609,141.547c2.455-2.25,0.329-6.533-2.428-6.961c0.279-0.953,0.168-1.943,0-2.592
		c-2.707-10.449-13.094-17.66-25.581-17.162c-9.154,0.365-19.446,3.5-23.477,9.553c-2.491-2.982-7.117-5.295-12.304-4.535
		c1.345,1.076,3.314,1.092,4.856,1.781c1.573,0.705,2.792,1.703,3.887,2.754c-2.526-0.986-5.03-2.846-8.095-2.754
		c-0.393,0.246,0.642,1.287,0,1.779c0.059-4.209-8.961,0.014-6.8-5.342c-2.839,0.139-3.859,3.76-2.269,5.994
		c-2.5,0.043-2.592,1.654-3.562,3.236c-0.589,0.957-1.889,1.285-1.458,2.914c-2.038,1.4-4.032,3.154-6.313,5.02
		c-1.271,1.039-5.399,4.111-5.827,5.666c-0.531,1.936,0,4.713,0,6.963c0,2.367,0.035,4.689,0.16,6.961
		c11.619-1.66,22.772-3.779,34.325-5.504c-0.241,3.955,0.17,8.289,1.942,10.684c2.101,2.84,6.684,3.729,11.006,5.181
		c3.136,1.055,6.805,1.891,10.041,2.106c9.926,0.664,18.072-2.082,24.125-5.668c1.797-1.065,4.041-2.334,4.854-3.561
		c1.237-1.871,1.233-6.215,0.486-8.42C186.769,149.082,188.457,144.078,185.609,141.547z M135.255,126.327
		c1.718,2.564,4.865-1.496,1.782-2.264c1.538-2.348,4.047-3.729,6.964-4.697c0.066,3.275,3.815,0.523,1.939-0.809
		c1.885-0.711,4.037-1.145,6.314-1.459c0.363,1.068,2.844,1.922,2.593-0.322c2.172-0.115,4.343-0.27,6.476,0
		c-0.837,1.641,2.487,3.049,2.266,0.484c4.014,0.844,7.197,2.518,10.199,4.371c0.385,0.316-0.295,0.906,0.164,1.295
		c0.516,0.498,0.678-0.273,1.295-0.16c3.097,2.842,6.109,6.619,6.151,11.98c-6.799,1.615-14.762,2.971-23.151,2.59
		c-5.646-0.256-11.356-1.047-16.677-1.295c-3.34-0.154-6.816-0.088-9.389-1.619C132.279,130.795,133.938,128.731,135.255,126.327z
		 M110.81,128.592c1.884,3.021,8.749,3.559,12.305,1.621c-2.676,0.492-7.306,0.33-9.715-0.973c-0.825-0.445-1.948-1.508-1.78-2.59
		c0.435-2.807,5.081-0.979,7.771-1.619c-1.754-0.23-4.306-0.666-5.342-1.943c-0.545-0.67-1.275-2.469,0.162-3.074
		c0.075,4.133,8.232,0.186,7.446,5.182c1.104,0.434,2.829,0.354,2.914,1.455c0.14,1.773-3.703,1.555-5.991,1.619
		c1.823,2.545,7.63-1.512,7.934,1.457c0.314,3.053-6.278,4.205-9.229,4.209c-3.931,0.008-6.989-1.074-7.447-4.371
		C110.051,129.131,110.552,128.985,110.81,128.592z M98.021,141.547c10.13-1.637,20.248-3.283,29.788-5.506
		c0.477,0.209-0.66,1.453-0.646,2.268c-9.894,1.602-19.322,3.666-28.981,5.504C97.933,143.251,98.04,142.337,98.021,141.547z
		 M98.343,152.716c0-1.133,0-2.266,0-3.397c10.393-0.889,20.125-2.437,29.629-4.211c0.913,0.113,0.549,1.5,0.973,2.104
		C118.756,149.063,108.84,151.178,98.343,152.716z M98.182,148.344c0-0.861,0-1.726,0-2.589c4.479-0.774,9.628-1.655,14.733-2.59
		c5.146-0.938,10.176-2.391,14.409-2.916c0.81-0.1,2.188,1.025,2.429,2.105C119.066,144.19,108.259,145.901,98.182,148.344z
		 M180.753,157.089c-1.039,2.017-6.058,4.244-9.067,5.343c-7.319,2.666-16.741,3.104-25.097,1.133
		c-1.844-0.435-3.844-1.022-5.667-1.621c-2.566-0.836-5.397-1.473-6.638-3.235c-1.336-1.898-1.541-5.564-1.458-8.418
		c0-0.164,0-0.324,0-0.486c3.086,0.988,5.481,3.051,8.42,5.02c2.331,1.562,4.101,3.861,6.477,4.209
		c2.969,0.437,4.979-1.365,6.638-3.074c2.228,1.027,3.621,3.926,6.313,4.045c2.719,0.121,5.726-4.096,7.609-5.828
		c0.601-0.551,1.623-1.844,2.266-2.104c1.947-0.783,4.085-0.395,5.668-0.646c1.705-0.272,3.08-0.727,5.182-1.135
		C181.125,152.33,181.646,155.354,180.753,157.089z M140.601,151.91c0.961-0.218,3.212,0.389,5.341,0.483
		c3.179,0.146,6.823-0.108,9.552,0c-2.438,1.291-3.978,4.879-7.121,4.535c-1.478-0.164-2.572-1.689-3.726-2.593
		c-1.344-1.055-2.636-1.502-3.882-2.428C140.711,151.917,140.652,151.897,140.601,151.91z M155.658,154.985
		c0.818-1.071,2.037-1.739,3.077-2.592c2.858,0,5.718,0,8.579,0c0.289,0.683-0.746,0.978-1.294,1.457
		c-1.558,1.36-3.228,3.563-5.183,4.535C158.941,157.417,157.675,155.828,155.658,154.985z M183.341,141.223
		c-1.405-0.115-1.776-0.797-3.075-0.486c-1.624,0.389-1.612,2.642-3.076,2.755c-1.717,0.131-3.213-2.196-4.856-2.269
		c-3.854-0.172-3.022,5.692-5.989,5.828c-2.373,0.11-4.167-4.771-6.964-1.296c-1.45-0.899-1.932-2-3.397-2.104
		c-2.679-0.188-4.204,3.315-6.478,3.076c-1.721-0.183-1.408-1.781-2.59-3.235c-1.666-2.062-5.027-2.056-6.799-0.324
		c-1.316-0.74-2.174-1.424-3.888-1.459c-1.288-0.023-2.616,0.766-3.722,0.486c-0.906-0.229-0.99-1.221-1.62-1.943
		c-0.652-0.75-1.809-0.844-1.941-1.941c-0.133-1.074,1.293-2.572,2.103-2.268c0.803,0.303,1.286,0.885,2.268,1.295
		c4.718,1.969,12.077,1.795,19.59,1.781c8.786-0.018,17.733-0.066,25.418-1.781c1.598-0.355,3.205-1.225,4.049-1.135
		C184.781,136.465,185.563,140.42,183.341,141.223z"/>
</g>
</svg>
