<?xml version="1.0" encoding="utf-8"?>
<!-- Generator: Adobe Illustrator 15.1.0, SVG Export Plug-In . SVG Version: 6.00 Build 0)  -->
<!DOCTYPE svg PUBLIC "-//W3C//DTD SVG 1.1//EN" "http://www.w3.org/Graphics/SVG/1.1/DTD/svg11.dtd">
<svg version="1.1" id="Ebene_1" xmlns="http://www.w3.org/2000/svg" xmlns:xlink="http://www.w3.org/1999/xlink" x="0px" y="0px"
	 width="283.46px" height="283.46px" viewBox="0 0 283.46 283.46" enable-background="new 0 0 283.46 283.46" xml:space="preserve">
<g>
	<path fill="#6394A3" d="M171.037,103.795c-0.982-1.129-6.629-0.826-8.977-0.912c-6.676-0.252-11.402-0.41-17.497-0.305
		c-0.174-5.748-7.952-4.555-8.367,0.305c-5.057,0.545-12.051,0.166-12.779-3.805c-0.268-1.451,0.797-2.395,0.152-3.65
		c-0.655-0.168-0.947-0.141-1.37,0c-5.003,1.652-2.005,8.654,1.673,10.041c2.582,0.973,6.301,0.891,9.281,0.76
		c0.865-0.037,2.105-0.672,2.738,0.305c-0.46,0.842-1.605,0.443-2.281,0.457c-0.861,0.018-1.748,0.096-2.587,0.152
		c-8.697,0.582-10.038,5.422-9.737,15.062c0.133,4.254,0.219,8.895,0.457,12.322c1.078,15.553,0.161,31.182,14.301,32.711
		c0.031,1.545-0.234,2.135,0,2.891c0.454,1.463,2.359,1.552,2.738,2.74c0.34,1.064-0.176,18.623,0.141,20.697h1.395
		c0.18-0.877,0.223-2.049,0.291-2.898c0.488-6.062-0.037-12.676,0-17.953c1.257-0.579,3.219-0.426,3.955-1.521
		c0.661-0.979,0.262-2.555,0.152-4.106c4.26-0.93,8.609-3.229,10.803-6.693c1.811-2.863,1.895-7.438,2.436-12.779
		c0.793-7.885,1.08-15.518,1.063-22.822c-0.011-4.998-0.124-13.381-2.587-15.67c-2.412-2.244-8.292-1.289-12.02-1.979v-1.826
		c6.067,1.223,14.745-0.422,19.475,1.979c3.031,1.537,3.129,6.283,3.348,11.107c0.484,10.646-0.001,21.109,0,31.035
		c0,10.02-0.001,21.121,0,31.494c0,0.979-0.184,3.438-0.062,5.561c0.979-0.551,1.941-1.125,2.858-1.771
		c0.093-1.815,0.146-3.187,0.247-4.244c0.996-10.332,0.914-22.533,0.913-32.862c-0.001-7.433-0.069-14.218,0.304-22.062
		c0.16-3.367-0.18-7.148,0-11.258C171.619,111.442,172.235,105.172,171.037,103.795z M142.129,102.731h-2.434
		C139.151,100.075,142.501,100.383,142.129,102.731z M139.543,105.622c0.869,0.109,1.359-0.162,2.129-0.152
		c-0.043,0.516-0.241,0.875-0.151,1.521h-1.978C139.223,106.653,139.704,106.258,139.543,105.622z M139.086,170.891
		c-0.696-0.32-1.248-0.781-1.674-1.371c0.065-0.694,0.231-1.289,0.152-2.129c0.252-0.207,0.889,0.125,1.521,0
		C139.106,168.604,138.723,169.789,139.086,170.891z M138.934,164.196c12.237-1.364,10.944-17.688,9.737-29.971
		c1.845-0.287,3.841-0.422,5.934-0.459C154.214,147.951,154.475,165.667,138.934,164.196z M155.212,115.208
		c0.898,4.391,0.211,9.705,0.763,14.758c-9.556,0.445-20.468,0.824-30.887,0.912c0.115-1.027-0.244-1.582-0.151-2.588
		c2.296-0.543,6.011,0.332,7.15-1.367c-1.087-1.754-4.593-1.088-7.15-1.371v-1.977c2.548-0.496,6.165,0.078,7.759-1.369
		c-1.001-2.168-5.635-0.744-7.759-1.066c0.228-0.939,0.011-2.322,0.305-3.195c1.124,0.092,2.431-0.199,3.651-0.303
		c1.178-0.102,2.736,0.281,3.194-0.762c-1.227-1.207-4.271-0.596-6.542-0.76c-0.634-6.459,9.039-5.047,14.91-4.566
		C146.287,112.032,154.304,110.758,155.212,115.208z"/>
	<path fill="#B3DEEC" d="M138.934,164.196c15.541,1.472,15.28-16.245,15.671-30.43c-2.093,0.037-4.089,0.172-5.934,0.459
		C149.878,146.505,151.171,162.832,138.934,164.196z"/>
</g>
</svg>
