<?xml version="1.0" encoding="utf-8"?>
<!-- Generator: Adobe Illustrator 15.1.0, SVG Export Plug-In . SVG Version: 6.00 Build 0)  -->
<!DOCTYPE svg PUBLIC "-//W3C//DTD SVG 1.1//EN" "http://www.w3.org/Graphics/SVG/1.1/DTD/svg11.dtd">
<svg version="1.1" id="Ebene_1" xmlns="http://www.w3.org/2000/svg" xmlns:xlink="http://www.w3.org/1999/xlink" x="0px" y="0px"
	 width="283.46px" height="283.46px" viewBox="0 0 283.46 283.46" enable-background="new 0 0 283.46 283.46" xml:space="preserve">
<g>
	<path fill="#E4CBB0" d="M142.503,92.176c-2.74,0.207-5.463,0.45-8.192,0.601c-8.39,1.688-21.491,8.792-28.27,13.844
		c0.237,0.303,9.235,4.017,10.937,8.468c2.604,6.808,20.145,29.833,21.994,36.254c0.616,2.141,2.412,1.176,2.885-1.272
		c4.592-23.77,17.736-25.365,20.988-31.13c2.613-4.634,3.105-11.601,14.01-12.319c-4.447-3.811-14.977-9.339-20.342-11.644
		C151.908,92.998,147.564,91.795,142.503,92.176z"/>
	<path fill="#E4CBB0" d="M143.969,162.753c0.032-1.219-3.245-6.103-3.239-7.32c0.02-3.564-2.205,0.104-2.223,3.666
		c-0.007,1.204-1.18,1.878-1.212,3.081c-0.202,0.088-1.657,1.588-1.847,1.694c-10.225,3.291-15.653,9.847-19.541,18.918
		c9.165,8.483,21.02,8.207,26.712,8.463c8.336,0.375,17.036-2.95,23.754-7.267C161.064,175.078,154.537,166.087,143.969,162.753z"/>
</g>
</svg>
