<?xml version="1.0" encoding="utf-8"?>
<!-- Generator: Adobe Illustrator 15.1.0, SVG Export Plug-In . SVG Version: 6.00 Build 0)  -->
<!DOCTYPE svg PUBLIC "-//W3C//DTD SVG 1.1//EN" "http://www.w3.org/Graphics/SVG/1.1/DTD/svg11.dtd">
<svg version="1.1" id="Ebene_1" xmlns="http://www.w3.org/2000/svg" xmlns:xlink="http://www.w3.org/1999/xlink" x="0px" y="0px"
	 width="283.46px" height="283.46px" viewBox="0 0 283.46 283.46" enable-background="new 0 0 283.46 283.46" xml:space="preserve">
<g>
	<path fill="#E84E1B" d="M167.64,122.533c0.141-0.134,0.27-0.276,0.345-0.47c-0.983-0.958-2.681-4.191-3.899-2.996
		c-0.174,0.17-0.338,0.43-0.488,0.801c1.318,0.95,2.162,2.372,3.294,3.511C167.041,122.996,167.369,122.791,167.64,122.533z"/>
	<path fill="#E84E1B" d="M170.567,126.493c-1.021,1.112-0.292,2.322,0.271,3.469c0.67,1.356,1.277,2.807,1.759,4.171
		c5.22,14.853-0.166,30.81-8.121,39.722c-5.425,6.078-13.896,11.122-23.264,11.852c-7.182,0.56-13.581-0.869-18.98-3.692
		c-2.639-1.379-5.036-3.091-7.167-5.075c-6.812-6.335-10.902-15.404-11.381-25.027c-0.679-13.667,5.08-24.409,12.071-30.945
		c5.725-5.356,15.071-10.697,25.019-10.753c0.898-0.007,1.785,0.039,2.659,0.118c3.959,0.357,7.616,1.518,10.668,2.896
		c1.133,0.511,2.185,1.052,3.131,1.594c1.095,0.623,2.147,2.405,3.603,1.858c0.184-0.069,0.373-0.171,0.569-0.322
		c-0.146-1.696-2.221-2.11-3.51-2.853c-4.38-2.518-9.854-4.258-15.802-4.829c2.784-0.577,5.524-1.204,7.243-2.854
		c-3.482,1.13-7.057,2.164-10.976,2.854c1.378-1.25,5.035-3.045,4.83-4.389c-1.854,1.367-3.624,2.813-5.927,3.732
		c2.001-2.1,4.982-3.211,6.146-6.146c-3.361,2.348-6.319,5.095-10.316,6.803c0.559-0.977,1.779-1.291,2.195-2.413
		c-5.133,3.937-12.413,5.7-17.34,9.22c-9.247,6.597-17.054,18.041-17.337,33.577c-0.41,22.406,15.675,38.749,36.432,39.721
		c12.627,0.594,21.732-5.578,28.093-12.068c6.118-6.248,11.2-14.875,11.848-26.557c0.579-10.399-1.907-17.692-6.146-23.92
		C170.734,126.318,170.648,126.405,170.567,126.493z"/>
	<path fill="#E84E1B" d="M160.304,133.253c0.363,0.172,0.593,0.603,1.098,0.659c1.553,0.177,4.717-4.515,5.926-5.928
		c0.862-1.005,1.688-1.893,2.424-2.736c1.199-1.376,2.158-2.631,2.625-4.063c0.025-0.977-1.065-0.837-1.539-1.317
		c1.779-2.688,5.188-3.739,5.488-7.901c-0.715-0.821-2.26-0.812-3.729-0.879c0.961-2.123,4.334-4.137,3.948-6.144
		c-2.061,2.477-5.233,3.837-6.582,7.022c0.394,1.365,2.762,0.747,4.391,0.877c-1.643,2.834-8.05,5.47-5.049,9.439
		c-0.268,0.417-0.565,0.805-0.879,1.179C165.707,126.711,161.535,128.511,160.304,133.253z"/>
	<path fill="#E84E1B" d="M161.529,117.143c-1.709,1.514-3.219,3.161-3.418,5.578c1.051,0.935,2.617,0.068,3.947,0
		c-1.047,2.005-2.5,3.708-3.947,5.484c-1.307,1.602-3.592,3.245-3.074,5.927c0.168,0.05,0.435,0.006,0.439,0.22
		c2.08-0.555,3.134-2.969,4.609-4.831c1.934-2.43,4.854-4.651,4.172-8.336c-0.529-0.624-2.454-0.339-2.855-0.441
		c0.545-0.86,1.221-1.588,1.938-2.277c1.777-1.717,3.8-3.194,4.646-5.843c-0.245-1.414-3.188-0.626-3.95-0.878
		c-0.021-1.563,1.93-2.31,1.537-3.51c-1.025,1.682-3.535,1.879-3.73,4.388c0.382,1.161,2.514,0.968,3.73,0.657
		C164.507,114.717,162.949,115.884,161.529,117.143z"/>
	<path fill="#E84E1B" d="M137.481,117.232c-2.086,1.377-2.281,3.855-3.732,5.709c-1.951,2.482-5.586,2.799-7.681,5.265
		c3.728-1.303,11.462-4.003,12.728-7.899C139.32,118.702,138.938,117.47,137.481,117.232z"/>
	<path fill="#E84E1B" d="M146.919,117.89c-1.258-0.29-1.793,0.689-1.978,1.318c-1.219,4.104,4.003,9.554,7.022,10.312
		C149.087,126.711,148.444,121.988,146.919,117.89z"/>
	<path fill="#E84E1B" d="M119.923,147.082c1.377-0.035,2.065-0.86,3.072-1.099c5.984-1.417,8.855,2.447,12.729,3.729
		C136.591,143.804,122.201,141.717,119.923,147.082z"/>
	<path fill="#E84E1B" d="M157.671,153.005c-0.073-6.805-15.043-7.498-14.922-0.66c2.854-1.286,6.595-3.553,10.752-2.192
		C155.253,150.727,155.948,152.666,157.671,153.005z"/>
	<path fill="#E84E1B" d="M133.969,154.762c1.207,0.122,1.696-1.226,3.072-1.317c2.07-0.136,2.734,1.446,3.952,2.633
		C143.839,150.957,132.807,149.292,133.969,154.762z"/>
	<path fill="#E84E1B" d="M135.287,169.246c3.42-0.057,7.886,3.541,11.849,3.512c2.398-0.018,4.984-1.266,5.707-3.291
		c0.801-11.704-14.37-5.312-17.556-1.536c-1.683,0.22-2.845,0.962-3.515,2.194C133.129,170.453,133.852,169.269,135.287,169.246z
		 M147.796,170.566c0-1.027,0-2.052,0-3.074c1.19,0.166,1.776-0.271,2.852-0.221C150.9,169.569,149.537,170.255,147.796,170.566z
		 M147.576,164.417c1.305,0.086,2.36,0.418,2.635,1.535c-0.806,0-1.608,0-2.414,0C147.492,165.671,147.578,165.001,147.576,164.417z
		 M141.434,169.246c-0.931-0.242-1.803-0.541-2.638-0.875c0.447-0.507,1.822-0.082,2.638-0.222
		C141.434,168.514,141.434,168.88,141.434,169.246z M145.82,170.566c-1.014-0.161-1.833-0.514-2.851-0.663
		c0.188-0.873-0.331-1.621,0-1.974c1.11,0.015,1.813-0.376,3.071-0.221C146.171,168.867,145.876,169.595,145.82,170.566z
		 M146.041,164.417c0,0.512,0,1.023,0,1.535c-0.826,0.42-2.467,0.021-3.291,0.438c0.058-0.353-0.209-0.376-0.222-0.656
		C143.055,164.654,144.824,164.806,146.041,164.417z M141.434,165.955c-0.1,1.148-2,0.488-2.857,0.879
		C139.392,166.4,140.251,166.019,141.434,165.955z"/>
</g>
</svg>
