<?xml version="1.0" encoding="utf-8"?>
<!-- Generator: Adobe Illustrator 15.1.0, SVG Export Plug-In . SVG Version: 6.00 Build 0)  -->
<!DOCTYPE svg PUBLIC "-//W3C//DTD SVG 1.1//EN" "http://www.w3.org/Graphics/SVG/1.1/DTD/svg11.dtd">
<svg version="1.1" id="Ebene_1" xmlns="http://www.w3.org/2000/svg" xmlns:xlink="http://www.w3.org/1999/xlink" x="0px" y="0px"
	 width="283.46px" height="283.46px" viewBox="0 0 283.46 283.46" enable-background="new 0 0 283.46 283.46" xml:space="preserve">
<g>
	<path fill="#E84E1B" d="M176.524,131.478c0.177,1.083-0.812,1.009-0.683,2.048c3.632,15.864-2.088,29.193-9.78,37.522
		c-5.873,6.367-13.642,11.426-23.879,12.283c-22.295,1.864-37.918-15.51-38.89-35.025c-0.708-14.201,5.073-25.111,12.506-32.068
		c5.976-5.585,15.69-11.167,26.155-11.144c7.265,0.016,14.199,3.422,19.105,6.371c0.934,0.561,1.009,1.278,1.82,0.453
		c1.211-1.232-1.156-2.26-2.729-3.185c-5.062-2.965-10.225-4.329-17.061-5.23c2.888-0.598,5.726-1.25,7.507-2.957
		c-3.609,1.171-7.313,2.241-11.371,2.957c1.428-1.301,5.215-3.155,5-4.547c-1.918,1.415-3.756,2.913-6.138,3.863
		c2.07-2.175,5.161-3.327,6.366-6.367c-3.566,2.422-6.537,5.439-10.916,7.051c0.84-0.827,1.983-1.354,2.502-2.503
		c-5.628,4.333-12.439,5.607-17.97,9.554c-9.583,6.839-17.669,18.659-17.964,34.795c-0.411,22.585,15.643,40.441,37.297,41.168
		c13.336,0.445,22.439-5.237,29.568-12.51c6.394-6.526,11.555-15.609,12.279-27.293c0.481-7.771-0.894-13.861-3.184-19.104
		C173.41,129.042,175.739,129.576,176.524,131.478z"/>
	<path fill="#E84E1B" d="M166.516,109.188c-0.922,1.786-3.856,3.177-3.412,5.459c0.504,2.568,6.543,2.63,9.326,2.048
		c0.215-3.097-3.024-2.738-5.005-3.64c0.88-1.67,3.578-2.396,2.957-4.776c-0.313-1.204-6.102-3.275-6.141-0.683
		C164.541,108.586,166.037,108.383,166.516,109.188z"/>
	<path fill="#E84E1B" d="M178.796,115.33c1.076-1.688,3.228-2.31,2.959-4.548c-0.227-1.89-6.531-4.507-7.28-2.503
		c0.696,1.579,2.737,1.815,3.866,2.957c-1.441,1.688-4.17,2.818-3.637,5.459c0.488,2.433,5.582,4.172,7.957,2.957
		C182.946,116.641,180.382,116.474,178.796,115.33z"/>
	<path fill="#E84E1B" d="M167.882,117.83c1.31,1.342,2.039,3.271,4.775,3.186C172.097,119.076,170.164,117.294,167.882,117.83z"/>
	<path fill="#E84E1B" d="M158.33,120.106c-2.904-2.38-11.103-2.254-12.509,1.362C149.917,121.888,153.623,119.119,158.33,120.106z"
		/>
	<path fill="#E84E1B" d="M177.434,124.427c-0.235-2.664-7.662-3.526-9.552-2.501c0.355,2.22,3.318,1.834,4.775,2.956
		c-1.25,1.683-3.955,2.025-3.641,4.55c0.311,2.455,5.018,3.719,6.824,2.271c-0.291-1.601-2.146-1.644-2.504-3.181
		C174.882,127.349,177.626,126.624,177.434,124.427z"/>
	<path fill="#E84E1B" d="M127.171,126.02c-2.035-3.31-10.222-2.1-13.418-0.684C118.717,124.775,122.814,127.483,127.171,126.02z"/>
	<path fill="#E84E1B" d="M164.015,131.703c-0.051-0.177-0.189-0.263-0.454-0.225c-2.345,3.472-6.623,6.533-12.509,5.688
		c-2.727-0.395-4.229-2.606-6.598-2.73C146.401,144.498,163.653,140.152,164.015,131.703z"/>
	<path fill="#E84E1B" d="M115.344,146.032c5.371,0.476,13.415-3.43,12.281-8.416c-2.564,0.316-2.838,2.574-4.775,3.866
		c-1.658,1.107-4.374,2.122-7.052,2.048c-3.39-0.094-5.144-2.278-7.278-4.318C109.415,142.597,111.485,145.69,115.344,146.032z"/>
	<path fill="#E84E1B" d="M133.767,146.49c2.056-1.803,3.052-2.955,5.912-1.141C139.483,140.941,131.359,141.635,133.767,146.49z"/>
	<path fill="#E84E1B" d="M141.726,168.55c5.496,1.896,10.877-5.062,6.37-9.326c-1.165-1.102-3.335-1.589-5.688-1.139
		C136.551,159.208,137.438,167.069,141.726,168.55z"/>
</g>
</svg>
