<?xml version="1.0" encoding="utf-8"?>
<!-- Generator: Adobe Illustrator 15.1.0, SVG Export Plug-In . SVG Version: 6.00 Build 0)  -->
<!DOCTYPE svg PUBLIC "-//W3C//DTD SVG 1.1//EN" "http://www.w3.org/Graphics/SVG/1.1/DTD/svg11.dtd">
<svg version="1.1" id="Ebene_1" xmlns="http://www.w3.org/2000/svg" xmlns:xlink="http://www.w3.org/1999/xlink" x="0px" y="0px"
	 width="283.46px" height="283.46px" viewBox="0 0 283.46 283.46" enable-background="new 0 0 283.46 283.46" xml:space="preserve">
<g>
	<path fill="#BD1622" d="M147.153,126.567c-0.082-1.736-2.758-5.486-3.812-6.985c-4.593-6.544-10.079-11.917-17.566-14.817
		c-0.164,0.047-0.418,0.006-0.424,0.212c3.149,2.967,3.467,8.843,1.481,13.334c-3.771,8.533-13.86,17.608-8.678,29.209
		c2.371,5.308,7.112,9.487,15.028,9.524c0.017-8.256,3.286-12.555,6.984-17.992C141.88,136.535,147.33,130.302,147.153,126.567z"/>
	<path fill="#BD1622" d="M162.604,128.894c-4.498-5.332-8.976-10.373-15.663-12.487c-0.165,0.046-0.417,0.005-0.423,0.211
		c3.371,3.102,3.507,9.713,1.271,14.605c-4.134,9.033-15.12,16.967-11.643,30.69c0.841,3.319,3.278,7.483,5.715,9.524
		c4.749,3.979,13.876,5.383,19.686,2.541c5.25-2.569,10.74-9.271,11.642-15.664c0.535-3.805-0.127-8.519-0.849-11.219
		C170.585,140.505,166.792,133.86,162.604,128.894z M159.852,170.804c-1.513,0.58-3.998,1.27-5.503-0.424
		c0.597-2.027,2.939-2.551,4.443-3.599c5.207-3.625,10.035-10.262,8.469-19.686C170.595,155.271,166.767,168.152,159.852,170.804z"
		/>
</g>
</svg>
