<?xml version="1.0" encoding="utf-8"?>
<!-- Generator: Adobe Illustrator 15.1.0, SVG Export Plug-In . SVG Version: 6.00 Build 0)  -->
<!DOCTYPE svg PUBLIC "-//W3C//DTD SVG 1.1//EN" "http://www.w3.org/Graphics/SVG/1.1/DTD/svg11.dtd">
<svg version="1.1" id="Ebene_1" xmlns="http://www.w3.org/2000/svg" xmlns:xlink="http://www.w3.org/1999/xlink" x="0px" y="0px"
	 width="283.46px" height="283.46px" viewBox="0 0 283.46 283.46" enable-background="new 0 0 283.46 283.46" xml:space="preserve">
<path fill="#BE1622" d="M122.29,144.944c0.84,3.321,3.277,7.484,5.715,9.526c4.748,3.979,13.875,5.382,19.683,2.541
	c5.25-2.57,10.742-9.271,11.644-15.664c0.535-3.805-0.129-8.518-0.849-11.219c-1.754-6.592-5.547-13.236-9.735-18.203
	c-4.498-5.333-8.975-10.374-15.663-12.487c-0.166,0.046-0.418,0.005-0.424,0.211c3.371,3.102,3.508,9.712,1.27,14.604
	C129.797,123.289,118.811,131.223,122.29,144.944z M144.936,149.814c5.207-3.625,10.035-10.262,8.467-19.686
	c3.334,8.173-0.491,21.055-7.407,23.708c-1.513,0.578-3.999,1.27-5.501-0.424C141.088,151.385,143.432,150.861,144.936,149.814z"/>
</svg>
