<?xml version="1.0" encoding="utf-8"?>
<!-- Generator: Adobe Illustrator 15.1.0, SVG Export Plug-In . SVG Version: 6.00 Build 0)  -->
<!DOCTYPE svg PUBLIC "-//W3C//DTD SVG 1.1//EN" "http://www.w3.org/Graphics/SVG/1.1/DTD/svg11.dtd">
<svg version="1.1" id="Ebene_1" xmlns="http://www.w3.org/2000/svg" xmlns:xlink="http://www.w3.org/1999/xlink" x="0px" y="0px"
	 width="283.46px" height="283.46px" viewBox="0 0 283.46 283.46" enable-background="new 0 0 283.46 283.46" xml:space="preserve">
<g>
	<path fill="#BD1622" d="M139.188,127.28c-0.082-1.712-2.722-5.413-3.76-6.892c-4.533-6.457-9.947-11.759-17.334-14.619
		c-0.162,0.046-0.412,0.005-0.418,0.209c3.107,2.928,3.421,8.725,1.462,13.156c-3.721,8.42-13.677,17.375-8.562,28.821
		c2.339,5.234,7.017,9.361,14.826,9.396c0.018-8.145,3.244-12.385,6.893-17.75C133.985,137.115,139.36,130.965,139.188,127.28z"/>
	<path fill="#BD1622" d="M152.759,115.792c2.048,2.331,2.736,7.328,1.255,10.859c5.589,6.526,10.065,14.161,12.53,23.808
		c1.67-2.715,2.928-6.72,2.506-10.858c0.691,1.758,0.849,4.823,0.628,7.101c-0.47,4.854-3.494,6.939-2.925,11.694
		c4.365-4.035,7.816-8.483,6.476-16.707C171.496,131.07,161.469,119.068,152.759,115.792z"/>
	<path fill="#BD1622" d="M154.432,129.576c-4.438-5.261-8.854-10.235-15.453-12.321c-0.163,0.046-0.412,0.005-0.418,0.209
		c3.326,3.06,3.46,9.583,1.253,14.41c-4.077,8.914-14.919,16.743-11.486,30.282c0.829,3.275,3.233,7.383,5.639,9.398
		c4.686,3.926,13.693,5.311,19.423,2.506c5.179-2.535,10.598-9.146,11.484-15.455c0.528-3.754-0.125-8.402-0.836-11.068
		C162.308,141.032,158.565,134.476,154.432,129.576z M151.716,170.927c-1.491,0.572-3.942,1.252-5.43-0.418
		c0.59-2,2.901-2.518,4.387-3.551c5.136-3.576,9.898-10.125,8.354-19.422C162.316,155.601,158.542,168.31,151.716,170.927z"/>
</g>
</svg>
