<?xml version="1.0" encoding="utf-8"?>
<!-- Generator: Adobe Illustrator 15.1.0, SVG Export Plug-In . SVG Version: 6.00 Build 0)  -->
<!DOCTYPE svg PUBLIC "-//W3C//DTD SVG 1.1//EN" "http://www.w3.org/Graphics/SVG/1.1/DTD/svg11.dtd">
<svg version="1.1" id="Ebene_1" xmlns="http://www.w3.org/2000/svg" xmlns:xlink="http://www.w3.org/1999/xlink" x="0px" y="0px"
	 width="283.46px" height="283.46px" viewBox="0 0 283.46 283.46" enable-background="new 0 0 283.46 283.46" xml:space="preserve">
<g>
	<path fill="#E84E1B" d="M185.082,139.012c-1.521-22.29-17.134-36.787-38.426-39.148c3.07-0.639,6.081-1.331,7.975-3.143
		c-3.823,1.252-7.758,2.391-12.084,3.143c1.99-1.557,4.302-2.792,5.801-4.834c-2.604,1.101-4.236,3.175-7.006,4.108
		c2.198-2.312,5.485-3.538,6.763-6.767c-3.696,2.582-6.953,5.608-11.357,7.492c0.617-1.077,1.96-1.425,2.419-2.661
		c-5.652,4.397-13.366,6.064-19.094,10.151c-10.19,7.271-18.682,19.772-19.093,36.732c-0.602,24.953,16.853,42.824,39.878,43.985
		c13.564,0.687,23.876-5.847,31.174-13.293C179.844,166.807,186.179,155.106,185.082,139.012z M171.791,170.669
		c-9.635,11.148-26.078,18.076-42.536,11.845c-12.61-4.777-23.664-16.319-24.891-34.318c-0.953-13.955,4.973-25.079,10.875-31.898
		c3.142-3.631,6.914-7.09,11.842-9.67c4.608-2.411,10.406-4.424,16.917-4.834c17.479-1.089,30.567,11.785,35.523,23.685
		C186.597,142.46,180.583,160.494,171.791,170.669z"/>
	<path fill="#E84E1B" d="M147.623,111.222c-0.31-0.014-0.334-0.311-0.728-0.243c-0.806,1.903,0.563,3.587,0.728,5.318
		c-7.134,5.366-5.491,24.941,5.072,24.168c4.436-0.325,5.854-4.777,7.253-8.702c0.736,0.229,0.759,1.175,1.69,1.207
		c-0.268-1.021-1.043-1.534-1.207-2.659c0.988,0.299,1.686,0.894,2.898,0.969c0-1.691-2.267-1.116-2.658-2.416
		c-0.019-1.594,0.115-3.337-0.24-4.592c1.011-0.009,3.343,1.291,3.624-0.242C156.921,121.417,149.863,118.727,147.623,111.222z
		 M149.558,137.804c-5.963-3.149-4.688-14.164-1.212-19.333c2.589,4.335,5.536,8.317,9.911,10.876
		C158.064,134.567,154.989,140.677,149.558,137.804z M158.981,123.787c-0.062,1.312-0.39,2.353-0.242,3.866
		c-3.093-1.578-5.053-4.293-7.008-7.006C153.573,121.303,155.992,123.47,158.981,123.787z"/>
	<path fill="#E84E1B" d="M136.263,115.332c0.413-1.038,0.822-2.08,0.726-3.629c-0.243,0-0.483,0-0.726,0
		c-1.176,1.25-2.296,2.519-3.625,3.629c-3.465,2.885-8.454,3.321-12.81,5.315c1.375,0.963,3.902,0,5.561-0.242
		c-0.253,1.277-0.475,2.591-0.483,4.106c-1.148,0.868-2.882,1.147-3.383,2.658c1.431,0.22,2.361-1.332,3.139-0.965
		c-0.402,0.804-1.105,1.309-1.448,2.177c0.649,0.832,1.07-1.349,1.692-0.485c-0.827,7.081,2.741,11.616,8.94,10.632
		C143.412,137.012,141.553,120.309,136.263,115.332z M127.081,119.919c1.866-0.552,3.673-1.161,5.075-2.175
		c0.62-0.01,0.296,0.182,0.242,0.483c-1.659,1.808-3.393,3.539-5.317,5.075C126.662,122.715,127.344,121.16,127.081,119.919z
		 M129.254,136.113c-1.696-1.156-3.841-6.228-2.417-10.635c0.45-1.394,3.082-2.324,4.593-3.623c1.744-1.505,3.166-3.403,4.106-4.832
		c2.179,3.559,5.642,12.324,2.417,17.155C136.5,136.36,132.01,137.992,129.254,136.113z"/>
	<path fill="#E84E1B" d="M134.088,133.697c2.097,0.035,2.444-3.614,1.448-5.558C132.25,127.092,131.214,133.648,134.088,133.697z"/>
	<path fill="#E84E1B" d="M151.489,129.588c-1.88,0.57-2.063,5.412,0.242,5.316C153.789,134.818,154.175,128.77,151.489,129.588z"/>
	<path fill="#E84E1B" d="M169.373,136.596c1.7-0.457,1.549-4.472-1.207-3.384C165.846,134.127,167.44,137.116,169.373,136.596z"/>
	<path fill="#E84E1B" d="M112.821,135.629c0.342-2.121-2.46-2.057-2.417-0.242C110.82,136.367,112.21,136.608,112.821,135.629z"/>
	<path fill="#E84E1B" d="M108.473,142.156C115.34,140.891,105.056,135.875,108.473,142.156L108.473,142.156z"/>
	<path fill="#E84E1B" d="M136.746,145.539c2.185-1.912,3.243-3.141,6.287-1.209C142.945,139.842,134.025,140.505,136.746,145.539z"
		/>
	<path fill="#E84E1B" d="M112.094,149.648c1.359-0.382,2.235-2.834,1.211-4.593C108.685,141.622,106.927,151.085,112.094,149.648z
		 M111.854,147.712c-0.562,0.076-0.924-0.039-1.207-0.241c-0.057-0.863,0.348-1.261,1.207-1.209
		C112.187,146.572,112.187,147.404,111.854,147.712z"/>
	<path fill="#E84E1B" d="M157.289,148.917c-1.588,4.029,5.381,3.793,3.625-0.238C159.943,147.602,158.289,148.171,157.289,148.917z
		 M158.498,151.095c-0.346-0.323-0.346-1.37,0-1.69c0.855-0.13,1.246,0.205,1.45,0.726
		C159.917,150.903,159.399,151.194,158.498,151.095z"/>
	<path fill="#E84E1B" d="M168.888,149.648c-1.071,0.428-1.656,1.966-0.725,2.9C170.916,155.298,172.667,148.136,168.888,149.648z"/>
	<path fill="#E84E1B" d="M135.781,154.962c-1.97,1.937-2.769,6.568-1.935,10.151c5.286,0.677,12.69,1.535,17.643,0.968
		C154.444,155.809,142.227,148.621,135.781,154.962z M135.537,163.906c-2.078-9.056,9.138-11.794,12.81-6.044
		c-1.245,0.187-3.701,0.218-4.35,1.692c-2.598-1.69-4.853-0.329-6.043,1.691C137.395,162.194,137.371,164.398,135.537,163.906z
		 M138.439,163.906c0.62-2.037,1.202-4.117,4.35-3.625c1.024,0.271-1.101,1.219-0.725,2.415c2.211-0.147,2.837-3.911,6.282-3.623
		c1.556,0.698,1.249,3.263,1.694,5.071C146.794,164.396,142.462,163.677,138.439,163.906z"/>
	<path fill="#E84E1B" d="M170.58,154.962c-2.76,0.756-2.236,4.812,0.483,4.832C174.106,159.823,174.658,153.851,170.58,154.962z
		 M170.58,158.105c-0.738-0.756-0.365-2.193,1.211-1.934c0.137,0.508,0.6,0.688,0.481,1.449
		C171.871,157.943,171.462,158.259,170.58,158.105z"/>
	<path fill="#E84E1B" d="M152.939,175.264c0.404,0.319,0.809,0.639,1.691,0.481c0.414-0.392,0.601-1.012,0.482-1.931
		C154.018,173.27,152.529,173.585,152.939,175.264z"/>
	<path fill="#E84E1B" d="M151.005,176.955c-3.381,1.514,1.328,5.748,2.897,2.901C154.854,178.134,153.251,175.949,151.005,176.955z
		 M152.212,179.614c-1.89-0.139-1-2.843,0.727-1.692C153.052,178.843,152.835,179.433,152.212,179.614z"/>
</g>
</svg>
