<?xml version="1.0" encoding="utf-8"?>
<!-- Generator: Adobe Illustrator 15.1.0, SVG Export Plug-In . SVG Version: 6.00 Build 0)  -->
<!DOCTYPE svg PUBLIC "-//W3C//DTD SVG 1.1//EN" "http://www.w3.org/Graphics/SVG/1.1/DTD/svg11.dtd">
<svg version="1.1" id="Ebene_1" xmlns="http://www.w3.org/2000/svg" xmlns:xlink="http://www.w3.org/1999/xlink" x="0px" y="0px"
	 width="283.46px" height="283.46px" viewBox="0 0 283.46 283.46" enable-background="new 0 0 283.46 283.46" xml:space="preserve">
<g>
	<path fill="#E84E1B" d="M172.312,118.985c-2.412,1.789-4.986,3.602-6.734,5.555c-3.469,3.877,0.278,8.748-0.336,15.318
		c-1.094-1.209-2.063-2.535-2.861-4.039c0.341-0.604,0.884-2.383-0.338-2.527c-0.771-0.09-1.807,1.861-2.354,2.693
		c-2.513,3.799-5.894,8.106-10.942,9.093c1.531-2.961,5.434-4.438,6.565-7.239c-3.229,1.99-7.245,3.193-8.417,7.239
		c-0.775-0.207-1.493,0.516-2.021,0c1.332-2.931,4.181-5.168,6.398-7.071c0.729-0.623,1.874-1.303,1.854-2.357
		c-3.224,1.492-5.976,4.354-8.418,6.061c1.533-3.855,5.899-5.768,7.236-9.258c-1.861,0.551-2.869,1.955-4.376,2.861
		c0-0.17,0.138-0.201,0.169-0.338c1.338-2.164,3.961-3.035,5.725-4.879c1.674-1.754,2.176-4.094,3.535-6.23
		c3.789-5.961,10.825-9.76,13.635-16.16c-1.299,0.187-2.389,1.468-3.367,2.356c-3.145,2.856-6.568,5.979-9.428,8.417
		c0.146-4.08,2.307-7.878,1.348-11.951c-2.305,0.318-2.387,3.281-2.863,5.219c-0.551,2.251-0.891,4.767-1.008,7.068
		c-0.049,0.961,0.184,2.182,0,3.031c-0.201,0.924-1.221,2.053-1.852,3.367c-1.934,4.02-5.242,5.965-7.576,8.752
		c-1.393,1.666-1.709,3.561-2.523,5.725c-0.689,1.824-2.656,5.848-0.17,7.406c1.609,0.098,6.525,0.363,7.744,0
		c4.113-1.227,7.244-6.68,9.932-9.09c1.109,3.213,3.402,5.239,4.713,8.249c-7.998,2.832-15.981,5.676-26.598,5.893
		c0.084,0.59,0.252,1.096,0.169,1.852c9.28-0.407,17.575-2.477,24.577-4.883c0.927-0.315,2.011-1.147,3.031-0.672
		c-7.9,3.379-16.477,6.08-27.608,6.227c-0.618,0.615-1.3,1.171-2.019,1.685c11.915-0.092,20.887-3.129,30.299-5.723
		c0.188,0.934,0.611,1.633,0.673,2.692c-6.513,0.73-12.033,3.414-16.16,6.732c-4.153,3.344-8.138,7.492-9.09,13.975
		c1.353,0.17,0.935-1.426,1.853-1.686c0.256,0.646-1.144,1.062-0.17,1.346c0.822,0.031,1.082-1.189,0.676-1.852
		c0.746,0.078,0.891-0.455,1.347-0.672c0.052-0.613-0.026-1.096-0.168-1.515c0.673-0.112,1.153-0.42,1.683-0.676
		c0.325-0.383,0.002-1.412,0.168-1.515c1.246-0.27,2.354-0.68,2.19-2.356c1.435,0.09,1.838-0.854,2.019-2.021
		c1.487,0.086,2.312-0.49,2.524-1.683c0.801,0.07,1.216-0.243,1.853-0.338c0.416-0.426,0.562-1.121,0.842-1.682
		c1.572,0.223,2.414-0.279,2.693-1.349c1.327,0.562,2.817-0.072,3.198-1.01c0.438,0.346,0.983,0.588,1.853,0.504
		c0.863-1.227,2.539-0.523,3.535-1.01c0.354,2.848,0.137,6.064,0,9.092c-0.121,2.662-0.681,5.42,0.168,7.406
		c1.608-1.191,1.495-3.75,1.852-5.891c0.367-2.215,0.877-4.572,1.011-6.902c0.466-8.219-1.819-14.441-5.051-18.518
		c1.76-3.723-0.302-7.59-0.507-10.773c-0.32-5.029,4.32-7.092,7.072-9.594c1.172-1.066,2.295-2.213,3.366-3.199
		c1.202-1.105,2.781-2,3.199-3.535C177.433,115.475,174.681,117.223,172.312,118.985z"/>
	<path fill="#E84E1B" d="M138.476,136.491c1.391-1.652,1.886-4.312,2.188-6.73c1.074-8.602-0.975-17.105-3.365-22.895
		c-0.168,0-0.337,0-0.505,0c-0.003,0.335-0.46,0.214-0.338,0.672C136.763,116.721,139.955,126.059,138.476,136.491z"/>
	<path fill="#E84E1B" d="M130.228,161.91c-4.446-2.859-11.642-6.496-17.676-6.732c0.474-1.66,0.953-3.311,1.853-4.545
		c4.572,2.609,10.109,4.256,16.327,5.219c-0.127-0.969,0.764-0.92,1.01-1.516c-3.27-0.168-6.179-1.049-8.92-2.021
		c-2.705-0.957-5.642-1.396-7.912-3.028c0.191-0.593,0.37-1.203,0.841-1.517c3.912,3.776,10.279,5.096,17.171,5.892
		c0.367-0.699,1.453-0.679,1.515-1.683c-7.523-0.334-13.785-1.926-18.012-5.556c1.475-2.508,2.676-4.655,3.871-6.903
		c1.408-2.646,3.678-6.605,3.367-11.277c-0.238-3.582-1.604-7.801-3.03-11.109c-0.731-1.697-4.095-8.307-6.061-8.082
		c-1.67,0.193,0.476,3.839,1.011,5.218c0.706,1.826,1.473,3.256,1.852,4.545c1.227,4.172,2.623,9.24,2.188,13.133
		c-0.517,4.611-3.708,9.217-5.892,13.634c-3.18,6.43-5.419,13.707-4.714,23.397c0.203,2.785,1.035,6.069,2.862,7.24
		c-0.734-5.214-1.426-13.248,0-18.854c0.566,0.623,1.337,0.762,2.189,0.334c0.106,1.387,1.918,1.676,2.859,0.844
		c0.09,0.812,0.728,1.068,1.18,1.515c0.659-0.015,1.05-0.298,1.515-0.504c0.317,0.524,0.429,1.256,1.179,1.348
		c0.848,0.117,1.156-0.305,1.684-0.508c-0.148,1.103,0.5,1.407,1.01,1.853c0.814,0.145,1.19-0.154,1.684-0.336
		c0.176,0.666,0.406,1.276,0.84,1.686c0.671,0.375,1.608-0.104,1.853,0c0.064,1.35,1.238,2.064,2.693,1.514
		c0.034,1.193,1.088,1.713,2.188,1.348c-0.16,1.002,0.313,1.371,0.676,1.853c0.688,0.174,1.622-0.271,1.85,0
		c-0.254,0.606,0.036,1.479,0.338,2.021c0.277,0.395,0.98,0.364,1.684,0.336c-0.436,0.6-0.02,1.512,0.336,1.852
		c1.982-0.242,1.835,1.646,3.199,2.02C139.921,168.43,135.058,165.018,130.228,161.91z"/>
	<path fill="#E84E1B" d="M142.852,136.155c-0.253-0.475-0.297-1.162-0.336-1.852c0.45-0.84,1.622-0.959,2.019-1.852
		c-0.32-1.025-0.606-2.086-0.504-3.537c0.58-1.264,2.137-1.207,2.357-2.523c0.186-1.113-1.137-3.471-1.18-5.385
		c-0.021-0.924,0.444-1.41,0-2.359c-1.572,1.531-1.78,5.084-1.011,7.576c-0.562,0.729-1.393,1.186-1.852,2.02
		c1.018,2.596-0.946,4.328-1.01,5.723C141.296,134.846,141.832,136.17,142.852,136.155z"/>
	<path fill="#E84E1B" d="M132.416,133.797c1.439,1.762,1.658,4.738,2.694,6.9c1.425,0.307,1.388-0.854,1.852-1.514
		c0.547,1.023,0.386,2.758,1.851,2.861c-0.412-2.223-0.879-4.395-2.019-5.891c-0.781-0.107-1.042,0.305-1.347,0.672
		c-1.057-2.252-1.651-4.969-3.535-6.395c-0.896,0.391-0.381,2.201-1.348,2.523c-1.088-1.043-0.854-3.41-2.693-3.703
		c0.881,2.936,2.246,5.385,4.041,7.408C132.08,135.706,131.489,133.991,132.416,133.797z"/>
	<path fill="#E84E1B" d="M129.722,145.75c1.33,0.371,2.859,1.383,4.545,0.842c0.045-0.891-0.891-1.685-0.336-2.523
		c2.01,0.348,3.297,1.416,5.386,1.682c-1.604-2.043-4.095-3.199-6.565-4.375c-0.814,0.615-0.697,1.837-0.336,2.861
		c-1.455-0.4-3.867-1.016-4.545,0.504c0.074,0.576,0.383,1.516,0,2.021c-1.997,0.051-3.501-0.285-5.218,0.17
		C125.067,147.623,131.361,149.957,129.722,145.75z"/>
	<path fill="#E84E1B" d="M141.505,148.274c-1.414-1.076-5.283-1.127-6.229,0.336c-0.807,1.257,0.221,2.175,0,4.043
		c-1.096,1.091-2.252,2.123-3.701,2.859c0.82,2.577-1.4,3.373-2.189,4.881c2.055-0.188,3.098-1.39,4.713-2.019
		c-0.428-2.865,3.605-2.862,4.039-4.715c0.268-1.137-1.043-2.156-0.672-3.365C138.607,149.416,140.713,149.501,141.505,148.274z"/>
</g>
</svg>
