<?xml version="1.0" encoding="utf-8"?>
<!-- Generator: Adobe Illustrator 15.1.0, SVG Export Plug-In . SVG Version: 6.00 Build 0)  -->
<!DOCTYPE svg PUBLIC "-//W3C//DTD SVG 1.1//EN" "http://www.w3.org/Graphics/SVG/1.1/DTD/svg11.dtd">
<svg version="1.1" id="Ebene_1" xmlns="http://www.w3.org/2000/svg" xmlns:xlink="http://www.w3.org/1999/xlink" x="0px" y="0px"
	 width="283.46px" height="283.46px" viewBox="0 0 283.46 283.46" enable-background="new 0 0 283.46 283.46" xml:space="preserve">
<g>
	<path fill="#BE4F3C" d="M151.503,154.974c-0.592-1.252-1.562-2.021-2.725-2.01c-3.259,0.041-4.9-2.76-6.685-5.805
		c-0.95-1.621-2.319-1.662-3.244-0.9c-1.452-2.539-5.247-1.979-4.478,1.344c0.029,0.126,0.068,0.243,0.1,0.368
		c-0.703-0.534-1.579-0.728-2.291-0.438c-1.204,0.489-1.611,2.008-1.16,3.479c0.041,0.186,0.065,0.376,0.093,0.562
		c0.091,0.633,0.229,1.198,0.411,1.827c0.384,1.319,1.215,2.423,2.148,3.322c0.847,0.817,2.316,1.062,3.035,0.252
		c0.432-0.483,0.79-0.978,1.062-1.501c1.101,1.628,2.401,3.133,3.925,4.562c4.374,4.098,9.408,6.848,12.233,12.81
		c1.634,3.446,5.927,1.796,4.46-1.812C156.194,165.634,153.992,160.244,151.503,154.974z"/>
	<path fill="#BE4F3C" d="M145.651,133.911c-0.985-0.549-2.055-0.393-2.856,0.149c-0.082,0.054-0.143,0.126-0.213,0.189
		c-0.851-1.122-1.7-2.244-2.549-3.366c-1.723-2.276-4.788-1.236-4.301,1.745c0.682,4.175,2.838,6.345,5.465,9.25
		c0.782,0.866,1.584,1.032,2.24,0.77c-0.104,1.723,0.994,3.764,2.882,3.57c2.387-0.242,3.971,0.546,5.641-1.717
		c0.644-0.875,0.498-2.557-0.246-3.547C150.044,138.738,147.969,135.198,145.651,133.911z"/>
	<path fill="#993017" d="M164.526,161.583c0.192-1.146,0.17-2.555-0.438-3.693c-0.409-0.771-0.692-1.145-1.264-1.787
		c-0.098-0.109-0.203-0.215-0.304-0.32c-0.069-0.091-0.14-0.184-0.202-0.279c-0.919-1.319-2.518-1.7-3.529-0.818
		c-0.011,0.007-0.018,0.02-0.026,0.027c-0.693-0.234-1.414-0.157-1.99,0.342c-0.976,0.847-1.131,2.758-0.173,4.042
		c1.345,1.798,2.706,3.659,4.652,4.471C162.96,164.282,164.208,163.486,164.526,161.583z"/>
	<path fill="#993017" d="M150.401,173.451c-0.196-0.42-0.397-0.836-0.621-1.242c-0.78-1.429-2.618-1.612-3.528-0.819
		c-1.104,0.958-0.951,2.614-0.172,4.04c1.192,2.185,1.926,4.611,3.127,6.812c1.213,2.219,4.428,1.395,4.346-0.996
		c-0.074-2.151-0.441-4.688-1.678-6.611C151.445,173.962,150.928,173.605,150.401,173.451z"/>
	<path fill="#993017" d="M138.612,162.708c-1.646-0.564-3.299,0.31-4.565,0.451c-0.157,0.019-0.294,0.061-0.431,0.103
		c-0.764-0.479-1.512-1.001-2.229-1.58c-2.808-2.263-5.551,2.078-2.714,4.364c3.816,3.072,8.005,4.881,12.248,6.509
		c1.995,0.764,3.075-1.851,2.383-3.757C142.373,166.232,141.057,163.548,138.612,162.708z"/>
	<path fill="#BE4F3C" d="M177.525,161.617c0.739-0.746,1.042-2.193,0.658-3.431c-2.918-9.414-11.314-15.212-10.696-25.454
		c0.158-2.605-2.521-4.319-4.172-3.05c-0.875,0.673-2.147,0.821-3.168,1.172c-1.088,0.374-1.423,1.639-1.324,2.909
		c0.011,0.128-0.004,0.243,0,0.366c-1.399-0.809-2.79-1.481-4.069-1.991c-1.291-0.512-2.635,0.809-2.646,2.233
		c-0.032,4.247,1.165,10.64,6.062,10.158c0.777-0.076,1.461-0.337,2.062-0.726c0.998,3.086,2.189,6.067,3.688,8.95
		c0.988,1.906,3.235,2.871,4.328,1.031c0.176-0.297,0.334-0.593,0.479-0.887c0.996,2.031,1.9,3.857,3.072,5.467
		c-2.769-1.687-4.271,2.633-2.103,4.756c0.023,0.062,0.035,0.121,0.062,0.184c1.722,3.976,4.017,7.639,6.306,11.263
		c2.456-3.175,4.562-6.634,6.272-10.187C180.771,163.396,179.153,162.501,177.525,161.617z"/>
	<path fill="#BE4F3C" d="M161.813,179.458c-2.876,1.17-0.625,6.711,2.252,5.543C166.94,183.833,164.688,178.292,161.813,179.458z"/>
	<path fill="#993017" d="M108.932,133.598c-2.875,1.17-0.623,6.712,2.252,5.543C114.06,137.973,111.809,132.431,108.932,133.598z"/>
	<path fill="#993017" d="M132.855,120.98c0.679,1.199,1.692,1.874,2.831,1.736c3.199-0.386,5.03,2.269,7.021,5.152
		c1.06,1.536,2.407,1.434,3.258,0.564c1.623,2.409,5.307,1.44,4.291-1.832c-0.039-0.125-0.086-0.236-0.127-0.361
		c0.733,0.465,1.607,0.568,2.285,0.201c1.146-0.624,1.428-2.198,0.868-3.636c-0.055-0.184-0.094-0.374-0.135-0.559
		c-0.14-0.629-0.317-1.185-0.547-1.8c-0.479-1.293-1.384-2.32-2.369-3.129c-0.896-0.734-2.356-0.824-3,0.069
		c-0.387,0.536-0.7,1.069-0.926,1.627c-1.208-1.527-2.604-2.907-4.211-4.188c-4.615-3.674-9.774-5.916-13.016-11.634
		c-1.873-3.306-5.961-1.186-4.238,2.303C127.417,110.712,130.002,115.923,132.855,120.98z"/>
	<path fill="#993017" d="M173.08,174.449c-0.031-1.751-1.271-3.693-3.11-3.301c-2.323,0.498-3.942-0.128-5.405,2.332
		c-0.562,0.95-0.289,2.635,0.52,3.557c1.199,1.366,2.623,3.301,4.14,4.756c2.303-1.963,4.426-4.188,6.344-6.592
		c-0.077-0.072-0.149-0.141-0.228-0.214C174.501,174.196,173.703,174.113,173.08,174.449z"/>
	<path fill="#BE4F3C" d="M121.649,121.041c0.104,0.102,0.214,0.195,0.322,0.292c0.076,0.084,0.15,0.169,0.221,0.261
		c1.005,1.234,2.604,1.449,3.53,0.453c0.009-0.009,0.015-0.023,0.024-0.033c0.699,0.165,1.402,0.011,1.928-0.555
		c0.891-0.96,0.896-2.905-0.146-4.101c-1.46-1.673-2.943-3.406-4.919-4.021c-1.734-0.539-2.896,0.397-3.061,2.351
		c-0.1,1.179,0.033,2.597,0.717,3.684C120.731,120.107,121.038,120.452,121.649,121.041z"/>
	<path fill="#BE4F3C" d="M132.497,102.207c0.227,0.403,0.46,0.802,0.709,1.188c0.877,1.359,2.697,1.35,3.53,0.454
		c1.009-1.085,0.729-2.742-0.146-4.099c-1.164-1.801-2.017-3.811-3.098-5.681c-0.417,0.08-0.834,0.148-1.248,0.247
		c-1.139,0.271-2.259,0.609-3.367,0.98c0.275,2.015,0.848,4.233,2.081,5.872C131.433,101.799,131.968,102.104,132.497,102.207z"/>
	<path fill="#993017" d="M144.916,111.799c1.662,0.398,3.217-0.661,4.448-0.941c0.152-0.033,0.285-0.09,0.415-0.148
		c0.788,0.402,1.562,0.851,2.312,1.358c2.935,1.984,5.289-2.688,2.326-4.693c-3.989-2.699-8.244-4.08-12.538-5.271
		c-2.019-0.562-2.876,2.194-2.048,4.045C140.948,108.642,142.448,111.212,144.916,111.799z"/>
	<path fill="#993017" d="M127.291,142.8c1.438,0.666,2.856,1.201,4.153,1.58c1.308,0.38,2.524-1.098,2.426-2.535
		c-0.3-4.29-1.975-10.621-6.746-9.614c-0.758,0.159-1.408,0.496-1.97,0.953c-1.22-3.012-2.624-5.894-4.319-8.649
		c-1.119-1.818-3.402-2.554-4.33-0.58c-0.15,0.319-0.283,0.635-0.401,0.948c-1.138-1.945-2.169-3.694-3.445-5.194
		c2.851,1.41,3.991-3.113,1.694-5.025c-0.029-0.061-0.045-0.118-0.076-0.179c-1.371-2.627-2.998-5.077-4.7-7.46
		c-2.658,2.438-5.048,5.094-7.203,7.979c1.445,0.719,2.923,1.369,4.407,2.012c-0.668,0.832-0.854,2.323-0.38,3.533
		c3.601,9.195,12.301,14.158,12.491,24.565c0.047,2.646,2.812,4.093,4.334,2.635c0.809-0.771,2.046-1.057,3.021-1.52
		c1.039-0.494,1.27-1.806,1.073-3.078C127.299,143.042,127.305,142.927,127.291,142.8z"/>
	<path fill="#993017" d="M128.665,122.731c-2.733,1.484-0.09,6.842,2.645,5.356C134.042,126.601,131.399,121.246,128.665,122.731z"
		/>
	<path fill="#993017" d="M174.651,142.352c2.731-1.485,0.091-6.842-2.646-5.357C169.273,138.481,171.917,143.837,174.651,142.352z"
		/>
</g>
</svg>
