<?xml version="1.0" encoding="utf-8"?>
<!-- Generator: Adobe Illustrator 15.1.0, SVG Export Plug-In . SVG Version: 6.00 Build 0)  -->
<!DOCTYPE svg PUBLIC "-//W3C//DTD SVG 1.1//EN" "http://www.w3.org/Graphics/SVG/1.1/DTD/svg11.dtd">
<svg version="1.1" id="Ebene_1" xmlns="http://www.w3.org/2000/svg" xmlns:xlink="http://www.w3.org/1999/xlink" x="0px" y="0px"
	 width="283.46px" height="283.46px" viewBox="0 0 283.46 283.46" enable-background="new 0 0 283.46 283.46" xml:space="preserve">
<g>
	<path fill="#EBADCE" d="M161.397,107.741c-3.521,0-6.375,2.855-6.375,6.375v58.527c0,3.521,2.854,6.375,6.375,6.375
		s6.375-2.854,6.375-6.375v-58.527C167.772,110.596,164.917,107.741,161.397,107.741z"/>
	<polygon fill="#EBADCE" points="134.176,151.871 133.879,144.25 126.01,144.35 126.307,151.966 	"/>
	<polygon fill="#EBADCE" points="126.526,158.009 126.75,165.621 134.622,165.556 134.397,157.921 	"/>
	<polygon fill="#EBADCE" points="125.87,171.612 125.918,179.216 133.79,179.223 133.741,171.576 	"/>
	<polygon fill="#EBADCE" points="134.313,103.323 126.444,103.238 126.286,110.877 134.157,110.903 	"/>
	<polygon fill="#EBADCE" points="134.245,124.519 134.143,116.924 126.272,116.938 126.374,124.572 	"/>
	<polygon fill="#EBADCE" points="126.526,130.582 126.778,138.207 134.649,138.112 134.395,130.506 	"/>
</g>
</svg>
