<?xml version="1.0" encoding="utf-8"?>
<!-- Generator: Adobe Illustrator 15.1.0, SVG Export Plug-In . SVG Version: 6.00 Build 0)  -->
<!DOCTYPE svg PUBLIC "-//W3C//DTD SVG 1.1//EN" "http://www.w3.org/Graphics/SVG/1.1/DTD/svg11.dtd">
<svg version="1.1" id="Ebene_1" xmlns="http://www.w3.org/2000/svg" xmlns:xlink="http://www.w3.org/1999/xlink" x="0px" y="0px"
	 width="283.46px" height="283.46px" viewBox="0 0 283.46 283.46" enable-background="new 0 0 283.46 283.46" xml:space="preserve">
<g>
	<path fill="#97D1E8" d="M122.293,95.515c0.488,3.258,2.293,9.132,4.215,12.75c0.385,0.723,0.904,1.875,1.818,1.861
		c-1.27-3.967-4.295-12.641-6.254-15.168C122.145,95.144,122.221,95.33,122.293,95.515z"/>
	<path fill="#97D1E8" d="M132.331,91.519c-0.055-0.109-0.113-0.209-0.26-0.111c-0.748,5.891-1.447,12.62-0.512,18.723
		C133.163,104.781,132.598,97.384,132.331,91.519z"/>
	<path fill="#97D1E8" d="M116.825,100.708c2.152,3.654,5.064,7.195,7.414,9.969c0.801,0.943,1.541,2.382,2.857,2.308
		C123.836,108.509,120.616,103.948,116.825,100.708z"/>
	<path fill="#97D1E8" d="M151.509,133.197c-0.807-0.506-2.141,0.206-3.381,0.701c-0.914-0.742-2.049-0.967-3.229-1.083
		c-4.123-5.569-7.889-11.968-12.084-17.368c-1.162,0.578-2.465,1.095-3.385,1.777c1.889,6.768,3.773,13.535,5.729,20.332
		c-1.326,0.712-1.059,2.111-1.529,3.191c-1.26,0.383-2.057,0.963-2.566,1.668c-0.076,0.862,0.514,1.75,1.074,2.155
		c4.133-1.329,11.924-5.301,16.619-7.479C150.66,136.21,153.696,135.218,151.509,133.197z"/>
	<path fill="#6394A3" d="M166.921,161.085c-2.336-4.996-4.412-11.375-7.108-14.612c-2.502-3.001-6.565-3.87-9.803-4.065
		c-1.138-1.363-0.599-2.783-2.373-2.715c-2.046,0.078-7.59,4.296-9.742,4.74c-0.143,0.975,0.959,1.711,1.186,2.975
		c-3.195,3.982-4.893,9.192-1.064,15.713c4.67-2.049,10.035-4.608,14.795-6.106c2.867,4.081,4.662,9.694,6.33,14.276
		c-3.846,2.709-8.898,4.896-13.979,7.074c2.125,4.484,3.664,10.33,7.858,10.006c5.685-2.684,12.804-5.158,17.733-7.923
		c4.531-2.54,2.229-6.526-0.241-11.964C169.313,165.835,168.028,163.446,166.921,161.085z"/>
	<path fill="#6394A3" d="M158.033,170.97l0.387-0.237l-0.199-0.407c-1.758-3.609-3.521-7.684-5.389-12.455l-0.184-0.47l-0.469,0.188
		c-1.903,0.763-3.768,1.565-5.57,2.344c-2.648,1.141-5.387,2.32-8.285,3.389l-0.483,0.178l0.192,0.479
		c1.607,3.991,3.999,9.146,6.093,13.133l0.225,0.426l0.434-0.207c1.426-0.679,2.934-1.346,4.394-1.99
		C152.242,173.981,155.412,172.58,158.033,170.97z M144.791,176.219c-1.942-3.736-4.104-8.394-5.637-12.142
		c2.743-1.027,5.338-2.146,7.852-3.229c1.648-0.711,3.35-1.443,5.08-2.146c1.738,4.418,3.391,8.237,5.035,11.647
		c-2.488,1.478-5.465,2.794-8.349,4.069C147.455,175.003,146.095,175.606,144.791,176.219z"/>
</g>
</svg>
