<?xml version="1.0" encoding="utf-8"?>
<!-- Generator: Adobe Illustrator 15.1.0, SVG Export Plug-In . SVG Version: 6.00 Build 0)  -->
<!DOCTYPE svg PUBLIC "-//W3C//DTD SVG 1.1//EN" "http://www.w3.org/Graphics/SVG/1.1/DTD/svg11.dtd">
<svg version="1.1" id="Ebene_1" xmlns="http://www.w3.org/2000/svg" xmlns:xlink="http://www.w3.org/1999/xlink" x="0px" y="0px"
	 width="283.46px" height="283.46px" viewBox="0 0 283.46 283.46" enable-background="new 0 0 283.46 283.46" xml:space="preserve">
<g>
	<path fill="#6394A3" d="M187.364,123.099c-0.35-1.364-1.983-2.764-3.223-4.461c-2.285-3.131-4.146-5.85-6.524-9.158
		c-0.818-1.138-2.505-3.742-3.734-3.629c-1.42,0.133-2.025,1.378-1.932,2.105c0.186,1.46,1.653,2.6,2.428,3.672
		c0.957,1.325,1.676,2.418,2.547,3.633c-2.572,1.722-4.75,3.639-7.461,5.293c-1.498-1.097-3.894-6.234-5.488-6.867
		c-1.326-0.525-2.379,0.797-3.279,1.635c-0.326,1.123-0.016,2.561,0.609,4.154c-9.982,7.436-19.969,14.867-30.002,22.278
		c-0.111,1.236,0.783,2.789,1.32,3.914c-1.852,1.189-3.322,2.568-5.211,3.742c-0.043,0.471,0.262,1.114,0.441,1.698
		c-0.658,0.795-2.178,1.228-1.891,2.226c-0.84,0.438-1.359,1.039-2.133,1.512c-0.082,0.52,0.344,1.289,0.205,1.779
		c-3.943,3.053-17.068,12.303-20.748,15.482c1.238,0.46,8.949-5.611,21.266-14.73c0.613,0.092,0.986,0.666,1.664,0.627
		c0.582-0.668,1.59-1.123,2.172-1.789c0.707,0.795,1.654-0.521,2.332-0.92c0.719-0.123,0.961,0.717,1.742,0.469
		c1.484-1.274,3.148-2.458,4.857-3.621c1.178,0.611,1.953,2.035,3.293,2.324c10.305-7.407,20.068-15.083,30.475-22.439
		c1.041,0.275,2.15,1.711,3.646,1.412c0.811-0.162,2.287-1.396,2.248-2.344c-0.061-1.465-1.672-2.76-2.469-3.791
		c-1.008-1.309-1.818-2.471-2.664-3.592c2.416-1.801,4.936-3.549,7.303-5.372c0.896,0.914,1.709,2.327,2.705,3.711
		c0.674,0.937,1.924,3.013,2.863,3.394C186.352,126.107,187.667,124.279,187.364,123.099z M135.79,144.865
		c0.258,1.241,1.113,2.385,1.598,3.953c-1.432-1.768-2.811-3.636-3.824-6.24c2.119-1.486,4.113-3.033,6.277-4.497
		C138.836,140.367,135.161,141.862,135.79,144.865z M162.869,135.462c-0.658,0.474-1.816,1.458-2.369,1.592
		c-0.797,0.193-2.619-0.555-3.564-0.778c-3.631-0.858-7.197-1.569-10.539-2.653c1.576-1.095,3.031-2.25,4.697-3.303
		c0.75,0.4,1.502,1.154,2.186,2.17c0.586,0.87,1.027,2.773,2.029,2.486c1.373-0.396-0.02-2.363-0.527-3.126
		c-0.828-1.245-1.377-1.897-2.107-2.724c0.97-0.738,2.046-1.422,2.962-2.188c0.86,0.405,1.331,1.174,2.104,2.327
		c0.518,0.772,1.119,2.513,2.066,2.209c1.912-0.612-1.916-5.165-2.514-5.493c1.795-1.678,4.158-3.076,6.235-4.614
		c2.111,2.984,4.269,5.877,6.328,8.962C167.507,131.923,165.321,133.696,162.869,135.462z"/>
	<path fill="#97D1E8" d="M157.292,125.982c0.598,0.328,4.426,4.881,2.514,5.493c-0.947,0.304-1.549-1.437-2.066-2.209
		c-0.773-1.153-1.244-1.922-2.104-2.327c-0.916,0.766-1.992,1.449-2.962,2.188c0.73,0.826,1.279,1.479,2.107,2.724
		c0.508,0.763,1.9,2.729,0.527,3.126c-1.002,0.287-1.443-1.616-2.029-2.486c-0.684-1.016-1.436-1.77-2.186-2.17
		c-1.666,1.053-3.121,2.208-4.697,3.303c3.342,1.084,6.908,1.795,10.539,2.653c0.945,0.224,2.768,0.972,3.564,0.778
		c0.553-0.134,1.711-1.118,2.369-1.592c2.452-1.767,4.641-3.539,6.987-5.133c-2.062-3.085-4.217-5.978-6.328-8.962
		C161.451,122.906,159.085,124.304,157.292,125.982z"/>
</g>
</svg>
