<?xml version="1.0" encoding="utf-8"?>
<!-- Generator: Adobe Illustrator 15.1.0, SVG Export Plug-In . SVG Version: 6.00 Build 0)  -->
<!DOCTYPE svg PUBLIC "-//W3C//DTD SVG 1.1//EN" "http://www.w3.org/Graphics/SVG/1.1/DTD/svg11.dtd">
<svg version="1.1" id="Ebene_1" xmlns="http://www.w3.org/2000/svg" xmlns:xlink="http://www.w3.org/1999/xlink" x="0px" y="0px"
	 width="283.46px" height="283.46px" viewBox="0 0 283.46 283.46" enable-background="new 0 0 283.46 283.46" xml:space="preserve">
<g>
	<path fill="#6394A3" d="M182.807,147.147c-1.959-6.891-9.16-13.192-18.961-11.521c-4.08,0.697-8.177,3.779-10.32,6.961
		c-1.104,1.641-3.328,7.17-2.879,11.52c0.572,5.555,5.929,12.998,11.039,14.4C175.757,172.367,186.344,159.597,182.807,147.147z
		 M162.167,166.347c-4.437-1.514-9.492-8.469-9.601-14.16c-0.082-4.332,1.942-7.975,4.56-11.04c4.231,9.449,9.918,17.444,18,23.04
		C172.589,166.925,166.248,167.739,162.167,166.347z M159.287,141.867c6.844,4.757,11.387,11.813,14.881,19.919
		C167.721,156.63,162.721,150.033,159.287,141.867z M176.085,163.466c-3.94-9.577-9.521-17.519-16.561-24
		c3.594-2.899,10.389-3.12,14.4-0.96C181.625,142.652,184.684,158.389,176.085,163.466z"/>
	<path fill="#999999" d="M138.407,137.547c-4.586,0.479-9.049,3.714-7.92,9.6c1.363,7.116,12.377,6.26,14.64,0.96
		C147.408,142.765,143.821,136.982,138.407,137.547z M143.925,146.667c-1.202,5.775-10.427,5.303-11.278-0.24
		c-0.668-4.344,2.48-7.232,5.76-7.68C141.7,138.298,144.912,141.94,143.925,146.667z"/>
	<path fill="#999999" d="M137.926,139.707c-0.627,2.791-1.098,7.654,1.439,8.641C141.237,146.171,139.752,141.14,137.926,139.707z"
		/>
	<path fill="#999999" d="M174.167,161.787c-3.494-8.105-8.037-15.162-14.881-19.919C162.721,150.033,167.721,156.63,174.167,161.787
		z"/>
	<path fill="#97D1E8" d="M126.407,154.828c-0.094,0.627-0.123,1.316-0.48,1.68c3.516,2.966,8.887,4.072,12.24,7.199
		c-4.26-1.578-8.115-3.564-12.961-4.56c-1.477,4.444-4.23,7.608-6.959,10.8c5.701,1.82,12.658,6.184,20.16,6.721
		c5.896,0.422,10.914-2.135,9.119-7.92C145.182,161.187,132.559,158.371,126.407,154.828z"/>
	<path fill="#6394A3" d="M144.647,161.307c-4.129-3.694-12.127-6.522-18.24-9.12c-3.215-1.365-6.48-2.716-9.6-4.08
		c-4.242-1.854-8.688-4.586-13.682-3.84c-3.355,0.502-8.539,3.218-8.879,8.16c-0.172,2.486,1.355,5.4,2.16,6.72
		c3.281,5.386,10.658,8.952,17.039,11.761c7.201,3.166,13.58,6.797,20.641,8.16c3.551,0.684,8.746,0.695,11.039-0.24
		c2.658-1.084,5.672-4.771,4.801-9.6C149.487,166.791,146.735,163.175,144.647,161.307z M99.526,159.147
		c-1.16-1.452-2.615-4.228-2.4-6.479c0.33-3.444,4.541-6.144,8.641-5.76c4.477,0.418,10.736,4.006,15.119,5.76
		c1.445,0.578,4.533,0.812,3.121,2.881c-1.418,0.453-2.92-0.832-4.32-1.44c-4.375-1.901-9.695-4.385-14.879-4.8
		c1.457,3.189,5.473,3.835,8.639,5.04c3.252,1.237,6.408,2.96,9.6,3.84c-1.543,4.377-4.408,7.431-6.959,10.801
		C110.733,166.152,103.196,163.744,99.526,159.147z M138.407,176.667c-7.502-0.537-14.459-4.9-20.16-6.722
		c2.729-3.19,5.482-6.354,6.959-10.8c4.846,0.994,8.701,2.98,12.961,4.561c-3.354-3.127-8.725-4.234-12.24-7.199
		c0.357-0.363,0.387-1.055,0.48-1.68c6.152,3.543,18.775,6.358,21.119,13.92C149.321,174.533,144.303,177.089,138.407,176.667z"/>
	<path fill="#97D1E8" d="M117.186,134.017c2.244,1.047,6.785,0.883,9.516,0.255c5.398-1.241,12.322-6.144,17.971-9.641
		c2.971-1.839,5.955-3.727,8.869-5.489c3.963-2.396,8.756-4.45,11.026-8.961c1.527-3.029,2.298-8.832-1.543-11.96
		c-1.935-1.573-5.194-2.007-6.735-2.111c-6.293-0.425-13.461,3.544-19.437,7.138c-6.74,4.055-13.385,7.172-18.57,12.154
		c-2.607,2.506-5.613,6.742-6.172,9.157C111.465,127.355,112.739,131.943,117.186,134.017z M117.754,120.315
		c4.764-5.817,12.342-8.985,17.115-12.593c1.033,4.07,2.031,8.146,4.809,11.915c-3.605,3.386-7.451,5.388-11.199,7.957
		c4.488-0.935,8.492-4.685,12.941-5.847c0.09,0.501,0.637,0.924,1.096,1.361c-6.445,2.982-16.025,11.67-23.553,9.225
		C113.202,130.462,114.006,124.888,117.754,120.315z"/>
</g>
</svg>
