<?xml version="1.0" encoding="utf-8"?>
<!-- Generator: Adobe Illustrator 15.1.0, SVG Export Plug-In . SVG Version: 6.00 Build 0)  -->
<!DOCTYPE svg PUBLIC "-//W3C//DTD SVG 1.1//EN" "http://www.w3.org/Graphics/SVG/1.1/DTD/svg11.dtd">
<svg version="1.1" id="Ebene_1" xmlns="http://www.w3.org/2000/svg" xmlns:xlink="http://www.w3.org/1999/xlink" x="0px" y="0px"
	 width="283.46px" height="283.46px" viewBox="0 0 283.46 283.46" enable-background="new 0 0 283.46 283.46" xml:space="preserve">
<g>
	<path fill="#DB6CA6" d="M184.647,126.002c-0.894-10.919-8.606-19.989-21.935-19.054c-8.897,0.623-14.903,4.199-21.049,7.975
		c-6.233-3.929-12.658-8.035-22.598-7.754c-12.103,0.342-18.961,8.922-19.719,19.498c-1.13,15.774,6.475,28.006,13.295,36.334
		c8.176,9.987,19.689,14.61,28.803,21.049c8.535-5.475,18.375-9.725,25.92-16.84c4.628-4.363,9.166-10.916,12.185-17.06
		C182.837,143.466,185.431,135.608,184.647,126.002z M177.556,136.636c-0.475,4.918-3.08,9.625-5.762,13.516
		c-6.209,9.02-15.146,18.639-23.926,24.148c6.87-6.963,15.404-16.531,19.055-27.916c1.271-3.967,2.75-8.401,3.1-12.407
		c0.758-8.67-2.672-16.552-10.189-17.061c-4.961-0.334-7.853,1.7-11.521,3.102c5.318-4.81,17.26-8.737,23.707-2.436
		C176.147,121.618,178.314,128.812,177.556,136.636z"/>
</g>
</svg>
