<?xml version="1.0" encoding="utf-8"?>
<!-- Generator: Adobe Illustrator 15.1.0, SVG Export Plug-In . SVG Version: 6.00 Build 0)  -->
<!DOCTYPE svg PUBLIC "-//W3C//DTD SVG 1.1//EN" "http://www.w3.org/Graphics/SVG/1.1/DTD/svg11.dtd">
<svg version="1.1" id="Ebene_1" xmlns="http://www.w3.org/2000/svg" xmlns:xlink="http://www.w3.org/1999/xlink" x="0px" y="0px"
	 width="283.46px" height="283.46px" viewBox="0 0 283.46 283.46" enable-background="new 0 0 283.46 283.46" xml:space="preserve">
<g>
	<path fill="#E84E1B" d="M114.94,131.39c4.64-8.583-0.386-19.184-2.534-27.164c-0.899,4.148,1.073,8.899,1.342,13.731
		c0.251,4.521-0.296,8.072-1.939,11.642C113.597,129.366,113.82,131.449,114.94,131.39z"/>
	<path fill="#E84E1B" d="M137.628,110.345c-0.396,4.356-1.454,10.186-0.448,14.478C137.218,119.985,137.936,115.032,137.628,110.345
		z"/>
	<path fill="#E84E1B" d="M143.599,134.972c1.745,0.013,1.096-3.786,1.492-5.522c2.971,2.927,3.682-1.65,4.179-3.73
		c2.661,1.4,2.985-1.115,3.731-3.135c1.197-3.242,2.699-7.205,3.433-10c-0.017-0.182-0.045-0.354-0.299-0.299
		c-2.328,3.344-3.542,7.802-5.673,11.344c-2.127-3.125-3.948,0.936-4.028,3.432c-0.834-1.074-1.87-1.684-2.687-0.895
		C142.865,127.02,141.755,134.959,143.599,134.972z"/>
	<path fill="#E84E1B" d="M106.135,130.942c0.415,1.037,1.421,4.359,2.837,4.329c0.998-0.022,1.221-1.571,2.237-1.493
		c1.114,0.086,2.141,2.772,2.538,3.434c0.836,1.393,1.228,2.671,2.835,3.283c0.595,0.097,0.601-0.395,1.194-0.299
		c1.562,1.474,2.655,3.416,4.328,4.777c-0.984-3.193-1.533-6.824-5.074-7.464c-1.352-2.279-2.56-4.704-4.625-6.269
		c-1.229,0.266-1.697,1.289-2.837,1.643c-1.516-1.057-2.808-9.426-5.076-9.404c-1.557,0.016-1.156,2.986-1.343,4.18
		c0.481-0.514,0.609-1.381,1.046-1.939C104.988,127.336,105.326,128.92,106.135,130.942z"/>
	<path fill="#E84E1B" d="M135.687,132.137c0.564,1.211,0.444,2.504,0.747,3.73C138.782,135.652,138.416,131.137,135.687,132.137z"/>
	<path fill="#E84E1B" d="M105.539,142.287c1.952,0.922,7.492,8.934,7.462,1.643c1.566,0.82,2.19,2.586,3.881,3.283
		c-0.614-2.396-5.048-9.159-6.269-3.881c-2.05-1.049-5.558-7.458-7.463-3.284c-2.562-1.865-5.359-3.497-8.656-4.627
		c0.014,0.406-0.248,0.3,0,0.598c3.212,2.807,6.548,5.49,10.447,7.611C104.858,142.899,104.957,142.35,105.539,142.287z"/>
	<path fill="#E84E1B" d="M108.224,136.614c-0.407,0.637-0.795,1.293-1.044,2.09c0.734,0.858,1.529,1.654,2.389,2.389
		c0.35-1.602,2.352-2.922,2.239-4.18C111.604,134.654,109.983,137.597,108.224,136.614z"/>
	<path fill="#E84E1B" d="M140.913,148.705c0.617,3.725,0.381,9.56,3.433,11.344c-1.168-3.609-1.597-7.957-2.985-11.344
		C141.209,148.705,141.061,148.705,140.913,148.705z"/>
	<path fill="#E84E1B" d="M160.614,172.734c-0.573-0.599-1.797-1.594-2.836-1.492c-0.245,0.022-0.985,0.795-1.344,0.746
		c-1.317-0.179-3.64-6.433-5.972-3.583c-0.764-1.473-1.599-2.877-2.834-3.879c0.729,2.654,1.25,5.515,3.135,7.015
		c0.766,0.068,0.917-0.478,1.492-0.597c1.111,1.56,4.027,4.984,5.82,2.238c3.152,2.28,5.812,5.905,8.957,7.61
		C164.367,178.487,162.86,175.083,160.614,172.734z"/>
	<path fill="#E84E1B" d="M174.046,147.21c2.545-1.733,5.363-3.192,7.463-5.373c-6.217,2.74-11.664,6.26-17.463,9.253
		c-1.984,1.025-4.318,1.449-6.418,2.537c-4.131,2.141-6.5,5.621-10.149,7.611c-1.806,0.986-4.351,1.504-7.164,1.791
		c-3.909,0.401-8.625,1.27-11.194-0.297c3.877-0.154,7.332-0.729,9.851-2.24c-4.225,0.18-10.473,0.885-15.373,0.896
		c-1.529,0.004-3.46-0.041-4.329-1.195c3.705-1.486,9.297-1.902,13.434-2.835c1.36-0.307,3.083-0.54,3.582-1.644
		c-1.795-0.752-4.333-0.111-6.865,0c-3.034,0.137-6.319,0.301-9.254,0.149c-1.416-0.071-3.66,0.035-4.478-1.044
		c0.386-0.871,1.451-1.307,2.388-1.492c5.057-1.006,12.953,0.28,16.27-2.687c-4.703,0.571-11.353,1.282-16.867,1.043
		c3.672-1.837,8.447-1.935,12.539-3.433c2.964-1.086,5.896-2.312,8.208-3.731c0.792-0.485,2.132-0.778,1.94-1.492
		c-3.449,0.687-7.516,3.97-11.194,1.644c2.246-0.984,4.245-3.361,6.867-4.328c1.104-0.409,2.638-0.583,4.027-0.896
		c1.429-0.32,3.062-0.812,4.329-0.746c3.712,0.196,6.276,2.578,10.3,2.09c1.435-0.174,3.234-0.834,4.479-1.344
		c3.451-1.414,6.736-3.929,9.852-5.97c3.166-2.077,6.516-4.092,8.954-6.866c-3.153,1.177-5.729,3.72-8.807,4.479
		c-2.652-10.812,3.315-20.084,2.239-31.644c-0.189-0.007-0.207-0.19-0.448-0.147c0,0.147,0,0.298,0,0.446
		c-0.966,4.203-1.292,8.237-2.536,12.239c-1.953,6.277-5.202,13.578-2.091,21.045c-3.255,1.053-6.785,4.723-10.447,5.224
		c-4.776,0.655-9.976-2.7-14.926-1.343c-4.301,1.18-7.498,2.463-10.596,4.776c-1.7,1.269-4.806,3.716-1.345,4.925
		c-4.552,1.469-10.609,1.432-13.433,4.627c-0.099,0.797,0.115,1.277,0.448,1.643c-0.896,0.476-1.674,0.994-1.643,2.09
		c0.088,3.082,5.613,2.557,8.807,2.688c-2.305,0.231-4.045,1.029-5.374,2.238c-0.842-0.046-1.552,0.04-2.089,0.298
		c-0.411-1.06-1.693-1.694-2.986-1.044c-0.391-1.189-1.625-2.202-3.283-1.643c-0.568-0.924-1.19-1.795-2.985-1.492
		c0.047-0.842-0.767-0.823-1.043-1.344c0.391-3.438,0.618-7.043,2.089-9.402c-0.505-0.391-0.946-0.846-1.492-1.193
		c0.01,0.606-0.553,0.643-1.194,0.598c-1.139,4.347-0.774,9.022-1.94,12.984c-1.126,3.825-3.348,7.836-1.939,12.239
		c0.071-5.399,2.426-8.521,4.029-12.39c6.396,3.009,12.486,6.712,20.895,7.312c0.994,0.072,2.072-0.099,3.135,0
		c1.043,0.098,2.113,0.496,2.984,0.598c3.785,0.441,7.765,0.039,11.046-0.598c1.818-0.353,3.343-1.164,5.373-1.791
		c2.309-0.712,4.729-1.041,7.016-1.641c6.977-1.832,13.276-4.592,18.955-7.463c1.967,3.432,4.604,6.432,5.971,10.447
		c0.592,1.737,0.641,3.729,1.791,5.373C182.498,160.184,177.769,153.438,174.046,147.21z M106.733,157.21
		c0.064-0.334,0.735-0.061,1.043-0.147c0.065,0.283,0.322,0.373,0.3,0.746C107.447,157.791,107.361,157.231,106.733,157.21z
		 M109.717,158.405c0.935-0.37,1.777,0.331,1.94,1.195C111.057,159.154,110.068,159.099,109.717,158.405z M113,160.196
		c0.152-0.344,0.687-0.309,1.194-0.298c0.134,0.314,0.455,0.439,0.448,0.896C114.016,160.673,113.557,160.387,113,160.196z
		 M118.076,161.988c-0.806-0.238-1.807-0.283-2.238-0.896c0.604-0.141,1.512-0.264,2.089,0
		C117.819,161.548,118.184,161.532,118.076,161.988z M119.569,162.583c0.684-0.689,2.277,0.041,2.835,0.447
		C121.569,163.367,120.553,162.596,119.569,162.583z M123.897,163.48c0.713-0.823,3.064-0.842,3.581,0.148
		C126.45,164.009,124.83,163.694,123.897,163.48z M153.898,160.496c0.209-0.438,0.834-0.459,1.491-0.447
		C154.966,160.27,154.462,160.416,153.898,160.496z M158.375,159.152c0.227-0.521,0.862-0.628,1.642-0.597
		C159.529,158.811,159.024,159.053,158.375,159.152z M162.405,157.809c-0.2-0.651,1.025-1.16,2.091-1.045
		C164.026,157.339,162.98,157.339,162.405,157.809z M166.285,156.167c0.297-0.551,0.867-0.824,1.644-0.896
		C167.553,155.744,166.908,155.942,166.285,156.167z M169.869,154.525c-0.211-0.564,0.709-1.275,1.791-1.044
		C171.184,153.951,170.343,154.055,169.869,154.525z M171.958,152.436c-1.949-0.158-3.035,0.547-3.434,1.938
		c-1.543-0.345-2.911,0.363-3.434,1.492c-2.139-0.658-3.49,0.662-4.329,1.791c-2.158-0.693-3.378,0.65-4.478,1.493
		c-0.257-0.291-0.772-0.321-1.344-0.298c2.214-2.422,5.592-3.133,8.21-5.076c2.619-1.943,5.617-3.217,8.208-5.074
		c0.688,0.558,0.7,1.789,1.344,2.389C172.642,151.727,171.943,151.724,171.958,152.436z"/>
	<path fill="#E84E1B" d="M146.882,176.018c-0.529-2.329-1.928-6.782-4.328-4.479c-0.82-1.938-0.124-6.744-2.835-5.819
		c-0.268,3.059,1.099,10.967,4.028,7.761c0.578,1.762,1.025,3.65,2.239,4.775c0.489,0.252,0.953,0.089,1.491,0
		c1.672,4.101,3.458,8.084,5.672,11.644c-1.613-3.265-2.367-9.97-4.627-13.583C148.016,176.178,147.648,175.898,146.882,176.018z"/>
</g>
</svg>
