<?xml version="1.0" encoding="utf-8"?>
<!-- Generator: Adobe Illustrator 15.1.0, SVG Export Plug-In . SVG Version: 6.00 Build 0)  -->
<!DOCTYPE svg PUBLIC "-//W3C//DTD SVG 1.1//EN" "http://www.w3.org/Graphics/SVG/1.1/DTD/svg11.dtd">
<svg version="1.1" id="Ebene_1" xmlns="http://www.w3.org/2000/svg" xmlns:xlink="http://www.w3.org/1999/xlink" x="0px" y="0px"
	 width="283.46px" height="283.46px" viewBox="0 0 283.46 283.46" enable-background="new 0 0 283.46 283.46" xml:space="preserve">
<g>
	<path fill="#D2E7F4" d="M150.65,97.673c0.249,18.188,2.93,38.45,0.501,56.546c-0.08,0.589-2.183-1.515-2.104-2.103
		c2.431-18.101,0.938-36.375,0.688-54.569c-3.216-0.429-6.479-0.541-9.703-0.357c-8.774,0.499-16.668,2.912-23.997,6.636
		c-1.963,1.174-3.789,2.346-5.361,3.448c13.698,3.871,7.991,21.492,10.105,34.455c1.784,10.945,0.93,26.829-1.396,40.364
		c0.796,0.798,1.637,1.528,2.503,2.216c10.563,5.904,23.474,5.367,34.949,0.938c-0.309-12.09-2.19-24.123-1.896-36.227
		c0.317-13.112,1.964-25.318,1.418-38.464c-0.022-0.588,2.063-1.48,2.089-0.889c0.537,12.945-2.258,25.667-2.57,38.571
		c-0.299,12.248,2.873,25.007,3.211,37.236c1.447-0.588,1.521-1.815,2.91-2.522c-0.662-4.283-1.133-13.799-2.047-28.599
		c-2.205-35.641,0.822-41.232,9.67-48.549c-2.908-2.164-5.969-4.102-9.285-5.476C157.237,99.048,153.974,98.184,150.65,97.673z
		 M125.545,176.923c0.016-22.604,1.27-45.386-2.611-67.771c-0.102-0.587,0.811-0.719,0.912-0.136
		c3.894,22.466,4.25,49.312,4.233,71.995C128.08,181.605,125.544,177.509,125.545,176.923z M133.64,142.435
		c-0.103,0.583-1.017,0.475-0.914-0.111c1.83-10.427-2.208-24.831-2.91-35.239c-0.04-0.589,2.478,3.299,2.518,3.891
		C133.042,121.466,135.484,131.927,133.64,142.435z M135.991,183.453v-61.367c0-0.594,0.913-0.474,0.913,0.111l3.244,62.783
		C140.148,185.574,135.991,184.039,135.991,183.453z M146.697,171.162c-0.039,0.594-0.953,0.479-0.912-0.111
		c1.271-18.982-3.996-42.769-4.055-61.731c-0.002-0.594,2.354,4.46,2.355,5.045C144.145,133.33,147.97,152.175,146.697,171.162z"/>
</g>
</svg>
