<?xml version="1.0" encoding="utf-8"?>
<!-- Generator: Adobe Illustrator 15.1.0, SVG Export Plug-In . SVG Version: 6.00 Build 0)  -->
<!DOCTYPE svg PUBLIC "-//W3C//DTD SVG 1.1//EN" "http://www.w3.org/Graphics/SVG/1.1/DTD/svg11.dtd">
<svg version="1.1" id="Ebene_1" xmlns="http://www.w3.org/2000/svg" xmlns:xlink="http://www.w3.org/1999/xlink" x="0px" y="0px"
	 width="283.46px" height="283.46px" viewBox="0 0 283.46 283.46" enable-background="new 0 0 283.46 283.46" xml:space="preserve">
<g>
	<path fill="#E84E1B" d="M183.882,139.531c-1.51-22.131-17.01-36.525-38.15-38.871c3.047-0.632,6.04-1.317,7.919-3.117
		c-3.798,1.241-7.703,2.374-11.997,3.117c1.975-1.544,4.268-2.768,5.758-4.801c-2.584,1.099-4.205,3.154-6.958,4.081
		c2.186-2.292,5.446-3.51,6.717-6.717c-3.762,2.554-6.896,5.74-11.517,7.437c0.886-0.875,2.094-1.427,2.64-2.639
		c-5.793,4.481-13.178,5.953-18.954,10.077c-10.118,7.221-18.716,19.825-18.956,36.709c-0.344,23.979,16.163,42.247,39.589,43.432
		c13.581,0.685,23.625-5.722,30.951-13.198C178.689,167.119,184.98,155.637,183.882,139.531z M181.483,144.33
		c-0.5,12.514-5.467,21.111-11.997,28.072c-6.607,7.051-16.213,12.246-27.354,12.477c-12.647,0.266-21.307-4.797-27.832-11.756
		c-6.508-6.938-11.077-16.516-10.557-29.514c0.719-18.003,10.865-30.111,23.515-36.469c4.693-2.362,9.688-4.204,15.835-4.56
		c11.508-0.673,22.443,5.673,28.072,11.997C177.458,121.648,181.998,131.503,181.483,144.33z"/>
	<path fill="#E84E1B" d="M154.369,124.173c3.543-0.458,7.164-3.117,8.639-5.039c-3.299,0.821-5.738,2.097-9.598,2.4
		c-2.877,0.226-5.891-0.831-7.438,0.96C147.714,124.355,151.417,124.559,154.369,124.173z"/>
	<path fill="#E84E1B" d="M132.055,125.134c-4.855-0.856-10.061,3.743-15.835,1.441C119.379,130.326,131.127,129.595,132.055,125.134
		z"/>
	<path fill="#E84E1B" d="M145.972,136.891c4.585-1.058,8.744-2.014,12.715,0.237C157.969,131.391,146.457,131.892,145.972,136.891z"
		/>
	<path fill="#E84E1B" d="M159.408,135.212c1.875,0.396,3.51-1.424,5.76-1.441C163.82,132.125,159.843,133.597,159.408,135.212z"/>
	<path fill="#E84E1B" d="M115.259,139.291c2.711-1.006,5.546-2.835,9.118-2.399c2.05,0.252,3.611,1.999,5.278,0.961
		C127.832,131.689,116.61,134.506,115.259,139.291z"/>
	<path fill="#E84E1B" d="M161.807,136.891c0.962-0.236,2.106-0.295,3.358-0.241C165.108,135.518,161.4,134.973,161.807,136.891z"/>
	<path fill="#E84E1B" d="M107.823,137.612c2.106,0.08,4.423,1.137,5.998,0.96C113.682,136.428,108.848,135.955,107.823,137.612z"/>
	<path fill="#E84E1B" d="M162.768,138.331c-0.392,0.962,1.485,1.487,2.397,1.92C165.113,138.96,163.609,138.061,162.768,138.331z"/>
	<path fill="#E84E1B" d="M108.063,140.969c1.236-0.678,3.966,0.132,4.558-1.2C111.369,138.65,108.352,139.566,108.063,140.969z"/>
	<path fill="#E84E1B" d="M109.263,145.048c0.572-1.504,2.212-1.946,2.878-3.359C110.418,140.88,108.103,143.761,109.263,145.048z"/>
	<path fill="#E84E1B" d="M142.132,144.807c-0.208-4.649-8.774-3.919-6.236,1.202C138.063,144.11,139.116,142.891,142.132,144.807z"
		/>
	<path fill="#E84E1B" d="M154.13,169.283c-0.745-1.229-1.523-3.05-1.683-4.799c-0.497-5.527,2.939-9.646,5.521-13.195
		c-4.353,0.611-6.158,5.834-8.156,9.599c-5.261-1.72-11.552,0.632-14.879,3.118c-1.348-2.892-3.2-5.276-6.238-6.477
		c0.856,3.395,4.479,6.266,5.038,11.033c0.274,2.329-0.624,4.641-0.238,7.2c2.274-1.615,2.638-5.979,2.159-9.597
		c3.273-2.201,9.599-4.141,14.158-2.162c0.173,5.916,3.417,9.998,8.396,10.32C157.639,172.251,155.328,171.261,154.13,169.283z"/>
	<path fill="#E84E1B" d="M139.973,171.923c1.657-0.291,3.748-0.786,5.519-0.239C145.199,169.597,140.081,169.74,139.973,171.923z"/>
</g>
</svg>
